G04 MADE WITH FRITZING*
G04 WWW.FRITZING.ORG*
G04 DOUBLE SIDED*
G04 HOLES PLATED*
G04 CONTOUR ON CENTER OF CONTOUR VECTOR*
%ASAXBY*%
%FSLAX23Y23*%
%MOIN*%
%OFA0B0*%
%SFA1.0B1.0*%
%ADD10C,0.099583*%
%ADD11C,0.074000*%
%ADD12C,0.075000*%
%ADD13C,0.070000*%
%ADD14C,0.082000*%
%ADD15R,0.075000X0.075000*%
%ADD16R,0.082000X0.082000*%
%ADD17C,0.048000*%
%ADD18R,0.001000X0.001000*%
%LNCOPPER0*%
G90*
G70*
G54D10*
X1100Y1096D03*
X1100Y1296D03*
X1100Y196D03*
X1100Y396D03*
G54D11*
X199Y1096D03*
X199Y1196D03*
X199Y1296D03*
X199Y196D03*
X199Y296D03*
X199Y396D03*
G54D12*
X950Y596D03*
X650Y596D03*
X950Y696D03*
X650Y696D03*
X950Y796D03*
X650Y796D03*
X950Y896D03*
X650Y896D03*
G54D13*
X800Y1296D03*
X800Y1096D03*
G54D14*
X350Y896D03*
X350Y598D03*
G54D13*
X800Y396D03*
X800Y196D03*
G54D12*
X500Y1296D03*
X500Y896D03*
X500Y196D03*
X500Y596D03*
G54D15*
X950Y596D03*
G54D16*
X350Y897D03*
G54D17*
X1101Y796D02*
X1100Y1067D01*
D02*
X968Y796D02*
X1101Y796D01*
D02*
X500Y796D02*
X500Y879D01*
D02*
X633Y796D02*
X500Y796D01*
D02*
X951Y395D02*
X1071Y396D01*
D02*
X1200Y395D02*
X1129Y396D01*
D02*
X1200Y1296D02*
X1200Y395D01*
D02*
X1129Y1296D02*
X1200Y1296D01*
D02*
X815Y1296D02*
X1071Y1296D01*
D02*
X500Y696D02*
X500Y614D01*
D02*
X633Y696D02*
X500Y696D01*
D02*
X483Y896D02*
X371Y896D01*
D02*
X950Y197D02*
X951Y395D01*
D02*
X951Y395D02*
X950Y579D01*
D02*
X815Y196D02*
X950Y197D01*
D02*
X800Y696D02*
X800Y796D01*
D02*
X800Y411D02*
X800Y696D01*
D02*
X650Y97D02*
X650Y579D01*
D02*
X1101Y97D02*
X650Y97D01*
D02*
X1100Y167D02*
X1101Y97D01*
D02*
X200Y97D02*
X200Y176D01*
D02*
X650Y97D02*
X200Y97D01*
D02*
X500Y296D02*
X219Y296D01*
D02*
X500Y214D02*
X500Y296D01*
D02*
X483Y596D02*
X371Y598D01*
D02*
X800Y897D02*
X800Y1081D01*
D02*
X668Y896D02*
X800Y897D01*
D02*
X201Y595D02*
X199Y1076D01*
D02*
X329Y598D02*
X201Y595D01*
D02*
X500Y1196D02*
X219Y1196D01*
D02*
X500Y1279D02*
X500Y1196D01*
D02*
X950Y1196D02*
X950Y914D01*
D02*
X600Y1196D02*
X950Y1196D01*
D02*
X601Y1396D02*
X600Y1196D01*
D02*
X100Y1396D02*
X601Y1396D01*
D02*
X100Y97D02*
X100Y1396D01*
D02*
X200Y97D02*
X100Y97D01*
G54D18*
X646Y820D02*
X805Y820D01*
X642Y819D02*
X808Y819D01*
X640Y818D02*
X810Y818D01*
X638Y817D02*
X812Y817D01*
X637Y816D02*
X814Y816D01*
X635Y815D02*
X815Y815D01*
X634Y814D02*
X816Y814D01*
X633Y813D02*
X817Y813D01*
X632Y812D02*
X818Y812D01*
X631Y811D02*
X819Y811D01*
X631Y810D02*
X819Y810D01*
X630Y809D02*
X820Y809D01*
X630Y808D02*
X821Y808D01*
X629Y807D02*
X821Y807D01*
X628Y806D02*
X822Y806D01*
X628Y805D02*
X822Y805D01*
X628Y804D02*
X822Y804D01*
X628Y803D02*
X823Y803D01*
X627Y802D02*
X823Y802D01*
X627Y801D02*
X823Y801D01*
X627Y800D02*
X823Y800D01*
X627Y799D02*
X823Y799D01*
X627Y798D02*
X824Y798D01*
X627Y797D02*
X824Y797D01*
X627Y796D02*
X824Y796D01*
X627Y795D02*
X824Y795D01*
X627Y794D02*
X823Y794D01*
X627Y793D02*
X823Y793D01*
X627Y792D02*
X823Y792D01*
X627Y791D02*
X823Y791D01*
X628Y790D02*
X823Y790D01*
X628Y789D02*
X822Y789D01*
X628Y788D02*
X822Y788D01*
X629Y787D02*
X822Y787D01*
X629Y786D02*
X821Y786D01*
X630Y785D02*
X820Y785D01*
X630Y784D02*
X820Y784D01*
X631Y783D02*
X819Y783D01*
X632Y782D02*
X819Y782D01*
X632Y781D02*
X818Y781D01*
X633Y780D02*
X817Y780D01*
X634Y779D02*
X816Y779D01*
X635Y778D02*
X815Y778D01*
X637Y777D02*
X813Y777D01*
X638Y776D02*
X812Y776D01*
X640Y775D02*
X810Y775D01*
X642Y774D02*
X807Y774D01*
X646Y773D02*
X804Y773D01*
X797Y720D02*
X954Y720D01*
X793Y719D02*
X957Y719D01*
X790Y718D02*
X960Y718D01*
X789Y717D02*
X962Y717D01*
X787Y716D02*
X963Y716D01*
X786Y715D02*
X964Y715D01*
X785Y714D02*
X966Y714D01*
X783Y713D02*
X967Y713D01*
X783Y712D02*
X967Y712D01*
X782Y711D02*
X968Y711D01*
X781Y710D02*
X969Y710D01*
X780Y709D02*
X970Y709D01*
X780Y708D02*
X970Y708D01*
X779Y707D02*
X971Y707D01*
X779Y706D02*
X971Y706D01*
X778Y705D02*
X972Y705D01*
X778Y704D02*
X972Y704D01*
X778Y703D02*
X972Y703D01*
X777Y702D02*
X973Y702D01*
X777Y701D02*
X973Y701D01*
X777Y700D02*
X973Y700D01*
X777Y699D02*
X973Y699D01*
X777Y698D02*
X973Y698D01*
X777Y697D02*
X973Y697D01*
X777Y696D02*
X973Y696D01*
X777Y695D02*
X973Y695D01*
X777Y694D02*
X973Y694D01*
X777Y693D02*
X973Y693D01*
X777Y692D02*
X973Y692D01*
X777Y691D02*
X973Y691D01*
X778Y690D02*
X972Y690D01*
X778Y689D02*
X972Y689D01*
X778Y688D02*
X972Y688D01*
X779Y687D02*
X971Y687D01*
X779Y686D02*
X971Y686D01*
X780Y685D02*
X970Y685D01*
X780Y684D02*
X970Y684D01*
X781Y683D02*
X969Y683D01*
X781Y682D02*
X968Y682D01*
X782Y681D02*
X967Y681D01*
X783Y680D02*
X967Y680D01*
X784Y679D02*
X966Y679D01*
X785Y678D02*
X964Y678D01*
X786Y677D02*
X963Y677D01*
X788Y676D02*
X962Y676D01*
X790Y675D02*
X960Y675D01*
X792Y674D02*
X957Y674D01*
X795Y673D02*
X954Y673D01*
D02*
G04 End of Copper0*
M02*