; NON-PLATED HOLES START AT T1
; THROUGH (PLATED) HOLES START AT T100
M48
INCH
T100C0.057917
T101C0.030000
T102C0.040000
T103C0.035000
T104C0.042000
%
T100
X010999Y010960
X010999Y001960
X011000Y012960
X011000Y003960
T101
X008000Y010960
X008000Y001960
X008000Y003960
X008000Y012960
T102
X001992Y012962
X001994Y001960
X001992Y010962
X001992Y011962
X001994Y002960
X001994Y003960
T103
X005000Y005960
X009500Y005960
X009500Y006960
X006500Y007960
X005000Y001960
X006500Y008960
X009500Y007960
X005000Y008960
X009500Y008960
X006500Y005960
X006500Y006960
X005000Y012960
T104
X003500Y005980
X003500Y008960
T00
M30
