G04 MADE WITH FRITZING*
G04 WWW.FRITZING.ORG*
G04 DOUBLE SIDED*
G04 HOLES PLATED*
G04 CONTOUR ON CENTER OF CONTOUR VECTOR*
%ASAXBY*%
%FSLAX23Y23*%
%MOIN*%
%OFA0B0*%
%SFA1.0B1.0*%
%ADD10C,0.006944*%
%ADD11C,0.013889*%
%ADD12C,0.009722*%
%ADD13C,0.010000*%
%ADD14C,0.020000*%
%ADD15R,0.001000X0.001000*%
%LNSILK1*%
G90*
G70*
G54D10*
X946Y996D02*
X946Y1396D01*
D02*
X1254Y996D02*
X946Y996D01*
D02*
X1254Y1396D02*
X982Y1396D01*
D02*
X1254Y1135D02*
X1254Y1257D01*
D02*
X1254Y1335D02*
X1254Y1396D01*
D02*
X1254Y996D02*
X1254Y1057D01*
D02*
X946Y1396D02*
X958Y1396D01*
G54D11*
D02*
X958Y988D02*
X982Y988D01*
G54D10*
D02*
X946Y96D02*
X946Y496D01*
D02*
X1254Y96D02*
X946Y96D01*
D02*
X1254Y496D02*
X982Y496D01*
D02*
X1254Y235D02*
X1254Y357D01*
D02*
X1254Y435D02*
X1254Y496D01*
D02*
X1254Y96D02*
X1254Y157D01*
D02*
X946Y496D02*
X958Y496D01*
G54D11*
D02*
X958Y88D02*
X982Y88D01*
G54D12*
D02*
X298Y1009D02*
X298Y1383D01*
D02*
X298Y1383D02*
X101Y1383D01*
D02*
X101Y1383D02*
X101Y1009D01*
D02*
X101Y1009D02*
X298Y1009D01*
D02*
X298Y109D02*
X298Y483D01*
D02*
X298Y483D02*
X101Y483D01*
D02*
X101Y483D02*
X101Y109D01*
D02*
X101Y109D02*
X298Y109D01*
G54D13*
D02*
X1000Y546D02*
X1000Y946D01*
X1000Y946D02*
X600Y946D01*
X600Y946D02*
X600Y546D01*
D02*
X1000Y546D02*
X850Y546D01*
D02*
X750Y546D02*
X600Y546D01*
D02*
X395Y842D02*
X395Y647D01*
D02*
X305Y647D02*
X305Y842D01*
X305Y842D02*
X395Y842D01*
G54D14*
D02*
X305Y822D02*
X395Y822D01*
G54D13*
D02*
X533Y1187D02*
X533Y987D01*
D02*
X533Y987D02*
X467Y987D01*
D02*
X467Y987D02*
X467Y1187D01*
D02*
X467Y1187D02*
X533Y1187D01*
D02*
X467Y306D02*
X467Y506D01*
D02*
X467Y506D02*
X533Y506D01*
D02*
X533Y506D02*
X533Y306D01*
D02*
X533Y306D02*
X467Y306D01*
G54D15*
X1Y1496D02*
X1298Y1496D01*
X1Y1495D02*
X1298Y1495D01*
X1Y1494D02*
X1298Y1494D01*
X1Y1493D02*
X1298Y1493D01*
X1Y1492D02*
X1298Y1492D01*
X1Y1491D02*
X1298Y1491D01*
X1Y1490D02*
X1298Y1490D01*
X1Y1489D02*
X1298Y1489D01*
X1Y1488D02*
X8Y1488D01*
X1291Y1488D02*
X1298Y1488D01*
X1Y1487D02*
X8Y1487D01*
X1291Y1487D02*
X1298Y1487D01*
X1Y1486D02*
X8Y1486D01*
X1291Y1486D02*
X1298Y1486D01*
X1Y1485D02*
X8Y1485D01*
X1291Y1485D02*
X1298Y1485D01*
X1Y1484D02*
X8Y1484D01*
X1291Y1484D02*
X1298Y1484D01*
X1Y1483D02*
X8Y1483D01*
X1291Y1483D02*
X1298Y1483D01*
X1Y1482D02*
X8Y1482D01*
X1291Y1482D02*
X1298Y1482D01*
X1Y1481D02*
X8Y1481D01*
X1291Y1481D02*
X1298Y1481D01*
X1Y1480D02*
X8Y1480D01*
X1291Y1480D02*
X1298Y1480D01*
X1Y1479D02*
X8Y1479D01*
X1291Y1479D02*
X1298Y1479D01*
X1Y1478D02*
X8Y1478D01*
X1291Y1478D02*
X1298Y1478D01*
X1Y1477D02*
X8Y1477D01*
X1291Y1477D02*
X1298Y1477D01*
X1Y1476D02*
X8Y1476D01*
X1291Y1476D02*
X1298Y1476D01*
X1Y1475D02*
X8Y1475D01*
X1291Y1475D02*
X1298Y1475D01*
X1Y1474D02*
X8Y1474D01*
X1291Y1474D02*
X1298Y1474D01*
X1Y1473D02*
X8Y1473D01*
X1291Y1473D02*
X1298Y1473D01*
X1Y1472D02*
X8Y1472D01*
X1291Y1472D02*
X1298Y1472D01*
X1Y1471D02*
X8Y1471D01*
X1291Y1471D02*
X1298Y1471D01*
X1Y1470D02*
X8Y1470D01*
X1291Y1470D02*
X1298Y1470D01*
X1Y1469D02*
X8Y1469D01*
X1291Y1469D02*
X1298Y1469D01*
X1Y1468D02*
X8Y1468D01*
X1291Y1468D02*
X1298Y1468D01*
X1Y1467D02*
X8Y1467D01*
X1291Y1467D02*
X1298Y1467D01*
X1Y1466D02*
X8Y1466D01*
X1291Y1466D02*
X1298Y1466D01*
X1Y1465D02*
X8Y1465D01*
X1291Y1465D02*
X1298Y1465D01*
X1Y1464D02*
X8Y1464D01*
X1291Y1464D02*
X1298Y1464D01*
X1Y1463D02*
X8Y1463D01*
X1291Y1463D02*
X1298Y1463D01*
X1Y1462D02*
X8Y1462D01*
X1291Y1462D02*
X1298Y1462D01*
X1Y1461D02*
X8Y1461D01*
X1291Y1461D02*
X1298Y1461D01*
X1Y1460D02*
X8Y1460D01*
X1291Y1460D02*
X1298Y1460D01*
X1Y1459D02*
X8Y1459D01*
X1291Y1459D02*
X1298Y1459D01*
X1Y1458D02*
X8Y1458D01*
X1291Y1458D02*
X1298Y1458D01*
X1Y1457D02*
X8Y1457D01*
X1291Y1457D02*
X1298Y1457D01*
X1Y1456D02*
X8Y1456D01*
X1291Y1456D02*
X1298Y1456D01*
X1Y1455D02*
X8Y1455D01*
X1291Y1455D02*
X1298Y1455D01*
X1Y1454D02*
X8Y1454D01*
X1291Y1454D02*
X1298Y1454D01*
X1Y1453D02*
X8Y1453D01*
X1291Y1453D02*
X1298Y1453D01*
X1Y1452D02*
X8Y1452D01*
X1291Y1452D02*
X1298Y1452D01*
X1Y1451D02*
X8Y1451D01*
X1291Y1451D02*
X1298Y1451D01*
X1Y1450D02*
X8Y1450D01*
X1291Y1450D02*
X1298Y1450D01*
X1Y1449D02*
X8Y1449D01*
X1291Y1449D02*
X1298Y1449D01*
X1Y1448D02*
X8Y1448D01*
X1291Y1448D02*
X1298Y1448D01*
X1Y1447D02*
X8Y1447D01*
X1291Y1447D02*
X1298Y1447D01*
X1Y1446D02*
X8Y1446D01*
X1291Y1446D02*
X1298Y1446D01*
X1Y1445D02*
X8Y1445D01*
X1291Y1445D02*
X1298Y1445D01*
X1Y1444D02*
X8Y1444D01*
X1291Y1444D02*
X1298Y1444D01*
X1Y1443D02*
X8Y1443D01*
X1291Y1443D02*
X1298Y1443D01*
X1Y1442D02*
X8Y1442D01*
X1291Y1442D02*
X1298Y1442D01*
X1Y1441D02*
X8Y1441D01*
X1291Y1441D02*
X1298Y1441D01*
X1Y1440D02*
X8Y1440D01*
X1291Y1440D02*
X1298Y1440D01*
X1Y1439D02*
X8Y1439D01*
X1291Y1439D02*
X1298Y1439D01*
X1Y1438D02*
X8Y1438D01*
X1291Y1438D02*
X1298Y1438D01*
X1Y1437D02*
X8Y1437D01*
X1291Y1437D02*
X1298Y1437D01*
X1Y1436D02*
X8Y1436D01*
X1291Y1436D02*
X1298Y1436D01*
X1Y1435D02*
X8Y1435D01*
X1291Y1435D02*
X1298Y1435D01*
X1Y1434D02*
X8Y1434D01*
X1291Y1434D02*
X1298Y1434D01*
X1Y1433D02*
X8Y1433D01*
X1291Y1433D02*
X1298Y1433D01*
X1Y1432D02*
X8Y1432D01*
X1291Y1432D02*
X1298Y1432D01*
X1Y1431D02*
X8Y1431D01*
X1291Y1431D02*
X1298Y1431D01*
X1Y1430D02*
X8Y1430D01*
X1291Y1430D02*
X1298Y1430D01*
X1Y1429D02*
X8Y1429D01*
X1291Y1429D02*
X1298Y1429D01*
X1Y1428D02*
X8Y1428D01*
X1291Y1428D02*
X1298Y1428D01*
X1Y1427D02*
X8Y1427D01*
X1291Y1427D02*
X1298Y1427D01*
X1Y1426D02*
X8Y1426D01*
X1291Y1426D02*
X1298Y1426D01*
X1Y1425D02*
X8Y1425D01*
X1291Y1425D02*
X1298Y1425D01*
X1Y1424D02*
X8Y1424D01*
X1291Y1424D02*
X1298Y1424D01*
X1Y1423D02*
X8Y1423D01*
X1291Y1423D02*
X1298Y1423D01*
X1Y1422D02*
X8Y1422D01*
X1291Y1422D02*
X1298Y1422D01*
X1Y1421D02*
X8Y1421D01*
X1291Y1421D02*
X1298Y1421D01*
X1Y1420D02*
X8Y1420D01*
X1291Y1420D02*
X1298Y1420D01*
X1Y1419D02*
X8Y1419D01*
X1291Y1419D02*
X1298Y1419D01*
X1Y1418D02*
X8Y1418D01*
X1291Y1418D02*
X1298Y1418D01*
X1Y1417D02*
X8Y1417D01*
X1291Y1417D02*
X1298Y1417D01*
X1Y1416D02*
X8Y1416D01*
X1291Y1416D02*
X1298Y1416D01*
X1Y1415D02*
X8Y1415D01*
X1291Y1415D02*
X1298Y1415D01*
X1Y1414D02*
X8Y1414D01*
X1291Y1414D02*
X1298Y1414D01*
X1Y1413D02*
X8Y1413D01*
X1291Y1413D02*
X1298Y1413D01*
X1Y1412D02*
X8Y1412D01*
X1291Y1412D02*
X1298Y1412D01*
X1Y1411D02*
X8Y1411D01*
X1291Y1411D02*
X1298Y1411D01*
X1Y1410D02*
X8Y1410D01*
X1291Y1410D02*
X1298Y1410D01*
X1Y1409D02*
X8Y1409D01*
X1291Y1409D02*
X1298Y1409D01*
X1Y1408D02*
X8Y1408D01*
X1291Y1408D02*
X1298Y1408D01*
X1Y1407D02*
X8Y1407D01*
X1291Y1407D02*
X1298Y1407D01*
X1Y1406D02*
X8Y1406D01*
X1291Y1406D02*
X1298Y1406D01*
X1Y1405D02*
X8Y1405D01*
X708Y1405D02*
X714Y1405D01*
X1291Y1405D02*
X1298Y1405D01*
X1Y1404D02*
X8Y1404D01*
X705Y1404D02*
X717Y1404D01*
X1291Y1404D02*
X1298Y1404D01*
X1Y1403D02*
X8Y1403D01*
X703Y1403D02*
X719Y1403D01*
X1291Y1403D02*
X1298Y1403D01*
X1Y1402D02*
X8Y1402D01*
X701Y1402D02*
X721Y1402D01*
X1291Y1402D02*
X1298Y1402D01*
X1Y1401D02*
X8Y1401D01*
X699Y1401D02*
X723Y1401D01*
X1291Y1401D02*
X1298Y1401D01*
X1Y1400D02*
X8Y1400D01*
X697Y1400D02*
X725Y1400D01*
X1291Y1400D02*
X1298Y1400D01*
X1Y1399D02*
X8Y1399D01*
X695Y1399D02*
X727Y1399D01*
X1291Y1399D02*
X1298Y1399D01*
X1Y1398D02*
X8Y1398D01*
X693Y1398D02*
X708Y1398D01*
X714Y1398D02*
X729Y1398D01*
X1291Y1398D02*
X1298Y1398D01*
X1Y1397D02*
X8Y1397D01*
X691Y1397D02*
X705Y1397D01*
X717Y1397D02*
X731Y1397D01*
X1291Y1397D02*
X1298Y1397D01*
X1Y1396D02*
X8Y1396D01*
X689Y1396D02*
X704Y1396D01*
X719Y1396D02*
X733Y1396D01*
X1291Y1396D02*
X1298Y1396D01*
X1Y1395D02*
X8Y1395D01*
X688Y1395D02*
X702Y1395D01*
X721Y1395D02*
X734Y1395D01*
X1291Y1395D02*
X1298Y1395D01*
X1Y1394D02*
X8Y1394D01*
X687Y1394D02*
X700Y1394D01*
X723Y1394D02*
X735Y1394D01*
X1291Y1394D02*
X1298Y1394D01*
X1Y1393D02*
X8Y1393D01*
X686Y1393D02*
X698Y1393D01*
X725Y1393D02*
X736Y1393D01*
X1291Y1393D02*
X1298Y1393D01*
X1Y1392D02*
X8Y1392D01*
X686Y1392D02*
X696Y1392D01*
X727Y1392D02*
X737Y1392D01*
X1291Y1392D02*
X1298Y1392D01*
X1Y1391D02*
X8Y1391D01*
X685Y1391D02*
X694Y1391D01*
X729Y1391D02*
X737Y1391D01*
X1291Y1391D02*
X1298Y1391D01*
X1Y1390D02*
X8Y1390D01*
X685Y1390D02*
X692Y1390D01*
X730Y1390D02*
X737Y1390D01*
X1291Y1390D02*
X1298Y1390D01*
X1Y1389D02*
X8Y1389D01*
X685Y1389D02*
X691Y1389D01*
X731Y1389D02*
X737Y1389D01*
X1291Y1389D02*
X1298Y1389D01*
X1Y1388D02*
X8Y1388D01*
X685Y1388D02*
X691Y1388D01*
X732Y1388D02*
X738Y1388D01*
X1291Y1388D02*
X1298Y1388D01*
X1Y1387D02*
X8Y1387D01*
X685Y1387D02*
X691Y1387D01*
X732Y1387D02*
X738Y1387D01*
X1291Y1387D02*
X1298Y1387D01*
X1Y1386D02*
X8Y1386D01*
X685Y1386D02*
X691Y1386D01*
X732Y1386D02*
X738Y1386D01*
X1291Y1386D02*
X1298Y1386D01*
X1Y1385D02*
X8Y1385D01*
X685Y1385D02*
X691Y1385D01*
X732Y1385D02*
X738Y1385D01*
X1291Y1385D02*
X1298Y1385D01*
X1Y1384D02*
X8Y1384D01*
X685Y1384D02*
X691Y1384D01*
X732Y1384D02*
X738Y1384D01*
X1291Y1384D02*
X1298Y1384D01*
X1Y1383D02*
X8Y1383D01*
X685Y1383D02*
X691Y1383D01*
X732Y1383D02*
X738Y1383D01*
X1291Y1383D02*
X1298Y1383D01*
X1Y1382D02*
X8Y1382D01*
X685Y1382D02*
X691Y1382D01*
X732Y1382D02*
X738Y1382D01*
X1291Y1382D02*
X1298Y1382D01*
X1Y1381D02*
X8Y1381D01*
X685Y1381D02*
X691Y1381D01*
X732Y1381D02*
X738Y1381D01*
X1291Y1381D02*
X1298Y1381D01*
X1Y1380D02*
X8Y1380D01*
X685Y1380D02*
X691Y1380D01*
X732Y1380D02*
X738Y1380D01*
X1291Y1380D02*
X1298Y1380D01*
X1Y1379D02*
X8Y1379D01*
X685Y1379D02*
X691Y1379D01*
X732Y1379D02*
X738Y1379D01*
X1291Y1379D02*
X1298Y1379D01*
X1Y1378D02*
X8Y1378D01*
X685Y1378D02*
X691Y1378D01*
X732Y1378D02*
X738Y1378D01*
X1291Y1378D02*
X1298Y1378D01*
X1Y1377D02*
X8Y1377D01*
X685Y1377D02*
X691Y1377D01*
X732Y1377D02*
X738Y1377D01*
X1291Y1377D02*
X1298Y1377D01*
X1Y1376D02*
X8Y1376D01*
X685Y1376D02*
X691Y1376D01*
X732Y1376D02*
X738Y1376D01*
X1291Y1376D02*
X1298Y1376D01*
X1Y1375D02*
X8Y1375D01*
X685Y1375D02*
X691Y1375D01*
X732Y1375D02*
X738Y1375D01*
X1291Y1375D02*
X1298Y1375D01*
X1Y1374D02*
X8Y1374D01*
X685Y1374D02*
X690Y1374D01*
X732Y1374D02*
X738Y1374D01*
X1291Y1374D02*
X1298Y1374D01*
X1Y1373D02*
X8Y1373D01*
X685Y1373D02*
X690Y1373D01*
X732Y1373D02*
X737Y1373D01*
X1291Y1373D02*
X1298Y1373D01*
X1Y1372D02*
X8Y1372D01*
X686Y1372D02*
X690Y1372D01*
X733Y1372D02*
X737Y1372D01*
X1291Y1372D02*
X1298Y1372D01*
X1Y1371D02*
X8Y1371D01*
X687Y1371D02*
X688Y1371D01*
X735Y1371D02*
X735Y1371D01*
X1291Y1371D02*
X1298Y1371D01*
X1Y1370D02*
X8Y1370D01*
X1291Y1370D02*
X1298Y1370D01*
X1Y1369D02*
X8Y1369D01*
X1291Y1369D02*
X1298Y1369D01*
X1Y1368D02*
X8Y1368D01*
X1291Y1368D02*
X1298Y1368D01*
X1Y1367D02*
X8Y1367D01*
X1291Y1367D02*
X1298Y1367D01*
X1Y1366D02*
X8Y1366D01*
X1291Y1366D02*
X1298Y1366D01*
X1Y1365D02*
X8Y1365D01*
X1291Y1365D02*
X1298Y1365D01*
X1Y1364D02*
X8Y1364D01*
X1291Y1364D02*
X1298Y1364D01*
X1Y1363D02*
X8Y1363D01*
X1291Y1363D02*
X1298Y1363D01*
X1Y1362D02*
X8Y1362D01*
X1291Y1362D02*
X1298Y1362D01*
X1Y1361D02*
X8Y1361D01*
X1291Y1361D02*
X1298Y1361D01*
X1Y1360D02*
X8Y1360D01*
X1291Y1360D02*
X1298Y1360D01*
X1Y1359D02*
X8Y1359D01*
X1291Y1359D02*
X1298Y1359D01*
X1Y1358D02*
X8Y1358D01*
X1291Y1358D02*
X1298Y1358D01*
X1Y1357D02*
X8Y1357D01*
X1291Y1357D02*
X1298Y1357D01*
X1Y1356D02*
X8Y1356D01*
X1291Y1356D02*
X1298Y1356D01*
X1Y1355D02*
X8Y1355D01*
X1291Y1355D02*
X1298Y1355D01*
X1Y1354D02*
X8Y1354D01*
X1291Y1354D02*
X1298Y1354D01*
X1Y1353D02*
X8Y1353D01*
X1291Y1353D02*
X1298Y1353D01*
X1Y1352D02*
X8Y1352D01*
X1291Y1352D02*
X1298Y1352D01*
X1Y1351D02*
X8Y1351D01*
X1291Y1351D02*
X1298Y1351D01*
X1Y1350D02*
X8Y1350D01*
X1291Y1350D02*
X1298Y1350D01*
X1Y1349D02*
X8Y1349D01*
X1291Y1349D02*
X1298Y1349D01*
X1Y1348D02*
X8Y1348D01*
X1291Y1348D02*
X1298Y1348D01*
X1Y1347D02*
X8Y1347D01*
X1291Y1347D02*
X1298Y1347D01*
X1Y1346D02*
X8Y1346D01*
X1291Y1346D02*
X1298Y1346D01*
X1Y1345D02*
X8Y1345D01*
X1291Y1345D02*
X1298Y1345D01*
X1Y1344D02*
X8Y1344D01*
X1291Y1344D02*
X1298Y1344D01*
X1Y1343D02*
X8Y1343D01*
X1291Y1343D02*
X1298Y1343D01*
X1Y1342D02*
X8Y1342D01*
X1291Y1342D02*
X1298Y1342D01*
X1Y1341D02*
X8Y1341D01*
X1291Y1341D02*
X1298Y1341D01*
X1Y1340D02*
X8Y1340D01*
X1291Y1340D02*
X1298Y1340D01*
X1Y1339D02*
X8Y1339D01*
X1291Y1339D02*
X1298Y1339D01*
X1Y1338D02*
X8Y1338D01*
X1291Y1338D02*
X1298Y1338D01*
X1Y1337D02*
X8Y1337D01*
X1291Y1337D02*
X1298Y1337D01*
X1Y1336D02*
X8Y1336D01*
X1291Y1336D02*
X1298Y1336D01*
X1Y1335D02*
X8Y1335D01*
X1291Y1335D02*
X1298Y1335D01*
X1Y1334D02*
X8Y1334D01*
X1291Y1334D02*
X1298Y1334D01*
X1Y1333D02*
X8Y1333D01*
X1291Y1333D02*
X1298Y1333D01*
X1Y1332D02*
X8Y1332D01*
X1291Y1332D02*
X1298Y1332D01*
X1Y1331D02*
X8Y1331D01*
X1291Y1331D02*
X1298Y1331D01*
X1Y1330D02*
X8Y1330D01*
X1291Y1330D02*
X1298Y1330D01*
X1Y1329D02*
X8Y1329D01*
X1291Y1329D02*
X1298Y1329D01*
X1Y1328D02*
X8Y1328D01*
X1291Y1328D02*
X1298Y1328D01*
X1Y1327D02*
X8Y1327D01*
X1291Y1327D02*
X1298Y1327D01*
X1Y1326D02*
X8Y1326D01*
X1291Y1326D02*
X1298Y1326D01*
X1Y1325D02*
X8Y1325D01*
X1291Y1325D02*
X1298Y1325D01*
X1Y1324D02*
X8Y1324D01*
X1291Y1324D02*
X1298Y1324D01*
X1Y1323D02*
X8Y1323D01*
X1291Y1323D02*
X1298Y1323D01*
X1Y1322D02*
X8Y1322D01*
X1291Y1322D02*
X1298Y1322D01*
X1Y1321D02*
X8Y1321D01*
X1291Y1321D02*
X1298Y1321D01*
X1Y1320D02*
X8Y1320D01*
X1291Y1320D02*
X1298Y1320D01*
X1Y1319D02*
X8Y1319D01*
X1291Y1319D02*
X1298Y1319D01*
X1Y1318D02*
X8Y1318D01*
X1291Y1318D02*
X1298Y1318D01*
X1Y1317D02*
X8Y1317D01*
X1291Y1317D02*
X1298Y1317D01*
X1Y1316D02*
X8Y1316D01*
X1291Y1316D02*
X1298Y1316D01*
X1Y1315D02*
X8Y1315D01*
X1291Y1315D02*
X1298Y1315D01*
X1Y1314D02*
X8Y1314D01*
X1291Y1314D02*
X1298Y1314D01*
X1Y1313D02*
X8Y1313D01*
X1291Y1313D02*
X1298Y1313D01*
X1Y1312D02*
X8Y1312D01*
X1291Y1312D02*
X1298Y1312D01*
X1Y1311D02*
X8Y1311D01*
X1291Y1311D02*
X1298Y1311D01*
X1Y1310D02*
X8Y1310D01*
X1291Y1310D02*
X1298Y1310D01*
X1Y1309D02*
X8Y1309D01*
X1291Y1309D02*
X1298Y1309D01*
X1Y1308D02*
X8Y1308D01*
X1291Y1308D02*
X1298Y1308D01*
X1Y1307D02*
X8Y1307D01*
X1291Y1307D02*
X1298Y1307D01*
X1Y1306D02*
X8Y1306D01*
X1291Y1306D02*
X1298Y1306D01*
X1Y1305D02*
X8Y1305D01*
X1291Y1305D02*
X1298Y1305D01*
X1Y1304D02*
X8Y1304D01*
X1291Y1304D02*
X1298Y1304D01*
X1Y1303D02*
X8Y1303D01*
X1291Y1303D02*
X1298Y1303D01*
X1Y1302D02*
X8Y1302D01*
X686Y1302D02*
X689Y1302D01*
X733Y1302D02*
X736Y1302D01*
X1291Y1302D02*
X1298Y1302D01*
X1Y1301D02*
X8Y1301D01*
X685Y1301D02*
X690Y1301D01*
X732Y1301D02*
X737Y1301D01*
X1291Y1301D02*
X1298Y1301D01*
X1Y1300D02*
X8Y1300D01*
X685Y1300D02*
X690Y1300D01*
X732Y1300D02*
X738Y1300D01*
X1291Y1300D02*
X1298Y1300D01*
X1Y1299D02*
X8Y1299D01*
X685Y1299D02*
X691Y1299D01*
X732Y1299D02*
X738Y1299D01*
X1291Y1299D02*
X1298Y1299D01*
X1Y1298D02*
X8Y1298D01*
X685Y1298D02*
X691Y1298D01*
X732Y1298D02*
X738Y1298D01*
X1291Y1298D02*
X1298Y1298D01*
X1Y1297D02*
X8Y1297D01*
X685Y1297D02*
X691Y1297D01*
X732Y1297D02*
X738Y1297D01*
X1291Y1297D02*
X1298Y1297D01*
X1Y1296D02*
X8Y1296D01*
X685Y1296D02*
X691Y1296D01*
X732Y1296D02*
X738Y1296D01*
X1291Y1296D02*
X1298Y1296D01*
X1Y1295D02*
X8Y1295D01*
X685Y1295D02*
X691Y1295D01*
X732Y1295D02*
X738Y1295D01*
X1291Y1295D02*
X1298Y1295D01*
X1Y1294D02*
X8Y1294D01*
X685Y1294D02*
X691Y1294D01*
X732Y1294D02*
X738Y1294D01*
X1291Y1294D02*
X1298Y1294D01*
X1Y1293D02*
X8Y1293D01*
X685Y1293D02*
X691Y1293D01*
X732Y1293D02*
X738Y1293D01*
X1291Y1293D02*
X1298Y1293D01*
X1Y1292D02*
X8Y1292D01*
X685Y1292D02*
X691Y1292D01*
X732Y1292D02*
X738Y1292D01*
X1291Y1292D02*
X1298Y1292D01*
X1Y1291D02*
X8Y1291D01*
X685Y1291D02*
X691Y1291D01*
X732Y1291D02*
X738Y1291D01*
X1291Y1291D02*
X1298Y1291D01*
X1Y1290D02*
X8Y1290D01*
X685Y1290D02*
X691Y1290D01*
X732Y1290D02*
X738Y1290D01*
X1291Y1290D02*
X1298Y1290D01*
X1Y1289D02*
X8Y1289D01*
X685Y1289D02*
X738Y1289D01*
X1291Y1289D02*
X1298Y1289D01*
X1Y1288D02*
X8Y1288D01*
X685Y1288D02*
X738Y1288D01*
X1291Y1288D02*
X1298Y1288D01*
X1Y1287D02*
X8Y1287D01*
X685Y1287D02*
X738Y1287D01*
X1291Y1287D02*
X1298Y1287D01*
X1Y1286D02*
X8Y1286D01*
X685Y1286D02*
X738Y1286D01*
X1291Y1286D02*
X1298Y1286D01*
X1Y1285D02*
X8Y1285D01*
X685Y1285D02*
X738Y1285D01*
X1291Y1285D02*
X1298Y1285D01*
X1Y1284D02*
X8Y1284D01*
X685Y1284D02*
X738Y1284D01*
X1291Y1284D02*
X1298Y1284D01*
X1Y1283D02*
X8Y1283D01*
X685Y1283D02*
X738Y1283D01*
X1291Y1283D02*
X1298Y1283D01*
X1Y1282D02*
X8Y1282D01*
X685Y1282D02*
X736Y1282D01*
X1291Y1282D02*
X1298Y1282D01*
X1Y1281D02*
X8Y1281D01*
X685Y1281D02*
X691Y1281D01*
X1291Y1281D02*
X1298Y1281D01*
X1Y1280D02*
X8Y1280D01*
X685Y1280D02*
X691Y1280D01*
X1291Y1280D02*
X1298Y1280D01*
X1Y1279D02*
X8Y1279D01*
X685Y1279D02*
X691Y1279D01*
X1291Y1279D02*
X1298Y1279D01*
X1Y1278D02*
X8Y1278D01*
X685Y1278D02*
X691Y1278D01*
X1291Y1278D02*
X1298Y1278D01*
X1Y1277D02*
X8Y1277D01*
X685Y1277D02*
X691Y1277D01*
X1291Y1277D02*
X1298Y1277D01*
X1Y1276D02*
X8Y1276D01*
X685Y1276D02*
X691Y1276D01*
X1291Y1276D02*
X1298Y1276D01*
X1Y1275D02*
X8Y1275D01*
X685Y1275D02*
X702Y1275D01*
X1291Y1275D02*
X1298Y1275D01*
X1Y1274D02*
X8Y1274D01*
X685Y1274D02*
X704Y1274D01*
X1291Y1274D02*
X1298Y1274D01*
X1Y1273D02*
X8Y1273D01*
X685Y1273D02*
X704Y1273D01*
X1291Y1273D02*
X1298Y1273D01*
X1Y1272D02*
X8Y1272D01*
X447Y1272D02*
X447Y1272D01*
X685Y1272D02*
X704Y1272D01*
X1291Y1272D02*
X1298Y1272D01*
X1Y1271D02*
X8Y1271D01*
X418Y1271D02*
X450Y1271D01*
X685Y1271D02*
X704Y1271D01*
X1291Y1271D02*
X1298Y1271D01*
X1Y1270D02*
X8Y1270D01*
X416Y1270D02*
X451Y1270D01*
X685Y1270D02*
X704Y1270D01*
X1291Y1270D02*
X1298Y1270D01*
X1Y1269D02*
X8Y1269D01*
X415Y1269D02*
X451Y1269D01*
X686Y1269D02*
X703Y1269D01*
X1291Y1269D02*
X1298Y1269D01*
X1Y1268D02*
X8Y1268D01*
X414Y1268D02*
X451Y1268D01*
X1291Y1268D02*
X1298Y1268D01*
X1Y1267D02*
X8Y1267D01*
X414Y1267D02*
X451Y1267D01*
X1291Y1267D02*
X1298Y1267D01*
X1Y1266D02*
X8Y1266D01*
X413Y1266D02*
X450Y1266D01*
X1291Y1266D02*
X1298Y1266D01*
X1Y1265D02*
X8Y1265D01*
X413Y1265D02*
X446Y1265D01*
X1291Y1265D02*
X1298Y1265D01*
X1Y1264D02*
X8Y1264D01*
X413Y1264D02*
X419Y1264D01*
X1291Y1264D02*
X1298Y1264D01*
X1Y1263D02*
X8Y1263D01*
X413Y1263D02*
X419Y1263D01*
X1291Y1263D02*
X1298Y1263D01*
X1Y1262D02*
X8Y1262D01*
X413Y1262D02*
X420Y1262D01*
X1291Y1262D02*
X1298Y1262D01*
X1Y1261D02*
X8Y1261D01*
X413Y1261D02*
X420Y1261D01*
X1291Y1261D02*
X1298Y1261D01*
X1Y1260D02*
X8Y1260D01*
X414Y1260D02*
X421Y1260D01*
X1291Y1260D02*
X1298Y1260D01*
X1Y1259D02*
X8Y1259D01*
X414Y1259D02*
X422Y1259D01*
X1291Y1259D02*
X1298Y1259D01*
X1Y1258D02*
X8Y1258D01*
X415Y1258D02*
X423Y1258D01*
X1291Y1258D02*
X1298Y1258D01*
X1Y1257D02*
X8Y1257D01*
X415Y1257D02*
X449Y1257D01*
X1291Y1257D02*
X1298Y1257D01*
X1Y1256D02*
X8Y1256D01*
X416Y1256D02*
X450Y1256D01*
X1291Y1256D02*
X1298Y1256D01*
X1Y1255D02*
X8Y1255D01*
X415Y1255D02*
X451Y1255D01*
X1291Y1255D02*
X1298Y1255D01*
X1Y1254D02*
X8Y1254D01*
X414Y1254D02*
X451Y1254D01*
X496Y1254D02*
X505Y1254D01*
X1291Y1254D02*
X1298Y1254D01*
X1Y1253D02*
X8Y1253D01*
X414Y1253D02*
X451Y1253D01*
X496Y1253D02*
X505Y1253D01*
X1291Y1253D02*
X1298Y1253D01*
X1Y1252D02*
X8Y1252D01*
X413Y1252D02*
X450Y1252D01*
X496Y1252D02*
X505Y1252D01*
X1291Y1252D02*
X1298Y1252D01*
X1Y1251D02*
X8Y1251D01*
X413Y1251D02*
X449Y1251D01*
X496Y1251D02*
X505Y1251D01*
X689Y1251D02*
X733Y1251D01*
X1291Y1251D02*
X1298Y1251D01*
X1Y1250D02*
X8Y1250D01*
X413Y1250D02*
X419Y1250D01*
X496Y1250D02*
X505Y1250D01*
X687Y1250D02*
X735Y1250D01*
X783Y1250D02*
X784Y1250D01*
X814Y1250D02*
X817Y1250D01*
X1291Y1250D02*
X1298Y1250D01*
X1Y1249D02*
X8Y1249D01*
X413Y1249D02*
X419Y1249D01*
X496Y1249D02*
X505Y1249D01*
X686Y1249D02*
X736Y1249D01*
X781Y1249D02*
X786Y1249D01*
X813Y1249D02*
X818Y1249D01*
X1291Y1249D02*
X1298Y1249D01*
X1Y1248D02*
X8Y1248D01*
X413Y1248D02*
X419Y1248D01*
X496Y1248D02*
X505Y1248D01*
X686Y1248D02*
X737Y1248D01*
X781Y1248D02*
X787Y1248D01*
X812Y1248D02*
X819Y1248D01*
X1291Y1248D02*
X1298Y1248D01*
X1Y1247D02*
X8Y1247D01*
X413Y1247D02*
X420Y1247D01*
X496Y1247D02*
X505Y1247D01*
X685Y1247D02*
X737Y1247D01*
X780Y1247D02*
X787Y1247D01*
X812Y1247D02*
X820Y1247D01*
X1291Y1247D02*
X1298Y1247D01*
X1Y1246D02*
X8Y1246D01*
X413Y1246D02*
X421Y1246D01*
X496Y1246D02*
X505Y1246D01*
X685Y1246D02*
X737Y1246D01*
X779Y1246D02*
X787Y1246D01*
X812Y1246D02*
X821Y1246D01*
X1291Y1246D02*
X1298Y1246D01*
X1Y1245D02*
X8Y1245D01*
X414Y1245D02*
X422Y1245D01*
X496Y1245D02*
X505Y1245D01*
X685Y1245D02*
X738Y1245D01*
X778Y1245D02*
X787Y1245D01*
X813Y1245D02*
X822Y1245D01*
X1291Y1245D02*
X1298Y1245D01*
X1Y1244D02*
X8Y1244D01*
X414Y1244D02*
X423Y1244D01*
X496Y1244D02*
X505Y1244D01*
X685Y1244D02*
X691Y1244D01*
X732Y1244D02*
X738Y1244D01*
X777Y1244D02*
X787Y1244D01*
X813Y1244D02*
X822Y1244D01*
X1291Y1244D02*
X1298Y1244D01*
X1Y1243D02*
X8Y1243D01*
X415Y1243D02*
X449Y1243D01*
X496Y1243D02*
X505Y1243D01*
X685Y1243D02*
X691Y1243D01*
X732Y1243D02*
X738Y1243D01*
X777Y1243D02*
X786Y1243D01*
X814Y1243D02*
X823Y1243D01*
X1291Y1243D02*
X1298Y1243D01*
X1Y1242D02*
X8Y1242D01*
X414Y1242D02*
X450Y1242D01*
X496Y1242D02*
X505Y1242D01*
X685Y1242D02*
X691Y1242D01*
X732Y1242D02*
X738Y1242D01*
X776Y1242D02*
X785Y1242D01*
X815Y1242D02*
X824Y1242D01*
X1291Y1242D02*
X1298Y1242D01*
X1Y1241D02*
X8Y1241D01*
X413Y1241D02*
X451Y1241D01*
X496Y1241D02*
X505Y1241D01*
X685Y1241D02*
X691Y1241D01*
X732Y1241D02*
X738Y1241D01*
X775Y1241D02*
X784Y1241D01*
X816Y1241D02*
X825Y1241D01*
X1291Y1241D02*
X1298Y1241D01*
X1Y1240D02*
X8Y1240D01*
X413Y1240D02*
X451Y1240D01*
X496Y1240D02*
X505Y1240D01*
X685Y1240D02*
X691Y1240D01*
X732Y1240D02*
X738Y1240D01*
X775Y1240D02*
X783Y1240D01*
X816Y1240D02*
X825Y1240D01*
X1291Y1240D02*
X1298Y1240D01*
X1Y1239D02*
X8Y1239D01*
X413Y1239D02*
X451Y1239D01*
X496Y1239D02*
X505Y1239D01*
X685Y1239D02*
X691Y1239D01*
X732Y1239D02*
X738Y1239D01*
X774Y1239D02*
X783Y1239D01*
X817Y1239D02*
X826Y1239D01*
X1106Y1239D02*
X1122Y1239D01*
X1291Y1239D02*
X1298Y1239D01*
X1Y1238D02*
X8Y1238D01*
X413Y1238D02*
X451Y1238D01*
X496Y1238D02*
X505Y1238D01*
X685Y1238D02*
X691Y1238D01*
X732Y1238D02*
X738Y1238D01*
X773Y1238D02*
X782Y1238D01*
X818Y1238D02*
X827Y1238D01*
X1105Y1238D02*
X1123Y1238D01*
X1291Y1238D02*
X1298Y1238D01*
X1Y1237D02*
X8Y1237D01*
X414Y1237D02*
X450Y1237D01*
X496Y1237D02*
X505Y1237D01*
X685Y1237D02*
X691Y1237D01*
X732Y1237D02*
X738Y1237D01*
X773Y1237D02*
X781Y1237D01*
X819Y1237D02*
X827Y1237D01*
X1104Y1237D02*
X1124Y1237D01*
X1291Y1237D02*
X1298Y1237D01*
X1Y1236D02*
X8Y1236D01*
X496Y1236D02*
X505Y1236D01*
X685Y1236D02*
X691Y1236D01*
X732Y1236D02*
X738Y1236D01*
X772Y1236D02*
X780Y1236D01*
X819Y1236D02*
X828Y1236D01*
X1104Y1236D02*
X1124Y1236D01*
X1291Y1236D02*
X1298Y1236D01*
X1Y1235D02*
X8Y1235D01*
X496Y1235D02*
X505Y1235D01*
X685Y1235D02*
X691Y1235D01*
X732Y1235D02*
X738Y1235D01*
X772Y1235D02*
X780Y1235D01*
X820Y1235D02*
X828Y1235D01*
X1104Y1235D02*
X1124Y1235D01*
X1291Y1235D02*
X1298Y1235D01*
X1Y1234D02*
X8Y1234D01*
X496Y1234D02*
X505Y1234D01*
X685Y1234D02*
X691Y1234D01*
X732Y1234D02*
X738Y1234D01*
X771Y1234D02*
X779Y1234D01*
X821Y1234D02*
X829Y1234D01*
X1105Y1234D02*
X1124Y1234D01*
X1291Y1234D02*
X1298Y1234D01*
X1Y1233D02*
X8Y1233D01*
X496Y1233D02*
X505Y1233D01*
X685Y1233D02*
X691Y1233D01*
X732Y1233D02*
X738Y1233D01*
X771Y1233D02*
X778Y1233D01*
X821Y1233D02*
X829Y1233D01*
X1106Y1233D02*
X1124Y1233D01*
X1291Y1233D02*
X1298Y1233D01*
X1Y1232D02*
X8Y1232D01*
X496Y1232D02*
X505Y1232D01*
X685Y1232D02*
X691Y1232D01*
X732Y1232D02*
X738Y1232D01*
X770Y1232D02*
X778Y1232D01*
X822Y1232D02*
X830Y1232D01*
X1118Y1232D02*
X1124Y1232D01*
X1291Y1232D02*
X1298Y1232D01*
X1Y1231D02*
X8Y1231D01*
X496Y1231D02*
X505Y1231D01*
X685Y1231D02*
X691Y1231D01*
X732Y1231D02*
X738Y1231D01*
X769Y1231D02*
X777Y1231D01*
X822Y1231D02*
X830Y1231D01*
X1118Y1231D02*
X1124Y1231D01*
X1291Y1231D02*
X1298Y1231D01*
X1Y1230D02*
X8Y1230D01*
X496Y1230D02*
X505Y1230D01*
X685Y1230D02*
X691Y1230D01*
X732Y1230D02*
X738Y1230D01*
X769Y1230D02*
X777Y1230D01*
X823Y1230D02*
X831Y1230D01*
X1118Y1230D02*
X1124Y1230D01*
X1291Y1230D02*
X1298Y1230D01*
X1Y1229D02*
X8Y1229D01*
X496Y1229D02*
X505Y1229D01*
X685Y1229D02*
X691Y1229D01*
X732Y1229D02*
X738Y1229D01*
X769Y1229D02*
X776Y1229D01*
X824Y1229D02*
X831Y1229D01*
X1118Y1229D02*
X1124Y1229D01*
X1291Y1229D02*
X1298Y1229D01*
X1Y1228D02*
X8Y1228D01*
X496Y1228D02*
X505Y1228D01*
X685Y1228D02*
X691Y1228D01*
X732Y1228D02*
X738Y1228D01*
X768Y1228D02*
X776Y1228D01*
X824Y1228D02*
X832Y1228D01*
X1118Y1228D02*
X1124Y1228D01*
X1291Y1228D02*
X1298Y1228D01*
X1Y1227D02*
X8Y1227D01*
X496Y1227D02*
X505Y1227D01*
X685Y1227D02*
X691Y1227D01*
X732Y1227D02*
X738Y1227D01*
X768Y1227D02*
X775Y1227D01*
X825Y1227D02*
X832Y1227D01*
X1118Y1227D02*
X1124Y1227D01*
X1291Y1227D02*
X1298Y1227D01*
X1Y1226D02*
X8Y1226D01*
X496Y1226D02*
X505Y1226D01*
X685Y1226D02*
X691Y1226D01*
X732Y1226D02*
X738Y1226D01*
X767Y1226D02*
X775Y1226D01*
X825Y1226D02*
X832Y1226D01*
X1118Y1226D02*
X1124Y1226D01*
X1291Y1226D02*
X1298Y1226D01*
X1Y1225D02*
X8Y1225D01*
X496Y1225D02*
X505Y1225D01*
X685Y1225D02*
X691Y1225D01*
X732Y1225D02*
X738Y1225D01*
X767Y1225D02*
X774Y1225D01*
X825Y1225D02*
X833Y1225D01*
X1071Y1225D02*
X1124Y1225D01*
X1291Y1225D02*
X1298Y1225D01*
X1Y1224D02*
X8Y1224D01*
X496Y1224D02*
X505Y1224D01*
X685Y1224D02*
X691Y1224D01*
X731Y1224D02*
X738Y1224D01*
X767Y1224D02*
X774Y1224D01*
X826Y1224D02*
X833Y1224D01*
X1071Y1224D02*
X1124Y1224D01*
X1291Y1224D02*
X1298Y1224D01*
X1Y1223D02*
X8Y1223D01*
X496Y1223D02*
X505Y1223D01*
X685Y1223D02*
X738Y1223D01*
X766Y1223D02*
X773Y1223D01*
X826Y1223D02*
X834Y1223D01*
X1071Y1223D02*
X1124Y1223D01*
X1291Y1223D02*
X1298Y1223D01*
X1Y1222D02*
X8Y1222D01*
X496Y1222D02*
X505Y1222D01*
X685Y1222D02*
X737Y1222D01*
X766Y1222D02*
X773Y1222D01*
X827Y1222D02*
X834Y1222D01*
X1071Y1222D02*
X1124Y1222D01*
X1291Y1222D02*
X1298Y1222D01*
X1Y1221D02*
X8Y1221D01*
X496Y1221D02*
X505Y1221D01*
X685Y1221D02*
X737Y1221D01*
X766Y1221D02*
X773Y1221D01*
X827Y1221D02*
X834Y1221D01*
X1071Y1221D02*
X1124Y1221D01*
X1291Y1221D02*
X1298Y1221D01*
X1Y1220D02*
X8Y1220D01*
X496Y1220D02*
X505Y1220D01*
X686Y1220D02*
X736Y1220D01*
X765Y1220D02*
X772Y1220D01*
X827Y1220D02*
X835Y1220D01*
X1071Y1220D02*
X1124Y1220D01*
X1291Y1220D02*
X1298Y1220D01*
X1Y1219D02*
X8Y1219D01*
X421Y1219D02*
X450Y1219D01*
X496Y1219D02*
X505Y1219D01*
X687Y1219D02*
X736Y1219D01*
X765Y1219D02*
X772Y1219D01*
X828Y1219D02*
X835Y1219D01*
X1071Y1219D02*
X1124Y1219D01*
X1291Y1219D02*
X1298Y1219D01*
X1Y1218D02*
X8Y1218D01*
X418Y1218D02*
X451Y1218D01*
X496Y1218D02*
X505Y1218D01*
X688Y1218D02*
X734Y1218D01*
X765Y1218D02*
X772Y1218D01*
X828Y1218D02*
X835Y1218D01*
X1071Y1218D02*
X1077Y1218D01*
X1118Y1218D02*
X1124Y1218D01*
X1291Y1218D02*
X1298Y1218D01*
X1Y1217D02*
X8Y1217D01*
X417Y1217D02*
X451Y1217D01*
X496Y1217D02*
X505Y1217D01*
X690Y1217D02*
X732Y1217D01*
X764Y1217D02*
X771Y1217D01*
X828Y1217D02*
X835Y1217D01*
X1071Y1217D02*
X1077Y1217D01*
X1118Y1217D02*
X1124Y1217D01*
X1291Y1217D02*
X1298Y1217D01*
X1Y1216D02*
X8Y1216D01*
X416Y1216D02*
X451Y1216D01*
X496Y1216D02*
X505Y1216D01*
X764Y1216D02*
X771Y1216D01*
X829Y1216D02*
X836Y1216D01*
X1071Y1216D02*
X1077Y1216D01*
X1118Y1216D02*
X1124Y1216D01*
X1291Y1216D02*
X1298Y1216D01*
X1Y1215D02*
X8Y1215D01*
X415Y1215D02*
X451Y1215D01*
X496Y1215D02*
X505Y1215D01*
X764Y1215D02*
X771Y1215D01*
X829Y1215D02*
X836Y1215D01*
X1071Y1215D02*
X1077Y1215D01*
X1118Y1215D02*
X1124Y1215D01*
X1291Y1215D02*
X1298Y1215D01*
X1Y1214D02*
X8Y1214D01*
X414Y1214D02*
X450Y1214D01*
X496Y1214D02*
X505Y1214D01*
X764Y1214D02*
X770Y1214D01*
X829Y1214D02*
X836Y1214D01*
X1071Y1214D02*
X1077Y1214D01*
X1118Y1214D02*
X1124Y1214D01*
X1291Y1214D02*
X1298Y1214D01*
X1Y1213D02*
X8Y1213D01*
X414Y1213D02*
X446Y1213D01*
X496Y1213D02*
X505Y1213D01*
X763Y1213D02*
X770Y1213D01*
X830Y1213D02*
X836Y1213D01*
X1071Y1213D02*
X1077Y1213D01*
X1118Y1213D02*
X1124Y1213D01*
X1291Y1213D02*
X1298Y1213D01*
X1Y1212D02*
X8Y1212D01*
X413Y1212D02*
X421Y1212D01*
X496Y1212D02*
X505Y1212D01*
X763Y1212D02*
X770Y1212D01*
X830Y1212D02*
X837Y1212D01*
X1071Y1212D02*
X1077Y1212D01*
X1118Y1212D02*
X1124Y1212D01*
X1291Y1212D02*
X1298Y1212D01*
X1Y1211D02*
X8Y1211D01*
X413Y1211D02*
X420Y1211D01*
X496Y1211D02*
X505Y1211D01*
X763Y1211D02*
X770Y1211D01*
X830Y1211D02*
X837Y1211D01*
X1071Y1211D02*
X1077Y1211D01*
X1118Y1211D02*
X1124Y1211D01*
X1291Y1211D02*
X1298Y1211D01*
X1Y1210D02*
X8Y1210D01*
X413Y1210D02*
X419Y1210D01*
X496Y1210D02*
X505Y1210D01*
X763Y1210D02*
X770Y1210D01*
X830Y1210D02*
X837Y1210D01*
X1071Y1210D02*
X1077Y1210D01*
X1118Y1210D02*
X1124Y1210D01*
X1291Y1210D02*
X1298Y1210D01*
X1Y1209D02*
X8Y1209D01*
X413Y1209D02*
X419Y1209D01*
X496Y1209D02*
X505Y1209D01*
X763Y1209D02*
X769Y1209D01*
X830Y1209D02*
X837Y1209D01*
X1071Y1209D02*
X1077Y1209D01*
X1118Y1209D02*
X1124Y1209D01*
X1291Y1209D02*
X1298Y1209D01*
X1Y1208D02*
X8Y1208D01*
X413Y1208D02*
X419Y1208D01*
X496Y1208D02*
X505Y1208D01*
X763Y1208D02*
X769Y1208D01*
X831Y1208D02*
X837Y1208D01*
X1071Y1208D02*
X1077Y1208D01*
X1118Y1208D02*
X1124Y1208D01*
X1291Y1208D02*
X1298Y1208D01*
X1Y1207D02*
X8Y1207D01*
X413Y1207D02*
X419Y1207D01*
X496Y1207D02*
X505Y1207D01*
X762Y1207D02*
X769Y1207D01*
X831Y1207D02*
X837Y1207D01*
X1071Y1207D02*
X1077Y1207D01*
X1118Y1207D02*
X1124Y1207D01*
X1291Y1207D02*
X1298Y1207D01*
X1Y1206D02*
X8Y1206D01*
X413Y1206D02*
X419Y1206D01*
X496Y1206D02*
X505Y1206D01*
X762Y1206D02*
X769Y1206D01*
X831Y1206D02*
X837Y1206D01*
X1072Y1206D02*
X1076Y1206D01*
X1119Y1206D02*
X1123Y1206D01*
X1291Y1206D02*
X1298Y1206D01*
X1Y1205D02*
X8Y1205D01*
X413Y1205D02*
X419Y1205D01*
X496Y1205D02*
X505Y1205D01*
X762Y1205D02*
X769Y1205D01*
X831Y1205D02*
X838Y1205D01*
X1074Y1205D02*
X1074Y1205D01*
X1121Y1205D02*
X1121Y1205D01*
X1291Y1205D02*
X1298Y1205D01*
X1Y1204D02*
X8Y1204D01*
X413Y1204D02*
X419Y1204D01*
X496Y1204D02*
X505Y1204D01*
X762Y1204D02*
X769Y1204D01*
X831Y1204D02*
X838Y1204D01*
X1291Y1204D02*
X1298Y1204D01*
X1Y1203D02*
X8Y1203D01*
X413Y1203D02*
X419Y1203D01*
X496Y1203D02*
X505Y1203D01*
X762Y1203D02*
X768Y1203D01*
X831Y1203D02*
X838Y1203D01*
X1291Y1203D02*
X1298Y1203D01*
X1Y1202D02*
X8Y1202D01*
X413Y1202D02*
X420Y1202D01*
X496Y1202D02*
X505Y1202D01*
X762Y1202D02*
X768Y1202D01*
X831Y1202D02*
X838Y1202D01*
X1291Y1202D02*
X1298Y1202D01*
X1Y1201D02*
X8Y1201D01*
X414Y1201D02*
X421Y1201D01*
X496Y1201D02*
X505Y1201D01*
X762Y1201D02*
X768Y1201D01*
X831Y1201D02*
X838Y1201D01*
X1291Y1201D02*
X1298Y1201D01*
X1Y1200D02*
X8Y1200D01*
X414Y1200D02*
X421Y1200D01*
X496Y1200D02*
X505Y1200D01*
X762Y1200D02*
X768Y1200D01*
X831Y1200D02*
X838Y1200D01*
X1291Y1200D02*
X1298Y1200D01*
X1Y1199D02*
X8Y1199D01*
X414Y1199D02*
X422Y1199D01*
X496Y1199D02*
X505Y1199D01*
X688Y1199D02*
X734Y1199D01*
X762Y1199D02*
X768Y1199D01*
X832Y1199D02*
X838Y1199D01*
X1291Y1199D02*
X1298Y1199D01*
X1Y1198D02*
X8Y1198D01*
X415Y1198D02*
X422Y1198D01*
X496Y1198D02*
X505Y1198D01*
X687Y1198D02*
X735Y1198D01*
X762Y1198D02*
X768Y1198D01*
X832Y1198D02*
X838Y1198D01*
X1291Y1198D02*
X1298Y1198D01*
X1Y1197D02*
X8Y1197D01*
X416Y1197D02*
X423Y1197D01*
X496Y1197D02*
X505Y1197D01*
X686Y1197D02*
X736Y1197D01*
X762Y1197D02*
X768Y1197D01*
X832Y1197D02*
X838Y1197D01*
X1291Y1197D02*
X1298Y1197D01*
X1Y1196D02*
X8Y1196D01*
X416Y1196D02*
X424Y1196D01*
X496Y1196D02*
X505Y1196D01*
X685Y1196D02*
X737Y1196D01*
X762Y1196D02*
X768Y1196D01*
X832Y1196D02*
X838Y1196D01*
X1291Y1196D02*
X1298Y1196D01*
X1Y1195D02*
X8Y1195D01*
X417Y1195D02*
X424Y1195D01*
X496Y1195D02*
X505Y1195D01*
X685Y1195D02*
X737Y1195D01*
X762Y1195D02*
X768Y1195D01*
X832Y1195D02*
X838Y1195D01*
X1291Y1195D02*
X1298Y1195D01*
X1Y1194D02*
X8Y1194D01*
X418Y1194D02*
X425Y1194D01*
X496Y1194D02*
X505Y1194D01*
X685Y1194D02*
X738Y1194D01*
X762Y1194D02*
X768Y1194D01*
X832Y1194D02*
X838Y1194D01*
X1291Y1194D02*
X1298Y1194D01*
X1Y1193D02*
X8Y1193D01*
X418Y1193D02*
X426Y1193D01*
X496Y1193D02*
X505Y1193D01*
X685Y1193D02*
X738Y1193D01*
X762Y1193D02*
X768Y1193D01*
X831Y1193D02*
X838Y1193D01*
X1291Y1193D02*
X1298Y1193D01*
X1Y1192D02*
X8Y1192D01*
X400Y1192D02*
X449Y1192D01*
X496Y1192D02*
X505Y1192D01*
X685Y1192D02*
X691Y1192D01*
X732Y1192D02*
X738Y1192D01*
X762Y1192D02*
X768Y1192D01*
X831Y1192D02*
X838Y1192D01*
X1291Y1192D02*
X1298Y1192D01*
X1Y1191D02*
X8Y1191D01*
X399Y1191D02*
X450Y1191D01*
X496Y1191D02*
X505Y1191D01*
X685Y1191D02*
X691Y1191D01*
X732Y1191D02*
X738Y1191D01*
X762Y1191D02*
X768Y1191D01*
X831Y1191D02*
X838Y1191D01*
X1291Y1191D02*
X1298Y1191D01*
X1Y1190D02*
X8Y1190D01*
X398Y1190D02*
X451Y1190D01*
X496Y1190D02*
X505Y1190D01*
X685Y1190D02*
X691Y1190D01*
X732Y1190D02*
X738Y1190D01*
X762Y1190D02*
X768Y1190D01*
X831Y1190D02*
X838Y1190D01*
X1291Y1190D02*
X1298Y1190D01*
X1Y1189D02*
X8Y1189D01*
X398Y1189D02*
X451Y1189D01*
X496Y1189D02*
X505Y1189D01*
X685Y1189D02*
X691Y1189D01*
X732Y1189D02*
X738Y1189D01*
X762Y1189D02*
X769Y1189D01*
X831Y1189D02*
X838Y1189D01*
X1291Y1189D02*
X1298Y1189D01*
X1Y1188D02*
X8Y1188D01*
X398Y1188D02*
X451Y1188D01*
X496Y1188D02*
X505Y1188D01*
X685Y1188D02*
X691Y1188D01*
X732Y1188D02*
X738Y1188D01*
X762Y1188D02*
X769Y1188D01*
X831Y1188D02*
X838Y1188D01*
X1074Y1188D02*
X1074Y1188D01*
X1291Y1188D02*
X1298Y1188D01*
X1Y1187D02*
X8Y1187D01*
X399Y1187D02*
X450Y1187D01*
X685Y1187D02*
X691Y1187D01*
X732Y1187D02*
X738Y1187D01*
X762Y1187D02*
X769Y1187D01*
X831Y1187D02*
X837Y1187D01*
X1072Y1187D02*
X1076Y1187D01*
X1291Y1187D02*
X1298Y1187D01*
X1Y1186D02*
X8Y1186D01*
X400Y1186D02*
X449Y1186D01*
X685Y1186D02*
X691Y1186D01*
X732Y1186D02*
X738Y1186D01*
X762Y1186D02*
X769Y1186D01*
X831Y1186D02*
X837Y1186D01*
X1071Y1186D02*
X1077Y1186D01*
X1291Y1186D02*
X1298Y1186D01*
X1Y1185D02*
X8Y1185D01*
X685Y1185D02*
X691Y1185D01*
X732Y1185D02*
X738Y1185D01*
X763Y1185D02*
X769Y1185D01*
X831Y1185D02*
X837Y1185D01*
X1071Y1185D02*
X1077Y1185D01*
X1291Y1185D02*
X1298Y1185D01*
X1Y1184D02*
X8Y1184D01*
X685Y1184D02*
X691Y1184D01*
X732Y1184D02*
X738Y1184D01*
X763Y1184D02*
X769Y1184D01*
X830Y1184D02*
X837Y1184D01*
X1071Y1184D02*
X1077Y1184D01*
X1291Y1184D02*
X1298Y1184D01*
X1Y1183D02*
X8Y1183D01*
X685Y1183D02*
X691Y1183D01*
X732Y1183D02*
X738Y1183D01*
X763Y1183D02*
X770Y1183D01*
X830Y1183D02*
X837Y1183D01*
X1071Y1183D02*
X1077Y1183D01*
X1291Y1183D02*
X1298Y1183D01*
X1Y1182D02*
X8Y1182D01*
X685Y1182D02*
X691Y1182D01*
X732Y1182D02*
X738Y1182D01*
X763Y1182D02*
X770Y1182D01*
X830Y1182D02*
X837Y1182D01*
X1071Y1182D02*
X1077Y1182D01*
X1291Y1182D02*
X1298Y1182D01*
X1Y1181D02*
X8Y1181D01*
X685Y1181D02*
X691Y1181D01*
X732Y1181D02*
X738Y1181D01*
X763Y1181D02*
X770Y1181D01*
X830Y1181D02*
X837Y1181D01*
X1071Y1181D02*
X1116Y1181D01*
X1291Y1181D02*
X1298Y1181D01*
X1Y1180D02*
X8Y1180D01*
X685Y1180D02*
X691Y1180D01*
X732Y1180D02*
X738Y1180D01*
X763Y1180D02*
X770Y1180D01*
X830Y1180D02*
X836Y1180D01*
X1071Y1180D02*
X1119Y1180D01*
X1291Y1180D02*
X1298Y1180D01*
X1Y1179D02*
X8Y1179D01*
X685Y1179D02*
X691Y1179D01*
X732Y1179D02*
X738Y1179D01*
X764Y1179D02*
X770Y1179D01*
X829Y1179D02*
X836Y1179D01*
X1071Y1179D02*
X1120Y1179D01*
X1291Y1179D02*
X1298Y1179D01*
X1Y1178D02*
X8Y1178D01*
X685Y1178D02*
X691Y1178D01*
X732Y1178D02*
X738Y1178D01*
X764Y1178D02*
X771Y1178D01*
X829Y1178D02*
X836Y1178D01*
X1071Y1178D02*
X1121Y1178D01*
X1291Y1178D02*
X1298Y1178D01*
X1Y1177D02*
X8Y1177D01*
X685Y1177D02*
X691Y1177D01*
X732Y1177D02*
X738Y1177D01*
X764Y1177D02*
X771Y1177D01*
X829Y1177D02*
X836Y1177D01*
X1071Y1177D02*
X1122Y1177D01*
X1291Y1177D02*
X1298Y1177D01*
X1Y1176D02*
X8Y1176D01*
X685Y1176D02*
X691Y1176D01*
X732Y1176D02*
X738Y1176D01*
X764Y1176D02*
X771Y1176D01*
X828Y1176D02*
X835Y1176D01*
X1071Y1176D02*
X1123Y1176D01*
X1291Y1176D02*
X1298Y1176D01*
X1Y1175D02*
X8Y1175D01*
X685Y1175D02*
X691Y1175D01*
X732Y1175D02*
X738Y1175D01*
X765Y1175D02*
X772Y1175D01*
X828Y1175D02*
X835Y1175D01*
X1071Y1175D02*
X1123Y1175D01*
X1291Y1175D02*
X1298Y1175D01*
X1Y1174D02*
X8Y1174D01*
X685Y1174D02*
X691Y1174D01*
X732Y1174D02*
X738Y1174D01*
X765Y1174D02*
X772Y1174D01*
X828Y1174D02*
X835Y1174D01*
X1071Y1174D02*
X1077Y1174D01*
X1116Y1174D02*
X1124Y1174D01*
X1291Y1174D02*
X1298Y1174D01*
X1Y1173D02*
X8Y1173D01*
X685Y1173D02*
X691Y1173D01*
X732Y1173D02*
X738Y1173D01*
X765Y1173D02*
X772Y1173D01*
X827Y1173D02*
X835Y1173D01*
X1071Y1173D02*
X1077Y1173D01*
X1117Y1173D02*
X1124Y1173D01*
X1291Y1173D02*
X1298Y1173D01*
X1Y1172D02*
X8Y1172D01*
X685Y1172D02*
X738Y1172D01*
X766Y1172D02*
X773Y1172D01*
X827Y1172D02*
X834Y1172D01*
X1071Y1172D02*
X1077Y1172D01*
X1118Y1172D02*
X1124Y1172D01*
X1291Y1172D02*
X1298Y1172D01*
X1Y1171D02*
X8Y1171D01*
X685Y1171D02*
X737Y1171D01*
X766Y1171D02*
X773Y1171D01*
X827Y1171D02*
X834Y1171D01*
X1071Y1171D02*
X1077Y1171D01*
X1118Y1171D02*
X1124Y1171D01*
X1291Y1171D02*
X1298Y1171D01*
X1Y1170D02*
X8Y1170D01*
X685Y1170D02*
X737Y1170D01*
X766Y1170D02*
X773Y1170D01*
X826Y1170D02*
X834Y1170D01*
X1071Y1170D02*
X1077Y1170D01*
X1118Y1170D02*
X1124Y1170D01*
X1291Y1170D02*
X1298Y1170D01*
X1Y1169D02*
X8Y1169D01*
X685Y1169D02*
X737Y1169D01*
X767Y1169D02*
X774Y1169D01*
X826Y1169D02*
X833Y1169D01*
X1071Y1169D02*
X1077Y1169D01*
X1118Y1169D02*
X1124Y1169D01*
X1291Y1169D02*
X1298Y1169D01*
X1Y1168D02*
X8Y1168D01*
X421Y1168D02*
X428Y1168D01*
X686Y1168D02*
X736Y1168D01*
X767Y1168D02*
X774Y1168D01*
X825Y1168D02*
X833Y1168D01*
X1071Y1168D02*
X1077Y1168D01*
X1118Y1168D02*
X1124Y1168D01*
X1291Y1168D02*
X1298Y1168D01*
X1Y1167D02*
X8Y1167D01*
X418Y1167D02*
X431Y1167D01*
X687Y1167D02*
X735Y1167D01*
X767Y1167D02*
X775Y1167D01*
X825Y1167D02*
X832Y1167D01*
X1071Y1167D02*
X1077Y1167D01*
X1118Y1167D02*
X1124Y1167D01*
X1291Y1167D02*
X1298Y1167D01*
X1Y1166D02*
X8Y1166D01*
X416Y1166D02*
X433Y1166D01*
X689Y1166D02*
X733Y1166D01*
X768Y1166D02*
X775Y1166D01*
X825Y1166D02*
X832Y1166D01*
X1071Y1166D02*
X1077Y1166D01*
X1118Y1166D02*
X1124Y1166D01*
X1291Y1166D02*
X1298Y1166D01*
X1Y1165D02*
X8Y1165D01*
X414Y1165D02*
X435Y1165D01*
X768Y1165D02*
X776Y1165D01*
X824Y1165D02*
X832Y1165D01*
X1072Y1165D02*
X1076Y1165D01*
X1118Y1165D02*
X1124Y1165D01*
X1291Y1165D02*
X1298Y1165D01*
X1Y1164D02*
X8Y1164D01*
X412Y1164D02*
X437Y1164D01*
X769Y1164D02*
X776Y1164D01*
X824Y1164D02*
X831Y1164D01*
X1073Y1164D02*
X1075Y1164D01*
X1118Y1164D02*
X1124Y1164D01*
X1291Y1164D02*
X1298Y1164D01*
X1Y1163D02*
X8Y1163D01*
X410Y1163D02*
X439Y1163D01*
X769Y1163D02*
X777Y1163D01*
X823Y1163D02*
X831Y1163D01*
X1118Y1163D02*
X1124Y1163D01*
X1291Y1163D02*
X1298Y1163D01*
X1Y1162D02*
X8Y1162D01*
X408Y1162D02*
X441Y1162D01*
X769Y1162D02*
X777Y1162D01*
X822Y1162D02*
X830Y1162D01*
X1117Y1162D02*
X1124Y1162D01*
X1291Y1162D02*
X1298Y1162D01*
X1Y1161D02*
X8Y1161D01*
X406Y1161D02*
X421Y1161D01*
X428Y1161D02*
X443Y1161D01*
X770Y1161D02*
X778Y1161D01*
X822Y1161D02*
X830Y1161D01*
X1106Y1161D02*
X1124Y1161D01*
X1291Y1161D02*
X1298Y1161D01*
X1Y1160D02*
X8Y1160D01*
X404Y1160D02*
X419Y1160D01*
X430Y1160D02*
X445Y1160D01*
X771Y1160D02*
X778Y1160D01*
X821Y1160D02*
X829Y1160D01*
X1104Y1160D02*
X1123Y1160D01*
X1291Y1160D02*
X1298Y1160D01*
X1Y1159D02*
X8Y1159D01*
X402Y1159D02*
X417Y1159D01*
X432Y1159D02*
X447Y1159D01*
X771Y1159D02*
X779Y1159D01*
X821Y1159D02*
X829Y1159D01*
X1104Y1159D02*
X1123Y1159D01*
X1291Y1159D02*
X1298Y1159D01*
X1Y1158D02*
X8Y1158D01*
X401Y1158D02*
X415Y1158D01*
X434Y1158D02*
X448Y1158D01*
X772Y1158D02*
X780Y1158D01*
X820Y1158D02*
X828Y1158D01*
X1103Y1158D02*
X1122Y1158D01*
X1291Y1158D02*
X1298Y1158D01*
X1Y1157D02*
X8Y1157D01*
X400Y1157D02*
X413Y1157D01*
X436Y1157D02*
X449Y1157D01*
X772Y1157D02*
X780Y1157D01*
X819Y1157D02*
X828Y1157D01*
X1103Y1157D02*
X1122Y1157D01*
X1291Y1157D02*
X1298Y1157D01*
X1Y1156D02*
X8Y1156D01*
X399Y1156D02*
X411Y1156D01*
X438Y1156D02*
X450Y1156D01*
X773Y1156D02*
X781Y1156D01*
X819Y1156D02*
X827Y1156D01*
X1103Y1156D02*
X1121Y1156D01*
X1291Y1156D02*
X1298Y1156D01*
X1Y1155D02*
X8Y1155D01*
X399Y1155D02*
X409Y1155D01*
X440Y1155D02*
X450Y1155D01*
X773Y1155D02*
X782Y1155D01*
X818Y1155D02*
X827Y1155D01*
X1104Y1155D02*
X1119Y1155D01*
X1291Y1155D02*
X1298Y1155D01*
X1Y1154D02*
X8Y1154D01*
X398Y1154D02*
X407Y1154D01*
X442Y1154D02*
X451Y1154D01*
X774Y1154D02*
X783Y1154D01*
X817Y1154D02*
X826Y1154D01*
X1105Y1154D02*
X1116Y1154D01*
X1291Y1154D02*
X1298Y1154D01*
X1Y1153D02*
X8Y1153D01*
X398Y1153D02*
X405Y1153D01*
X444Y1153D02*
X451Y1153D01*
X775Y1153D02*
X783Y1153D01*
X816Y1153D02*
X825Y1153D01*
X1291Y1153D02*
X1298Y1153D01*
X1Y1152D02*
X8Y1152D01*
X398Y1152D02*
X404Y1152D01*
X445Y1152D02*
X451Y1152D01*
X775Y1152D02*
X784Y1152D01*
X816Y1152D02*
X825Y1152D01*
X1291Y1152D02*
X1298Y1152D01*
X1Y1151D02*
X8Y1151D01*
X398Y1151D02*
X404Y1151D01*
X445Y1151D02*
X451Y1151D01*
X776Y1151D02*
X785Y1151D01*
X815Y1151D02*
X824Y1151D01*
X1291Y1151D02*
X1298Y1151D01*
X1Y1150D02*
X8Y1150D01*
X398Y1150D02*
X405Y1150D01*
X445Y1150D02*
X451Y1150D01*
X777Y1150D02*
X786Y1150D01*
X814Y1150D02*
X823Y1150D01*
X1291Y1150D02*
X1298Y1150D01*
X1Y1149D02*
X8Y1149D01*
X398Y1149D02*
X406Y1149D01*
X443Y1149D02*
X451Y1149D01*
X777Y1149D02*
X787Y1149D01*
X813Y1149D02*
X822Y1149D01*
X1291Y1149D02*
X1298Y1149D01*
X1Y1148D02*
X8Y1148D01*
X399Y1148D02*
X408Y1148D01*
X441Y1148D02*
X450Y1148D01*
X687Y1148D02*
X720Y1148D01*
X778Y1148D02*
X787Y1148D01*
X813Y1148D02*
X822Y1148D01*
X1291Y1148D02*
X1298Y1148D01*
X1Y1147D02*
X8Y1147D01*
X399Y1147D02*
X410Y1147D01*
X439Y1147D02*
X450Y1147D01*
X686Y1147D02*
X722Y1147D01*
X779Y1147D02*
X788Y1147D01*
X813Y1147D02*
X821Y1147D01*
X1291Y1147D02*
X1298Y1147D01*
X1Y1146D02*
X8Y1146D01*
X400Y1146D02*
X412Y1146D01*
X437Y1146D02*
X449Y1146D01*
X685Y1146D02*
X723Y1146D01*
X780Y1146D02*
X788Y1146D01*
X813Y1146D02*
X820Y1146D01*
X1291Y1146D02*
X1298Y1146D01*
X1Y1145D02*
X8Y1145D01*
X401Y1145D02*
X414Y1145D01*
X435Y1145D02*
X449Y1145D01*
X685Y1145D02*
X723Y1145D01*
X781Y1145D02*
X787Y1145D01*
X813Y1145D02*
X819Y1145D01*
X1291Y1145D02*
X1298Y1145D01*
X1Y1144D02*
X8Y1144D01*
X402Y1144D02*
X416Y1144D01*
X433Y1144D02*
X447Y1144D01*
X685Y1144D02*
X723Y1144D01*
X781Y1144D02*
X787Y1144D01*
X814Y1144D02*
X818Y1144D01*
X1291Y1144D02*
X1298Y1144D01*
X1Y1143D02*
X8Y1143D01*
X403Y1143D02*
X418Y1143D01*
X431Y1143D02*
X446Y1143D01*
X685Y1143D02*
X723Y1143D01*
X783Y1143D02*
X786Y1143D01*
X815Y1143D02*
X817Y1143D01*
X1291Y1143D02*
X1298Y1143D01*
X1Y1142D02*
X8Y1142D01*
X405Y1142D02*
X420Y1142D01*
X429Y1142D02*
X444Y1142D01*
X686Y1142D02*
X722Y1142D01*
X1291Y1142D02*
X1298Y1142D01*
X1Y1141D02*
X8Y1141D01*
X407Y1141D02*
X442Y1141D01*
X710Y1141D02*
X718Y1141D01*
X1291Y1141D02*
X1298Y1141D01*
X1Y1140D02*
X8Y1140D01*
X409Y1140D02*
X440Y1140D01*
X710Y1140D02*
X718Y1140D01*
X1291Y1140D02*
X1298Y1140D01*
X1Y1139D02*
X8Y1139D01*
X411Y1139D02*
X438Y1139D01*
X711Y1139D02*
X718Y1139D01*
X1291Y1139D02*
X1298Y1139D01*
X1Y1138D02*
X8Y1138D01*
X413Y1138D02*
X436Y1138D01*
X712Y1138D02*
X719Y1138D01*
X1291Y1138D02*
X1298Y1138D01*
X1Y1137D02*
X8Y1137D01*
X415Y1137D02*
X434Y1137D01*
X712Y1137D02*
X720Y1137D01*
X1291Y1137D02*
X1298Y1137D01*
X1Y1136D02*
X8Y1136D01*
X417Y1136D02*
X432Y1136D01*
X713Y1136D02*
X720Y1136D01*
X1291Y1136D02*
X1298Y1136D01*
X1Y1135D02*
X8Y1135D01*
X420Y1135D02*
X429Y1135D01*
X714Y1135D02*
X721Y1135D01*
X1291Y1135D02*
X1298Y1135D01*
X1Y1134D02*
X8Y1134D01*
X714Y1134D02*
X721Y1134D01*
X1291Y1134D02*
X1298Y1134D01*
X1Y1133D02*
X8Y1133D01*
X715Y1133D02*
X722Y1133D01*
X1291Y1133D02*
X1298Y1133D01*
X1Y1132D02*
X8Y1132D01*
X716Y1132D02*
X722Y1132D01*
X1291Y1132D02*
X1298Y1132D01*
X1Y1131D02*
X8Y1131D01*
X716Y1131D02*
X723Y1131D01*
X1291Y1131D02*
X1298Y1131D01*
X1Y1130D02*
X8Y1130D01*
X717Y1130D02*
X723Y1130D01*
X1291Y1130D02*
X1298Y1130D01*
X1Y1129D02*
X8Y1129D01*
X717Y1129D02*
X723Y1129D01*
X1291Y1129D02*
X1298Y1129D01*
X1Y1128D02*
X8Y1128D01*
X717Y1128D02*
X723Y1128D01*
X1291Y1128D02*
X1298Y1128D01*
X1Y1127D02*
X8Y1127D01*
X717Y1127D02*
X723Y1127D01*
X1291Y1127D02*
X1298Y1127D01*
X1Y1126D02*
X8Y1126D01*
X717Y1126D02*
X723Y1126D01*
X1291Y1126D02*
X1298Y1126D01*
X1Y1125D02*
X8Y1125D01*
X717Y1125D02*
X723Y1125D01*
X1291Y1125D02*
X1298Y1125D01*
X1Y1124D02*
X8Y1124D01*
X717Y1124D02*
X723Y1124D01*
X1291Y1124D02*
X1298Y1124D01*
X1Y1123D02*
X8Y1123D01*
X716Y1123D02*
X723Y1123D01*
X1291Y1123D02*
X1298Y1123D01*
X1Y1122D02*
X8Y1122D01*
X715Y1122D02*
X723Y1122D01*
X1291Y1122D02*
X1298Y1122D01*
X1Y1121D02*
X8Y1121D01*
X686Y1121D02*
X722Y1121D01*
X1291Y1121D02*
X1298Y1121D01*
X1Y1120D02*
X8Y1120D01*
X685Y1120D02*
X722Y1120D01*
X1291Y1120D02*
X1298Y1120D01*
X1Y1119D02*
X8Y1119D01*
X685Y1119D02*
X721Y1119D01*
X1291Y1119D02*
X1298Y1119D01*
X1Y1118D02*
X8Y1118D01*
X685Y1118D02*
X720Y1118D01*
X1291Y1118D02*
X1298Y1118D01*
X1Y1117D02*
X8Y1117D01*
X448Y1117D02*
X449Y1117D01*
X685Y1117D02*
X719Y1117D01*
X1291Y1117D02*
X1298Y1117D01*
X1Y1116D02*
X8Y1116D01*
X446Y1116D02*
X450Y1116D01*
X685Y1116D02*
X718Y1116D01*
X1291Y1116D02*
X1298Y1116D01*
X1Y1115D02*
X8Y1115D01*
X445Y1115D02*
X451Y1115D01*
X686Y1115D02*
X716Y1115D01*
X1291Y1115D02*
X1298Y1115D01*
X1Y1114D02*
X8Y1114D01*
X444Y1114D02*
X451Y1114D01*
X1291Y1114D02*
X1298Y1114D01*
X1Y1113D02*
X8Y1113D01*
X414Y1113D02*
X417Y1113D01*
X443Y1113D02*
X451Y1113D01*
X1291Y1113D02*
X1298Y1113D01*
X1Y1112D02*
X8Y1112D01*
X413Y1112D02*
X418Y1112D01*
X443Y1112D02*
X451Y1112D01*
X1291Y1112D02*
X1298Y1112D01*
X1Y1111D02*
X8Y1111D01*
X413Y1111D02*
X419Y1111D01*
X442Y1111D02*
X450Y1111D01*
X1291Y1111D02*
X1298Y1111D01*
X1Y1110D02*
X8Y1110D01*
X413Y1110D02*
X420Y1110D01*
X441Y1110D02*
X449Y1110D01*
X1291Y1110D02*
X1298Y1110D01*
X1Y1109D02*
X8Y1109D01*
X413Y1109D02*
X421Y1109D01*
X440Y1109D02*
X448Y1109D01*
X1291Y1109D02*
X1298Y1109D01*
X1Y1108D02*
X8Y1108D01*
X414Y1108D02*
X422Y1108D01*
X439Y1108D02*
X447Y1108D01*
X1291Y1108D02*
X1298Y1108D01*
X1Y1107D02*
X8Y1107D01*
X414Y1107D02*
X423Y1107D01*
X438Y1107D02*
X447Y1107D01*
X1291Y1107D02*
X1298Y1107D01*
X1Y1106D02*
X8Y1106D01*
X415Y1106D02*
X423Y1106D01*
X437Y1106D02*
X446Y1106D01*
X1291Y1106D02*
X1298Y1106D01*
X1Y1105D02*
X8Y1105D01*
X416Y1105D02*
X424Y1105D01*
X437Y1105D02*
X445Y1105D01*
X1291Y1105D02*
X1298Y1105D01*
X1Y1104D02*
X8Y1104D01*
X417Y1104D02*
X425Y1104D01*
X436Y1104D02*
X444Y1104D01*
X1291Y1104D02*
X1298Y1104D01*
X1Y1103D02*
X8Y1103D01*
X418Y1103D02*
X426Y1103D01*
X435Y1103D02*
X443Y1103D01*
X1291Y1103D02*
X1298Y1103D01*
X1Y1102D02*
X8Y1102D01*
X419Y1102D02*
X427Y1102D01*
X434Y1102D02*
X442Y1102D01*
X1291Y1102D02*
X1298Y1102D01*
X1Y1101D02*
X8Y1101D01*
X420Y1101D02*
X428Y1101D01*
X433Y1101D02*
X441Y1101D01*
X1291Y1101D02*
X1298Y1101D01*
X1Y1100D02*
X8Y1100D01*
X420Y1100D02*
X429Y1100D01*
X432Y1100D02*
X441Y1100D01*
X1291Y1100D02*
X1298Y1100D01*
X1Y1099D02*
X8Y1099D01*
X421Y1099D02*
X429Y1099D01*
X431Y1099D02*
X440Y1099D01*
X1291Y1099D02*
X1298Y1099D01*
X1Y1098D02*
X8Y1098D01*
X422Y1098D02*
X439Y1098D01*
X1291Y1098D02*
X1298Y1098D01*
X1Y1097D02*
X8Y1097D01*
X423Y1097D02*
X438Y1097D01*
X687Y1097D02*
X737Y1097D01*
X1291Y1097D02*
X1298Y1097D01*
X1Y1096D02*
X8Y1096D01*
X424Y1096D02*
X437Y1096D01*
X686Y1096D02*
X738Y1096D01*
X1291Y1096D02*
X1298Y1096D01*
X1Y1095D02*
X8Y1095D01*
X425Y1095D02*
X436Y1095D01*
X685Y1095D02*
X738Y1095D01*
X1291Y1095D02*
X1298Y1095D01*
X1Y1094D02*
X8Y1094D01*
X425Y1094D02*
X435Y1094D01*
X685Y1094D02*
X738Y1094D01*
X1291Y1094D02*
X1298Y1094D01*
X1Y1093D02*
X8Y1093D01*
X426Y1093D02*
X435Y1093D01*
X685Y1093D02*
X738Y1093D01*
X1291Y1093D02*
X1298Y1093D01*
X1Y1092D02*
X8Y1092D01*
X427Y1092D02*
X435Y1092D01*
X685Y1092D02*
X738Y1092D01*
X1291Y1092D02*
X1298Y1092D01*
X1Y1091D02*
X8Y1091D01*
X428Y1091D02*
X436Y1091D01*
X686Y1091D02*
X738Y1091D01*
X1291Y1091D02*
X1298Y1091D01*
X1Y1090D02*
X8Y1090D01*
X429Y1090D02*
X437Y1090D01*
X714Y1090D02*
X720Y1090D01*
X731Y1090D02*
X738Y1090D01*
X1291Y1090D02*
X1298Y1090D01*
X1Y1089D02*
X8Y1089D01*
X400Y1089D02*
X450Y1089D01*
X714Y1089D02*
X720Y1089D01*
X732Y1089D02*
X738Y1089D01*
X1291Y1089D02*
X1298Y1089D01*
X1Y1088D02*
X8Y1088D01*
X399Y1088D02*
X451Y1088D01*
X714Y1088D02*
X720Y1088D01*
X732Y1088D02*
X738Y1088D01*
X1291Y1088D02*
X1298Y1088D01*
X1Y1087D02*
X8Y1087D01*
X398Y1087D02*
X451Y1087D01*
X714Y1087D02*
X720Y1087D01*
X732Y1087D02*
X738Y1087D01*
X1291Y1087D02*
X1298Y1087D01*
X1Y1086D02*
X8Y1086D01*
X398Y1086D02*
X451Y1086D01*
X714Y1086D02*
X720Y1086D01*
X732Y1086D02*
X738Y1086D01*
X1291Y1086D02*
X1298Y1086D01*
X1Y1085D02*
X8Y1085D01*
X398Y1085D02*
X451Y1085D01*
X714Y1085D02*
X720Y1085D01*
X732Y1085D02*
X738Y1085D01*
X1291Y1085D02*
X1298Y1085D01*
X1Y1084D02*
X8Y1084D01*
X399Y1084D02*
X450Y1084D01*
X714Y1084D02*
X720Y1084D01*
X732Y1084D02*
X738Y1084D01*
X1291Y1084D02*
X1298Y1084D01*
X1Y1083D02*
X8Y1083D01*
X400Y1083D02*
X449Y1083D01*
X714Y1083D02*
X720Y1083D01*
X732Y1083D02*
X738Y1083D01*
X1291Y1083D02*
X1298Y1083D01*
X1Y1082D02*
X8Y1082D01*
X714Y1082D02*
X720Y1082D01*
X732Y1082D02*
X738Y1082D01*
X1291Y1082D02*
X1298Y1082D01*
X1Y1081D02*
X8Y1081D01*
X714Y1081D02*
X720Y1081D01*
X732Y1081D02*
X738Y1081D01*
X1291Y1081D02*
X1298Y1081D01*
X1Y1080D02*
X8Y1080D01*
X714Y1080D02*
X720Y1080D01*
X732Y1080D02*
X738Y1080D01*
X1291Y1080D02*
X1298Y1080D01*
X1Y1079D02*
X8Y1079D01*
X714Y1079D02*
X720Y1079D01*
X732Y1079D02*
X738Y1079D01*
X1291Y1079D02*
X1298Y1079D01*
X1Y1078D02*
X8Y1078D01*
X714Y1078D02*
X720Y1078D01*
X732Y1078D02*
X738Y1078D01*
X1291Y1078D02*
X1298Y1078D01*
X1Y1077D02*
X8Y1077D01*
X714Y1077D02*
X720Y1077D01*
X732Y1077D02*
X738Y1077D01*
X1291Y1077D02*
X1298Y1077D01*
X1Y1076D02*
X8Y1076D01*
X714Y1076D02*
X720Y1076D01*
X732Y1076D02*
X738Y1076D01*
X1291Y1076D02*
X1298Y1076D01*
X1Y1075D02*
X8Y1075D01*
X714Y1075D02*
X720Y1075D01*
X732Y1075D02*
X738Y1075D01*
X1291Y1075D02*
X1298Y1075D01*
X1Y1074D02*
X8Y1074D01*
X714Y1074D02*
X720Y1074D01*
X732Y1074D02*
X738Y1074D01*
X1291Y1074D02*
X1298Y1074D01*
X1Y1073D02*
X8Y1073D01*
X714Y1073D02*
X720Y1073D01*
X732Y1073D02*
X738Y1073D01*
X1291Y1073D02*
X1298Y1073D01*
X1Y1072D02*
X8Y1072D01*
X714Y1072D02*
X720Y1072D01*
X732Y1072D02*
X738Y1072D01*
X1291Y1072D02*
X1298Y1072D01*
X1Y1071D02*
X8Y1071D01*
X715Y1071D02*
X719Y1071D01*
X732Y1071D02*
X738Y1071D01*
X1291Y1071D02*
X1298Y1071D01*
X1Y1070D02*
X8Y1070D01*
X716Y1070D02*
X718Y1070D01*
X732Y1070D02*
X738Y1070D01*
X1291Y1070D02*
X1298Y1070D01*
X1Y1069D02*
X8Y1069D01*
X732Y1069D02*
X738Y1069D01*
X1291Y1069D02*
X1298Y1069D01*
X1Y1068D02*
X8Y1068D01*
X732Y1068D02*
X738Y1068D01*
X1291Y1068D02*
X1298Y1068D01*
X1Y1067D02*
X8Y1067D01*
X732Y1067D02*
X738Y1067D01*
X1291Y1067D02*
X1298Y1067D01*
X1Y1066D02*
X8Y1066D01*
X732Y1066D02*
X738Y1066D01*
X1291Y1066D02*
X1298Y1066D01*
X1Y1065D02*
X8Y1065D01*
X432Y1065D02*
X450Y1065D01*
X732Y1065D02*
X737Y1065D01*
X1291Y1065D02*
X1298Y1065D01*
X1Y1064D02*
X8Y1064D01*
X432Y1064D02*
X451Y1064D01*
X732Y1064D02*
X737Y1064D01*
X1291Y1064D02*
X1298Y1064D01*
X1Y1063D02*
X8Y1063D01*
X431Y1063D02*
X451Y1063D01*
X734Y1063D02*
X736Y1063D01*
X1291Y1063D02*
X1298Y1063D01*
X1Y1062D02*
X8Y1062D01*
X431Y1062D02*
X451Y1062D01*
X1291Y1062D02*
X1298Y1062D01*
X1Y1061D02*
X8Y1061D01*
X431Y1061D02*
X451Y1061D01*
X1291Y1061D02*
X1298Y1061D01*
X1Y1060D02*
X8Y1060D01*
X432Y1060D02*
X451Y1060D01*
X1291Y1060D02*
X1298Y1060D01*
X1Y1059D02*
X8Y1059D01*
X434Y1059D02*
X451Y1059D01*
X1291Y1059D02*
X1298Y1059D01*
X1Y1058D02*
X8Y1058D01*
X445Y1058D02*
X451Y1058D01*
X1291Y1058D02*
X1298Y1058D01*
X1Y1057D02*
X8Y1057D01*
X445Y1057D02*
X451Y1057D01*
X1291Y1057D02*
X1298Y1057D01*
X1Y1056D02*
X8Y1056D01*
X445Y1056D02*
X451Y1056D01*
X1291Y1056D02*
X1298Y1056D01*
X1Y1055D02*
X8Y1055D01*
X445Y1055D02*
X451Y1055D01*
X1291Y1055D02*
X1298Y1055D01*
X1Y1054D02*
X8Y1054D01*
X445Y1054D02*
X451Y1054D01*
X1291Y1054D02*
X1298Y1054D01*
X1Y1053D02*
X8Y1053D01*
X445Y1053D02*
X451Y1053D01*
X1291Y1053D02*
X1298Y1053D01*
X1Y1052D02*
X8Y1052D01*
X399Y1052D02*
X451Y1052D01*
X1291Y1052D02*
X1298Y1052D01*
X1Y1051D02*
X8Y1051D01*
X398Y1051D02*
X451Y1051D01*
X1291Y1051D02*
X1298Y1051D01*
X1Y1050D02*
X8Y1050D01*
X398Y1050D02*
X451Y1050D01*
X1291Y1050D02*
X1298Y1050D01*
X1Y1049D02*
X8Y1049D01*
X398Y1049D02*
X451Y1049D01*
X1291Y1049D02*
X1298Y1049D01*
X1Y1048D02*
X8Y1048D01*
X398Y1048D02*
X451Y1048D01*
X1291Y1048D02*
X1298Y1048D01*
X1Y1047D02*
X8Y1047D01*
X398Y1047D02*
X451Y1047D01*
X1291Y1047D02*
X1298Y1047D01*
X1Y1046D02*
X8Y1046D01*
X398Y1046D02*
X451Y1046D01*
X1291Y1046D02*
X1298Y1046D01*
X1Y1045D02*
X8Y1045D01*
X398Y1045D02*
X404Y1045D01*
X445Y1045D02*
X451Y1045D01*
X1291Y1045D02*
X1298Y1045D01*
X1Y1044D02*
X8Y1044D01*
X398Y1044D02*
X404Y1044D01*
X445Y1044D02*
X451Y1044D01*
X1291Y1044D02*
X1298Y1044D01*
X1Y1043D02*
X8Y1043D01*
X398Y1043D02*
X404Y1043D01*
X445Y1043D02*
X451Y1043D01*
X1291Y1043D02*
X1298Y1043D01*
X1Y1042D02*
X8Y1042D01*
X398Y1042D02*
X404Y1042D01*
X445Y1042D02*
X451Y1042D01*
X1291Y1042D02*
X1298Y1042D01*
X1Y1041D02*
X8Y1041D01*
X398Y1041D02*
X404Y1041D01*
X445Y1041D02*
X451Y1041D01*
X1291Y1041D02*
X1298Y1041D01*
X1Y1040D02*
X8Y1040D01*
X398Y1040D02*
X404Y1040D01*
X445Y1040D02*
X451Y1040D01*
X1291Y1040D02*
X1298Y1040D01*
X1Y1039D02*
X8Y1039D01*
X398Y1039D02*
X404Y1039D01*
X445Y1039D02*
X451Y1039D01*
X1291Y1039D02*
X1298Y1039D01*
X1Y1038D02*
X8Y1038D01*
X398Y1038D02*
X404Y1038D01*
X445Y1038D02*
X451Y1038D01*
X1291Y1038D02*
X1298Y1038D01*
X1Y1037D02*
X8Y1037D01*
X398Y1037D02*
X404Y1037D01*
X445Y1037D02*
X451Y1037D01*
X1291Y1037D02*
X1298Y1037D01*
X1Y1036D02*
X8Y1036D01*
X398Y1036D02*
X404Y1036D01*
X445Y1036D02*
X451Y1036D01*
X1291Y1036D02*
X1298Y1036D01*
X1Y1035D02*
X8Y1035D01*
X398Y1035D02*
X404Y1035D01*
X445Y1035D02*
X451Y1035D01*
X1291Y1035D02*
X1298Y1035D01*
X1Y1034D02*
X8Y1034D01*
X398Y1034D02*
X404Y1034D01*
X445Y1034D02*
X451Y1034D01*
X1291Y1034D02*
X1298Y1034D01*
X1Y1033D02*
X8Y1033D01*
X399Y1033D02*
X403Y1033D01*
X446Y1033D02*
X451Y1033D01*
X1291Y1033D02*
X1298Y1033D01*
X1Y1032D02*
X8Y1032D01*
X399Y1032D02*
X403Y1032D01*
X447Y1032D02*
X450Y1032D01*
X1291Y1032D02*
X1298Y1032D01*
X1Y1031D02*
X8Y1031D01*
X1291Y1031D02*
X1298Y1031D01*
X1Y1030D02*
X8Y1030D01*
X1291Y1030D02*
X1298Y1030D01*
X1Y1029D02*
X8Y1029D01*
X1291Y1029D02*
X1298Y1029D01*
X1Y1028D02*
X8Y1028D01*
X1291Y1028D02*
X1298Y1028D01*
X1Y1027D02*
X8Y1027D01*
X1291Y1027D02*
X1298Y1027D01*
X1Y1026D02*
X8Y1026D01*
X1291Y1026D02*
X1298Y1026D01*
X1Y1025D02*
X8Y1025D01*
X1291Y1025D02*
X1298Y1025D01*
X1Y1024D02*
X8Y1024D01*
X1291Y1024D02*
X1298Y1024D01*
X1Y1023D02*
X8Y1023D01*
X1291Y1023D02*
X1298Y1023D01*
X1Y1022D02*
X8Y1022D01*
X1291Y1022D02*
X1298Y1022D01*
X1Y1021D02*
X8Y1021D01*
X1291Y1021D02*
X1298Y1021D01*
X1Y1020D02*
X8Y1020D01*
X1291Y1020D02*
X1298Y1020D01*
X1Y1019D02*
X8Y1019D01*
X1291Y1019D02*
X1298Y1019D01*
X1Y1018D02*
X8Y1018D01*
X1291Y1018D02*
X1298Y1018D01*
X1Y1017D02*
X8Y1017D01*
X1291Y1017D02*
X1298Y1017D01*
X1Y1016D02*
X8Y1016D01*
X1291Y1016D02*
X1298Y1016D01*
X1Y1015D02*
X8Y1015D01*
X1291Y1015D02*
X1298Y1015D01*
X1Y1014D02*
X8Y1014D01*
X1291Y1014D02*
X1298Y1014D01*
X1Y1013D02*
X8Y1013D01*
X1291Y1013D02*
X1298Y1013D01*
X1Y1012D02*
X8Y1012D01*
X1291Y1012D02*
X1298Y1012D01*
X1Y1011D02*
X8Y1011D01*
X1291Y1011D02*
X1298Y1011D01*
X1Y1010D02*
X8Y1010D01*
X1291Y1010D02*
X1298Y1010D01*
X1Y1009D02*
X8Y1009D01*
X1291Y1009D02*
X1298Y1009D01*
X1Y1008D02*
X8Y1008D01*
X1291Y1008D02*
X1298Y1008D01*
X1Y1007D02*
X8Y1007D01*
X1291Y1007D02*
X1298Y1007D01*
X1Y1006D02*
X8Y1006D01*
X1291Y1006D02*
X1298Y1006D01*
X1Y1005D02*
X8Y1005D01*
X1291Y1005D02*
X1298Y1005D01*
X1Y1004D02*
X8Y1004D01*
X1291Y1004D02*
X1298Y1004D01*
X1Y1003D02*
X8Y1003D01*
X1291Y1003D02*
X1298Y1003D01*
X1Y1002D02*
X8Y1002D01*
X1291Y1002D02*
X1298Y1002D01*
X1Y1001D02*
X8Y1001D01*
X1291Y1001D02*
X1298Y1001D01*
X1Y1000D02*
X8Y1000D01*
X1291Y1000D02*
X1298Y1000D01*
X1Y999D02*
X8Y999D01*
X1291Y999D02*
X1298Y999D01*
X1Y998D02*
X8Y998D01*
X1291Y998D02*
X1298Y998D01*
X1Y997D02*
X8Y997D01*
X1291Y997D02*
X1298Y997D01*
X1Y996D02*
X8Y996D01*
X146Y996D02*
X156Y996D01*
X1291Y996D02*
X1298Y996D01*
X1Y995D02*
X8Y995D01*
X145Y995D02*
X156Y995D01*
X1291Y995D02*
X1298Y995D01*
X1Y994D02*
X8Y994D01*
X145Y994D02*
X157Y994D01*
X1291Y994D02*
X1298Y994D01*
X1Y993D02*
X8Y993D01*
X145Y993D02*
X157Y993D01*
X1291Y993D02*
X1298Y993D01*
X1Y992D02*
X8Y992D01*
X145Y992D02*
X157Y992D01*
X1291Y992D02*
X1298Y992D01*
X1Y991D02*
X8Y991D01*
X146Y991D02*
X157Y991D01*
X1291Y991D02*
X1298Y991D01*
X1Y990D02*
X8Y990D01*
X148Y990D02*
X157Y990D01*
X1291Y990D02*
X1298Y990D01*
X1Y989D02*
X8Y989D01*
X151Y989D02*
X157Y989D01*
X1291Y989D02*
X1298Y989D01*
X1Y988D02*
X8Y988D01*
X151Y988D02*
X157Y988D01*
X1291Y988D02*
X1298Y988D01*
X1Y987D02*
X8Y987D01*
X151Y987D02*
X157Y987D01*
X496Y987D02*
X504Y987D01*
X1291Y987D02*
X1298Y987D01*
X1Y986D02*
X8Y986D01*
X151Y986D02*
X157Y986D01*
X496Y986D02*
X505Y986D01*
X1291Y986D02*
X1298Y986D01*
X1Y985D02*
X8Y985D01*
X151Y985D02*
X157Y985D01*
X496Y985D02*
X505Y985D01*
X1291Y985D02*
X1298Y985D01*
X1Y984D02*
X8Y984D01*
X151Y984D02*
X157Y984D01*
X496Y984D02*
X505Y984D01*
X1291Y984D02*
X1298Y984D01*
X1Y983D02*
X8Y983D01*
X151Y983D02*
X157Y983D01*
X496Y983D02*
X505Y983D01*
X1291Y983D02*
X1298Y983D01*
X1Y982D02*
X8Y982D01*
X106Y982D02*
X157Y982D01*
X496Y982D02*
X505Y982D01*
X1291Y982D02*
X1298Y982D01*
X1Y981D02*
X8Y981D01*
X104Y981D02*
X157Y981D01*
X496Y981D02*
X505Y981D01*
X1291Y981D02*
X1298Y981D01*
X1Y980D02*
X8Y980D01*
X104Y980D02*
X157Y980D01*
X496Y980D02*
X505Y980D01*
X1291Y980D02*
X1298Y980D01*
X1Y979D02*
X8Y979D01*
X104Y979D02*
X157Y979D01*
X496Y979D02*
X505Y979D01*
X1291Y979D02*
X1298Y979D01*
X1Y978D02*
X8Y978D01*
X104Y978D02*
X157Y978D01*
X496Y978D02*
X505Y978D01*
X1291Y978D02*
X1298Y978D01*
X1Y977D02*
X8Y977D01*
X104Y977D02*
X157Y977D01*
X496Y977D02*
X505Y977D01*
X1291Y977D02*
X1298Y977D01*
X1Y976D02*
X8Y976D01*
X105Y976D02*
X157Y976D01*
X496Y976D02*
X505Y976D01*
X1291Y976D02*
X1298Y976D01*
X1Y975D02*
X8Y975D01*
X151Y975D02*
X157Y975D01*
X496Y975D02*
X505Y975D01*
X1291Y975D02*
X1298Y975D01*
X1Y974D02*
X8Y974D01*
X151Y974D02*
X157Y974D01*
X496Y974D02*
X505Y974D01*
X1291Y974D02*
X1298Y974D01*
X1Y973D02*
X8Y973D01*
X151Y973D02*
X157Y973D01*
X496Y973D02*
X505Y973D01*
X1291Y973D02*
X1298Y973D01*
X1Y972D02*
X8Y972D01*
X151Y972D02*
X157Y972D01*
X496Y972D02*
X505Y972D01*
X1291Y972D02*
X1298Y972D01*
X1Y971D02*
X8Y971D01*
X151Y971D02*
X157Y971D01*
X496Y971D02*
X505Y971D01*
X1291Y971D02*
X1298Y971D01*
X1Y970D02*
X8Y970D01*
X151Y970D02*
X157Y970D01*
X496Y970D02*
X505Y970D01*
X1291Y970D02*
X1298Y970D01*
X1Y969D02*
X8Y969D01*
X151Y969D02*
X157Y969D01*
X496Y969D02*
X505Y969D01*
X1291Y969D02*
X1298Y969D01*
X1Y968D02*
X8Y968D01*
X150Y968D02*
X157Y968D01*
X496Y968D02*
X505Y968D01*
X1291Y968D02*
X1298Y968D01*
X1Y967D02*
X8Y967D01*
X146Y967D02*
X157Y967D01*
X496Y967D02*
X505Y967D01*
X1291Y967D02*
X1298Y967D01*
X1Y966D02*
X8Y966D01*
X145Y966D02*
X157Y966D01*
X496Y966D02*
X505Y966D01*
X1291Y966D02*
X1298Y966D01*
X1Y965D02*
X8Y965D01*
X145Y965D02*
X157Y965D01*
X496Y965D02*
X505Y965D01*
X1291Y965D02*
X1298Y965D01*
X1Y964D02*
X8Y964D01*
X145Y964D02*
X157Y964D01*
X496Y964D02*
X505Y964D01*
X1291Y964D02*
X1298Y964D01*
X1Y963D02*
X8Y963D01*
X145Y963D02*
X156Y963D01*
X407Y963D02*
X412Y963D01*
X448Y963D02*
X448Y963D01*
X496Y963D02*
X505Y963D01*
X1291Y963D02*
X1298Y963D01*
X1Y962D02*
X8Y962D01*
X146Y962D02*
X156Y962D01*
X404Y962D02*
X416Y962D01*
X446Y962D02*
X450Y962D01*
X496Y962D02*
X505Y962D01*
X1291Y962D02*
X1298Y962D01*
X1Y961D02*
X8Y961D01*
X148Y961D02*
X154Y961D01*
X402Y961D02*
X417Y961D01*
X444Y961D02*
X451Y961D01*
X496Y961D02*
X505Y961D01*
X1291Y961D02*
X1298Y961D01*
X1Y960D02*
X8Y960D01*
X401Y960D02*
X419Y960D01*
X442Y960D02*
X451Y960D01*
X496Y960D02*
X505Y960D01*
X1291Y960D02*
X1298Y960D01*
X1Y959D02*
X8Y959D01*
X400Y959D02*
X419Y959D01*
X441Y959D02*
X451Y959D01*
X496Y959D02*
X505Y959D01*
X1291Y959D02*
X1298Y959D01*
X1Y958D02*
X8Y958D01*
X400Y958D02*
X420Y958D01*
X439Y958D02*
X451Y958D01*
X496Y958D02*
X505Y958D01*
X1291Y958D02*
X1298Y958D01*
X1Y957D02*
X8Y957D01*
X399Y957D02*
X421Y957D01*
X437Y957D02*
X450Y957D01*
X496Y957D02*
X505Y957D01*
X1291Y957D02*
X1298Y957D01*
X1Y956D02*
X8Y956D01*
X399Y956D02*
X407Y956D01*
X413Y956D02*
X421Y956D01*
X435Y956D02*
X448Y956D01*
X496Y956D02*
X505Y956D01*
X1291Y956D02*
X1298Y956D01*
X1Y955D02*
X8Y955D01*
X398Y955D02*
X405Y955D01*
X415Y955D02*
X421Y955D01*
X434Y955D02*
X447Y955D01*
X496Y955D02*
X505Y955D01*
X1291Y955D02*
X1298Y955D01*
X1Y954D02*
X8Y954D01*
X398Y954D02*
X404Y954D01*
X415Y954D02*
X422Y954D01*
X432Y954D02*
X445Y954D01*
X496Y954D02*
X505Y954D01*
X1291Y954D02*
X1298Y954D01*
X1Y953D02*
X8Y953D01*
X398Y953D02*
X404Y953D01*
X416Y953D02*
X422Y953D01*
X430Y953D02*
X443Y953D01*
X496Y953D02*
X505Y953D01*
X1291Y953D02*
X1298Y953D01*
X1Y952D02*
X8Y952D01*
X398Y952D02*
X404Y952D01*
X416Y952D02*
X422Y952D01*
X429Y952D02*
X442Y952D01*
X496Y952D02*
X505Y952D01*
X1291Y952D02*
X1298Y952D01*
X1Y951D02*
X8Y951D01*
X398Y951D02*
X404Y951D01*
X416Y951D02*
X422Y951D01*
X427Y951D02*
X440Y951D01*
X496Y951D02*
X505Y951D01*
X1291Y951D02*
X1298Y951D01*
X1Y950D02*
X8Y950D01*
X398Y950D02*
X404Y950D01*
X416Y950D02*
X422Y950D01*
X425Y950D02*
X438Y950D01*
X496Y950D02*
X505Y950D01*
X1291Y950D02*
X1298Y950D01*
X1Y949D02*
X8Y949D01*
X398Y949D02*
X404Y949D01*
X416Y949D02*
X436Y949D01*
X496Y949D02*
X505Y949D01*
X1291Y949D02*
X1298Y949D01*
X1Y948D02*
X8Y948D01*
X398Y948D02*
X404Y948D01*
X416Y948D02*
X435Y948D01*
X496Y948D02*
X505Y948D01*
X1291Y948D02*
X1298Y948D01*
X1Y947D02*
X8Y947D01*
X398Y947D02*
X404Y947D01*
X416Y947D02*
X433Y947D01*
X496Y947D02*
X505Y947D01*
X1291Y947D02*
X1298Y947D01*
X1Y946D02*
X8Y946D01*
X398Y946D02*
X404Y946D01*
X416Y946D02*
X431Y946D01*
X496Y946D02*
X505Y946D01*
X1291Y946D02*
X1298Y946D01*
X1Y945D02*
X8Y945D01*
X398Y945D02*
X404Y945D01*
X416Y945D02*
X430Y945D01*
X496Y945D02*
X505Y945D01*
X1291Y945D02*
X1298Y945D01*
X1Y944D02*
X8Y944D01*
X98Y944D02*
X101Y944D01*
X398Y944D02*
X404Y944D01*
X416Y944D02*
X428Y944D01*
X496Y944D02*
X505Y944D01*
X1291Y944D02*
X1298Y944D01*
X1Y943D02*
X8Y943D01*
X97Y943D02*
X102Y943D01*
X398Y943D02*
X404Y943D01*
X416Y943D02*
X426Y943D01*
X496Y943D02*
X505Y943D01*
X1291Y943D02*
X1298Y943D01*
X1Y942D02*
X8Y942D01*
X97Y942D02*
X103Y942D01*
X398Y942D02*
X404Y942D01*
X416Y942D02*
X424Y942D01*
X496Y942D02*
X505Y942D01*
X1291Y942D02*
X1298Y942D01*
X1Y941D02*
X8Y941D01*
X97Y941D02*
X103Y941D01*
X398Y941D02*
X404Y941D01*
X416Y941D02*
X423Y941D01*
X496Y941D02*
X505Y941D01*
X1291Y941D02*
X1298Y941D01*
X1Y940D02*
X8Y940D01*
X97Y940D02*
X103Y940D01*
X398Y940D02*
X404Y940D01*
X416Y940D02*
X422Y940D01*
X496Y940D02*
X505Y940D01*
X1291Y940D02*
X1298Y940D01*
X1Y939D02*
X8Y939D01*
X97Y939D02*
X103Y939D01*
X398Y939D02*
X404Y939D01*
X416Y939D02*
X422Y939D01*
X496Y939D02*
X499Y939D01*
X501Y939D02*
X505Y939D01*
X1291Y939D02*
X1298Y939D01*
X1Y938D02*
X8Y938D01*
X97Y938D02*
X103Y938D01*
X398Y938D02*
X404Y938D01*
X416Y938D02*
X422Y938D01*
X1291Y938D02*
X1298Y938D01*
X1Y937D02*
X8Y937D01*
X97Y937D02*
X103Y937D01*
X398Y937D02*
X404Y937D01*
X416Y937D02*
X422Y937D01*
X1291Y937D02*
X1298Y937D01*
X1Y936D02*
X8Y936D01*
X97Y936D02*
X103Y936D01*
X398Y936D02*
X404Y936D01*
X416Y936D02*
X422Y936D01*
X1291Y936D02*
X1298Y936D01*
X1Y935D02*
X8Y935D01*
X97Y935D02*
X103Y935D01*
X398Y935D02*
X449Y935D01*
X1291Y935D02*
X1298Y935D01*
X1Y934D02*
X8Y934D01*
X97Y934D02*
X103Y934D01*
X398Y934D02*
X450Y934D01*
X1291Y934D02*
X1298Y934D01*
X1Y933D02*
X8Y933D01*
X97Y933D02*
X103Y933D01*
X398Y933D02*
X451Y933D01*
X1291Y933D02*
X1298Y933D01*
X1Y932D02*
X8Y932D01*
X97Y932D02*
X103Y932D01*
X398Y932D02*
X451Y932D01*
X1291Y932D02*
X1298Y932D01*
X1Y931D02*
X8Y931D01*
X97Y931D02*
X103Y931D01*
X398Y931D02*
X451Y931D01*
X1291Y931D02*
X1298Y931D01*
X1Y930D02*
X8Y930D01*
X97Y930D02*
X103Y930D01*
X398Y930D02*
X450Y930D01*
X1291Y930D02*
X1298Y930D01*
X1Y929D02*
X8Y929D01*
X97Y929D02*
X103Y929D01*
X398Y929D02*
X449Y929D01*
X1291Y929D02*
X1298Y929D01*
X1Y928D02*
X8Y928D01*
X97Y928D02*
X103Y928D01*
X1291Y928D02*
X1298Y928D01*
X1Y927D02*
X8Y927D01*
X97Y927D02*
X103Y927D01*
X1291Y927D02*
X1298Y927D01*
X1Y926D02*
X8Y926D01*
X97Y926D02*
X103Y926D01*
X1291Y926D02*
X1298Y926D01*
X1Y925D02*
X8Y925D01*
X97Y925D02*
X103Y925D01*
X1291Y925D02*
X1298Y925D01*
X1Y924D02*
X8Y924D01*
X97Y924D02*
X103Y924D01*
X1291Y924D02*
X1298Y924D01*
X1Y923D02*
X8Y923D01*
X97Y923D02*
X103Y923D01*
X1291Y923D02*
X1298Y923D01*
X1Y922D02*
X8Y922D01*
X97Y922D02*
X103Y922D01*
X1291Y922D02*
X1298Y922D01*
X1Y921D02*
X8Y921D01*
X97Y921D02*
X103Y921D01*
X1291Y921D02*
X1298Y921D01*
X1Y920D02*
X8Y920D01*
X97Y920D02*
X103Y920D01*
X1291Y920D02*
X1298Y920D01*
X1Y919D02*
X8Y919D01*
X97Y919D02*
X103Y919D01*
X1291Y919D02*
X1298Y919D01*
X1Y918D02*
X8Y918D01*
X97Y918D02*
X103Y918D01*
X1291Y918D02*
X1298Y918D01*
X1Y917D02*
X8Y917D01*
X97Y917D02*
X103Y917D01*
X1291Y917D02*
X1298Y917D01*
X1Y916D02*
X8Y916D01*
X97Y916D02*
X103Y916D01*
X1291Y916D02*
X1298Y916D01*
X1Y915D02*
X8Y915D01*
X97Y915D02*
X103Y915D01*
X1291Y915D02*
X1298Y915D01*
X1Y914D02*
X8Y914D01*
X97Y914D02*
X103Y914D01*
X1291Y914D02*
X1298Y914D01*
X1Y913D02*
X8Y913D01*
X97Y913D02*
X103Y913D01*
X1291Y913D02*
X1298Y913D01*
X1Y912D02*
X8Y912D01*
X97Y912D02*
X102Y912D01*
X1291Y912D02*
X1298Y912D01*
X1Y911D02*
X8Y911D01*
X98Y911D02*
X101Y911D01*
X1291Y911D02*
X1298Y911D01*
X1Y910D02*
X8Y910D01*
X1291Y910D02*
X1298Y910D01*
X1Y909D02*
X8Y909D01*
X1291Y909D02*
X1298Y909D01*
X1Y908D02*
X8Y908D01*
X1291Y908D02*
X1298Y908D01*
X1Y907D02*
X8Y907D01*
X1291Y907D02*
X1298Y907D01*
X1Y906D02*
X8Y906D01*
X1291Y906D02*
X1298Y906D01*
X1Y905D02*
X8Y905D01*
X1291Y905D02*
X1298Y905D01*
X1Y904D02*
X8Y904D01*
X1291Y904D02*
X1298Y904D01*
X1Y903D02*
X8Y903D01*
X1291Y903D02*
X1298Y903D01*
X1Y902D02*
X8Y902D01*
X1291Y902D02*
X1298Y902D01*
X1Y901D02*
X8Y901D01*
X1291Y901D02*
X1298Y901D01*
X1Y900D02*
X8Y900D01*
X1291Y900D02*
X1298Y900D01*
X1Y899D02*
X8Y899D01*
X1291Y899D02*
X1298Y899D01*
X1Y898D02*
X8Y898D01*
X1291Y898D02*
X1298Y898D01*
X1Y897D02*
X8Y897D01*
X1076Y897D02*
X1079Y897D01*
X1291Y897D02*
X1298Y897D01*
X1Y896D02*
X8Y896D01*
X1075Y896D02*
X1080Y896D01*
X1291Y896D02*
X1298Y896D01*
X1Y895D02*
X8Y895D01*
X1075Y895D02*
X1081Y895D01*
X1291Y895D02*
X1298Y895D01*
X1Y894D02*
X8Y894D01*
X1075Y894D02*
X1081Y894D01*
X1291Y894D02*
X1298Y894D01*
X1Y893D02*
X8Y893D01*
X127Y893D02*
X133Y893D01*
X1075Y893D02*
X1081Y893D01*
X1291Y893D02*
X1298Y893D01*
X1Y892D02*
X8Y892D01*
X124Y892D02*
X136Y892D01*
X1075Y892D02*
X1081Y892D01*
X1291Y892D02*
X1298Y892D01*
X1Y891D02*
X8Y891D01*
X122Y891D02*
X138Y891D01*
X1075Y891D02*
X1081Y891D01*
X1291Y891D02*
X1298Y891D01*
X1Y890D02*
X8Y890D01*
X120Y890D02*
X140Y890D01*
X1075Y890D02*
X1081Y890D01*
X1291Y890D02*
X1298Y890D01*
X1Y889D02*
X8Y889D01*
X118Y889D02*
X142Y889D01*
X1075Y889D02*
X1081Y889D01*
X1291Y889D02*
X1298Y889D01*
X1Y888D02*
X8Y888D01*
X116Y888D02*
X144Y888D01*
X1075Y888D02*
X1081Y888D01*
X1291Y888D02*
X1298Y888D01*
X1Y887D02*
X8Y887D01*
X114Y887D02*
X146Y887D01*
X1075Y887D02*
X1081Y887D01*
X1291Y887D02*
X1298Y887D01*
X1Y886D02*
X8Y886D01*
X112Y886D02*
X127Y886D01*
X133Y886D02*
X148Y886D01*
X1075Y886D02*
X1081Y886D01*
X1291Y886D02*
X1298Y886D01*
X1Y885D02*
X8Y885D01*
X110Y885D02*
X125Y885D01*
X136Y885D02*
X150Y885D01*
X1075Y885D02*
X1081Y885D01*
X1291Y885D02*
X1298Y885D01*
X1Y884D02*
X8Y884D01*
X108Y884D02*
X123Y884D01*
X138Y884D02*
X152Y884D01*
X1075Y884D02*
X1081Y884D01*
X1291Y884D02*
X1298Y884D01*
X1Y883D02*
X8Y883D01*
X107Y883D02*
X121Y883D01*
X140Y883D02*
X154Y883D01*
X1075Y883D02*
X1081Y883D01*
X1291Y883D02*
X1298Y883D01*
X1Y882D02*
X8Y882D01*
X106Y882D02*
X119Y882D01*
X142Y882D02*
X155Y882D01*
X1075Y882D02*
X1081Y882D01*
X1291Y882D02*
X1298Y882D01*
X1Y881D02*
X8Y881D01*
X105Y881D02*
X117Y881D01*
X144Y881D02*
X155Y881D01*
X1075Y881D02*
X1081Y881D01*
X1291Y881D02*
X1298Y881D01*
X1Y880D02*
X8Y880D01*
X105Y880D02*
X115Y880D01*
X145Y880D02*
X156Y880D01*
X1075Y880D02*
X1081Y880D01*
X1291Y880D02*
X1298Y880D01*
X1Y879D02*
X8Y879D01*
X104Y879D02*
X113Y879D01*
X147Y879D02*
X156Y879D01*
X1075Y879D02*
X1081Y879D01*
X1291Y879D02*
X1298Y879D01*
X1Y878D02*
X8Y878D01*
X104Y878D02*
X111Y878D01*
X149Y878D02*
X157Y878D01*
X1075Y878D02*
X1081Y878D01*
X1291Y878D02*
X1298Y878D01*
X1Y877D02*
X8Y877D01*
X104Y877D02*
X110Y877D01*
X150Y877D02*
X157Y877D01*
X1075Y877D02*
X1081Y877D01*
X1291Y877D02*
X1298Y877D01*
X1Y876D02*
X8Y876D01*
X104Y876D02*
X110Y876D01*
X151Y876D02*
X157Y876D01*
X1075Y876D02*
X1081Y876D01*
X1291Y876D02*
X1298Y876D01*
X1Y875D02*
X8Y875D01*
X104Y875D02*
X110Y875D01*
X150Y875D02*
X157Y875D01*
X1075Y875D02*
X1081Y875D01*
X1291Y875D02*
X1298Y875D01*
X1Y874D02*
X8Y874D01*
X104Y874D02*
X111Y874D01*
X149Y874D02*
X156Y874D01*
X1075Y874D02*
X1081Y874D01*
X1291Y874D02*
X1298Y874D01*
X1Y873D02*
X8Y873D01*
X104Y873D02*
X113Y873D01*
X147Y873D02*
X156Y873D01*
X1075Y873D02*
X1081Y873D01*
X1291Y873D02*
X1298Y873D01*
X1Y872D02*
X8Y872D01*
X105Y872D02*
X115Y872D01*
X145Y872D02*
X156Y872D01*
X1075Y872D02*
X1081Y872D01*
X1291Y872D02*
X1298Y872D01*
X1Y871D02*
X8Y871D01*
X105Y871D02*
X117Y871D01*
X143Y871D02*
X155Y871D01*
X1075Y871D02*
X1081Y871D01*
X1291Y871D02*
X1298Y871D01*
X1Y870D02*
X8Y870D01*
X106Y870D02*
X119Y870D01*
X141Y870D02*
X154Y870D01*
X1030Y870D02*
X1081Y870D01*
X1291Y870D02*
X1298Y870D01*
X1Y869D02*
X8Y869D01*
X107Y869D02*
X121Y869D01*
X139Y869D02*
X153Y869D01*
X1029Y869D02*
X1081Y869D01*
X1291Y869D02*
X1298Y869D01*
X1Y868D02*
X8Y868D01*
X109Y868D02*
X123Y868D01*
X137Y868D02*
X152Y868D01*
X1028Y868D02*
X1081Y868D01*
X1291Y868D02*
X1298Y868D01*
X1Y867D02*
X8Y867D01*
X111Y867D02*
X125Y867D01*
X135Y867D02*
X150Y867D01*
X1028Y867D02*
X1081Y867D01*
X1291Y867D02*
X1298Y867D01*
X1Y866D02*
X8Y866D01*
X113Y866D02*
X128Y866D01*
X132Y866D02*
X148Y866D01*
X1028Y866D02*
X1081Y866D01*
X1291Y866D02*
X1298Y866D01*
X1Y865D02*
X8Y865D01*
X115Y865D02*
X146Y865D01*
X1028Y865D02*
X1081Y865D01*
X1291Y865D02*
X1298Y865D01*
X1Y864D02*
X8Y864D01*
X117Y864D02*
X144Y864D01*
X1029Y864D02*
X1081Y864D01*
X1291Y864D02*
X1298Y864D01*
X1Y863D02*
X8Y863D01*
X119Y863D02*
X142Y863D01*
X1291Y863D02*
X1298Y863D01*
X1Y862D02*
X8Y862D01*
X121Y862D02*
X140Y862D01*
X1291Y862D02*
X1298Y862D01*
X1Y861D02*
X8Y861D01*
X123Y861D02*
X138Y861D01*
X1291Y861D02*
X1298Y861D01*
X1Y860D02*
X8Y860D01*
X125Y860D02*
X135Y860D01*
X1291Y860D02*
X1298Y860D01*
X1Y859D02*
X8Y859D01*
X128Y859D02*
X132Y859D01*
X1291Y859D02*
X1298Y859D01*
X1Y858D02*
X8Y858D01*
X1291Y858D02*
X1298Y858D01*
X1Y857D02*
X8Y857D01*
X1291Y857D02*
X1298Y857D01*
X1Y856D02*
X8Y856D01*
X1291Y856D02*
X1298Y856D01*
X1Y855D02*
X8Y855D01*
X1291Y855D02*
X1298Y855D01*
X1Y854D02*
X8Y854D01*
X1291Y854D02*
X1298Y854D01*
X1Y853D02*
X8Y853D01*
X1291Y853D02*
X1298Y853D01*
X1Y852D02*
X8Y852D01*
X1291Y852D02*
X1298Y852D01*
X1Y851D02*
X8Y851D01*
X1291Y851D02*
X1298Y851D01*
X1Y850D02*
X8Y850D01*
X346Y850D02*
X355Y850D01*
X1291Y850D02*
X1298Y850D01*
X1Y849D02*
X8Y849D01*
X346Y849D02*
X355Y849D01*
X1291Y849D02*
X1298Y849D01*
X1Y848D02*
X8Y848D01*
X346Y848D02*
X355Y848D01*
X1291Y848D02*
X1298Y848D01*
X1Y847D02*
X8Y847D01*
X346Y847D02*
X355Y847D01*
X1291Y847D02*
X1298Y847D01*
X1Y846D02*
X8Y846D01*
X346Y846D02*
X355Y846D01*
X1291Y846D02*
X1298Y846D01*
X1Y845D02*
X8Y845D01*
X346Y845D02*
X355Y845D01*
X1291Y845D02*
X1298Y845D01*
X1Y844D02*
X8Y844D01*
X346Y844D02*
X355Y844D01*
X1029Y844D02*
X1033Y844D01*
X1055Y844D02*
X1077Y844D01*
X1291Y844D02*
X1298Y844D01*
X1Y843D02*
X8Y843D01*
X346Y843D02*
X355Y843D01*
X1028Y843D02*
X1033Y843D01*
X1053Y843D02*
X1079Y843D01*
X1291Y843D02*
X1298Y843D01*
X1Y842D02*
X8Y842D01*
X1028Y842D02*
X1034Y842D01*
X1053Y842D02*
X1079Y842D01*
X1291Y842D02*
X1298Y842D01*
X1Y841D02*
X8Y841D01*
X105Y841D02*
X157Y841D01*
X1028Y841D02*
X1034Y841D01*
X1052Y841D02*
X1080Y841D01*
X1291Y841D02*
X1298Y841D01*
X1Y840D02*
X8Y840D01*
X104Y840D02*
X157Y840D01*
X1028Y840D02*
X1034Y840D01*
X1052Y840D02*
X1081Y840D01*
X1291Y840D02*
X1298Y840D01*
X1Y839D02*
X8Y839D01*
X104Y839D02*
X157Y839D01*
X1028Y839D02*
X1034Y839D01*
X1051Y839D02*
X1081Y839D01*
X1291Y839D02*
X1298Y839D01*
X1Y838D02*
X8Y838D01*
X104Y838D02*
X157Y838D01*
X1028Y838D02*
X1034Y838D01*
X1051Y838D02*
X1081Y838D01*
X1291Y838D02*
X1298Y838D01*
X1Y837D02*
X8Y837D01*
X104Y837D02*
X157Y837D01*
X1028Y837D02*
X1034Y837D01*
X1051Y837D02*
X1057Y837D01*
X1075Y837D02*
X1081Y837D01*
X1291Y837D02*
X1298Y837D01*
X1Y836D02*
X8Y836D01*
X105Y836D02*
X157Y836D01*
X1028Y836D02*
X1034Y836D01*
X1051Y836D02*
X1057Y836D01*
X1075Y836D02*
X1081Y836D01*
X1291Y836D02*
X1298Y836D01*
X1Y835D02*
X8Y835D01*
X107Y835D02*
X157Y835D01*
X1028Y835D02*
X1034Y835D01*
X1051Y835D02*
X1057Y835D01*
X1075Y835D02*
X1081Y835D01*
X1291Y835D02*
X1298Y835D01*
X1Y834D02*
X8Y834D01*
X133Y834D02*
X139Y834D01*
X151Y834D02*
X157Y834D01*
X1028Y834D02*
X1034Y834D01*
X1051Y834D02*
X1057Y834D01*
X1075Y834D02*
X1081Y834D01*
X1291Y834D02*
X1298Y834D01*
X1Y833D02*
X8Y833D01*
X133Y833D02*
X139Y833D01*
X151Y833D02*
X157Y833D01*
X1028Y833D02*
X1034Y833D01*
X1051Y833D02*
X1057Y833D01*
X1075Y833D02*
X1081Y833D01*
X1291Y833D02*
X1298Y833D01*
X1Y832D02*
X8Y832D01*
X133Y832D02*
X139Y832D01*
X151Y832D02*
X157Y832D01*
X1028Y832D02*
X1034Y832D01*
X1051Y832D02*
X1057Y832D01*
X1075Y832D02*
X1081Y832D01*
X1291Y832D02*
X1298Y832D01*
X1Y831D02*
X8Y831D01*
X133Y831D02*
X139Y831D01*
X151Y831D02*
X157Y831D01*
X1028Y831D02*
X1034Y831D01*
X1051Y831D02*
X1057Y831D01*
X1075Y831D02*
X1081Y831D01*
X1291Y831D02*
X1298Y831D01*
X1Y830D02*
X8Y830D01*
X133Y830D02*
X139Y830D01*
X151Y830D02*
X157Y830D01*
X1028Y830D02*
X1034Y830D01*
X1051Y830D02*
X1057Y830D01*
X1075Y830D02*
X1081Y830D01*
X1291Y830D02*
X1298Y830D01*
X1Y829D02*
X8Y829D01*
X133Y829D02*
X139Y829D01*
X151Y829D02*
X157Y829D01*
X1028Y829D02*
X1034Y829D01*
X1051Y829D02*
X1057Y829D01*
X1075Y829D02*
X1081Y829D01*
X1291Y829D02*
X1298Y829D01*
X1Y828D02*
X8Y828D01*
X133Y828D02*
X139Y828D01*
X151Y828D02*
X157Y828D01*
X1028Y828D02*
X1034Y828D01*
X1051Y828D02*
X1057Y828D01*
X1075Y828D02*
X1081Y828D01*
X1291Y828D02*
X1298Y828D01*
X1Y827D02*
X8Y827D01*
X133Y827D02*
X139Y827D01*
X151Y827D02*
X157Y827D01*
X1028Y827D02*
X1034Y827D01*
X1051Y827D02*
X1057Y827D01*
X1075Y827D02*
X1081Y827D01*
X1291Y827D02*
X1298Y827D01*
X1Y826D02*
X8Y826D01*
X133Y826D02*
X139Y826D01*
X151Y826D02*
X157Y826D01*
X1028Y826D02*
X1034Y826D01*
X1051Y826D02*
X1057Y826D01*
X1075Y826D02*
X1081Y826D01*
X1291Y826D02*
X1298Y826D01*
X1Y825D02*
X8Y825D01*
X133Y825D02*
X139Y825D01*
X151Y825D02*
X157Y825D01*
X1028Y825D02*
X1034Y825D01*
X1051Y825D02*
X1057Y825D01*
X1075Y825D02*
X1081Y825D01*
X1291Y825D02*
X1298Y825D01*
X1Y824D02*
X8Y824D01*
X133Y824D02*
X139Y824D01*
X151Y824D02*
X157Y824D01*
X1028Y824D02*
X1057Y824D01*
X1075Y824D02*
X1081Y824D01*
X1291Y824D02*
X1298Y824D01*
X1Y823D02*
X8Y823D01*
X133Y823D02*
X139Y823D01*
X151Y823D02*
X157Y823D01*
X1028Y823D02*
X1057Y823D01*
X1075Y823D02*
X1081Y823D01*
X1291Y823D02*
X1298Y823D01*
X1Y822D02*
X8Y822D01*
X133Y822D02*
X139Y822D01*
X151Y822D02*
X157Y822D01*
X1028Y822D02*
X1057Y822D01*
X1075Y822D02*
X1081Y822D01*
X1291Y822D02*
X1298Y822D01*
X1Y821D02*
X8Y821D01*
X133Y821D02*
X139Y821D01*
X151Y821D02*
X157Y821D01*
X1028Y821D02*
X1057Y821D01*
X1075Y821D02*
X1081Y821D01*
X1291Y821D02*
X1298Y821D01*
X1Y820D02*
X8Y820D01*
X133Y820D02*
X139Y820D01*
X151Y820D02*
X157Y820D01*
X1028Y820D02*
X1057Y820D01*
X1074Y820D02*
X1081Y820D01*
X1291Y820D02*
X1298Y820D01*
X1Y819D02*
X8Y819D01*
X133Y819D02*
X139Y819D01*
X151Y819D02*
X157Y819D01*
X1028Y819D02*
X1057Y819D01*
X1074Y819D02*
X1080Y819D01*
X1291Y819D02*
X1298Y819D01*
X1Y818D02*
X8Y818D01*
X133Y818D02*
X139Y818D01*
X151Y818D02*
X157Y818D01*
X1028Y818D02*
X1057Y818D01*
X1073Y818D02*
X1080Y818D01*
X1291Y818D02*
X1298Y818D01*
X1Y817D02*
X8Y817D01*
X133Y817D02*
X139Y817D01*
X151Y817D02*
X157Y817D01*
X1073Y817D02*
X1079Y817D01*
X1291Y817D02*
X1298Y817D01*
X1Y816D02*
X8Y816D01*
X134Y816D02*
X139Y816D01*
X151Y816D02*
X157Y816D01*
X1073Y816D02*
X1079Y816D01*
X1291Y816D02*
X1298Y816D01*
X1Y815D02*
X8Y815D01*
X135Y815D02*
X138Y815D01*
X151Y815D02*
X157Y815D01*
X1073Y815D02*
X1078Y815D01*
X1291Y815D02*
X1298Y815D01*
X1Y814D02*
X8Y814D01*
X151Y814D02*
X157Y814D01*
X1074Y814D02*
X1077Y814D01*
X1291Y814D02*
X1298Y814D01*
X1Y813D02*
X8Y813D01*
X151Y813D02*
X157Y813D01*
X1291Y813D02*
X1298Y813D01*
X1Y812D02*
X8Y812D01*
X151Y812D02*
X157Y812D01*
X1291Y812D02*
X1298Y812D01*
X1Y811D02*
X8Y811D01*
X151Y811D02*
X157Y811D01*
X1291Y811D02*
X1298Y811D01*
X1Y810D02*
X8Y810D01*
X151Y810D02*
X157Y810D01*
X1291Y810D02*
X1298Y810D01*
X1Y809D02*
X8Y809D01*
X151Y809D02*
X156Y809D01*
X1291Y809D02*
X1298Y809D01*
X1Y808D02*
X8Y808D01*
X152Y808D02*
X155Y808D01*
X1291Y808D02*
X1298Y808D01*
X1Y807D02*
X8Y807D01*
X1291Y807D02*
X1298Y807D01*
X1Y806D02*
X8Y806D01*
X1291Y806D02*
X1298Y806D01*
X1Y805D02*
X8Y805D01*
X1291Y805D02*
X1298Y805D01*
X1Y804D02*
X8Y804D01*
X1291Y804D02*
X1298Y804D01*
X1Y803D02*
X8Y803D01*
X1291Y803D02*
X1298Y803D01*
X1Y802D02*
X8Y802D01*
X1291Y802D02*
X1298Y802D01*
X1Y801D02*
X8Y801D01*
X1291Y801D02*
X1298Y801D01*
X1Y800D02*
X8Y800D01*
X1291Y800D02*
X1298Y800D01*
X1Y799D02*
X8Y799D01*
X1291Y799D02*
X1298Y799D01*
X1Y798D02*
X8Y798D01*
X1291Y798D02*
X1298Y798D01*
X1Y797D02*
X8Y797D01*
X1291Y797D02*
X1298Y797D01*
X1Y796D02*
X8Y796D01*
X1291Y796D02*
X1298Y796D01*
X1Y795D02*
X8Y795D01*
X1291Y795D02*
X1298Y795D01*
X1Y794D02*
X8Y794D01*
X1291Y794D02*
X1298Y794D01*
X1Y793D02*
X8Y793D01*
X1029Y793D02*
X1032Y793D01*
X1056Y793D02*
X1077Y793D01*
X1291Y793D02*
X1298Y793D01*
X1Y792D02*
X8Y792D01*
X1028Y792D02*
X1033Y792D01*
X1054Y792D02*
X1078Y792D01*
X1291Y792D02*
X1298Y792D01*
X1Y791D02*
X8Y791D01*
X1028Y791D02*
X1034Y791D01*
X1053Y791D02*
X1079Y791D01*
X1291Y791D02*
X1298Y791D01*
X1Y790D02*
X8Y790D01*
X105Y790D02*
X157Y790D01*
X1028Y790D02*
X1034Y790D01*
X1052Y790D02*
X1080Y790D01*
X1291Y790D02*
X1298Y790D01*
X1Y789D02*
X8Y789D01*
X104Y789D02*
X157Y789D01*
X1028Y789D02*
X1034Y789D01*
X1052Y789D02*
X1080Y789D01*
X1291Y789D02*
X1298Y789D01*
X1Y788D02*
X8Y788D01*
X104Y788D02*
X157Y788D01*
X1028Y788D02*
X1034Y788D01*
X1051Y788D02*
X1081Y788D01*
X1291Y788D02*
X1298Y788D01*
X1Y787D02*
X8Y787D01*
X104Y787D02*
X157Y787D01*
X322Y787D02*
X325Y787D01*
X369Y787D02*
X372Y787D01*
X1028Y787D02*
X1034Y787D01*
X1051Y787D02*
X1081Y787D01*
X1291Y787D02*
X1298Y787D01*
X1Y786D02*
X8Y786D01*
X104Y786D02*
X157Y786D01*
X321Y786D02*
X326Y786D01*
X368Y786D02*
X373Y786D01*
X1028Y786D02*
X1034Y786D01*
X1051Y786D02*
X1057Y786D01*
X1075Y786D02*
X1081Y786D01*
X1291Y786D02*
X1298Y786D01*
X1Y785D02*
X8Y785D01*
X104Y785D02*
X157Y785D01*
X321Y785D02*
X326Y785D01*
X368Y785D02*
X374Y785D01*
X1028Y785D02*
X1034Y785D01*
X1051Y785D02*
X1057Y785D01*
X1075Y785D02*
X1081Y785D01*
X1291Y785D02*
X1298Y785D01*
X1Y784D02*
X8Y784D01*
X106Y784D02*
X157Y784D01*
X321Y784D02*
X327Y784D01*
X368Y784D02*
X374Y784D01*
X1028Y784D02*
X1034Y784D01*
X1051Y784D02*
X1057Y784D01*
X1075Y784D02*
X1081Y784D01*
X1291Y784D02*
X1298Y784D01*
X1Y783D02*
X8Y783D01*
X133Y783D02*
X139Y783D01*
X151Y783D02*
X157Y783D01*
X321Y783D02*
X327Y783D01*
X368Y783D02*
X374Y783D01*
X1028Y783D02*
X1034Y783D01*
X1051Y783D02*
X1057Y783D01*
X1075Y783D02*
X1081Y783D01*
X1291Y783D02*
X1298Y783D01*
X1Y782D02*
X8Y782D01*
X133Y782D02*
X139Y782D01*
X151Y782D02*
X157Y782D01*
X321Y782D02*
X327Y782D01*
X368Y782D02*
X374Y782D01*
X1028Y782D02*
X1034Y782D01*
X1051Y782D02*
X1057Y782D01*
X1075Y782D02*
X1081Y782D01*
X1291Y782D02*
X1298Y782D01*
X1Y781D02*
X8Y781D01*
X133Y781D02*
X139Y781D01*
X151Y781D02*
X157Y781D01*
X321Y781D02*
X327Y781D01*
X368Y781D02*
X374Y781D01*
X1028Y781D02*
X1034Y781D01*
X1051Y781D02*
X1057Y781D01*
X1075Y781D02*
X1081Y781D01*
X1291Y781D02*
X1298Y781D01*
X1Y780D02*
X8Y780D01*
X133Y780D02*
X139Y780D01*
X151Y780D02*
X157Y780D01*
X321Y780D02*
X374Y780D01*
X1028Y780D02*
X1034Y780D01*
X1051Y780D02*
X1057Y780D01*
X1075Y780D02*
X1081Y780D01*
X1291Y780D02*
X1298Y780D01*
X1Y779D02*
X8Y779D01*
X133Y779D02*
X139Y779D01*
X151Y779D02*
X157Y779D01*
X321Y779D02*
X374Y779D01*
X1028Y779D02*
X1034Y779D01*
X1051Y779D02*
X1057Y779D01*
X1075Y779D02*
X1081Y779D01*
X1291Y779D02*
X1298Y779D01*
X1Y778D02*
X8Y778D01*
X133Y778D02*
X139Y778D01*
X151Y778D02*
X157Y778D01*
X321Y778D02*
X374Y778D01*
X1028Y778D02*
X1034Y778D01*
X1051Y778D02*
X1057Y778D01*
X1075Y778D02*
X1081Y778D01*
X1291Y778D02*
X1298Y778D01*
X1Y777D02*
X8Y777D01*
X133Y777D02*
X139Y777D01*
X151Y777D02*
X157Y777D01*
X321Y777D02*
X374Y777D01*
X1028Y777D02*
X1034Y777D01*
X1051Y777D02*
X1057Y777D01*
X1075Y777D02*
X1081Y777D01*
X1291Y777D02*
X1298Y777D01*
X1Y776D02*
X8Y776D01*
X133Y776D02*
X139Y776D01*
X151Y776D02*
X157Y776D01*
X321Y776D02*
X374Y776D01*
X1028Y776D02*
X1034Y776D01*
X1051Y776D02*
X1057Y776D01*
X1075Y776D02*
X1081Y776D01*
X1291Y776D02*
X1298Y776D01*
X1Y775D02*
X8Y775D01*
X133Y775D02*
X139Y775D01*
X151Y775D02*
X157Y775D01*
X321Y775D02*
X374Y775D01*
X1028Y775D02*
X1034Y775D01*
X1051Y775D02*
X1057Y775D01*
X1075Y775D02*
X1081Y775D01*
X1291Y775D02*
X1298Y775D01*
X1Y774D02*
X8Y774D01*
X133Y774D02*
X139Y774D01*
X151Y774D02*
X157Y774D01*
X321Y774D02*
X374Y774D01*
X1028Y774D02*
X1034Y774D01*
X1051Y774D02*
X1057Y774D01*
X1075Y774D02*
X1081Y774D01*
X1291Y774D02*
X1298Y774D01*
X1Y773D02*
X8Y773D01*
X133Y773D02*
X139Y773D01*
X151Y773D02*
X157Y773D01*
X321Y773D02*
X327Y773D01*
X368Y773D02*
X374Y773D01*
X1028Y773D02*
X1034Y773D01*
X1051Y773D02*
X1057Y773D01*
X1075Y773D02*
X1081Y773D01*
X1291Y773D02*
X1298Y773D01*
X1Y772D02*
X8Y772D01*
X133Y772D02*
X139Y772D01*
X151Y772D02*
X157Y772D01*
X321Y772D02*
X327Y772D01*
X368Y772D02*
X374Y772D01*
X1028Y772D02*
X1057Y772D01*
X1075Y772D02*
X1081Y772D01*
X1291Y772D02*
X1298Y772D01*
X1Y771D02*
X8Y771D01*
X133Y771D02*
X139Y771D01*
X151Y771D02*
X157Y771D01*
X321Y771D02*
X327Y771D01*
X368Y771D02*
X374Y771D01*
X1028Y771D02*
X1057Y771D01*
X1075Y771D02*
X1081Y771D01*
X1291Y771D02*
X1298Y771D01*
X1Y770D02*
X8Y770D01*
X133Y770D02*
X139Y770D01*
X151Y770D02*
X157Y770D01*
X321Y770D02*
X327Y770D01*
X368Y770D02*
X374Y770D01*
X1028Y770D02*
X1057Y770D01*
X1075Y770D02*
X1081Y770D01*
X1291Y770D02*
X1298Y770D01*
X1Y769D02*
X8Y769D01*
X133Y769D02*
X139Y769D01*
X151Y769D02*
X157Y769D01*
X321Y769D02*
X327Y769D01*
X368Y769D02*
X374Y769D01*
X1028Y769D02*
X1057Y769D01*
X1074Y769D02*
X1081Y769D01*
X1291Y769D02*
X1298Y769D01*
X1Y768D02*
X8Y768D01*
X133Y768D02*
X139Y768D01*
X151Y768D02*
X157Y768D01*
X321Y768D02*
X327Y768D01*
X368Y768D02*
X374Y768D01*
X1028Y768D02*
X1057Y768D01*
X1074Y768D02*
X1081Y768D01*
X1291Y768D02*
X1298Y768D01*
X1Y767D02*
X8Y767D01*
X133Y767D02*
X139Y767D01*
X151Y767D02*
X157Y767D01*
X321Y767D02*
X328Y767D01*
X367Y767D02*
X373Y767D01*
X1028Y767D02*
X1057Y767D01*
X1073Y767D02*
X1080Y767D01*
X1291Y767D02*
X1298Y767D01*
X1Y766D02*
X8Y766D01*
X133Y766D02*
X139Y766D01*
X151Y766D02*
X157Y766D01*
X321Y766D02*
X329Y766D01*
X366Y766D02*
X373Y766D01*
X1028Y766D02*
X1057Y766D01*
X1073Y766D02*
X1080Y766D01*
X1291Y766D02*
X1298Y766D01*
X1Y765D02*
X8Y765D01*
X133Y765D02*
X139Y765D01*
X151Y765D02*
X157Y765D01*
X322Y765D02*
X331Y765D01*
X364Y765D02*
X373Y765D01*
X1073Y765D02*
X1079Y765D01*
X1291Y765D02*
X1298Y765D01*
X1Y764D02*
X8Y764D01*
X134Y764D02*
X138Y764D01*
X151Y764D02*
X157Y764D01*
X322Y764D02*
X333Y764D01*
X362Y764D02*
X372Y764D01*
X1073Y764D02*
X1078Y764D01*
X1291Y764D02*
X1298Y764D01*
X1Y763D02*
X8Y763D01*
X136Y763D02*
X136Y763D01*
X151Y763D02*
X157Y763D01*
X323Y763D02*
X335Y763D01*
X360Y763D02*
X372Y763D01*
X1074Y763D02*
X1078Y763D01*
X1291Y763D02*
X1298Y763D01*
X1Y762D02*
X8Y762D01*
X151Y762D02*
X157Y762D01*
X323Y762D02*
X337Y762D01*
X358Y762D02*
X371Y762D01*
X1075Y762D02*
X1077Y762D01*
X1291Y762D02*
X1298Y762D01*
X1Y761D02*
X8Y761D01*
X151Y761D02*
X157Y761D01*
X325Y761D02*
X339Y761D01*
X356Y761D02*
X370Y761D01*
X1291Y761D02*
X1298Y761D01*
X1Y760D02*
X8Y760D01*
X151Y760D02*
X157Y760D01*
X326Y760D02*
X341Y760D01*
X354Y760D02*
X368Y760D01*
X1291Y760D02*
X1298Y760D01*
X1Y759D02*
X8Y759D01*
X151Y759D02*
X157Y759D01*
X328Y759D02*
X343Y759D01*
X352Y759D02*
X366Y759D01*
X1291Y759D02*
X1298Y759D01*
X1Y758D02*
X8Y758D01*
X151Y758D02*
X156Y758D01*
X330Y758D02*
X364Y758D01*
X1291Y758D02*
X1298Y758D01*
X1Y757D02*
X8Y757D01*
X152Y757D02*
X156Y757D01*
X332Y757D02*
X362Y757D01*
X1291Y757D02*
X1298Y757D01*
X1Y756D02*
X8Y756D01*
X334Y756D02*
X360Y756D01*
X1291Y756D02*
X1298Y756D01*
X1Y755D02*
X8Y755D01*
X336Y755D02*
X358Y755D01*
X1291Y755D02*
X1298Y755D01*
X1Y754D02*
X8Y754D01*
X338Y754D02*
X356Y754D01*
X1291Y754D02*
X1298Y754D01*
X1Y753D02*
X8Y753D01*
X340Y753D02*
X354Y753D01*
X1291Y753D02*
X1298Y753D01*
X1Y752D02*
X8Y752D01*
X342Y752D02*
X352Y752D01*
X1291Y752D02*
X1298Y752D01*
X1Y751D02*
X8Y751D01*
X347Y751D02*
X347Y751D01*
X1291Y751D02*
X1298Y751D01*
X1Y750D02*
X8Y750D01*
X1291Y750D02*
X1298Y750D01*
X1Y749D02*
X8Y749D01*
X1291Y749D02*
X1298Y749D01*
X1Y748D02*
X8Y748D01*
X1291Y748D02*
X1298Y748D01*
X1Y747D02*
X8Y747D01*
X1291Y747D02*
X1298Y747D01*
X1Y746D02*
X8Y746D01*
X1291Y746D02*
X1298Y746D01*
X1Y745D02*
X8Y745D01*
X1291Y745D02*
X1298Y745D01*
X1Y744D02*
X8Y744D01*
X1291Y744D02*
X1298Y744D01*
X1Y743D02*
X8Y743D01*
X1291Y743D02*
X1298Y743D01*
X1Y742D02*
X8Y742D01*
X1030Y742D02*
X1031Y742D01*
X1057Y742D02*
X1075Y742D01*
X1291Y742D02*
X1298Y742D01*
X1Y741D02*
X8Y741D01*
X1029Y741D02*
X1033Y741D01*
X1054Y741D02*
X1078Y741D01*
X1291Y741D02*
X1298Y741D01*
X1Y740D02*
X8Y740D01*
X1028Y740D02*
X1033Y740D01*
X1053Y740D02*
X1079Y740D01*
X1291Y740D02*
X1298Y740D01*
X1Y739D02*
X8Y739D01*
X1028Y739D02*
X1034Y739D01*
X1052Y739D02*
X1080Y739D01*
X1291Y739D02*
X1298Y739D01*
X1Y738D02*
X8Y738D01*
X1028Y738D02*
X1034Y738D01*
X1052Y738D02*
X1080Y738D01*
X1291Y738D02*
X1298Y738D01*
X1Y737D02*
X8Y737D01*
X1028Y737D02*
X1034Y737D01*
X1052Y737D02*
X1081Y737D01*
X1291Y737D02*
X1298Y737D01*
X1Y736D02*
X8Y736D01*
X1028Y736D02*
X1034Y736D01*
X1051Y736D02*
X1081Y736D01*
X1291Y736D02*
X1298Y736D01*
X1Y735D02*
X8Y735D01*
X323Y735D02*
X324Y735D01*
X370Y735D02*
X371Y735D01*
X1028Y735D02*
X1034Y735D01*
X1051Y735D02*
X1058Y735D01*
X1075Y735D02*
X1081Y735D01*
X1291Y735D02*
X1298Y735D01*
X1Y734D02*
X8Y734D01*
X322Y734D02*
X326Y734D01*
X369Y734D02*
X373Y734D01*
X1028Y734D02*
X1034Y734D01*
X1051Y734D02*
X1057Y734D01*
X1075Y734D02*
X1081Y734D01*
X1291Y734D02*
X1298Y734D01*
X1Y733D02*
X8Y733D01*
X321Y733D02*
X326Y733D01*
X368Y733D02*
X373Y733D01*
X1028Y733D02*
X1034Y733D01*
X1051Y733D02*
X1057Y733D01*
X1075Y733D02*
X1081Y733D01*
X1291Y733D02*
X1298Y733D01*
X1Y732D02*
X8Y732D01*
X321Y732D02*
X327Y732D01*
X368Y732D02*
X374Y732D01*
X1028Y732D02*
X1034Y732D01*
X1051Y732D02*
X1057Y732D01*
X1075Y732D02*
X1081Y732D01*
X1291Y732D02*
X1298Y732D01*
X1Y731D02*
X8Y731D01*
X321Y731D02*
X327Y731D01*
X368Y731D02*
X374Y731D01*
X1028Y731D02*
X1034Y731D01*
X1051Y731D02*
X1057Y731D01*
X1075Y731D02*
X1081Y731D01*
X1291Y731D02*
X1298Y731D01*
X1Y730D02*
X8Y730D01*
X321Y730D02*
X327Y730D01*
X368Y730D02*
X374Y730D01*
X1028Y730D02*
X1034Y730D01*
X1051Y730D02*
X1057Y730D01*
X1075Y730D02*
X1081Y730D01*
X1291Y730D02*
X1298Y730D01*
X1Y729D02*
X8Y729D01*
X321Y729D02*
X327Y729D01*
X368Y729D02*
X374Y729D01*
X1028Y729D02*
X1034Y729D01*
X1051Y729D02*
X1057Y729D01*
X1075Y729D02*
X1081Y729D01*
X1291Y729D02*
X1298Y729D01*
X1Y728D02*
X8Y728D01*
X321Y728D02*
X327Y728D01*
X368Y728D02*
X374Y728D01*
X1028Y728D02*
X1034Y728D01*
X1051Y728D02*
X1057Y728D01*
X1075Y728D02*
X1081Y728D01*
X1291Y728D02*
X1298Y728D01*
X1Y727D02*
X8Y727D01*
X321Y727D02*
X327Y727D01*
X368Y727D02*
X374Y727D01*
X1028Y727D02*
X1034Y727D01*
X1051Y727D02*
X1057Y727D01*
X1075Y727D02*
X1081Y727D01*
X1291Y727D02*
X1298Y727D01*
X1Y726D02*
X8Y726D01*
X321Y726D02*
X327Y726D01*
X368Y726D02*
X374Y726D01*
X1028Y726D02*
X1034Y726D01*
X1051Y726D02*
X1057Y726D01*
X1075Y726D02*
X1081Y726D01*
X1291Y726D02*
X1298Y726D01*
X1Y725D02*
X8Y725D01*
X321Y725D02*
X327Y725D01*
X368Y725D02*
X374Y725D01*
X1028Y725D02*
X1034Y725D01*
X1051Y725D02*
X1057Y725D01*
X1075Y725D02*
X1081Y725D01*
X1291Y725D02*
X1298Y725D01*
X1Y724D02*
X8Y724D01*
X321Y724D02*
X327Y724D01*
X368Y724D02*
X374Y724D01*
X1028Y724D02*
X1034Y724D01*
X1051Y724D02*
X1057Y724D01*
X1075Y724D02*
X1081Y724D01*
X1291Y724D02*
X1298Y724D01*
X1Y723D02*
X8Y723D01*
X321Y723D02*
X327Y723D01*
X368Y723D02*
X374Y723D01*
X1028Y723D02*
X1034Y723D01*
X1051Y723D02*
X1057Y723D01*
X1075Y723D02*
X1081Y723D01*
X1291Y723D02*
X1298Y723D01*
X1Y722D02*
X8Y722D01*
X321Y722D02*
X327Y722D01*
X368Y722D02*
X374Y722D01*
X1028Y722D02*
X1034Y722D01*
X1051Y722D02*
X1057Y722D01*
X1075Y722D02*
X1081Y722D01*
X1291Y722D02*
X1298Y722D01*
X1Y721D02*
X8Y721D01*
X321Y721D02*
X374Y721D01*
X1028Y721D02*
X1057Y721D01*
X1075Y721D02*
X1081Y721D01*
X1291Y721D02*
X1298Y721D01*
X1Y720D02*
X8Y720D01*
X321Y720D02*
X374Y720D01*
X1028Y720D02*
X1057Y720D01*
X1075Y720D02*
X1081Y720D01*
X1291Y720D02*
X1298Y720D01*
X1Y719D02*
X8Y719D01*
X321Y719D02*
X374Y719D01*
X1028Y719D02*
X1057Y719D01*
X1075Y719D02*
X1081Y719D01*
X1291Y719D02*
X1298Y719D01*
X1Y718D02*
X8Y718D01*
X321Y718D02*
X374Y718D01*
X1028Y718D02*
X1057Y718D01*
X1074Y718D02*
X1081Y718D01*
X1291Y718D02*
X1298Y718D01*
X1Y717D02*
X8Y717D01*
X321Y717D02*
X374Y717D01*
X1028Y717D02*
X1057Y717D01*
X1074Y717D02*
X1081Y717D01*
X1291Y717D02*
X1298Y717D01*
X1Y716D02*
X8Y716D01*
X321Y716D02*
X374Y716D01*
X1028Y716D02*
X1057Y716D01*
X1073Y716D02*
X1080Y716D01*
X1291Y716D02*
X1298Y716D01*
X1Y715D02*
X8Y715D01*
X321Y715D02*
X374Y715D01*
X1028Y715D02*
X1057Y715D01*
X1073Y715D02*
X1080Y715D01*
X1291Y715D02*
X1298Y715D01*
X1Y714D02*
X8Y714D01*
X321Y714D02*
X327Y714D01*
X1073Y714D02*
X1079Y714D01*
X1291Y714D02*
X1298Y714D01*
X1Y713D02*
X8Y713D01*
X321Y713D02*
X327Y713D01*
X1073Y713D02*
X1079Y713D01*
X1291Y713D02*
X1298Y713D01*
X1Y712D02*
X8Y712D01*
X321Y712D02*
X327Y712D01*
X1073Y712D02*
X1078Y712D01*
X1291Y712D02*
X1298Y712D01*
X1Y711D02*
X8Y711D01*
X321Y711D02*
X327Y711D01*
X1074Y711D02*
X1077Y711D01*
X1291Y711D02*
X1298Y711D01*
X1Y710D02*
X8Y710D01*
X321Y710D02*
X327Y710D01*
X1291Y710D02*
X1298Y710D01*
X1Y709D02*
X8Y709D01*
X321Y709D02*
X327Y709D01*
X1291Y709D02*
X1298Y709D01*
X1Y708D02*
X8Y708D01*
X321Y708D02*
X327Y708D01*
X1291Y708D02*
X1298Y708D01*
X1Y707D02*
X8Y707D01*
X321Y707D02*
X339Y707D01*
X1291Y707D02*
X1298Y707D01*
X1Y706D02*
X8Y706D01*
X321Y706D02*
X340Y706D01*
X1291Y706D02*
X1298Y706D01*
X1Y705D02*
X8Y705D01*
X321Y705D02*
X340Y705D01*
X1291Y705D02*
X1298Y705D01*
X1Y704D02*
X8Y704D01*
X321Y704D02*
X341Y704D01*
X1291Y704D02*
X1298Y704D01*
X1Y703D02*
X8Y703D01*
X321Y703D02*
X340Y703D01*
X1291Y703D02*
X1298Y703D01*
X1Y702D02*
X8Y702D01*
X321Y702D02*
X340Y702D01*
X1291Y702D02*
X1298Y702D01*
X1Y701D02*
X8Y701D01*
X323Y701D02*
X339Y701D01*
X1291Y701D02*
X1298Y701D01*
X1Y700D02*
X8Y700D01*
X1291Y700D02*
X1298Y700D01*
X1Y699D02*
X8Y699D01*
X1291Y699D02*
X1298Y699D01*
X1Y698D02*
X8Y698D01*
X1291Y698D02*
X1298Y698D01*
X1Y697D02*
X8Y697D01*
X1291Y697D02*
X1298Y697D01*
X1Y696D02*
X8Y696D01*
X1291Y696D02*
X1298Y696D01*
X1Y695D02*
X8Y695D01*
X1291Y695D02*
X1298Y695D01*
X1Y694D02*
X8Y694D01*
X1291Y694D02*
X1298Y694D01*
X1Y693D02*
X8Y693D01*
X1291Y693D02*
X1298Y693D01*
X1Y692D02*
X8Y692D01*
X1291Y692D02*
X1298Y692D01*
X1Y691D02*
X8Y691D01*
X1030Y691D02*
X1031Y691D01*
X1077Y691D02*
X1078Y691D01*
X1291Y691D02*
X1298Y691D01*
X1Y690D02*
X8Y690D01*
X1029Y690D02*
X1033Y690D01*
X1076Y690D02*
X1080Y690D01*
X1291Y690D02*
X1298Y690D01*
X1Y689D02*
X8Y689D01*
X1028Y689D02*
X1033Y689D01*
X1075Y689D02*
X1081Y689D01*
X1291Y689D02*
X1298Y689D01*
X1Y688D02*
X8Y688D01*
X1028Y688D02*
X1034Y688D01*
X1075Y688D02*
X1081Y688D01*
X1291Y688D02*
X1298Y688D01*
X1Y687D02*
X8Y687D01*
X1028Y687D02*
X1034Y687D01*
X1075Y687D02*
X1081Y687D01*
X1291Y687D02*
X1298Y687D01*
X1Y686D02*
X8Y686D01*
X1028Y686D02*
X1034Y686D01*
X1075Y686D02*
X1081Y686D01*
X1291Y686D02*
X1298Y686D01*
X1Y685D02*
X8Y685D01*
X1028Y685D02*
X1034Y685D01*
X1075Y685D02*
X1081Y685D01*
X1291Y685D02*
X1298Y685D01*
X1Y684D02*
X8Y684D01*
X1028Y684D02*
X1034Y684D01*
X1075Y684D02*
X1081Y684D01*
X1291Y684D02*
X1298Y684D01*
X1Y683D02*
X8Y683D01*
X1028Y683D02*
X1034Y683D01*
X1075Y683D02*
X1081Y683D01*
X1291Y683D02*
X1298Y683D01*
X1Y682D02*
X8Y682D01*
X151Y682D02*
X156Y682D01*
X1028Y682D02*
X1034Y682D01*
X1075Y682D02*
X1081Y682D01*
X1291Y682D02*
X1298Y682D01*
X1Y681D02*
X8Y681D01*
X149Y681D02*
X159Y681D01*
X1028Y681D02*
X1034Y681D01*
X1075Y681D02*
X1081Y681D01*
X1291Y681D02*
X1298Y681D01*
X1Y680D02*
X8Y680D01*
X148Y680D02*
X159Y680D01*
X1028Y680D02*
X1034Y680D01*
X1075Y680D02*
X1081Y680D01*
X1291Y680D02*
X1298Y680D01*
X1Y679D02*
X8Y679D01*
X148Y679D02*
X160Y679D01*
X1028Y679D02*
X1034Y679D01*
X1052Y679D02*
X1056Y679D01*
X1075Y679D02*
X1081Y679D01*
X1291Y679D02*
X1298Y679D01*
X1Y678D02*
X8Y678D01*
X148Y678D02*
X160Y678D01*
X1028Y678D02*
X1034Y678D01*
X1052Y678D02*
X1057Y678D01*
X1075Y678D02*
X1081Y678D01*
X1291Y678D02*
X1298Y678D01*
X1Y677D02*
X8Y677D01*
X148Y677D02*
X160Y677D01*
X1028Y677D02*
X1034Y677D01*
X1051Y677D02*
X1057Y677D01*
X1075Y677D02*
X1081Y677D01*
X1291Y677D02*
X1298Y677D01*
X1Y676D02*
X8Y676D01*
X149Y676D02*
X160Y676D01*
X1028Y676D02*
X1034Y676D01*
X1051Y676D02*
X1057Y676D01*
X1075Y676D02*
X1081Y676D01*
X1291Y676D02*
X1298Y676D01*
X1Y675D02*
X8Y675D01*
X153Y675D02*
X160Y675D01*
X1028Y675D02*
X1034Y675D01*
X1051Y675D02*
X1057Y675D01*
X1075Y675D02*
X1081Y675D01*
X1291Y675D02*
X1298Y675D01*
X1Y674D02*
X8Y674D01*
X154Y674D02*
X160Y674D01*
X1028Y674D02*
X1034Y674D01*
X1051Y674D02*
X1057Y674D01*
X1075Y674D02*
X1081Y674D01*
X1291Y674D02*
X1298Y674D01*
X1Y673D02*
X8Y673D01*
X154Y673D02*
X160Y673D01*
X1028Y673D02*
X1034Y673D01*
X1051Y673D02*
X1057Y673D01*
X1075Y673D02*
X1081Y673D01*
X1291Y673D02*
X1298Y673D01*
X1Y672D02*
X8Y672D01*
X154Y672D02*
X160Y672D01*
X1028Y672D02*
X1034Y672D01*
X1051Y672D02*
X1057Y672D01*
X1075Y672D02*
X1081Y672D01*
X1291Y672D02*
X1298Y672D01*
X1Y671D02*
X8Y671D01*
X154Y671D02*
X160Y671D01*
X1028Y671D02*
X1034Y671D01*
X1051Y671D02*
X1057Y671D01*
X1075Y671D02*
X1081Y671D01*
X1291Y671D02*
X1298Y671D01*
X1Y670D02*
X8Y670D01*
X154Y670D02*
X160Y670D01*
X1028Y670D02*
X1034Y670D01*
X1051Y670D02*
X1057Y670D01*
X1075Y670D02*
X1081Y670D01*
X1291Y670D02*
X1298Y670D01*
X1Y669D02*
X8Y669D01*
X154Y669D02*
X160Y669D01*
X1028Y669D02*
X1034Y669D01*
X1051Y669D02*
X1057Y669D01*
X1075Y669D02*
X1081Y669D01*
X1291Y669D02*
X1298Y669D01*
X1Y668D02*
X8Y668D01*
X154Y668D02*
X160Y668D01*
X1028Y668D02*
X1034Y668D01*
X1051Y668D02*
X1057Y668D01*
X1075Y668D02*
X1081Y668D01*
X1291Y668D02*
X1298Y668D01*
X1Y667D02*
X8Y667D01*
X108Y667D02*
X160Y667D01*
X1028Y667D02*
X1034Y667D01*
X1051Y667D02*
X1057Y667D01*
X1075Y667D02*
X1081Y667D01*
X1291Y667D02*
X1298Y667D01*
X1Y666D02*
X8Y666D01*
X107Y666D02*
X160Y666D01*
X1028Y666D02*
X1034Y666D01*
X1051Y666D02*
X1057Y666D01*
X1075Y666D02*
X1081Y666D01*
X1291Y666D02*
X1298Y666D01*
X1Y665D02*
X8Y665D01*
X107Y665D02*
X160Y665D01*
X1028Y665D02*
X1081Y665D01*
X1291Y665D02*
X1298Y665D01*
X1Y664D02*
X8Y664D01*
X107Y664D02*
X160Y664D01*
X1028Y664D02*
X1081Y664D01*
X1291Y664D02*
X1298Y664D01*
X1Y663D02*
X8Y663D01*
X107Y663D02*
X160Y663D01*
X1028Y663D02*
X1081Y663D01*
X1291Y663D02*
X1298Y663D01*
X1Y662D02*
X8Y662D01*
X107Y662D02*
X160Y662D01*
X1028Y662D02*
X1081Y662D01*
X1291Y662D02*
X1298Y662D01*
X1Y661D02*
X8Y661D01*
X109Y661D02*
X160Y661D01*
X1028Y661D02*
X1081Y661D01*
X1291Y661D02*
X1298Y661D01*
X1Y660D02*
X8Y660D01*
X154Y660D02*
X160Y660D01*
X1028Y660D02*
X1081Y660D01*
X1291Y660D02*
X1298Y660D01*
X1Y659D02*
X8Y659D01*
X154Y659D02*
X160Y659D01*
X1028Y659D02*
X1080Y659D01*
X1291Y659D02*
X1298Y659D01*
X1Y658D02*
X8Y658D01*
X154Y658D02*
X160Y658D01*
X1291Y658D02*
X1298Y658D01*
X1Y657D02*
X8Y657D01*
X154Y657D02*
X160Y657D01*
X1291Y657D02*
X1298Y657D01*
X1Y656D02*
X8Y656D01*
X154Y656D02*
X160Y656D01*
X1291Y656D02*
X1298Y656D01*
X1Y655D02*
X8Y655D01*
X154Y655D02*
X160Y655D01*
X1291Y655D02*
X1298Y655D01*
X1Y654D02*
X8Y654D01*
X154Y654D02*
X160Y654D01*
X1291Y654D02*
X1298Y654D01*
X1Y653D02*
X8Y653D01*
X151Y653D02*
X160Y653D01*
X1291Y653D02*
X1298Y653D01*
X1Y652D02*
X8Y652D01*
X149Y652D02*
X160Y652D01*
X306Y652D02*
X395Y652D01*
X1291Y652D02*
X1298Y652D01*
X1Y651D02*
X8Y651D01*
X148Y651D02*
X160Y651D01*
X306Y651D02*
X395Y651D01*
X1291Y651D02*
X1298Y651D01*
X1Y650D02*
X8Y650D01*
X148Y650D02*
X160Y650D01*
X306Y650D02*
X395Y650D01*
X1291Y650D02*
X1298Y650D01*
X1Y649D02*
X8Y649D01*
X148Y649D02*
X160Y649D01*
X306Y649D02*
X395Y649D01*
X1291Y649D02*
X1298Y649D01*
X1Y648D02*
X8Y648D01*
X148Y648D02*
X159Y648D01*
X306Y648D02*
X395Y648D01*
X1291Y648D02*
X1298Y648D01*
X1Y647D02*
X8Y647D01*
X149Y647D02*
X158Y647D01*
X306Y647D02*
X395Y647D01*
X1291Y647D02*
X1298Y647D01*
X1Y646D02*
X8Y646D01*
X306Y646D02*
X395Y646D01*
X1291Y646D02*
X1298Y646D01*
X1Y645D02*
X8Y645D01*
X306Y645D02*
X395Y645D01*
X1291Y645D02*
X1298Y645D01*
X1Y644D02*
X8Y644D01*
X306Y644D02*
X343Y644D01*
X357Y644D02*
X395Y644D01*
X1291Y644D02*
X1298Y644D01*
X1Y643D02*
X8Y643D01*
X306Y643D02*
X338Y643D01*
X362Y643D02*
X395Y643D01*
X1291Y643D02*
X1298Y643D01*
X1Y642D02*
X8Y642D01*
X1291Y642D02*
X1298Y642D01*
X1Y641D02*
X8Y641D01*
X1291Y641D02*
X1298Y641D01*
X1Y640D02*
X8Y640D01*
X1029Y640D02*
X1081Y640D01*
X1291Y640D02*
X1298Y640D01*
X1Y639D02*
X8Y639D01*
X1028Y639D02*
X1081Y639D01*
X1291Y639D02*
X1298Y639D01*
X1Y638D02*
X8Y638D01*
X1028Y638D02*
X1081Y638D01*
X1291Y638D02*
X1298Y638D01*
X1Y637D02*
X8Y637D01*
X1028Y637D02*
X1081Y637D01*
X1291Y637D02*
X1298Y637D01*
X1Y636D02*
X8Y636D01*
X1028Y636D02*
X1081Y636D01*
X1291Y636D02*
X1298Y636D01*
X1Y635D02*
X8Y635D01*
X1029Y635D02*
X1081Y635D01*
X1291Y635D02*
X1298Y635D01*
X1Y634D02*
X8Y634D01*
X1030Y634D02*
X1081Y634D01*
X1291Y634D02*
X1298Y634D01*
X1Y633D02*
X8Y633D01*
X1068Y633D02*
X1081Y633D01*
X1291Y633D02*
X1298Y633D01*
X1Y632D02*
X8Y632D01*
X1066Y632D02*
X1081Y632D01*
X1291Y632D02*
X1298Y632D01*
X1Y631D02*
X8Y631D01*
X1063Y631D02*
X1080Y631D01*
X1291Y631D02*
X1298Y631D01*
X1Y630D02*
X8Y630D01*
X1061Y630D02*
X1078Y630D01*
X1291Y630D02*
X1298Y630D01*
X1Y629D02*
X8Y629D01*
X101Y629D02*
X104Y629D01*
X1059Y629D02*
X1075Y629D01*
X1291Y629D02*
X1298Y629D01*
X1Y628D02*
X8Y628D01*
X100Y628D02*
X105Y628D01*
X1056Y628D02*
X1073Y628D01*
X1291Y628D02*
X1298Y628D01*
X1Y627D02*
X8Y627D01*
X100Y627D02*
X105Y627D01*
X1054Y627D02*
X1071Y627D01*
X1291Y627D02*
X1298Y627D01*
X1Y626D02*
X8Y626D01*
X99Y626D02*
X106Y626D01*
X1052Y626D02*
X1068Y626D01*
X1291Y626D02*
X1298Y626D01*
X1Y625D02*
X8Y625D01*
X99Y625D02*
X106Y625D01*
X1050Y625D02*
X1066Y625D01*
X1291Y625D02*
X1298Y625D01*
X1Y624D02*
X8Y624D01*
X99Y624D02*
X106Y624D01*
X1047Y624D02*
X1064Y624D01*
X1291Y624D02*
X1298Y624D01*
X1Y623D02*
X8Y623D01*
X99Y623D02*
X106Y623D01*
X1045Y623D02*
X1062Y623D01*
X1291Y623D02*
X1298Y623D01*
X1Y622D02*
X8Y622D01*
X99Y622D02*
X106Y622D01*
X1043Y622D02*
X1059Y622D01*
X1291Y622D02*
X1298Y622D01*
X1Y621D02*
X8Y621D01*
X99Y621D02*
X106Y621D01*
X1041Y621D02*
X1057Y621D01*
X1291Y621D02*
X1298Y621D01*
X1Y620D02*
X8Y620D01*
X99Y620D02*
X106Y620D01*
X1038Y620D02*
X1055Y620D01*
X1291Y620D02*
X1298Y620D01*
X1Y619D02*
X8Y619D01*
X99Y619D02*
X106Y619D01*
X1036Y619D02*
X1053Y619D01*
X1291Y619D02*
X1298Y619D01*
X1Y618D02*
X8Y618D01*
X99Y618D02*
X106Y618D01*
X1034Y618D02*
X1050Y618D01*
X1291Y618D02*
X1298Y618D01*
X1Y617D02*
X8Y617D01*
X99Y617D02*
X106Y617D01*
X1031Y617D02*
X1048Y617D01*
X1291Y617D02*
X1298Y617D01*
X1Y616D02*
X8Y616D01*
X99Y616D02*
X106Y616D01*
X1029Y616D02*
X1046Y616D01*
X1291Y616D02*
X1298Y616D01*
X1Y615D02*
X8Y615D01*
X99Y615D02*
X106Y615D01*
X1028Y615D02*
X1043Y615D01*
X1291Y615D02*
X1298Y615D01*
X1Y614D02*
X8Y614D01*
X99Y614D02*
X106Y614D01*
X1028Y614D02*
X1041Y614D01*
X1291Y614D02*
X1298Y614D01*
X1Y613D02*
X8Y613D01*
X99Y613D02*
X106Y613D01*
X1028Y613D02*
X1078Y613D01*
X1291Y613D02*
X1298Y613D01*
X1Y612D02*
X8Y612D01*
X99Y612D02*
X106Y612D01*
X1028Y612D02*
X1080Y612D01*
X1291Y612D02*
X1298Y612D01*
X1Y611D02*
X8Y611D01*
X99Y611D02*
X106Y611D01*
X1028Y611D02*
X1081Y611D01*
X1291Y611D02*
X1298Y611D01*
X1Y610D02*
X8Y610D01*
X99Y610D02*
X106Y610D01*
X1028Y610D02*
X1081Y610D01*
X1291Y610D02*
X1298Y610D01*
X1Y609D02*
X8Y609D01*
X99Y609D02*
X106Y609D01*
X1028Y609D02*
X1081Y609D01*
X1291Y609D02*
X1298Y609D01*
X1Y608D02*
X8Y608D01*
X99Y608D02*
X106Y608D01*
X1028Y608D02*
X1080Y608D01*
X1291Y608D02*
X1298Y608D01*
X1Y607D02*
X8Y607D01*
X99Y607D02*
X106Y607D01*
X1028Y607D02*
X1080Y607D01*
X1291Y607D02*
X1298Y607D01*
X1Y606D02*
X8Y606D01*
X99Y606D02*
X106Y606D01*
X1291Y606D02*
X1298Y606D01*
X1Y605D02*
X8Y605D01*
X99Y605D02*
X106Y605D01*
X1291Y605D02*
X1298Y605D01*
X1Y604D02*
X8Y604D01*
X99Y604D02*
X106Y604D01*
X1291Y604D02*
X1298Y604D01*
X1Y603D02*
X8Y603D01*
X99Y603D02*
X106Y603D01*
X1291Y603D02*
X1298Y603D01*
X1Y602D02*
X8Y602D01*
X99Y602D02*
X106Y602D01*
X1291Y602D02*
X1298Y602D01*
X1Y601D02*
X8Y601D01*
X99Y601D02*
X106Y601D01*
X1291Y601D02*
X1298Y601D01*
X1Y600D02*
X8Y600D01*
X99Y600D02*
X106Y600D01*
X1291Y600D02*
X1298Y600D01*
X1Y599D02*
X8Y599D01*
X100Y599D02*
X105Y599D01*
X1291Y599D02*
X1298Y599D01*
X1Y598D02*
X8Y598D01*
X100Y598D02*
X105Y598D01*
X1291Y598D02*
X1298Y598D01*
X1Y597D02*
X8Y597D01*
X100Y597D02*
X105Y597D01*
X1291Y597D02*
X1298Y597D01*
X1Y596D02*
X8Y596D01*
X101Y596D02*
X104Y596D01*
X1291Y596D02*
X1298Y596D01*
X1Y595D02*
X8Y595D01*
X1291Y595D02*
X1298Y595D01*
X1Y594D02*
X8Y594D01*
X1291Y594D02*
X1298Y594D01*
X1Y593D02*
X8Y593D01*
X1291Y593D02*
X1298Y593D01*
X1Y592D02*
X8Y592D01*
X1291Y592D02*
X1298Y592D01*
X1Y591D02*
X8Y591D01*
X1291Y591D02*
X1298Y591D01*
X1Y590D02*
X8Y590D01*
X1291Y590D02*
X1298Y590D01*
X1Y589D02*
X8Y589D01*
X1291Y589D02*
X1298Y589D01*
X1Y588D02*
X8Y588D01*
X1291Y588D02*
X1298Y588D01*
X1Y587D02*
X8Y587D01*
X1291Y587D02*
X1298Y587D01*
X1Y586D02*
X8Y586D01*
X1291Y586D02*
X1298Y586D01*
X1Y585D02*
X8Y585D01*
X1291Y585D02*
X1298Y585D01*
X1Y584D02*
X8Y584D01*
X1291Y584D02*
X1298Y584D01*
X1Y583D02*
X8Y583D01*
X1291Y583D02*
X1298Y583D01*
X1Y582D02*
X8Y582D01*
X1291Y582D02*
X1298Y582D01*
X1Y581D02*
X8Y581D01*
X1291Y581D02*
X1298Y581D01*
X1Y580D02*
X8Y580D01*
X1291Y580D02*
X1298Y580D01*
X1Y579D02*
X8Y579D01*
X1291Y579D02*
X1298Y579D01*
X1Y578D02*
X8Y578D01*
X129Y578D02*
X137Y578D01*
X1291Y578D02*
X1298Y578D01*
X1Y577D02*
X8Y577D01*
X127Y577D02*
X139Y577D01*
X1291Y577D02*
X1298Y577D01*
X1Y576D02*
X8Y576D01*
X125Y576D02*
X142Y576D01*
X1291Y576D02*
X1298Y576D01*
X1Y575D02*
X8Y575D01*
X123Y575D02*
X144Y575D01*
X1291Y575D02*
X1298Y575D01*
X1Y574D02*
X8Y574D01*
X121Y574D02*
X146Y574D01*
X1291Y574D02*
X1298Y574D01*
X1Y573D02*
X8Y573D01*
X119Y573D02*
X148Y573D01*
X1291Y573D02*
X1298Y573D01*
X1Y572D02*
X8Y572D01*
X117Y572D02*
X150Y572D01*
X1291Y572D02*
X1298Y572D01*
X1Y571D02*
X8Y571D01*
X115Y571D02*
X129Y571D01*
X137Y571D02*
X152Y571D01*
X1291Y571D02*
X1298Y571D01*
X1Y570D02*
X8Y570D01*
X112Y570D02*
X127Y570D01*
X139Y570D02*
X154Y570D01*
X418Y570D02*
X446Y570D01*
X1291Y570D02*
X1298Y570D01*
X1Y569D02*
X8Y569D01*
X111Y569D02*
X125Y569D01*
X141Y569D02*
X155Y569D01*
X414Y569D02*
X447Y569D01*
X1291Y569D02*
X1298Y569D01*
X1Y568D02*
X8Y568D01*
X109Y568D02*
X123Y568D01*
X143Y568D02*
X157Y568D01*
X413Y568D02*
X448Y568D01*
X1291Y568D02*
X1298Y568D01*
X1Y567D02*
X8Y567D01*
X109Y567D02*
X121Y567D01*
X145Y567D02*
X158Y567D01*
X412Y567D02*
X448Y567D01*
X1291Y567D02*
X1298Y567D01*
X1Y566D02*
X8Y566D01*
X108Y566D02*
X119Y566D01*
X147Y566D02*
X158Y566D01*
X411Y566D02*
X448Y566D01*
X1291Y566D02*
X1298Y566D01*
X1Y565D02*
X8Y565D01*
X107Y565D02*
X117Y565D01*
X149Y565D02*
X159Y565D01*
X411Y565D02*
X448Y565D01*
X1291Y565D02*
X1298Y565D01*
X1Y564D02*
X8Y564D01*
X107Y564D02*
X115Y564D01*
X151Y564D02*
X159Y564D01*
X410Y564D02*
X447Y564D01*
X1291Y564D02*
X1298Y564D01*
X1Y563D02*
X8Y563D01*
X107Y563D02*
X113Y563D01*
X153Y563D02*
X159Y563D01*
X410Y563D02*
X417Y563D01*
X1291Y563D02*
X1298Y563D01*
X1Y562D02*
X8Y562D01*
X107Y562D02*
X113Y562D01*
X153Y562D02*
X160Y562D01*
X410Y562D02*
X416Y562D01*
X1291Y562D02*
X1298Y562D01*
X1Y561D02*
X8Y561D01*
X107Y561D02*
X113Y561D01*
X154Y561D02*
X160Y561D01*
X410Y561D02*
X416Y561D01*
X1291Y561D02*
X1298Y561D01*
X1Y560D02*
X8Y560D01*
X107Y560D02*
X113Y560D01*
X153Y560D02*
X159Y560D01*
X410Y560D02*
X417Y560D01*
X1291Y560D02*
X1298Y560D01*
X1Y559D02*
X8Y559D01*
X107Y559D02*
X114Y559D01*
X151Y559D02*
X159Y559D01*
X411Y559D02*
X418Y559D01*
X1291Y559D02*
X1298Y559D01*
X1Y558D02*
X8Y558D01*
X107Y558D02*
X116Y558D01*
X149Y558D02*
X159Y558D01*
X411Y558D02*
X419Y558D01*
X1291Y558D02*
X1298Y558D01*
X1Y557D02*
X8Y557D01*
X108Y557D02*
X118Y557D01*
X147Y557D02*
X158Y557D01*
X411Y557D02*
X419Y557D01*
X1291Y557D02*
X1298Y557D01*
X1Y556D02*
X8Y556D01*
X108Y556D02*
X121Y556D01*
X145Y556D02*
X158Y556D01*
X412Y556D02*
X420Y556D01*
X1291Y556D02*
X1298Y556D01*
X1Y555D02*
X8Y555D01*
X109Y555D02*
X123Y555D01*
X143Y555D02*
X157Y555D01*
X413Y555D02*
X447Y555D01*
X1291Y555D02*
X1298Y555D01*
X1Y554D02*
X8Y554D01*
X110Y554D02*
X125Y554D01*
X142Y554D02*
X156Y554D01*
X413Y554D02*
X448Y554D01*
X496Y554D02*
X505Y554D01*
X1291Y554D02*
X1298Y554D01*
X1Y553D02*
X8Y553D01*
X112Y553D02*
X127Y553D01*
X140Y553D02*
X154Y553D01*
X412Y553D02*
X448Y553D01*
X496Y553D02*
X505Y553D01*
X1291Y553D02*
X1298Y553D01*
X1Y552D02*
X8Y552D01*
X114Y552D02*
X129Y552D01*
X138Y552D02*
X152Y552D01*
X411Y552D02*
X448Y552D01*
X496Y552D02*
X505Y552D01*
X1291Y552D02*
X1298Y552D01*
X1Y551D02*
X8Y551D01*
X116Y551D02*
X150Y551D01*
X411Y551D02*
X448Y551D01*
X496Y551D02*
X505Y551D01*
X1291Y551D02*
X1298Y551D01*
X1Y550D02*
X8Y550D01*
X118Y550D02*
X148Y550D01*
X410Y550D02*
X447Y550D01*
X496Y550D02*
X505Y550D01*
X1291Y550D02*
X1298Y550D01*
X1Y549D02*
X8Y549D01*
X120Y549D02*
X146Y549D01*
X410Y549D02*
X445Y549D01*
X496Y549D02*
X505Y549D01*
X1291Y549D02*
X1298Y549D01*
X1Y548D02*
X8Y548D01*
X122Y548D02*
X144Y548D01*
X410Y548D02*
X416Y548D01*
X496Y548D02*
X505Y548D01*
X1291Y548D02*
X1298Y548D01*
X1Y547D02*
X8Y547D01*
X124Y547D02*
X142Y547D01*
X410Y547D02*
X416Y547D01*
X496Y547D02*
X505Y547D01*
X1291Y547D02*
X1298Y547D01*
X1Y546D02*
X8Y546D01*
X126Y546D02*
X140Y546D01*
X410Y546D02*
X417Y546D01*
X496Y546D02*
X505Y546D01*
X1291Y546D02*
X1298Y546D01*
X1Y545D02*
X8Y545D01*
X128Y545D02*
X138Y545D01*
X410Y545D02*
X418Y545D01*
X496Y545D02*
X505Y545D01*
X1291Y545D02*
X1298Y545D01*
X1Y544D02*
X8Y544D01*
X411Y544D02*
X418Y544D01*
X496Y544D02*
X505Y544D01*
X1291Y544D02*
X1298Y544D01*
X1Y543D02*
X8Y543D01*
X411Y543D02*
X419Y543D01*
X496Y543D02*
X505Y543D01*
X1291Y543D02*
X1298Y543D01*
X1Y542D02*
X8Y542D01*
X412Y542D02*
X420Y542D01*
X496Y542D02*
X505Y542D01*
X1291Y542D02*
X1298Y542D01*
X1Y541D02*
X8Y541D01*
X412Y541D02*
X447Y541D01*
X496Y541D02*
X505Y541D01*
X1291Y541D02*
X1298Y541D01*
X1Y540D02*
X8Y540D01*
X411Y540D02*
X448Y540D01*
X496Y540D02*
X505Y540D01*
X1291Y540D02*
X1298Y540D01*
X1Y539D02*
X8Y539D01*
X410Y539D02*
X448Y539D01*
X496Y539D02*
X505Y539D01*
X1291Y539D02*
X1298Y539D01*
X1Y538D02*
X8Y538D01*
X410Y538D02*
X448Y538D01*
X496Y538D02*
X505Y538D01*
X1291Y538D02*
X1298Y538D01*
X1Y537D02*
X8Y537D01*
X410Y537D02*
X448Y537D01*
X496Y537D02*
X505Y537D01*
X1291Y537D02*
X1298Y537D01*
X1Y536D02*
X8Y536D01*
X411Y536D02*
X448Y536D01*
X496Y536D02*
X505Y536D01*
X1291Y536D02*
X1298Y536D01*
X1Y535D02*
X8Y535D01*
X412Y535D02*
X446Y535D01*
X496Y535D02*
X505Y535D01*
X1291Y535D02*
X1298Y535D01*
X1Y534D02*
X8Y534D01*
X496Y534D02*
X505Y534D01*
X1291Y534D02*
X1298Y534D01*
X1Y533D02*
X8Y533D01*
X496Y533D02*
X505Y533D01*
X1291Y533D02*
X1298Y533D01*
X1Y532D02*
X8Y532D01*
X496Y532D02*
X505Y532D01*
X1291Y532D02*
X1298Y532D01*
X1Y531D02*
X8Y531D01*
X496Y531D02*
X505Y531D01*
X1291Y531D02*
X1298Y531D01*
X1Y530D02*
X8Y530D01*
X496Y530D02*
X505Y530D01*
X1291Y530D02*
X1298Y530D01*
X1Y529D02*
X8Y529D01*
X496Y529D02*
X505Y529D01*
X1291Y529D02*
X1298Y529D01*
X1Y528D02*
X8Y528D01*
X496Y528D02*
X505Y528D01*
X1291Y528D02*
X1298Y528D01*
X1Y527D02*
X8Y527D01*
X109Y527D02*
X159Y527D01*
X496Y527D02*
X505Y527D01*
X1291Y527D02*
X1298Y527D01*
X1Y526D02*
X8Y526D01*
X107Y526D02*
X160Y526D01*
X496Y526D02*
X505Y526D01*
X1291Y526D02*
X1298Y526D01*
X1Y525D02*
X8Y525D01*
X107Y525D02*
X160Y525D01*
X496Y525D02*
X505Y525D01*
X1291Y525D02*
X1298Y525D01*
X1Y524D02*
X8Y524D01*
X107Y524D02*
X160Y524D01*
X496Y524D02*
X505Y524D01*
X1291Y524D02*
X1298Y524D01*
X1Y523D02*
X8Y523D01*
X107Y523D02*
X160Y523D01*
X496Y523D02*
X505Y523D01*
X1291Y523D02*
X1298Y523D01*
X1Y522D02*
X8Y522D01*
X107Y522D02*
X160Y522D01*
X496Y522D02*
X505Y522D01*
X1291Y522D02*
X1298Y522D01*
X1Y521D02*
X8Y521D01*
X108Y521D02*
X160Y521D01*
X496Y521D02*
X505Y521D01*
X1291Y521D02*
X1298Y521D01*
X1Y520D02*
X8Y520D01*
X147Y520D02*
X160Y520D01*
X496Y520D02*
X505Y520D01*
X1291Y520D02*
X1298Y520D01*
X1Y519D02*
X8Y519D01*
X145Y519D02*
X160Y519D01*
X496Y519D02*
X505Y519D01*
X1291Y519D02*
X1298Y519D01*
X1Y518D02*
X8Y518D01*
X143Y518D02*
X159Y518D01*
X435Y518D02*
X446Y518D01*
X496Y518D02*
X505Y518D01*
X1291Y518D02*
X1298Y518D01*
X1Y517D02*
X8Y517D01*
X141Y517D02*
X157Y517D01*
X417Y517D02*
X448Y517D01*
X496Y517D02*
X505Y517D01*
X1291Y517D02*
X1298Y517D01*
X1Y516D02*
X8Y516D01*
X139Y516D02*
X155Y516D01*
X415Y516D02*
X448Y516D01*
X496Y516D02*
X505Y516D01*
X1291Y516D02*
X1298Y516D01*
X1Y515D02*
X8Y515D01*
X136Y515D02*
X153Y515D01*
X414Y515D02*
X448Y515D01*
X496Y515D02*
X505Y515D01*
X1291Y515D02*
X1298Y515D01*
X1Y514D02*
X8Y514D01*
X134Y514D02*
X151Y514D01*
X412Y514D02*
X448Y514D01*
X496Y514D02*
X505Y514D01*
X1291Y514D02*
X1298Y514D01*
X1Y513D02*
X8Y513D01*
X132Y513D02*
X148Y513D01*
X412Y513D02*
X448Y513D01*
X496Y513D02*
X505Y513D01*
X1291Y513D02*
X1298Y513D01*
X1Y512D02*
X8Y512D01*
X129Y512D02*
X146Y512D01*
X411Y512D02*
X447Y512D01*
X496Y512D02*
X505Y512D01*
X1291Y512D02*
X1298Y512D01*
X1Y511D02*
X8Y511D01*
X127Y511D02*
X144Y511D01*
X411Y511D02*
X433Y511D01*
X496Y511D02*
X505Y511D01*
X1291Y511D02*
X1298Y511D01*
X1Y510D02*
X8Y510D01*
X125Y510D02*
X141Y510D01*
X410Y510D02*
X418Y510D01*
X496Y510D02*
X505Y510D01*
X1291Y510D02*
X1298Y510D01*
X1Y509D02*
X8Y509D01*
X123Y509D02*
X139Y509D01*
X410Y509D02*
X417Y509D01*
X496Y509D02*
X505Y509D01*
X1291Y509D02*
X1298Y509D01*
X1Y508D02*
X8Y508D01*
X120Y508D02*
X137Y508D01*
X410Y508D02*
X416Y508D01*
X496Y508D02*
X505Y508D01*
X1291Y508D02*
X1298Y508D01*
X1Y507D02*
X8Y507D01*
X118Y507D02*
X135Y507D01*
X410Y507D02*
X416Y507D01*
X496Y507D02*
X505Y507D01*
X1291Y507D02*
X1298Y507D01*
X1Y506D02*
X8Y506D01*
X116Y506D02*
X132Y506D01*
X410Y506D02*
X416Y506D01*
X1291Y506D02*
X1298Y506D01*
X1Y505D02*
X8Y505D01*
X113Y505D02*
X130Y505D01*
X410Y505D02*
X416Y505D01*
X1291Y505D02*
X1298Y505D01*
X1Y504D02*
X8Y504D01*
X111Y504D02*
X128Y504D01*
X410Y504D02*
X416Y504D01*
X1291Y504D02*
X1298Y504D01*
X1Y503D02*
X8Y503D01*
X109Y503D02*
X126Y503D01*
X410Y503D02*
X416Y503D01*
X1291Y503D02*
X1298Y503D01*
X1Y502D02*
X8Y502D01*
X107Y502D02*
X123Y502D01*
X410Y502D02*
X416Y502D01*
X1291Y502D02*
X1298Y502D01*
X1Y501D02*
X8Y501D01*
X107Y501D02*
X121Y501D01*
X410Y501D02*
X417Y501D01*
X1291Y501D02*
X1298Y501D01*
X1Y500D02*
X8Y500D01*
X107Y500D02*
X119Y500D01*
X410Y500D02*
X417Y500D01*
X1291Y500D02*
X1298Y500D01*
X1Y499D02*
X8Y499D01*
X106Y499D02*
X158Y499D01*
X411Y499D02*
X418Y499D01*
X1291Y499D02*
X1298Y499D01*
X1Y498D02*
X8Y498D01*
X106Y498D02*
X159Y498D01*
X411Y498D02*
X419Y498D01*
X1291Y498D02*
X1298Y498D01*
X1Y497D02*
X8Y497D01*
X106Y497D02*
X159Y497D01*
X412Y497D02*
X419Y497D01*
X1291Y497D02*
X1298Y497D01*
X1Y496D02*
X8Y496D01*
X106Y496D02*
X160Y496D01*
X413Y496D02*
X420Y496D01*
X1291Y496D02*
X1298Y496D01*
X1Y495D02*
X8Y495D01*
X106Y495D02*
X159Y495D01*
X413Y495D02*
X421Y495D01*
X1291Y495D02*
X1298Y495D01*
X1Y494D02*
X8Y494D01*
X107Y494D02*
X159Y494D01*
X414Y494D02*
X421Y494D01*
X1291Y494D02*
X1298Y494D01*
X1Y493D02*
X8Y493D01*
X107Y493D02*
X158Y493D01*
X414Y493D02*
X422Y493D01*
X1291Y493D02*
X1298Y493D01*
X1Y492D02*
X8Y492D01*
X415Y492D02*
X422Y492D01*
X1291Y492D02*
X1298Y492D01*
X1Y491D02*
X8Y491D01*
X415Y491D02*
X423Y491D01*
X1291Y491D02*
X1298Y491D01*
X1Y490D02*
X8Y490D01*
X397Y490D02*
X447Y490D01*
X1291Y490D02*
X1298Y490D01*
X1Y489D02*
X8Y489D01*
X396Y489D02*
X448Y489D01*
X1291Y489D02*
X1298Y489D01*
X1Y488D02*
X8Y488D01*
X395Y488D02*
X448Y488D01*
X1291Y488D02*
X1298Y488D01*
X1Y487D02*
X8Y487D01*
X395Y487D02*
X448Y487D01*
X1291Y487D02*
X1298Y487D01*
X1Y486D02*
X8Y486D01*
X396Y486D02*
X448Y486D01*
X1291Y486D02*
X1298Y486D01*
X1Y485D02*
X8Y485D01*
X396Y485D02*
X447Y485D01*
X1291Y485D02*
X1298Y485D01*
X1Y484D02*
X8Y484D01*
X398Y484D02*
X446Y484D01*
X1291Y484D02*
X1298Y484D01*
X1Y483D02*
X8Y483D01*
X1291Y483D02*
X1298Y483D01*
X1Y482D02*
X8Y482D01*
X1291Y482D02*
X1298Y482D01*
X1Y481D02*
X8Y481D01*
X1291Y481D02*
X1298Y481D01*
X1Y480D02*
X8Y480D01*
X1291Y480D02*
X1298Y480D01*
X1Y479D02*
X8Y479D01*
X1291Y479D02*
X1298Y479D01*
X1Y478D02*
X8Y478D01*
X1291Y478D02*
X1298Y478D01*
X1Y477D02*
X8Y477D01*
X1291Y477D02*
X1298Y477D01*
X1Y476D02*
X8Y476D01*
X1291Y476D02*
X1298Y476D01*
X1Y475D02*
X8Y475D01*
X1291Y475D02*
X1298Y475D01*
X1Y474D02*
X8Y474D01*
X1291Y474D02*
X1298Y474D01*
X1Y473D02*
X8Y473D01*
X1291Y473D02*
X1298Y473D01*
X1Y472D02*
X8Y472D01*
X1291Y472D02*
X1298Y472D01*
X1Y471D02*
X8Y471D01*
X1291Y471D02*
X1298Y471D01*
X1Y470D02*
X8Y470D01*
X1291Y470D02*
X1298Y470D01*
X1Y469D02*
X8Y469D01*
X1291Y469D02*
X1298Y469D01*
X1Y468D02*
X8Y468D01*
X1291Y468D02*
X1298Y468D01*
X1Y467D02*
X8Y467D01*
X1291Y467D02*
X1298Y467D01*
X1Y466D02*
X8Y466D01*
X417Y466D02*
X426Y466D01*
X1291Y466D02*
X1298Y466D01*
X1Y465D02*
X8Y465D01*
X415Y465D02*
X429Y465D01*
X1291Y465D02*
X1298Y465D01*
X1Y464D02*
X8Y464D01*
X413Y464D02*
X431Y464D01*
X1291Y464D02*
X1298Y464D01*
X1Y463D02*
X8Y463D01*
X411Y463D02*
X433Y463D01*
X1291Y463D02*
X1298Y463D01*
X1Y462D02*
X8Y462D01*
X409Y462D02*
X435Y462D01*
X1291Y462D02*
X1298Y462D01*
X1Y461D02*
X8Y461D01*
X407Y461D02*
X437Y461D01*
X1291Y461D02*
X1298Y461D01*
X1Y460D02*
X8Y460D01*
X405Y460D02*
X439Y460D01*
X1291Y460D02*
X1298Y460D01*
X1Y459D02*
X8Y459D01*
X403Y459D02*
X417Y459D01*
X426Y459D02*
X441Y459D01*
X1291Y459D02*
X1298Y459D01*
X1Y458D02*
X8Y458D01*
X401Y458D02*
X415Y458D01*
X428Y458D02*
X443Y458D01*
X1291Y458D02*
X1298Y458D01*
X1Y457D02*
X8Y457D01*
X399Y457D02*
X413Y457D01*
X430Y457D02*
X444Y457D01*
X1291Y457D02*
X1298Y457D01*
X1Y456D02*
X8Y456D01*
X398Y456D02*
X411Y456D01*
X432Y456D02*
X446Y456D01*
X1291Y456D02*
X1298Y456D01*
X1Y455D02*
X8Y455D01*
X397Y455D02*
X409Y455D01*
X434Y455D02*
X446Y455D01*
X1291Y455D02*
X1298Y455D01*
X1Y454D02*
X8Y454D01*
X396Y454D02*
X407Y454D01*
X436Y454D02*
X447Y454D01*
X1291Y454D02*
X1298Y454D01*
X1Y453D02*
X8Y453D01*
X396Y453D02*
X405Y453D01*
X438Y453D02*
X448Y453D01*
X1291Y453D02*
X1298Y453D01*
X1Y452D02*
X8Y452D01*
X396Y452D02*
X403Y452D01*
X440Y452D02*
X448Y452D01*
X1291Y452D02*
X1298Y452D01*
X1Y451D02*
X8Y451D01*
X395Y451D02*
X402Y451D01*
X442Y451D02*
X448Y451D01*
X1291Y451D02*
X1298Y451D01*
X1Y450D02*
X8Y450D01*
X395Y450D02*
X401Y450D01*
X442Y450D02*
X448Y450D01*
X1291Y450D02*
X1298Y450D01*
X1Y449D02*
X8Y449D01*
X395Y449D02*
X401Y449D01*
X442Y449D02*
X448Y449D01*
X1291Y449D02*
X1298Y449D01*
X1Y448D02*
X8Y448D01*
X395Y448D02*
X402Y448D01*
X441Y448D02*
X448Y448D01*
X1291Y448D02*
X1298Y448D01*
X1Y447D02*
X8Y447D01*
X396Y447D02*
X404Y447D01*
X440Y447D02*
X448Y447D01*
X1291Y447D02*
X1298Y447D01*
X1Y446D02*
X8Y446D01*
X396Y446D02*
X406Y446D01*
X438Y446D02*
X447Y446D01*
X1291Y446D02*
X1298Y446D01*
X1Y445D02*
X8Y445D01*
X397Y445D02*
X408Y445D01*
X436Y445D02*
X447Y445D01*
X1291Y445D02*
X1298Y445D01*
X1Y444D02*
X8Y444D01*
X397Y444D02*
X410Y444D01*
X434Y444D02*
X446Y444D01*
X1291Y444D02*
X1298Y444D01*
X1Y443D02*
X8Y443D01*
X398Y443D02*
X412Y443D01*
X432Y443D02*
X445Y443D01*
X1291Y443D02*
X1298Y443D01*
X1Y442D02*
X8Y442D01*
X399Y442D02*
X414Y442D01*
X430Y442D02*
X444Y442D01*
X1291Y442D02*
X1298Y442D01*
X1Y441D02*
X8Y441D01*
X401Y441D02*
X416Y441D01*
X428Y441D02*
X442Y441D01*
X1291Y441D02*
X1298Y441D01*
X1Y440D02*
X8Y440D01*
X403Y440D02*
X418Y440D01*
X425Y440D02*
X440Y440D01*
X1291Y440D02*
X1298Y440D01*
X1Y439D02*
X8Y439D01*
X405Y439D02*
X438Y439D01*
X1291Y439D02*
X1298Y439D01*
X1Y438D02*
X8Y438D01*
X407Y438D02*
X436Y438D01*
X1291Y438D02*
X1298Y438D01*
X1Y437D02*
X8Y437D01*
X409Y437D02*
X434Y437D01*
X1291Y437D02*
X1298Y437D01*
X1Y436D02*
X8Y436D01*
X411Y436D02*
X432Y436D01*
X1291Y436D02*
X1298Y436D01*
X1Y435D02*
X8Y435D01*
X413Y435D02*
X430Y435D01*
X1291Y435D02*
X1298Y435D01*
X1Y434D02*
X8Y434D01*
X415Y434D02*
X428Y434D01*
X1291Y434D02*
X1298Y434D01*
X1Y433D02*
X8Y433D01*
X418Y433D02*
X425Y433D01*
X1291Y433D02*
X1298Y433D01*
X1Y432D02*
X8Y432D01*
X1291Y432D02*
X1298Y432D01*
X1Y431D02*
X8Y431D01*
X1291Y431D02*
X1298Y431D01*
X1Y430D02*
X8Y430D01*
X1291Y430D02*
X1298Y430D01*
X1Y429D02*
X8Y429D01*
X1291Y429D02*
X1298Y429D01*
X1Y428D02*
X8Y428D01*
X1291Y428D02*
X1298Y428D01*
X1Y427D02*
X8Y427D01*
X708Y427D02*
X708Y427D01*
X1291Y427D02*
X1298Y427D01*
X1Y426D02*
X8Y426D01*
X703Y426D02*
X713Y426D01*
X1291Y426D02*
X1298Y426D01*
X1Y425D02*
X8Y425D01*
X700Y425D02*
X715Y425D01*
X1291Y425D02*
X1298Y425D01*
X1Y424D02*
X8Y424D01*
X698Y424D02*
X717Y424D01*
X1291Y424D02*
X1298Y424D01*
X1Y423D02*
X8Y423D01*
X696Y423D02*
X719Y423D01*
X1291Y423D02*
X1298Y423D01*
X1Y422D02*
X8Y422D01*
X694Y422D02*
X721Y422D01*
X1291Y422D02*
X1298Y422D01*
X1Y421D02*
X8Y421D01*
X692Y421D02*
X723Y421D01*
X1291Y421D02*
X1298Y421D01*
X1Y420D02*
X8Y420D01*
X690Y420D02*
X707Y420D01*
X709Y420D02*
X725Y420D01*
X1291Y420D02*
X1298Y420D01*
X1Y419D02*
X8Y419D01*
X688Y419D02*
X703Y419D01*
X712Y419D02*
X727Y419D01*
X1291Y419D02*
X1298Y419D01*
X1Y418D02*
X8Y418D01*
X686Y418D02*
X701Y418D01*
X714Y418D02*
X729Y418D01*
X1291Y418D02*
X1298Y418D01*
X1Y417D02*
X8Y417D01*
X685Y417D02*
X699Y417D01*
X716Y417D02*
X730Y417D01*
X1291Y417D02*
X1298Y417D01*
X1Y416D02*
X8Y416D01*
X684Y416D02*
X697Y416D01*
X718Y416D02*
X731Y416D01*
X1291Y416D02*
X1298Y416D01*
X1Y415D02*
X8Y415D01*
X444Y415D02*
X447Y415D01*
X683Y415D02*
X695Y415D01*
X720Y415D02*
X732Y415D01*
X1291Y415D02*
X1298Y415D01*
X1Y414D02*
X8Y414D01*
X443Y414D02*
X448Y414D01*
X682Y414D02*
X693Y414D01*
X722Y414D02*
X733Y414D01*
X1291Y414D02*
X1298Y414D01*
X1Y413D02*
X8Y413D01*
X442Y413D02*
X448Y413D01*
X682Y413D02*
X691Y413D01*
X724Y413D02*
X733Y413D01*
X1291Y413D02*
X1298Y413D01*
X1Y412D02*
X8Y412D01*
X413Y412D02*
X413Y412D01*
X441Y412D02*
X448Y412D01*
X682Y412D02*
X689Y412D01*
X726Y412D02*
X734Y412D01*
X1291Y412D02*
X1298Y412D01*
X1Y411D02*
X8Y411D01*
X411Y411D02*
X415Y411D01*
X440Y411D02*
X448Y411D01*
X681Y411D02*
X688Y411D01*
X727Y411D02*
X734Y411D01*
X1291Y411D02*
X1298Y411D01*
X1Y410D02*
X8Y410D01*
X410Y410D02*
X416Y410D01*
X439Y410D02*
X448Y410D01*
X681Y410D02*
X687Y410D01*
X728Y410D02*
X734Y410D01*
X1291Y410D02*
X1298Y410D01*
X1Y409D02*
X8Y409D01*
X410Y409D02*
X417Y409D01*
X439Y409D02*
X447Y409D01*
X681Y409D02*
X687Y409D01*
X728Y409D02*
X734Y409D01*
X1291Y409D02*
X1298Y409D01*
X1Y408D02*
X8Y408D01*
X410Y408D02*
X418Y408D01*
X438Y408D02*
X446Y408D01*
X681Y408D02*
X687Y408D01*
X728Y408D02*
X734Y408D01*
X1291Y408D02*
X1298Y408D01*
X1Y407D02*
X8Y407D01*
X410Y407D02*
X418Y407D01*
X437Y407D02*
X445Y407D01*
X681Y407D02*
X687Y407D01*
X728Y407D02*
X734Y407D01*
X1291Y407D02*
X1298Y407D01*
X1Y406D02*
X8Y406D01*
X411Y406D02*
X419Y406D01*
X436Y406D02*
X444Y406D01*
X681Y406D02*
X687Y406D01*
X728Y406D02*
X734Y406D01*
X1291Y406D02*
X1298Y406D01*
X1Y405D02*
X8Y405D01*
X412Y405D02*
X420Y405D01*
X435Y405D02*
X443Y405D01*
X681Y405D02*
X687Y405D01*
X728Y405D02*
X734Y405D01*
X1291Y405D02*
X1298Y405D01*
X1Y404D02*
X8Y404D01*
X413Y404D02*
X421Y404D01*
X434Y404D02*
X443Y404D01*
X681Y404D02*
X687Y404D01*
X728Y404D02*
X734Y404D01*
X1291Y404D02*
X1298Y404D01*
X1Y403D02*
X8Y403D01*
X414Y403D02*
X422Y403D01*
X433Y403D02*
X442Y403D01*
X681Y403D02*
X687Y403D01*
X728Y403D02*
X734Y403D01*
X1291Y403D02*
X1298Y403D01*
X1Y402D02*
X8Y402D01*
X414Y402D02*
X423Y402D01*
X433Y402D02*
X441Y402D01*
X681Y402D02*
X687Y402D01*
X728Y402D02*
X734Y402D01*
X1291Y402D02*
X1298Y402D01*
X1Y401D02*
X8Y401D01*
X415Y401D02*
X424Y401D01*
X432Y401D02*
X440Y401D01*
X681Y401D02*
X687Y401D01*
X728Y401D02*
X734Y401D01*
X1291Y401D02*
X1298Y401D01*
X1Y400D02*
X8Y400D01*
X416Y400D02*
X424Y400D01*
X431Y400D02*
X439Y400D01*
X681Y400D02*
X687Y400D01*
X728Y400D02*
X734Y400D01*
X1291Y400D02*
X1298Y400D01*
X1Y399D02*
X8Y399D01*
X417Y399D02*
X425Y399D01*
X430Y399D02*
X438Y399D01*
X681Y399D02*
X687Y399D01*
X728Y399D02*
X734Y399D01*
X1291Y399D02*
X1298Y399D01*
X1Y398D02*
X8Y398D01*
X418Y398D02*
X426Y398D01*
X429Y398D02*
X437Y398D01*
X681Y398D02*
X687Y398D01*
X728Y398D02*
X734Y398D01*
X1291Y398D02*
X1298Y398D01*
X1Y397D02*
X8Y397D01*
X419Y397D02*
X437Y397D01*
X681Y397D02*
X687Y397D01*
X728Y397D02*
X734Y397D01*
X1291Y397D02*
X1298Y397D01*
X1Y396D02*
X8Y396D01*
X420Y396D02*
X436Y396D01*
X681Y396D02*
X687Y396D01*
X728Y396D02*
X734Y396D01*
X1291Y396D02*
X1298Y396D01*
X1Y395D02*
X8Y395D01*
X420Y395D02*
X435Y395D01*
X681Y395D02*
X687Y395D01*
X728Y395D02*
X734Y395D01*
X1291Y395D02*
X1298Y395D01*
X1Y394D02*
X8Y394D01*
X421Y394D02*
X434Y394D01*
X682Y394D02*
X686Y394D01*
X729Y394D02*
X733Y394D01*
X1291Y394D02*
X1298Y394D01*
X1Y393D02*
X8Y393D01*
X422Y393D02*
X433Y393D01*
X683Y393D02*
X685Y393D01*
X730Y393D02*
X732Y393D01*
X1291Y393D02*
X1298Y393D01*
X1Y392D02*
X8Y392D01*
X423Y392D02*
X432Y392D01*
X1291Y392D02*
X1298Y392D01*
X1Y391D02*
X8Y391D01*
X424Y391D02*
X432Y391D01*
X1291Y391D02*
X1298Y391D01*
X1Y390D02*
X8Y390D01*
X425Y390D02*
X433Y390D01*
X1291Y390D02*
X1298Y390D01*
X1Y389D02*
X8Y389D01*
X426Y389D02*
X434Y389D01*
X1291Y389D02*
X1298Y389D01*
X1Y388D02*
X8Y388D01*
X399Y388D02*
X445Y388D01*
X1291Y388D02*
X1298Y388D01*
X1Y387D02*
X8Y387D01*
X396Y387D02*
X447Y387D01*
X1291Y387D02*
X1298Y387D01*
X1Y386D02*
X8Y386D01*
X396Y386D02*
X448Y386D01*
X1291Y386D02*
X1298Y386D01*
X1Y385D02*
X8Y385D01*
X395Y385D02*
X448Y385D01*
X1291Y385D02*
X1298Y385D01*
X1Y384D02*
X8Y384D01*
X395Y384D02*
X448Y384D01*
X1291Y384D02*
X1298Y384D01*
X1Y383D02*
X8Y383D01*
X396Y383D02*
X448Y383D01*
X1291Y383D02*
X1298Y383D01*
X1Y382D02*
X8Y382D01*
X396Y382D02*
X447Y382D01*
X1291Y382D02*
X1298Y382D01*
X1Y381D02*
X8Y381D01*
X399Y381D02*
X444Y381D01*
X1291Y381D02*
X1298Y381D01*
X1Y380D02*
X8Y380D01*
X1291Y380D02*
X1298Y380D01*
X1Y379D02*
X8Y379D01*
X1291Y379D02*
X1298Y379D01*
X1Y378D02*
X8Y378D01*
X1291Y378D02*
X1298Y378D01*
X1Y377D02*
X8Y377D01*
X1291Y377D02*
X1298Y377D01*
X1Y376D02*
X8Y376D01*
X1291Y376D02*
X1298Y376D01*
X1Y375D02*
X8Y375D01*
X1291Y375D02*
X1298Y375D01*
X1Y374D02*
X8Y374D01*
X1291Y374D02*
X1298Y374D01*
X1Y373D02*
X8Y373D01*
X1291Y373D02*
X1298Y373D01*
X1Y372D02*
X8Y372D01*
X1291Y372D02*
X1298Y372D01*
X1Y371D02*
X8Y371D01*
X1291Y371D02*
X1298Y371D01*
X1Y370D02*
X8Y370D01*
X1291Y370D02*
X1298Y370D01*
X1Y369D02*
X8Y369D01*
X1291Y369D02*
X1298Y369D01*
X1Y368D02*
X8Y368D01*
X1291Y368D02*
X1298Y368D01*
X1Y367D02*
X8Y367D01*
X1291Y367D02*
X1298Y367D01*
X1Y366D02*
X8Y366D01*
X1291Y366D02*
X1298Y366D01*
X1Y365D02*
X8Y365D01*
X1291Y365D02*
X1298Y365D01*
X1Y364D02*
X8Y364D01*
X431Y364D02*
X446Y364D01*
X1291Y364D02*
X1298Y364D01*
X1Y363D02*
X8Y363D01*
X429Y363D02*
X447Y363D01*
X1291Y363D02*
X1298Y363D01*
X1Y362D02*
X8Y362D01*
X429Y362D02*
X448Y362D01*
X1291Y362D02*
X1298Y362D01*
X1Y361D02*
X8Y361D01*
X428Y361D02*
X448Y361D01*
X1291Y361D02*
X1298Y361D01*
X1Y360D02*
X8Y360D01*
X428Y360D02*
X448Y360D01*
X1291Y360D02*
X1298Y360D01*
X1Y359D02*
X8Y359D01*
X429Y359D02*
X448Y359D01*
X1291Y359D02*
X1298Y359D01*
X1Y358D02*
X8Y358D01*
X430Y358D02*
X448Y358D01*
X1291Y358D02*
X1298Y358D01*
X1Y357D02*
X8Y357D01*
X442Y357D02*
X448Y357D01*
X1291Y357D02*
X1298Y357D01*
X1Y356D02*
X8Y356D01*
X442Y356D02*
X448Y356D01*
X1291Y356D02*
X1298Y356D01*
X1Y355D02*
X8Y355D01*
X442Y355D02*
X448Y355D01*
X1291Y355D02*
X1298Y355D01*
X1Y354D02*
X8Y354D01*
X442Y354D02*
X448Y354D01*
X1291Y354D02*
X1298Y354D01*
X1Y353D02*
X8Y353D01*
X442Y353D02*
X448Y353D01*
X1291Y353D02*
X1298Y353D01*
X1Y352D02*
X8Y352D01*
X442Y352D02*
X448Y352D01*
X1291Y352D02*
X1298Y352D01*
X1Y351D02*
X8Y351D01*
X442Y351D02*
X448Y351D01*
X1291Y351D02*
X1298Y351D01*
X1Y350D02*
X8Y350D01*
X396Y350D02*
X448Y350D01*
X783Y350D02*
X785Y350D01*
X814Y350D02*
X817Y350D01*
X1291Y350D02*
X1298Y350D01*
X1Y349D02*
X8Y349D01*
X395Y349D02*
X448Y349D01*
X781Y349D02*
X786Y349D01*
X813Y349D02*
X818Y349D01*
X1291Y349D02*
X1298Y349D01*
X1Y348D02*
X8Y348D01*
X395Y348D02*
X448Y348D01*
X781Y348D02*
X787Y348D01*
X812Y348D02*
X819Y348D01*
X1291Y348D02*
X1298Y348D01*
X1Y347D02*
X8Y347D01*
X395Y347D02*
X448Y347D01*
X780Y347D02*
X787Y347D01*
X812Y347D02*
X820Y347D01*
X1291Y347D02*
X1298Y347D01*
X1Y346D02*
X8Y346D01*
X395Y346D02*
X448Y346D01*
X779Y346D02*
X787Y346D01*
X812Y346D02*
X821Y346D01*
X1291Y346D02*
X1298Y346D01*
X1Y345D02*
X8Y345D01*
X395Y345D02*
X448Y345D01*
X778Y345D02*
X787Y345D01*
X813Y345D02*
X822Y345D01*
X1291Y345D02*
X1298Y345D01*
X1Y344D02*
X8Y344D01*
X395Y344D02*
X448Y344D01*
X777Y344D02*
X786Y344D01*
X813Y344D02*
X823Y344D01*
X1291Y344D02*
X1298Y344D01*
X1Y343D02*
X8Y343D01*
X395Y343D02*
X401Y343D01*
X442Y343D02*
X448Y343D01*
X777Y343D02*
X786Y343D01*
X814Y343D02*
X823Y343D01*
X1291Y343D02*
X1298Y343D01*
X1Y342D02*
X8Y342D01*
X395Y342D02*
X401Y342D01*
X442Y342D02*
X448Y342D01*
X776Y342D02*
X785Y342D01*
X815Y342D02*
X824Y342D01*
X1291Y342D02*
X1298Y342D01*
X1Y341D02*
X8Y341D01*
X395Y341D02*
X401Y341D01*
X442Y341D02*
X448Y341D01*
X775Y341D02*
X784Y341D01*
X816Y341D02*
X825Y341D01*
X1291Y341D02*
X1298Y341D01*
X1Y340D02*
X8Y340D01*
X395Y340D02*
X401Y340D01*
X442Y340D02*
X448Y340D01*
X775Y340D02*
X783Y340D01*
X816Y340D02*
X825Y340D01*
X1291Y340D02*
X1298Y340D01*
X1Y339D02*
X8Y339D01*
X395Y339D02*
X401Y339D01*
X442Y339D02*
X448Y339D01*
X774Y339D02*
X783Y339D01*
X817Y339D02*
X826Y339D01*
X1291Y339D02*
X1298Y339D01*
X1Y338D02*
X8Y338D01*
X395Y338D02*
X401Y338D01*
X442Y338D02*
X448Y338D01*
X773Y338D02*
X782Y338D01*
X818Y338D02*
X827Y338D01*
X1080Y338D02*
X1099Y338D01*
X1125Y338D02*
X1126Y338D01*
X1291Y338D02*
X1298Y338D01*
X1Y337D02*
X8Y337D01*
X395Y337D02*
X401Y337D01*
X442Y337D02*
X448Y337D01*
X773Y337D02*
X781Y337D01*
X819Y337D02*
X827Y337D01*
X1078Y337D02*
X1101Y337D01*
X1123Y337D02*
X1127Y337D01*
X1291Y337D02*
X1298Y337D01*
X1Y336D02*
X8Y336D01*
X395Y336D02*
X401Y336D01*
X442Y336D02*
X448Y336D01*
X772Y336D02*
X780Y336D01*
X819Y336D02*
X828Y336D01*
X1077Y336D02*
X1103Y336D01*
X1123Y336D02*
X1128Y336D01*
X1291Y336D02*
X1298Y336D01*
X1Y335D02*
X8Y335D01*
X395Y335D02*
X401Y335D01*
X442Y335D02*
X448Y335D01*
X772Y335D02*
X780Y335D01*
X820Y335D02*
X828Y335D01*
X1076Y335D02*
X1103Y335D01*
X1122Y335D02*
X1128Y335D01*
X1291Y335D02*
X1298Y335D01*
X1Y334D02*
X8Y334D01*
X395Y334D02*
X401Y334D01*
X442Y334D02*
X448Y334D01*
X771Y334D02*
X779Y334D01*
X821Y334D02*
X829Y334D01*
X1076Y334D02*
X1104Y334D01*
X1122Y334D02*
X1128Y334D01*
X1291Y334D02*
X1298Y334D01*
X1Y333D02*
X8Y333D01*
X395Y333D02*
X401Y333D01*
X442Y333D02*
X448Y333D01*
X770Y333D02*
X778Y333D01*
X821Y333D02*
X829Y333D01*
X1075Y333D02*
X1104Y333D01*
X1122Y333D02*
X1128Y333D01*
X1291Y333D02*
X1298Y333D01*
X1Y332D02*
X8Y332D01*
X395Y332D02*
X401Y332D01*
X443Y332D02*
X448Y332D01*
X770Y332D02*
X778Y332D01*
X822Y332D02*
X830Y332D01*
X1075Y332D02*
X1105Y332D01*
X1122Y332D02*
X1128Y332D01*
X1291Y332D02*
X1298Y332D01*
X1Y331D02*
X8Y331D01*
X396Y331D02*
X400Y331D01*
X443Y331D02*
X448Y331D01*
X769Y331D02*
X777Y331D01*
X822Y331D02*
X830Y331D01*
X1075Y331D02*
X1081Y331D01*
X1099Y331D02*
X1105Y331D01*
X1122Y331D02*
X1128Y331D01*
X1291Y331D02*
X1298Y331D01*
X1Y330D02*
X8Y330D01*
X397Y330D02*
X399Y330D01*
X444Y330D02*
X446Y330D01*
X769Y330D02*
X777Y330D01*
X823Y330D02*
X831Y330D01*
X1075Y330D02*
X1081Y330D01*
X1099Y330D02*
X1105Y330D01*
X1122Y330D02*
X1128Y330D01*
X1291Y330D02*
X1298Y330D01*
X1Y329D02*
X8Y329D01*
X769Y329D02*
X776Y329D01*
X824Y329D02*
X831Y329D01*
X1075Y329D02*
X1081Y329D01*
X1099Y329D02*
X1105Y329D01*
X1122Y329D02*
X1128Y329D01*
X1291Y329D02*
X1298Y329D01*
X1Y328D02*
X8Y328D01*
X768Y328D02*
X776Y328D01*
X824Y328D02*
X832Y328D01*
X1075Y328D02*
X1081Y328D01*
X1099Y328D02*
X1105Y328D01*
X1122Y328D02*
X1128Y328D01*
X1291Y328D02*
X1298Y328D01*
X1Y327D02*
X8Y327D01*
X768Y327D02*
X775Y327D01*
X825Y327D02*
X832Y327D01*
X1075Y327D02*
X1081Y327D01*
X1099Y327D02*
X1105Y327D01*
X1122Y327D02*
X1128Y327D01*
X1291Y327D02*
X1298Y327D01*
X1Y326D02*
X8Y326D01*
X767Y326D02*
X775Y326D01*
X825Y326D02*
X832Y326D01*
X1075Y326D02*
X1081Y326D01*
X1099Y326D02*
X1105Y326D01*
X1122Y326D02*
X1128Y326D01*
X1291Y326D02*
X1298Y326D01*
X1Y325D02*
X8Y325D01*
X767Y325D02*
X774Y325D01*
X825Y325D02*
X833Y325D01*
X1075Y325D02*
X1081Y325D01*
X1099Y325D02*
X1105Y325D01*
X1122Y325D02*
X1128Y325D01*
X1291Y325D02*
X1298Y325D01*
X1Y324D02*
X8Y324D01*
X683Y324D02*
X685Y324D01*
X730Y324D02*
X732Y324D01*
X766Y324D02*
X774Y324D01*
X826Y324D02*
X833Y324D01*
X1075Y324D02*
X1081Y324D01*
X1099Y324D02*
X1105Y324D01*
X1122Y324D02*
X1128Y324D01*
X1291Y324D02*
X1298Y324D01*
X1Y323D02*
X8Y323D01*
X682Y323D02*
X686Y323D01*
X729Y323D02*
X733Y323D01*
X766Y323D02*
X773Y323D01*
X826Y323D02*
X834Y323D01*
X1075Y323D02*
X1081Y323D01*
X1099Y323D02*
X1105Y323D01*
X1122Y323D02*
X1128Y323D01*
X1291Y323D02*
X1298Y323D01*
X1Y322D02*
X8Y322D01*
X681Y322D02*
X687Y322D01*
X728Y322D02*
X734Y322D01*
X766Y322D02*
X773Y322D01*
X827Y322D02*
X834Y322D01*
X1075Y322D02*
X1081Y322D01*
X1099Y322D02*
X1105Y322D01*
X1122Y322D02*
X1128Y322D01*
X1291Y322D02*
X1298Y322D01*
X1Y321D02*
X8Y321D01*
X681Y321D02*
X687Y321D01*
X728Y321D02*
X734Y321D01*
X766Y321D02*
X773Y321D01*
X827Y321D02*
X834Y321D01*
X1075Y321D02*
X1081Y321D01*
X1099Y321D02*
X1105Y321D01*
X1122Y321D02*
X1128Y321D01*
X1291Y321D02*
X1298Y321D01*
X1Y320D02*
X8Y320D01*
X681Y320D02*
X687Y320D01*
X728Y320D02*
X734Y320D01*
X765Y320D02*
X772Y320D01*
X827Y320D02*
X835Y320D01*
X1075Y320D02*
X1081Y320D01*
X1099Y320D02*
X1105Y320D01*
X1122Y320D02*
X1128Y320D01*
X1291Y320D02*
X1298Y320D01*
X1Y319D02*
X8Y319D01*
X681Y319D02*
X687Y319D01*
X728Y319D02*
X734Y319D01*
X765Y319D02*
X772Y319D01*
X828Y319D02*
X835Y319D01*
X1075Y319D02*
X1081Y319D01*
X1099Y319D02*
X1105Y319D01*
X1122Y319D02*
X1128Y319D01*
X1291Y319D02*
X1298Y319D01*
X1Y318D02*
X8Y318D01*
X681Y318D02*
X687Y318D01*
X728Y318D02*
X734Y318D01*
X765Y318D02*
X772Y318D01*
X828Y318D02*
X835Y318D01*
X1075Y318D02*
X1081Y318D01*
X1099Y318D02*
X1105Y318D01*
X1122Y318D02*
X1128Y318D01*
X1291Y318D02*
X1298Y318D01*
X1Y317D02*
X8Y317D01*
X681Y317D02*
X687Y317D01*
X728Y317D02*
X734Y317D01*
X764Y317D02*
X771Y317D01*
X828Y317D02*
X835Y317D01*
X1075Y317D02*
X1081Y317D01*
X1099Y317D02*
X1105Y317D01*
X1122Y317D02*
X1128Y317D01*
X1291Y317D02*
X1298Y317D01*
X1Y316D02*
X8Y316D01*
X681Y316D02*
X687Y316D01*
X728Y316D02*
X734Y316D01*
X764Y316D02*
X771Y316D01*
X829Y316D02*
X836Y316D01*
X1075Y316D02*
X1081Y316D01*
X1099Y316D02*
X1105Y316D01*
X1122Y316D02*
X1128Y316D01*
X1291Y316D02*
X1298Y316D01*
X1Y315D02*
X8Y315D01*
X681Y315D02*
X687Y315D01*
X728Y315D02*
X734Y315D01*
X764Y315D02*
X771Y315D01*
X829Y315D02*
X836Y315D01*
X1075Y315D02*
X1081Y315D01*
X1099Y315D02*
X1105Y315D01*
X1122Y315D02*
X1128Y315D01*
X1291Y315D02*
X1298Y315D01*
X1Y314D02*
X8Y314D01*
X681Y314D02*
X687Y314D01*
X728Y314D02*
X734Y314D01*
X764Y314D02*
X770Y314D01*
X829Y314D02*
X836Y314D01*
X1075Y314D02*
X1081Y314D01*
X1099Y314D02*
X1105Y314D01*
X1122Y314D02*
X1128Y314D01*
X1291Y314D02*
X1298Y314D01*
X1Y313D02*
X8Y313D01*
X681Y313D02*
X687Y313D01*
X728Y313D02*
X734Y313D01*
X763Y313D02*
X770Y313D01*
X830Y313D02*
X836Y313D01*
X1075Y313D02*
X1081Y313D01*
X1099Y313D02*
X1105Y313D01*
X1122Y313D02*
X1128Y313D01*
X1291Y313D02*
X1298Y313D01*
X1Y312D02*
X8Y312D01*
X681Y312D02*
X687Y312D01*
X728Y312D02*
X734Y312D01*
X763Y312D02*
X770Y312D01*
X830Y312D02*
X837Y312D01*
X1075Y312D02*
X1081Y312D01*
X1099Y312D02*
X1105Y312D01*
X1122Y312D02*
X1128Y312D01*
X1291Y312D02*
X1298Y312D01*
X1Y311D02*
X8Y311D01*
X681Y311D02*
X687Y311D01*
X728Y311D02*
X734Y311D01*
X763Y311D02*
X770Y311D01*
X830Y311D02*
X837Y311D01*
X1075Y311D02*
X1081Y311D01*
X1099Y311D02*
X1105Y311D01*
X1122Y311D02*
X1128Y311D01*
X1291Y311D02*
X1298Y311D01*
X1Y310D02*
X8Y310D01*
X681Y310D02*
X734Y310D01*
X763Y310D02*
X770Y310D01*
X830Y310D02*
X837Y310D01*
X1075Y310D02*
X1081Y310D01*
X1099Y310D02*
X1128Y310D01*
X1291Y310D02*
X1298Y310D01*
X1Y309D02*
X8Y309D01*
X681Y309D02*
X734Y309D01*
X763Y309D02*
X769Y309D01*
X830Y309D02*
X837Y309D01*
X1075Y309D02*
X1081Y309D01*
X1099Y309D02*
X1128Y309D01*
X1291Y309D02*
X1298Y309D01*
X1Y308D02*
X8Y308D01*
X681Y308D02*
X734Y308D01*
X763Y308D02*
X769Y308D01*
X831Y308D02*
X837Y308D01*
X1075Y308D02*
X1081Y308D01*
X1099Y308D02*
X1128Y308D01*
X1291Y308D02*
X1298Y308D01*
X1Y307D02*
X8Y307D01*
X681Y307D02*
X734Y307D01*
X762Y307D02*
X769Y307D01*
X831Y307D02*
X837Y307D01*
X1075Y307D02*
X1081Y307D01*
X1100Y307D02*
X1128Y307D01*
X1291Y307D02*
X1298Y307D01*
X1Y306D02*
X8Y306D01*
X496Y306D02*
X504Y306D01*
X681Y306D02*
X734Y306D01*
X762Y306D02*
X769Y306D01*
X831Y306D02*
X837Y306D01*
X1075Y306D02*
X1081Y306D01*
X1101Y306D02*
X1128Y306D01*
X1291Y306D02*
X1298Y306D01*
X1Y305D02*
X8Y305D01*
X496Y305D02*
X505Y305D01*
X681Y305D02*
X734Y305D01*
X762Y305D02*
X769Y305D01*
X831Y305D02*
X838Y305D01*
X1076Y305D02*
X1080Y305D01*
X1102Y305D02*
X1128Y305D01*
X1291Y305D02*
X1298Y305D01*
X1Y304D02*
X8Y304D01*
X496Y304D02*
X505Y304D01*
X681Y304D02*
X734Y304D01*
X762Y304D02*
X769Y304D01*
X831Y304D02*
X838Y304D01*
X1077Y304D02*
X1079Y304D01*
X1104Y304D02*
X1128Y304D01*
X1291Y304D02*
X1298Y304D01*
X1Y303D02*
X8Y303D01*
X496Y303D02*
X505Y303D01*
X681Y303D02*
X687Y303D01*
X762Y303D02*
X768Y303D01*
X831Y303D02*
X838Y303D01*
X1291Y303D02*
X1298Y303D01*
X1Y302D02*
X8Y302D01*
X496Y302D02*
X505Y302D01*
X681Y302D02*
X687Y302D01*
X762Y302D02*
X768Y302D01*
X831Y302D02*
X838Y302D01*
X1291Y302D02*
X1298Y302D01*
X1Y301D02*
X8Y301D01*
X496Y301D02*
X505Y301D01*
X681Y301D02*
X687Y301D01*
X762Y301D02*
X768Y301D01*
X831Y301D02*
X838Y301D01*
X1291Y301D02*
X1298Y301D01*
X1Y300D02*
X8Y300D01*
X496Y300D02*
X505Y300D01*
X681Y300D02*
X687Y300D01*
X762Y300D02*
X768Y300D01*
X831Y300D02*
X838Y300D01*
X1291Y300D02*
X1298Y300D01*
X1Y299D02*
X8Y299D01*
X496Y299D02*
X505Y299D01*
X681Y299D02*
X687Y299D01*
X762Y299D02*
X768Y299D01*
X832Y299D02*
X838Y299D01*
X1291Y299D02*
X1298Y299D01*
X1Y298D02*
X8Y298D01*
X496Y298D02*
X505Y298D01*
X681Y298D02*
X687Y298D01*
X762Y298D02*
X768Y298D01*
X832Y298D02*
X838Y298D01*
X1291Y298D02*
X1298Y298D01*
X1Y297D02*
X8Y297D01*
X496Y297D02*
X505Y297D01*
X681Y297D02*
X687Y297D01*
X762Y297D02*
X768Y297D01*
X832Y297D02*
X838Y297D01*
X1291Y297D02*
X1298Y297D01*
X1Y296D02*
X8Y296D01*
X496Y296D02*
X505Y296D01*
X681Y296D02*
X700Y296D01*
X762Y296D02*
X768Y296D01*
X832Y296D02*
X838Y296D01*
X1291Y296D02*
X1298Y296D01*
X1Y295D02*
X8Y295D01*
X496Y295D02*
X505Y295D01*
X681Y295D02*
X701Y295D01*
X762Y295D02*
X768Y295D01*
X832Y295D02*
X838Y295D01*
X1291Y295D02*
X1298Y295D01*
X1Y294D02*
X8Y294D01*
X496Y294D02*
X505Y294D01*
X681Y294D02*
X701Y294D01*
X762Y294D02*
X768Y294D01*
X831Y294D02*
X838Y294D01*
X1291Y294D02*
X1298Y294D01*
X1Y293D02*
X8Y293D01*
X496Y293D02*
X505Y293D01*
X681Y293D02*
X701Y293D01*
X762Y293D02*
X768Y293D01*
X831Y293D02*
X838Y293D01*
X1291Y293D02*
X1298Y293D01*
X1Y292D02*
X8Y292D01*
X496Y292D02*
X505Y292D01*
X681Y292D02*
X701Y292D01*
X762Y292D02*
X768Y292D01*
X831Y292D02*
X838Y292D01*
X1291Y292D02*
X1298Y292D01*
X1Y291D02*
X8Y291D01*
X496Y291D02*
X505Y291D01*
X682Y291D02*
X700Y291D01*
X762Y291D02*
X768Y291D01*
X831Y291D02*
X838Y291D01*
X1291Y291D02*
X1298Y291D01*
X1Y290D02*
X8Y290D01*
X496Y290D02*
X505Y290D01*
X684Y290D02*
X699Y290D01*
X762Y290D02*
X768Y290D01*
X831Y290D02*
X838Y290D01*
X1291Y290D02*
X1298Y290D01*
X1Y289D02*
X8Y289D01*
X496Y289D02*
X505Y289D01*
X762Y289D02*
X769Y289D01*
X831Y289D02*
X838Y289D01*
X1291Y289D02*
X1298Y289D01*
X1Y288D02*
X8Y288D01*
X496Y288D02*
X505Y288D01*
X762Y288D02*
X769Y288D01*
X831Y288D02*
X838Y288D01*
X1291Y288D02*
X1298Y288D01*
X1Y287D02*
X8Y287D01*
X496Y287D02*
X505Y287D01*
X762Y287D02*
X769Y287D01*
X831Y287D02*
X837Y287D01*
X1291Y287D02*
X1298Y287D01*
X1Y286D02*
X8Y286D01*
X496Y286D02*
X505Y286D01*
X762Y286D02*
X769Y286D01*
X831Y286D02*
X837Y286D01*
X1077Y286D02*
X1080Y286D01*
X1291Y286D02*
X1298Y286D01*
X1Y285D02*
X8Y285D01*
X496Y285D02*
X505Y285D01*
X763Y285D02*
X769Y285D01*
X831Y285D02*
X837Y285D01*
X1076Y285D02*
X1081Y285D01*
X1291Y285D02*
X1298Y285D01*
X1Y284D02*
X8Y284D01*
X496Y284D02*
X505Y284D01*
X763Y284D02*
X769Y284D01*
X830Y284D02*
X837Y284D01*
X1075Y284D02*
X1081Y284D01*
X1291Y284D02*
X1298Y284D01*
X1Y283D02*
X8Y283D01*
X496Y283D02*
X505Y283D01*
X763Y283D02*
X770Y283D01*
X830Y283D02*
X837Y283D01*
X1075Y283D02*
X1081Y283D01*
X1291Y283D02*
X1298Y283D01*
X1Y282D02*
X8Y282D01*
X496Y282D02*
X505Y282D01*
X763Y282D02*
X770Y282D01*
X830Y282D02*
X837Y282D01*
X1075Y282D02*
X1081Y282D01*
X1291Y282D02*
X1298Y282D01*
X1Y281D02*
X8Y281D01*
X496Y281D02*
X505Y281D01*
X763Y281D02*
X770Y281D01*
X830Y281D02*
X837Y281D01*
X1075Y281D02*
X1081Y281D01*
X1291Y281D02*
X1298Y281D01*
X1Y280D02*
X8Y280D01*
X496Y280D02*
X505Y280D01*
X763Y280D02*
X770Y280D01*
X830Y280D02*
X836Y280D01*
X1075Y280D02*
X1118Y280D01*
X1291Y280D02*
X1298Y280D01*
X1Y279D02*
X8Y279D01*
X496Y279D02*
X505Y279D01*
X764Y279D02*
X770Y279D01*
X829Y279D02*
X836Y279D01*
X1075Y279D02*
X1122Y279D01*
X1291Y279D02*
X1298Y279D01*
X1Y278D02*
X8Y278D01*
X496Y278D02*
X505Y278D01*
X764Y278D02*
X771Y278D01*
X829Y278D02*
X836Y278D01*
X1075Y278D02*
X1124Y278D01*
X1291Y278D02*
X1298Y278D01*
X1Y277D02*
X8Y277D01*
X496Y277D02*
X505Y277D01*
X764Y277D02*
X771Y277D01*
X829Y277D02*
X836Y277D01*
X1075Y277D02*
X1125Y277D01*
X1291Y277D02*
X1298Y277D01*
X1Y276D02*
X8Y276D01*
X496Y276D02*
X505Y276D01*
X764Y276D02*
X771Y276D01*
X828Y276D02*
X835Y276D01*
X1075Y276D02*
X1126Y276D01*
X1291Y276D02*
X1298Y276D01*
X1Y275D02*
X8Y275D01*
X496Y275D02*
X505Y275D01*
X765Y275D02*
X772Y275D01*
X828Y275D02*
X835Y275D01*
X1075Y275D02*
X1127Y275D01*
X1291Y275D02*
X1298Y275D01*
X1Y274D02*
X8Y274D01*
X496Y274D02*
X505Y274D01*
X765Y274D02*
X772Y274D01*
X828Y274D02*
X835Y274D01*
X1075Y274D02*
X1127Y274D01*
X1291Y274D02*
X1298Y274D01*
X1Y273D02*
X8Y273D01*
X496Y273D02*
X505Y273D01*
X765Y273D02*
X772Y273D01*
X827Y273D02*
X835Y273D01*
X1075Y273D02*
X1081Y273D01*
X1119Y273D02*
X1128Y273D01*
X1291Y273D02*
X1298Y273D01*
X1Y272D02*
X8Y272D01*
X496Y272D02*
X505Y272D01*
X685Y272D02*
X731Y272D01*
X766Y272D02*
X773Y272D01*
X827Y272D02*
X834Y272D01*
X1075Y272D02*
X1081Y272D01*
X1121Y272D02*
X1128Y272D01*
X1291Y272D02*
X1298Y272D01*
X1Y271D02*
X8Y271D01*
X496Y271D02*
X505Y271D01*
X683Y271D02*
X732Y271D01*
X766Y271D02*
X773Y271D01*
X827Y271D02*
X834Y271D01*
X1075Y271D02*
X1081Y271D01*
X1122Y271D02*
X1128Y271D01*
X1291Y271D02*
X1298Y271D01*
X1Y270D02*
X8Y270D01*
X496Y270D02*
X505Y270D01*
X682Y270D02*
X733Y270D01*
X766Y270D02*
X773Y270D01*
X826Y270D02*
X834Y270D01*
X1075Y270D02*
X1081Y270D01*
X1122Y270D02*
X1128Y270D01*
X1291Y270D02*
X1298Y270D01*
X1Y269D02*
X8Y269D01*
X496Y269D02*
X505Y269D01*
X682Y269D02*
X733Y269D01*
X767Y269D02*
X774Y269D01*
X826Y269D02*
X833Y269D01*
X1075Y269D02*
X1081Y269D01*
X1122Y269D02*
X1128Y269D01*
X1291Y269D02*
X1298Y269D01*
X1Y268D02*
X8Y268D01*
X496Y268D02*
X505Y268D01*
X681Y268D02*
X734Y268D01*
X767Y268D02*
X774Y268D01*
X825Y268D02*
X833Y268D01*
X1075Y268D02*
X1081Y268D01*
X1122Y268D02*
X1128Y268D01*
X1291Y268D02*
X1298Y268D01*
X1Y267D02*
X8Y267D01*
X496Y267D02*
X505Y267D01*
X681Y267D02*
X734Y267D01*
X767Y267D02*
X775Y267D01*
X825Y267D02*
X832Y267D01*
X1075Y267D02*
X1081Y267D01*
X1122Y267D02*
X1128Y267D01*
X1291Y267D02*
X1298Y267D01*
X1Y266D02*
X8Y266D01*
X496Y266D02*
X505Y266D01*
X681Y266D02*
X734Y266D01*
X768Y266D02*
X775Y266D01*
X825Y266D02*
X832Y266D01*
X1075Y266D02*
X1081Y266D01*
X1122Y266D02*
X1128Y266D01*
X1291Y266D02*
X1298Y266D01*
X1Y265D02*
X8Y265D01*
X496Y265D02*
X505Y265D01*
X681Y265D02*
X687Y265D01*
X728Y265D02*
X734Y265D01*
X768Y265D02*
X776Y265D01*
X824Y265D02*
X832Y265D01*
X1075Y265D02*
X1081Y265D01*
X1122Y265D02*
X1128Y265D01*
X1291Y265D02*
X1298Y265D01*
X1Y264D02*
X8Y264D01*
X496Y264D02*
X505Y264D01*
X681Y264D02*
X687Y264D01*
X728Y264D02*
X734Y264D01*
X769Y264D02*
X776Y264D01*
X823Y264D02*
X831Y264D01*
X1076Y264D02*
X1081Y264D01*
X1122Y264D02*
X1128Y264D01*
X1291Y264D02*
X1298Y264D01*
X1Y263D02*
X8Y263D01*
X496Y263D02*
X505Y263D01*
X681Y263D02*
X687Y263D01*
X728Y263D02*
X734Y263D01*
X769Y263D02*
X777Y263D01*
X823Y263D02*
X831Y263D01*
X1076Y263D02*
X1080Y263D01*
X1122Y263D02*
X1128Y263D01*
X1291Y263D02*
X1298Y263D01*
X1Y262D02*
X8Y262D01*
X496Y262D02*
X505Y262D01*
X681Y262D02*
X687Y262D01*
X728Y262D02*
X734Y262D01*
X769Y262D02*
X777Y262D01*
X822Y262D02*
X830Y262D01*
X1122Y262D02*
X1128Y262D01*
X1291Y262D02*
X1298Y262D01*
X1Y261D02*
X8Y261D01*
X403Y261D02*
X411Y261D01*
X444Y261D02*
X446Y261D01*
X496Y261D02*
X505Y261D01*
X681Y261D02*
X687Y261D01*
X728Y261D02*
X734Y261D01*
X770Y261D02*
X778Y261D01*
X822Y261D02*
X830Y261D01*
X1122Y261D02*
X1128Y261D01*
X1291Y261D02*
X1298Y261D01*
X1Y260D02*
X8Y260D01*
X400Y260D02*
X414Y260D01*
X442Y260D02*
X448Y260D01*
X496Y260D02*
X505Y260D01*
X681Y260D02*
X687Y260D01*
X728Y260D02*
X734Y260D01*
X771Y260D02*
X778Y260D01*
X821Y260D02*
X829Y260D01*
X1120Y260D02*
X1128Y260D01*
X1291Y260D02*
X1298Y260D01*
X1Y259D02*
X8Y259D01*
X399Y259D02*
X415Y259D01*
X441Y259D02*
X448Y259D01*
X496Y259D02*
X505Y259D01*
X681Y259D02*
X687Y259D01*
X728Y259D02*
X734Y259D01*
X771Y259D02*
X779Y259D01*
X821Y259D02*
X829Y259D01*
X1109Y259D02*
X1128Y259D01*
X1291Y259D02*
X1298Y259D01*
X1Y258D02*
X8Y258D01*
X398Y258D02*
X416Y258D01*
X439Y258D02*
X448Y258D01*
X496Y258D02*
X505Y258D01*
X681Y258D02*
X687Y258D01*
X728Y258D02*
X734Y258D01*
X772Y258D02*
X780Y258D01*
X820Y258D02*
X828Y258D01*
X1108Y258D02*
X1127Y258D01*
X1291Y258D02*
X1298Y258D01*
X1Y257D02*
X8Y257D01*
X397Y257D02*
X417Y257D01*
X437Y257D02*
X448Y257D01*
X496Y257D02*
X505Y257D01*
X681Y257D02*
X687Y257D01*
X728Y257D02*
X734Y257D01*
X772Y257D02*
X780Y257D01*
X819Y257D02*
X828Y257D01*
X1107Y257D02*
X1127Y257D01*
X1291Y257D02*
X1298Y257D01*
X1Y256D02*
X8Y256D01*
X397Y256D02*
X418Y256D01*
X435Y256D02*
X448Y256D01*
X496Y256D02*
X505Y256D01*
X681Y256D02*
X687Y256D01*
X728Y256D02*
X734Y256D01*
X773Y256D02*
X781Y256D01*
X819Y256D02*
X827Y256D01*
X1107Y256D02*
X1126Y256D01*
X1291Y256D02*
X1298Y256D01*
X1Y255D02*
X8Y255D01*
X396Y255D02*
X418Y255D01*
X434Y255D02*
X447Y255D01*
X496Y255D02*
X505Y255D01*
X681Y255D02*
X687Y255D01*
X728Y255D02*
X734Y255D01*
X773Y255D02*
X782Y255D01*
X818Y255D02*
X826Y255D01*
X1107Y255D02*
X1125Y255D01*
X1291Y255D02*
X1298Y255D01*
X1Y254D02*
X8Y254D01*
X396Y254D02*
X403Y254D01*
X411Y254D02*
X418Y254D01*
X432Y254D02*
X445Y254D01*
X496Y254D02*
X505Y254D01*
X681Y254D02*
X687Y254D01*
X728Y254D02*
X734Y254D01*
X774Y254D02*
X783Y254D01*
X817Y254D02*
X826Y254D01*
X1108Y254D02*
X1124Y254D01*
X1291Y254D02*
X1298Y254D01*
X1Y253D02*
X8Y253D01*
X395Y253D02*
X402Y253D01*
X412Y253D02*
X419Y253D01*
X430Y253D02*
X443Y253D01*
X496Y253D02*
X505Y253D01*
X681Y253D02*
X687Y253D01*
X728Y253D02*
X734Y253D01*
X775Y253D02*
X783Y253D01*
X816Y253D02*
X825Y253D01*
X1109Y253D02*
X1122Y253D01*
X1291Y253D02*
X1298Y253D01*
X1Y252D02*
X8Y252D01*
X395Y252D02*
X401Y252D01*
X413Y252D02*
X419Y252D01*
X429Y252D02*
X442Y252D01*
X496Y252D02*
X505Y252D01*
X681Y252D02*
X687Y252D01*
X728Y252D02*
X734Y252D01*
X775Y252D02*
X784Y252D01*
X816Y252D02*
X825Y252D01*
X1291Y252D02*
X1298Y252D01*
X1Y251D02*
X8Y251D01*
X395Y251D02*
X401Y251D01*
X413Y251D02*
X419Y251D01*
X427Y251D02*
X440Y251D01*
X496Y251D02*
X505Y251D01*
X681Y251D02*
X687Y251D01*
X728Y251D02*
X734Y251D01*
X776Y251D02*
X785Y251D01*
X815Y251D02*
X824Y251D01*
X1291Y251D02*
X1298Y251D01*
X1Y250D02*
X8Y250D01*
X395Y250D02*
X401Y250D01*
X413Y250D02*
X419Y250D01*
X425Y250D02*
X438Y250D01*
X496Y250D02*
X505Y250D01*
X681Y250D02*
X687Y250D01*
X728Y250D02*
X734Y250D01*
X777Y250D02*
X786Y250D01*
X814Y250D02*
X823Y250D01*
X1291Y250D02*
X1298Y250D01*
X1Y249D02*
X8Y249D01*
X395Y249D02*
X401Y249D01*
X413Y249D02*
X419Y249D01*
X423Y249D02*
X437Y249D01*
X496Y249D02*
X505Y249D01*
X681Y249D02*
X687Y249D01*
X728Y249D02*
X734Y249D01*
X777Y249D02*
X787Y249D01*
X813Y249D02*
X822Y249D01*
X1291Y249D02*
X1298Y249D01*
X1Y248D02*
X8Y248D01*
X395Y248D02*
X401Y248D01*
X413Y248D02*
X419Y248D01*
X422Y248D02*
X435Y248D01*
X496Y248D02*
X505Y248D01*
X681Y248D02*
X687Y248D01*
X728Y248D02*
X734Y248D01*
X778Y248D02*
X787Y248D01*
X813Y248D02*
X822Y248D01*
X1291Y248D02*
X1298Y248D01*
X1Y247D02*
X8Y247D01*
X395Y247D02*
X401Y247D01*
X413Y247D02*
X433Y247D01*
X496Y247D02*
X505Y247D01*
X681Y247D02*
X687Y247D01*
X728Y247D02*
X734Y247D01*
X779Y247D02*
X788Y247D01*
X813Y247D02*
X821Y247D01*
X1291Y247D02*
X1298Y247D01*
X1Y246D02*
X8Y246D01*
X395Y246D02*
X401Y246D01*
X413Y246D02*
X431Y246D01*
X496Y246D02*
X505Y246D01*
X681Y246D02*
X687Y246D01*
X728Y246D02*
X734Y246D01*
X780Y246D02*
X788Y246D01*
X813Y246D02*
X820Y246D01*
X1291Y246D02*
X1298Y246D01*
X1Y245D02*
X8Y245D01*
X395Y245D02*
X401Y245D01*
X413Y245D02*
X430Y245D01*
X496Y245D02*
X505Y245D01*
X681Y245D02*
X734Y245D01*
X781Y245D02*
X787Y245D01*
X813Y245D02*
X819Y245D01*
X1291Y245D02*
X1298Y245D01*
X1Y244D02*
X8Y244D01*
X395Y244D02*
X401Y244D01*
X413Y244D02*
X428Y244D01*
X496Y244D02*
X505Y244D01*
X681Y244D02*
X734Y244D01*
X781Y244D02*
X787Y244D01*
X814Y244D02*
X818Y244D01*
X1291Y244D02*
X1298Y244D01*
X1Y243D02*
X8Y243D01*
X395Y243D02*
X401Y243D01*
X413Y243D02*
X426Y243D01*
X496Y243D02*
X505Y243D01*
X682Y243D02*
X734Y243D01*
X783Y243D02*
X786Y243D01*
X816Y243D02*
X816Y243D01*
X1291Y243D02*
X1298Y243D01*
X1Y242D02*
X8Y242D01*
X395Y242D02*
X401Y242D01*
X413Y242D02*
X425Y242D01*
X496Y242D02*
X505Y242D01*
X682Y242D02*
X733Y242D01*
X1291Y242D02*
X1298Y242D01*
X1Y241D02*
X8Y241D01*
X395Y241D02*
X401Y241D01*
X413Y241D02*
X423Y241D01*
X496Y241D02*
X505Y241D01*
X683Y241D02*
X733Y241D01*
X1291Y241D02*
X1298Y241D01*
X1Y240D02*
X8Y240D01*
X395Y240D02*
X401Y240D01*
X413Y240D02*
X421Y240D01*
X496Y240D02*
X505Y240D01*
X684Y240D02*
X732Y240D01*
X1291Y240D02*
X1298Y240D01*
X1Y239D02*
X8Y239D01*
X395Y239D02*
X401Y239D01*
X413Y239D02*
X419Y239D01*
X496Y239D02*
X499Y239D01*
X502Y239D02*
X505Y239D01*
X685Y239D02*
X730Y239D01*
X1291Y239D02*
X1298Y239D01*
X1Y238D02*
X8Y238D01*
X395Y238D02*
X401Y238D01*
X413Y238D02*
X419Y238D01*
X1291Y238D02*
X1298Y238D01*
X1Y237D02*
X8Y237D01*
X395Y237D02*
X401Y237D01*
X413Y237D02*
X419Y237D01*
X1291Y237D02*
X1298Y237D01*
X1Y236D02*
X8Y236D01*
X395Y236D02*
X401Y236D01*
X413Y236D02*
X419Y236D01*
X1291Y236D02*
X1298Y236D01*
X1Y235D02*
X8Y235D01*
X395Y235D02*
X401Y235D01*
X413Y235D02*
X419Y235D01*
X1291Y235D02*
X1298Y235D01*
X1Y234D02*
X8Y234D01*
X395Y234D02*
X402Y234D01*
X413Y234D02*
X419Y234D01*
X1291Y234D02*
X1298Y234D01*
X1Y233D02*
X8Y233D01*
X395Y233D02*
X447Y233D01*
X1291Y233D02*
X1298Y233D01*
X1Y232D02*
X8Y232D01*
X395Y232D02*
X448Y232D01*
X1291Y232D02*
X1298Y232D01*
X1Y231D02*
X8Y231D01*
X395Y231D02*
X448Y231D01*
X1291Y231D02*
X1298Y231D01*
X1Y230D02*
X8Y230D01*
X395Y230D02*
X448Y230D01*
X1291Y230D02*
X1298Y230D01*
X1Y229D02*
X8Y229D01*
X395Y229D02*
X448Y229D01*
X1291Y229D02*
X1298Y229D01*
X1Y228D02*
X8Y228D01*
X395Y228D02*
X447Y228D01*
X1291Y228D02*
X1298Y228D01*
X1Y227D02*
X8Y227D01*
X396Y227D02*
X445Y227D01*
X1291Y227D02*
X1298Y227D01*
X1Y226D02*
X8Y226D01*
X1291Y226D02*
X1298Y226D01*
X1Y225D02*
X8Y225D01*
X1291Y225D02*
X1298Y225D01*
X1Y224D02*
X8Y224D01*
X1291Y224D02*
X1298Y224D01*
X1Y223D02*
X8Y223D01*
X1291Y223D02*
X1298Y223D01*
X1Y222D02*
X8Y222D01*
X1291Y222D02*
X1298Y222D01*
X1Y221D02*
X8Y221D01*
X685Y221D02*
X730Y221D01*
X1291Y221D02*
X1298Y221D01*
X1Y220D02*
X8Y220D01*
X684Y220D02*
X732Y220D01*
X1291Y220D02*
X1298Y220D01*
X1Y219D02*
X8Y219D01*
X683Y219D02*
X733Y219D01*
X1291Y219D02*
X1298Y219D01*
X1Y218D02*
X8Y218D01*
X682Y218D02*
X733Y218D01*
X1291Y218D02*
X1298Y218D01*
X1Y217D02*
X8Y217D01*
X682Y217D02*
X734Y217D01*
X1291Y217D02*
X1298Y217D01*
X1Y216D02*
X8Y216D01*
X681Y216D02*
X734Y216D01*
X1291Y216D02*
X1298Y216D01*
X1Y215D02*
X8Y215D01*
X681Y215D02*
X734Y215D01*
X1291Y215D02*
X1298Y215D01*
X1Y214D02*
X8Y214D01*
X681Y214D02*
X687Y214D01*
X728Y214D02*
X734Y214D01*
X1291Y214D02*
X1298Y214D01*
X1Y213D02*
X8Y213D01*
X681Y213D02*
X687Y213D01*
X728Y213D02*
X734Y213D01*
X1291Y213D02*
X1298Y213D01*
X1Y212D02*
X8Y212D01*
X681Y212D02*
X687Y212D01*
X728Y212D02*
X734Y212D01*
X1291Y212D02*
X1298Y212D01*
X1Y211D02*
X8Y211D01*
X681Y211D02*
X687Y211D01*
X728Y211D02*
X734Y211D01*
X1291Y211D02*
X1298Y211D01*
X1Y210D02*
X8Y210D01*
X681Y210D02*
X687Y210D01*
X728Y210D02*
X734Y210D01*
X1291Y210D02*
X1298Y210D01*
X1Y209D02*
X8Y209D01*
X681Y209D02*
X687Y209D01*
X728Y209D02*
X734Y209D01*
X1291Y209D02*
X1298Y209D01*
X1Y208D02*
X8Y208D01*
X681Y208D02*
X687Y208D01*
X728Y208D02*
X734Y208D01*
X1291Y208D02*
X1298Y208D01*
X1Y207D02*
X8Y207D01*
X681Y207D02*
X687Y207D01*
X728Y207D02*
X734Y207D01*
X1291Y207D02*
X1298Y207D01*
X1Y206D02*
X8Y206D01*
X681Y206D02*
X687Y206D01*
X728Y206D02*
X734Y206D01*
X1291Y206D02*
X1298Y206D01*
X1Y205D02*
X8Y205D01*
X681Y205D02*
X687Y205D01*
X728Y205D02*
X734Y205D01*
X1291Y205D02*
X1298Y205D01*
X1Y204D02*
X8Y204D01*
X681Y204D02*
X687Y204D01*
X728Y204D02*
X734Y204D01*
X1291Y204D02*
X1298Y204D01*
X1Y203D02*
X8Y203D01*
X681Y203D02*
X687Y203D01*
X728Y203D02*
X734Y203D01*
X1291Y203D02*
X1298Y203D01*
X1Y202D02*
X8Y202D01*
X681Y202D02*
X687Y202D01*
X728Y202D02*
X734Y202D01*
X1291Y202D02*
X1298Y202D01*
X1Y201D02*
X8Y201D01*
X681Y201D02*
X687Y201D01*
X728Y201D02*
X734Y201D01*
X1291Y201D02*
X1298Y201D01*
X1Y200D02*
X8Y200D01*
X681Y200D02*
X687Y200D01*
X728Y200D02*
X734Y200D01*
X1291Y200D02*
X1298Y200D01*
X1Y199D02*
X8Y199D01*
X681Y199D02*
X687Y199D01*
X728Y199D02*
X734Y199D01*
X1291Y199D02*
X1298Y199D01*
X1Y198D02*
X8Y198D01*
X681Y198D02*
X687Y198D01*
X728Y198D02*
X734Y198D01*
X1291Y198D02*
X1298Y198D01*
X1Y197D02*
X8Y197D01*
X681Y197D02*
X687Y197D01*
X728Y197D02*
X734Y197D01*
X1291Y197D02*
X1298Y197D01*
X1Y196D02*
X8Y196D01*
X681Y196D02*
X687Y196D01*
X728Y196D02*
X734Y196D01*
X1291Y196D02*
X1298Y196D01*
X1Y195D02*
X8Y195D01*
X681Y195D02*
X687Y195D01*
X728Y195D02*
X734Y195D01*
X1291Y195D02*
X1298Y195D01*
X1Y194D02*
X8Y194D01*
X681Y194D02*
X734Y194D01*
X1291Y194D02*
X1298Y194D01*
X1Y193D02*
X8Y193D01*
X681Y193D02*
X734Y193D01*
X1291Y193D02*
X1298Y193D01*
X1Y192D02*
X8Y192D01*
X681Y192D02*
X734Y192D01*
X1291Y192D02*
X1298Y192D01*
X1Y191D02*
X8Y191D01*
X682Y191D02*
X733Y191D01*
X1291Y191D02*
X1298Y191D01*
X1Y190D02*
X8Y190D01*
X682Y190D02*
X733Y190D01*
X1291Y190D02*
X1298Y190D01*
X1Y189D02*
X8Y189D01*
X683Y189D02*
X732Y189D01*
X1291Y189D02*
X1298Y189D01*
X1Y188D02*
X8Y188D01*
X685Y188D02*
X731Y188D01*
X1291Y188D02*
X1298Y188D01*
X1Y187D02*
X8Y187D01*
X689Y187D02*
X727Y187D01*
X1291Y187D02*
X1298Y187D01*
X1Y186D02*
X8Y186D01*
X1291Y186D02*
X1298Y186D01*
X1Y185D02*
X8Y185D01*
X1291Y185D02*
X1298Y185D01*
X1Y184D02*
X8Y184D01*
X1291Y184D02*
X1298Y184D01*
X1Y183D02*
X8Y183D01*
X1291Y183D02*
X1298Y183D01*
X1Y182D02*
X8Y182D01*
X1291Y182D02*
X1298Y182D01*
X1Y181D02*
X8Y181D01*
X1291Y181D02*
X1298Y181D01*
X1Y180D02*
X8Y180D01*
X1291Y180D02*
X1298Y180D01*
X1Y179D02*
X8Y179D01*
X1291Y179D02*
X1298Y179D01*
X1Y178D02*
X8Y178D01*
X1291Y178D02*
X1298Y178D01*
X1Y177D02*
X8Y177D01*
X1291Y177D02*
X1298Y177D01*
X1Y176D02*
X8Y176D01*
X1291Y176D02*
X1298Y176D01*
X1Y175D02*
X8Y175D01*
X1291Y175D02*
X1298Y175D01*
X1Y174D02*
X8Y174D01*
X1291Y174D02*
X1298Y174D01*
X1Y173D02*
X8Y173D01*
X1291Y173D02*
X1298Y173D01*
X1Y172D02*
X8Y172D01*
X1291Y172D02*
X1298Y172D01*
X1Y171D02*
X8Y171D01*
X1291Y171D02*
X1298Y171D01*
X1Y170D02*
X8Y170D01*
X1291Y170D02*
X1298Y170D01*
X1Y169D02*
X8Y169D01*
X683Y169D02*
X718Y169D01*
X1291Y169D02*
X1298Y169D01*
X1Y168D02*
X8Y168D01*
X682Y168D02*
X719Y168D01*
X1291Y168D02*
X1298Y168D01*
X1Y167D02*
X8Y167D01*
X681Y167D02*
X719Y167D01*
X1291Y167D02*
X1298Y167D01*
X1Y166D02*
X8Y166D01*
X681Y166D02*
X719Y166D01*
X1291Y166D02*
X1298Y166D01*
X1Y165D02*
X8Y165D01*
X681Y165D02*
X719Y165D01*
X1291Y165D02*
X1298Y165D01*
X1Y164D02*
X8Y164D01*
X682Y164D02*
X719Y164D01*
X1291Y164D02*
X1298Y164D01*
X1Y163D02*
X8Y163D01*
X683Y163D02*
X717Y163D01*
X1291Y163D02*
X1298Y163D01*
X1Y162D02*
X8Y162D01*
X707Y162D02*
X714Y162D01*
X1291Y162D02*
X1298Y162D01*
X1Y161D02*
X8Y161D01*
X707Y161D02*
X715Y161D01*
X1291Y161D02*
X1298Y161D01*
X1Y160D02*
X8Y160D01*
X708Y160D02*
X715Y160D01*
X1291Y160D02*
X1298Y160D01*
X1Y159D02*
X8Y159D01*
X709Y159D02*
X716Y159D01*
X1291Y159D02*
X1298Y159D01*
X1Y158D02*
X8Y158D01*
X709Y158D02*
X717Y158D01*
X1291Y158D02*
X1298Y158D01*
X1Y157D02*
X8Y157D01*
X710Y157D02*
X717Y157D01*
X1291Y157D02*
X1298Y157D01*
X1Y156D02*
X8Y156D01*
X710Y156D02*
X718Y156D01*
X1291Y156D02*
X1298Y156D01*
X1Y155D02*
X8Y155D01*
X711Y155D02*
X718Y155D01*
X1291Y155D02*
X1298Y155D01*
X1Y154D02*
X8Y154D01*
X712Y154D02*
X719Y154D01*
X1291Y154D02*
X1298Y154D01*
X1Y153D02*
X8Y153D01*
X712Y153D02*
X719Y153D01*
X1291Y153D02*
X1298Y153D01*
X1Y152D02*
X8Y152D01*
X713Y152D02*
X719Y152D01*
X1291Y152D02*
X1298Y152D01*
X1Y151D02*
X8Y151D01*
X713Y151D02*
X719Y151D01*
X1291Y151D02*
X1298Y151D01*
X1Y150D02*
X8Y150D01*
X713Y150D02*
X719Y150D01*
X1291Y150D02*
X1298Y150D01*
X1Y149D02*
X8Y149D01*
X713Y149D02*
X719Y149D01*
X1291Y149D02*
X1298Y149D01*
X1Y148D02*
X8Y148D01*
X713Y148D02*
X719Y148D01*
X1291Y148D02*
X1298Y148D01*
X1Y147D02*
X8Y147D01*
X713Y147D02*
X719Y147D01*
X1291Y147D02*
X1298Y147D01*
X1Y146D02*
X8Y146D01*
X713Y146D02*
X719Y146D01*
X1291Y146D02*
X1298Y146D01*
X1Y145D02*
X8Y145D01*
X713Y145D02*
X719Y145D01*
X1291Y145D02*
X1298Y145D01*
X1Y144D02*
X8Y144D01*
X712Y144D02*
X719Y144D01*
X1291Y144D02*
X1298Y144D01*
X1Y143D02*
X8Y143D01*
X684Y143D02*
X719Y143D01*
X1291Y143D02*
X1298Y143D01*
X1Y142D02*
X8Y142D01*
X682Y142D02*
X719Y142D01*
X1291Y142D02*
X1298Y142D01*
X1Y141D02*
X8Y141D01*
X681Y141D02*
X718Y141D01*
X1291Y141D02*
X1298Y141D01*
X1Y140D02*
X8Y140D01*
X681Y140D02*
X717Y140D01*
X1291Y140D02*
X1298Y140D01*
X1Y139D02*
X8Y139D01*
X681Y139D02*
X716Y139D01*
X1291Y139D02*
X1298Y139D01*
X1Y138D02*
X8Y138D01*
X682Y138D02*
X715Y138D01*
X1291Y138D02*
X1298Y138D01*
X1Y137D02*
X8Y137D01*
X682Y137D02*
X714Y137D01*
X1291Y137D02*
X1298Y137D01*
X1Y136D02*
X8Y136D01*
X1291Y136D02*
X1298Y136D01*
X1Y135D02*
X8Y135D01*
X1291Y135D02*
X1298Y135D01*
X1Y134D02*
X8Y134D01*
X1291Y134D02*
X1298Y134D01*
X1Y133D02*
X8Y133D01*
X1291Y133D02*
X1298Y133D01*
X1Y132D02*
X8Y132D01*
X1291Y132D02*
X1298Y132D01*
X1Y131D02*
X8Y131D01*
X1291Y131D02*
X1298Y131D01*
X1Y130D02*
X8Y130D01*
X1291Y130D02*
X1298Y130D01*
X1Y129D02*
X8Y129D01*
X1291Y129D02*
X1298Y129D01*
X1Y128D02*
X8Y128D01*
X1291Y128D02*
X1298Y128D01*
X1Y127D02*
X8Y127D01*
X1291Y127D02*
X1298Y127D01*
X1Y126D02*
X8Y126D01*
X1291Y126D02*
X1298Y126D01*
X1Y125D02*
X8Y125D01*
X1291Y125D02*
X1298Y125D01*
X1Y124D02*
X8Y124D01*
X1291Y124D02*
X1298Y124D01*
X1Y123D02*
X8Y123D01*
X1291Y123D02*
X1298Y123D01*
X1Y122D02*
X8Y122D01*
X1291Y122D02*
X1298Y122D01*
X1Y121D02*
X8Y121D01*
X1291Y121D02*
X1298Y121D01*
X1Y120D02*
X8Y120D01*
X1291Y120D02*
X1298Y120D01*
X1Y119D02*
X8Y119D01*
X1291Y119D02*
X1298Y119D01*
X1Y118D02*
X8Y118D01*
X683Y118D02*
X734Y118D01*
X1291Y118D02*
X1298Y118D01*
X1Y117D02*
X8Y117D01*
X682Y117D02*
X734Y117D01*
X1291Y117D02*
X1298Y117D01*
X1Y116D02*
X8Y116D01*
X681Y116D02*
X734Y116D01*
X1291Y116D02*
X1298Y116D01*
X1Y115D02*
X8Y115D01*
X681Y115D02*
X734Y115D01*
X1291Y115D02*
X1298Y115D01*
X1Y114D02*
X8Y114D01*
X681Y114D02*
X734Y114D01*
X1291Y114D02*
X1298Y114D01*
X1Y113D02*
X8Y113D01*
X682Y113D02*
X734Y113D01*
X1291Y113D02*
X1298Y113D01*
X1Y112D02*
X8Y112D01*
X683Y112D02*
X734Y112D01*
X1291Y112D02*
X1298Y112D01*
X1Y111D02*
X8Y111D01*
X710Y111D02*
X717Y111D01*
X728Y111D02*
X734Y111D01*
X1291Y111D02*
X1298Y111D01*
X1Y110D02*
X8Y110D01*
X710Y110D02*
X717Y110D01*
X728Y110D02*
X734Y110D01*
X1291Y110D02*
X1298Y110D01*
X1Y109D02*
X8Y109D01*
X710Y109D02*
X717Y109D01*
X728Y109D02*
X734Y109D01*
X1291Y109D02*
X1298Y109D01*
X1Y108D02*
X8Y108D01*
X710Y108D02*
X717Y108D01*
X728Y108D02*
X734Y108D01*
X1291Y108D02*
X1298Y108D01*
X1Y107D02*
X8Y107D01*
X710Y107D02*
X717Y107D01*
X728Y107D02*
X734Y107D01*
X1291Y107D02*
X1298Y107D01*
X1Y106D02*
X8Y106D01*
X710Y106D02*
X717Y106D01*
X728Y106D02*
X734Y106D01*
X1291Y106D02*
X1298Y106D01*
X1Y105D02*
X8Y105D01*
X710Y105D02*
X717Y105D01*
X728Y105D02*
X734Y105D01*
X1291Y105D02*
X1298Y105D01*
X1Y104D02*
X8Y104D01*
X710Y104D02*
X717Y104D01*
X728Y104D02*
X734Y104D01*
X1291Y104D02*
X1298Y104D01*
X1Y103D02*
X8Y103D01*
X710Y103D02*
X717Y103D01*
X728Y103D02*
X734Y103D01*
X1291Y103D02*
X1298Y103D01*
X1Y102D02*
X8Y102D01*
X710Y102D02*
X717Y102D01*
X728Y102D02*
X734Y102D01*
X1291Y102D02*
X1298Y102D01*
X1Y101D02*
X8Y101D01*
X710Y101D02*
X717Y101D01*
X728Y101D02*
X734Y101D01*
X1291Y101D02*
X1298Y101D01*
X1Y100D02*
X8Y100D01*
X710Y100D02*
X717Y100D01*
X728Y100D02*
X734Y100D01*
X1291Y100D02*
X1298Y100D01*
X1Y99D02*
X8Y99D01*
X710Y99D02*
X717Y99D01*
X728Y99D02*
X734Y99D01*
X1291Y99D02*
X1298Y99D01*
X1Y98D02*
X8Y98D01*
X710Y98D02*
X717Y98D01*
X728Y98D02*
X734Y98D01*
X1291Y98D02*
X1298Y98D01*
X1Y97D02*
X8Y97D01*
X710Y97D02*
X717Y97D01*
X728Y97D02*
X734Y97D01*
X1291Y97D02*
X1298Y97D01*
X1Y96D02*
X8Y96D01*
X710Y96D02*
X717Y96D01*
X728Y96D02*
X734Y96D01*
X1291Y96D02*
X1298Y96D01*
X1Y95D02*
X8Y95D01*
X711Y95D02*
X716Y95D01*
X728Y95D02*
X734Y95D01*
X1291Y95D02*
X1298Y95D01*
X1Y94D02*
X8Y94D01*
X711Y94D02*
X716Y94D01*
X728Y94D02*
X734Y94D01*
X1291Y94D02*
X1298Y94D01*
X1Y93D02*
X8Y93D01*
X711Y93D02*
X716Y93D01*
X728Y93D02*
X734Y93D01*
X1291Y93D02*
X1298Y93D01*
X1Y92D02*
X8Y92D01*
X712Y92D02*
X715Y92D01*
X728Y92D02*
X734Y92D01*
X1291Y92D02*
X1298Y92D01*
X1Y91D02*
X8Y91D01*
X728Y91D02*
X734Y91D01*
X1291Y91D02*
X1298Y91D01*
X1Y90D02*
X8Y90D01*
X728Y90D02*
X734Y90D01*
X1291Y90D02*
X1298Y90D01*
X1Y89D02*
X8Y89D01*
X728Y89D02*
X734Y89D01*
X1291Y89D02*
X1298Y89D01*
X1Y88D02*
X8Y88D01*
X728Y88D02*
X734Y88D01*
X1291Y88D02*
X1298Y88D01*
X1Y87D02*
X8Y87D01*
X728Y87D02*
X734Y87D01*
X1291Y87D02*
X1298Y87D01*
X1Y86D02*
X8Y86D01*
X729Y86D02*
X734Y86D01*
X1291Y86D02*
X1298Y86D01*
X1Y85D02*
X8Y85D01*
X730Y85D02*
X733Y85D01*
X1291Y85D02*
X1298Y85D01*
X1Y84D02*
X8Y84D01*
X1291Y84D02*
X1298Y84D01*
X1Y83D02*
X8Y83D01*
X1291Y83D02*
X1298Y83D01*
X1Y82D02*
X8Y82D01*
X1291Y82D02*
X1298Y82D01*
X1Y81D02*
X8Y81D01*
X1291Y81D02*
X1298Y81D01*
X1Y80D02*
X8Y80D01*
X1291Y80D02*
X1298Y80D01*
X1Y79D02*
X8Y79D01*
X1291Y79D02*
X1298Y79D01*
X1Y78D02*
X8Y78D01*
X1291Y78D02*
X1298Y78D01*
X1Y77D02*
X8Y77D01*
X1291Y77D02*
X1298Y77D01*
X1Y76D02*
X8Y76D01*
X1291Y76D02*
X1298Y76D01*
X1Y75D02*
X8Y75D01*
X1291Y75D02*
X1298Y75D01*
X1Y74D02*
X8Y74D01*
X1291Y74D02*
X1298Y74D01*
X1Y73D02*
X8Y73D01*
X1291Y73D02*
X1298Y73D01*
X1Y72D02*
X8Y72D01*
X1291Y72D02*
X1298Y72D01*
X1Y71D02*
X8Y71D01*
X1291Y71D02*
X1298Y71D01*
X1Y70D02*
X8Y70D01*
X1291Y70D02*
X1298Y70D01*
X1Y69D02*
X8Y69D01*
X1291Y69D02*
X1298Y69D01*
X1Y68D02*
X8Y68D01*
X1291Y68D02*
X1298Y68D01*
X1Y67D02*
X8Y67D01*
X1291Y67D02*
X1298Y67D01*
X1Y66D02*
X8Y66D01*
X1291Y66D02*
X1298Y66D01*
X1Y65D02*
X8Y65D01*
X1291Y65D02*
X1298Y65D01*
X1Y64D02*
X8Y64D01*
X1291Y64D02*
X1298Y64D01*
X1Y63D02*
X8Y63D01*
X1291Y63D02*
X1298Y63D01*
X1Y62D02*
X8Y62D01*
X1291Y62D02*
X1298Y62D01*
X1Y61D02*
X8Y61D01*
X1291Y61D02*
X1298Y61D01*
X1Y60D02*
X8Y60D01*
X1291Y60D02*
X1298Y60D01*
X1Y59D02*
X8Y59D01*
X1291Y59D02*
X1298Y59D01*
X1Y58D02*
X8Y58D01*
X1291Y58D02*
X1298Y58D01*
X1Y57D02*
X8Y57D01*
X1291Y57D02*
X1298Y57D01*
X1Y56D02*
X8Y56D01*
X1291Y56D02*
X1298Y56D01*
X1Y55D02*
X8Y55D01*
X1291Y55D02*
X1298Y55D01*
X1Y54D02*
X8Y54D01*
X1291Y54D02*
X1298Y54D01*
X1Y53D02*
X8Y53D01*
X1291Y53D02*
X1298Y53D01*
X1Y52D02*
X8Y52D01*
X1291Y52D02*
X1298Y52D01*
X1Y51D02*
X8Y51D01*
X1291Y51D02*
X1298Y51D01*
X1Y50D02*
X8Y50D01*
X1291Y50D02*
X1298Y50D01*
X1Y49D02*
X8Y49D01*
X1291Y49D02*
X1298Y49D01*
X1Y48D02*
X8Y48D01*
X1291Y48D02*
X1298Y48D01*
X1Y47D02*
X8Y47D01*
X1291Y47D02*
X1298Y47D01*
X1Y46D02*
X8Y46D01*
X1291Y46D02*
X1298Y46D01*
X1Y45D02*
X8Y45D01*
X1291Y45D02*
X1298Y45D01*
X1Y44D02*
X8Y44D01*
X1291Y44D02*
X1298Y44D01*
X1Y43D02*
X8Y43D01*
X1291Y43D02*
X1298Y43D01*
X1Y42D02*
X8Y42D01*
X1291Y42D02*
X1298Y42D01*
X1Y41D02*
X8Y41D01*
X1291Y41D02*
X1298Y41D01*
X1Y40D02*
X8Y40D01*
X1291Y40D02*
X1298Y40D01*
X1Y39D02*
X8Y39D01*
X1291Y39D02*
X1298Y39D01*
X1Y38D02*
X8Y38D01*
X1291Y38D02*
X1298Y38D01*
X1Y37D02*
X8Y37D01*
X1291Y37D02*
X1298Y37D01*
X1Y36D02*
X8Y36D01*
X1291Y36D02*
X1298Y36D01*
X1Y35D02*
X8Y35D01*
X1291Y35D02*
X1298Y35D01*
X1Y34D02*
X8Y34D01*
X1291Y34D02*
X1298Y34D01*
X1Y33D02*
X8Y33D01*
X1291Y33D02*
X1298Y33D01*
X1Y32D02*
X8Y32D01*
X1291Y32D02*
X1298Y32D01*
X1Y31D02*
X8Y31D01*
X1291Y31D02*
X1298Y31D01*
X1Y30D02*
X8Y30D01*
X1291Y30D02*
X1298Y30D01*
X1Y29D02*
X8Y29D01*
X1291Y29D02*
X1298Y29D01*
X1Y28D02*
X8Y28D01*
X1291Y28D02*
X1298Y28D01*
X1Y27D02*
X8Y27D01*
X1291Y27D02*
X1298Y27D01*
X1Y26D02*
X8Y26D01*
X1291Y26D02*
X1298Y26D01*
X1Y25D02*
X8Y25D01*
X1291Y25D02*
X1298Y25D01*
X1Y24D02*
X8Y24D01*
X1291Y24D02*
X1298Y24D01*
X1Y23D02*
X8Y23D01*
X1291Y23D02*
X1298Y23D01*
X1Y22D02*
X8Y22D01*
X1291Y22D02*
X1298Y22D01*
X1Y21D02*
X8Y21D01*
X1291Y21D02*
X1298Y21D01*
X1Y20D02*
X8Y20D01*
X1291Y20D02*
X1298Y20D01*
X1Y19D02*
X8Y19D01*
X1291Y19D02*
X1298Y19D01*
X1Y18D02*
X8Y18D01*
X1291Y18D02*
X1298Y18D01*
X1Y17D02*
X8Y17D01*
X1291Y17D02*
X1298Y17D01*
X1Y16D02*
X8Y16D01*
X1291Y16D02*
X1298Y16D01*
X1Y15D02*
X8Y15D01*
X1291Y15D02*
X1298Y15D01*
X1Y14D02*
X8Y14D01*
X1291Y14D02*
X1298Y14D01*
X1Y13D02*
X8Y13D01*
X1291Y13D02*
X1298Y13D01*
X1Y12D02*
X8Y12D01*
X1291Y12D02*
X1298Y12D01*
X1Y11D02*
X8Y11D01*
X1291Y11D02*
X1298Y11D01*
X1Y10D02*
X8Y10D01*
X1291Y10D02*
X1298Y10D01*
X1Y9D02*
X8Y9D01*
X1291Y9D02*
X1298Y9D01*
X1Y8D02*
X1298Y8D01*
X1Y7D02*
X1298Y7D01*
X1Y6D02*
X1298Y6D01*
X1Y5D02*
X1298Y5D01*
X1Y4D02*
X1298Y4D01*
X1Y3D02*
X1298Y3D01*
X1Y2D02*
X1298Y2D01*
X1Y1D02*
X1298Y1D01*
D02*
G04 End of Silk1*
M02*