; NON-PLATED HOLES START AT T1
; THROUGH (PLATED) HOLES START AT T100
M48
INCH
T100C0.030000
T101C0.031497
T102C0.032000
T103C0.040000
T104C0.038000
T105C0.057917
T106C0.035000
%
T100
X016000Y008000
X008000Y002000
X016000Y006000
X006000Y002000
T101
X016015Y003000
X017000Y003000
T102
X017000Y010000
X017000Y011000
X017000Y012000
T103
X014000Y007000
X012999Y007000
X012999Y004000
X014000Y004000
X012000Y004000
X012000Y007000
T104
X003000Y003000
X002000Y003000
T105
X002000Y011000
X002000Y013002
X002000Y009000
T106
X005000Y002000
X010000Y006000
X011000Y009000
X005000Y013000
X007000Y004000
X010000Y004000
X007000Y006000
X007000Y009000
X010000Y007000
X013000Y013000
X005000Y010000
X007000Y007000
X015000Y009000
X009000Y013000
X011000Y013000
X005000Y009000
X010000Y005000
X013000Y009000
X005000Y012000
X007000Y013000
X009000Y009000
X005000Y006000
X015000Y013000
X007000Y005000
T00
M30
