G04 MADE WITH FRITZING*
G04 WWW.FRITZING.ORG*
G04 SINGLE SIDED*
G04 HOLES NOT PLATED*
G04 CONTOUR ON CENTER OF CONTOUR VECTOR*
%ASAXBY*%
%FSLAX23Y23*%
%MOIN*%
%OFA0B0*%
%SFA1.0B1.0*%
%ADD10C,0.085000*%
%ADD11C,0.084000*%
%ADD12C,0.088000*%
%ADD13C,0.072992*%
%ADD14C,0.109583*%
%ADD15C,0.080000*%
%ADD16R,0.085000X0.085000*%
%ADD17R,0.088000X0.088000*%
%ADD18R,0.072992X0.072992*%
%LNMASK0*%
G90*
G70*
G54D10*
X700Y700D03*
X1000Y700D03*
X700Y600D03*
X1000Y600D03*
X700Y500D03*
X1000Y500D03*
X700Y400D03*
X1000Y400D03*
X500Y1200D03*
X500Y1300D03*
X500Y1000D03*
X500Y900D03*
X1500Y900D03*
X1500Y1300D03*
X900Y900D03*
X900Y1300D03*
X1100Y900D03*
X1100Y1300D03*
X700Y900D03*
X700Y1300D03*
X500Y600D03*
X500Y200D03*
X1300Y1300D03*
X1300Y900D03*
G54D11*
X1200Y400D03*
X1300Y400D03*
X1400Y400D03*
X1200Y700D03*
X1300Y700D03*
X1400Y700D03*
G54D12*
X200Y300D03*
X300Y300D03*
G54D13*
X1700Y300D03*
X1602Y300D03*
G54D14*
X200Y1300D03*
X200Y1100D03*
X200Y900D03*
G54D15*
X600Y200D03*
X800Y200D03*
X1600Y800D03*
X1600Y600D03*
G54D11*
X1700Y1200D03*
X1700Y1100D03*
X1700Y1000D03*
G54D16*
X700Y700D03*
X500Y1200D03*
X500Y1000D03*
G54D17*
X200Y300D03*
G54D18*
X1700Y300D03*
G04 End of Mask0*
M02*