G04 MADE WITH FRITZING*
G04 WWW.FRITZING.ORG*
G04 DOUBLE SIDED*
G04 HOLES PLATED*
G04 CONTOUR ON CENTER OF CONTOUR VECTOR*
%ASAXBY*%
%FSLAX23Y23*%
%MOIN*%
%OFA0B0*%
%SFA1.0B1.0*%
%ADD10C,0.010000*%
%ADD11R,0.001000X0.001000*%
%LNSILK1*%
G90*
G70*
G54D10*
X325Y764D02*
X525Y764D01*
D02*
X525Y764D02*
X525Y698D01*
D02*
X525Y698D02*
X325Y698D01*
D02*
X325Y698D02*
X325Y764D01*
D02*
X1066Y281D02*
X1066Y81D01*
D02*
X1066Y81D02*
X1166Y81D01*
D02*
X1166Y81D02*
X1166Y281D01*
D02*
X1166Y281D02*
X1066Y281D01*
G54D11*
X1Y989D02*
X1398Y989D01*
X1Y988D02*
X1398Y988D01*
X1Y987D02*
X1398Y987D01*
X1Y986D02*
X1398Y986D01*
X1Y985D02*
X1398Y985D01*
X1Y984D02*
X1398Y984D01*
X1Y983D02*
X1398Y983D01*
X1Y982D02*
X1398Y982D01*
X1Y981D02*
X8Y981D01*
X1391Y981D02*
X1398Y981D01*
X1Y980D02*
X8Y980D01*
X1391Y980D02*
X1398Y980D01*
X1Y979D02*
X8Y979D01*
X1391Y979D02*
X1398Y979D01*
X1Y978D02*
X8Y978D01*
X1391Y978D02*
X1398Y978D01*
X1Y977D02*
X8Y977D01*
X1391Y977D02*
X1398Y977D01*
X1Y976D02*
X8Y976D01*
X1391Y976D02*
X1398Y976D01*
X1Y975D02*
X8Y975D01*
X1391Y975D02*
X1398Y975D01*
X1Y974D02*
X8Y974D01*
X1391Y974D02*
X1398Y974D01*
X1Y973D02*
X8Y973D01*
X1391Y973D02*
X1398Y973D01*
X1Y972D02*
X8Y972D01*
X1391Y972D02*
X1398Y972D01*
X1Y971D02*
X8Y971D01*
X1391Y971D02*
X1398Y971D01*
X1Y970D02*
X8Y970D01*
X1391Y970D02*
X1398Y970D01*
X1Y969D02*
X8Y969D01*
X1391Y969D02*
X1398Y969D01*
X1Y968D02*
X8Y968D01*
X1391Y968D02*
X1398Y968D01*
X1Y967D02*
X8Y967D01*
X1391Y967D02*
X1398Y967D01*
X1Y966D02*
X8Y966D01*
X1391Y966D02*
X1398Y966D01*
X1Y965D02*
X8Y965D01*
X1391Y965D02*
X1398Y965D01*
X1Y964D02*
X8Y964D01*
X1391Y964D02*
X1398Y964D01*
X1Y963D02*
X8Y963D01*
X1391Y963D02*
X1398Y963D01*
X1Y962D02*
X8Y962D01*
X1391Y962D02*
X1398Y962D01*
X1Y961D02*
X8Y961D01*
X1391Y961D02*
X1398Y961D01*
X1Y960D02*
X8Y960D01*
X1391Y960D02*
X1398Y960D01*
X1Y959D02*
X8Y959D01*
X1391Y959D02*
X1398Y959D01*
X1Y958D02*
X8Y958D01*
X1391Y958D02*
X1398Y958D01*
X1Y957D02*
X8Y957D01*
X1391Y957D02*
X1398Y957D01*
X1Y956D02*
X8Y956D01*
X1391Y956D02*
X1398Y956D01*
X1Y955D02*
X8Y955D01*
X1391Y955D02*
X1398Y955D01*
X1Y954D02*
X8Y954D01*
X1391Y954D02*
X1398Y954D01*
X1Y953D02*
X8Y953D01*
X1391Y953D02*
X1398Y953D01*
X1Y952D02*
X8Y952D01*
X1391Y952D02*
X1398Y952D01*
X1Y951D02*
X8Y951D01*
X1391Y951D02*
X1398Y951D01*
X1Y950D02*
X8Y950D01*
X1391Y950D02*
X1398Y950D01*
X1Y949D02*
X8Y949D01*
X1391Y949D02*
X1398Y949D01*
X1Y948D02*
X8Y948D01*
X1391Y948D02*
X1398Y948D01*
X1Y947D02*
X8Y947D01*
X1391Y947D02*
X1398Y947D01*
X1Y946D02*
X8Y946D01*
X1391Y946D02*
X1398Y946D01*
X1Y945D02*
X8Y945D01*
X1391Y945D02*
X1398Y945D01*
X1Y944D02*
X8Y944D01*
X1391Y944D02*
X1398Y944D01*
X1Y943D02*
X8Y943D01*
X1391Y943D02*
X1398Y943D01*
X1Y942D02*
X8Y942D01*
X1391Y942D02*
X1398Y942D01*
X1Y941D02*
X8Y941D01*
X1391Y941D02*
X1398Y941D01*
X1Y940D02*
X8Y940D01*
X1391Y940D02*
X1398Y940D01*
X1Y939D02*
X8Y939D01*
X1391Y939D02*
X1398Y939D01*
X1Y938D02*
X8Y938D01*
X1391Y938D02*
X1398Y938D01*
X1Y937D02*
X8Y937D01*
X1391Y937D02*
X1398Y937D01*
X1Y936D02*
X8Y936D01*
X1391Y936D02*
X1398Y936D01*
X1Y935D02*
X8Y935D01*
X1391Y935D02*
X1398Y935D01*
X1Y934D02*
X8Y934D01*
X1391Y934D02*
X1398Y934D01*
X1Y933D02*
X8Y933D01*
X1391Y933D02*
X1398Y933D01*
X1Y932D02*
X8Y932D01*
X1175Y932D02*
X1178Y932D01*
X1223Y932D02*
X1255Y932D01*
X1275Y932D02*
X1292Y932D01*
X1325Y932D02*
X1343Y932D01*
X1391Y932D02*
X1398Y932D01*
X1Y931D02*
X8Y931D01*
X1174Y931D02*
X1179Y931D01*
X1223Y931D02*
X1256Y931D01*
X1274Y931D02*
X1294Y931D01*
X1324Y931D02*
X1343Y931D01*
X1391Y931D02*
X1398Y931D01*
X1Y930D02*
X8Y930D01*
X1174Y930D02*
X1179Y930D01*
X1223Y930D02*
X1257Y930D01*
X1274Y930D02*
X1295Y930D01*
X1324Y930D02*
X1343Y930D01*
X1391Y930D02*
X1398Y930D01*
X1Y929D02*
X8Y929D01*
X1173Y929D02*
X1179Y929D01*
X1223Y929D02*
X1257Y929D01*
X1273Y929D02*
X1297Y929D01*
X1323Y929D02*
X1343Y929D01*
X1391Y929D02*
X1398Y929D01*
X1Y928D02*
X8Y928D01*
X1173Y928D02*
X1179Y928D01*
X1223Y928D02*
X1257Y928D01*
X1274Y928D02*
X1297Y928D01*
X1324Y928D02*
X1343Y928D01*
X1391Y928D02*
X1398Y928D01*
X1Y927D02*
X8Y927D01*
X1173Y927D02*
X1179Y927D01*
X1223Y927D02*
X1256Y927D01*
X1274Y927D02*
X1298Y927D01*
X1324Y927D02*
X1343Y927D01*
X1391Y927D02*
X1398Y927D01*
X1Y926D02*
X8Y926D01*
X1173Y926D02*
X1179Y926D01*
X1223Y926D02*
X1255Y926D01*
X1275Y926D02*
X1299Y926D01*
X1325Y926D02*
X1343Y926D01*
X1391Y926D02*
X1398Y926D01*
X1Y925D02*
X8Y925D01*
X1173Y925D02*
X1179Y925D01*
X1223Y925D02*
X1229Y925D01*
X1280Y925D02*
X1286Y925D01*
X1292Y925D02*
X1299Y925D01*
X1337Y925D02*
X1343Y925D01*
X1391Y925D02*
X1398Y925D01*
X1Y924D02*
X8Y924D01*
X1173Y924D02*
X1179Y924D01*
X1223Y924D02*
X1229Y924D01*
X1280Y924D02*
X1286Y924D01*
X1293Y924D02*
X1300Y924D01*
X1337Y924D02*
X1343Y924D01*
X1391Y924D02*
X1398Y924D01*
X1Y923D02*
X8Y923D01*
X1173Y923D02*
X1179Y923D01*
X1223Y923D02*
X1229Y923D01*
X1280Y923D02*
X1286Y923D01*
X1293Y923D02*
X1300Y923D01*
X1337Y923D02*
X1343Y923D01*
X1391Y923D02*
X1398Y923D01*
X1Y922D02*
X8Y922D01*
X1173Y922D02*
X1179Y922D01*
X1223Y922D02*
X1229Y922D01*
X1280Y922D02*
X1286Y922D01*
X1294Y922D02*
X1301Y922D01*
X1337Y922D02*
X1343Y922D01*
X1391Y922D02*
X1398Y922D01*
X1Y921D02*
X8Y921D01*
X1173Y921D02*
X1179Y921D01*
X1223Y921D02*
X1229Y921D01*
X1280Y921D02*
X1286Y921D01*
X1294Y921D02*
X1301Y921D01*
X1337Y921D02*
X1343Y921D01*
X1391Y921D02*
X1398Y921D01*
X1Y920D02*
X8Y920D01*
X1173Y920D02*
X1179Y920D01*
X1223Y920D02*
X1229Y920D01*
X1280Y920D02*
X1286Y920D01*
X1295Y920D02*
X1302Y920D01*
X1337Y920D02*
X1343Y920D01*
X1391Y920D02*
X1398Y920D01*
X1Y919D02*
X8Y919D01*
X1173Y919D02*
X1179Y919D01*
X1223Y919D02*
X1229Y919D01*
X1280Y919D02*
X1286Y919D01*
X1295Y919D02*
X1302Y919D01*
X1337Y919D02*
X1343Y919D01*
X1391Y919D02*
X1398Y919D01*
X1Y918D02*
X8Y918D01*
X1173Y918D02*
X1179Y918D01*
X1223Y918D02*
X1229Y918D01*
X1280Y918D02*
X1286Y918D01*
X1296Y918D02*
X1303Y918D01*
X1337Y918D02*
X1343Y918D01*
X1391Y918D02*
X1398Y918D01*
X1Y917D02*
X8Y917D01*
X1173Y917D02*
X1179Y917D01*
X1223Y917D02*
X1229Y917D01*
X1280Y917D02*
X1286Y917D01*
X1296Y917D02*
X1303Y917D01*
X1337Y917D02*
X1343Y917D01*
X1391Y917D02*
X1398Y917D01*
X1Y916D02*
X8Y916D01*
X1173Y916D02*
X1179Y916D01*
X1223Y916D02*
X1229Y916D01*
X1280Y916D02*
X1286Y916D01*
X1297Y916D02*
X1304Y916D01*
X1337Y916D02*
X1343Y916D01*
X1391Y916D02*
X1398Y916D01*
X1Y915D02*
X8Y915D01*
X1173Y915D02*
X1179Y915D01*
X1223Y915D02*
X1229Y915D01*
X1280Y915D02*
X1286Y915D01*
X1297Y915D02*
X1304Y915D01*
X1337Y915D02*
X1343Y915D01*
X1391Y915D02*
X1398Y915D01*
X1Y914D02*
X8Y914D01*
X1173Y914D02*
X1179Y914D01*
X1223Y914D02*
X1229Y914D01*
X1280Y914D02*
X1286Y914D01*
X1298Y914D02*
X1305Y914D01*
X1337Y914D02*
X1343Y914D01*
X1391Y914D02*
X1398Y914D01*
X1Y913D02*
X8Y913D01*
X1173Y913D02*
X1179Y913D01*
X1223Y913D02*
X1229Y913D01*
X1280Y913D02*
X1286Y913D01*
X1298Y913D02*
X1305Y913D01*
X1337Y913D02*
X1343Y913D01*
X1391Y913D02*
X1398Y913D01*
X1Y912D02*
X8Y912D01*
X1173Y912D02*
X1179Y912D01*
X1223Y912D02*
X1229Y912D01*
X1280Y912D02*
X1286Y912D01*
X1299Y912D02*
X1306Y912D01*
X1337Y912D02*
X1343Y912D01*
X1391Y912D02*
X1398Y912D01*
X1Y911D02*
X8Y911D01*
X1173Y911D02*
X1179Y911D01*
X1223Y911D02*
X1229Y911D01*
X1280Y911D02*
X1286Y911D01*
X1299Y911D02*
X1306Y911D01*
X1337Y911D02*
X1343Y911D01*
X1391Y911D02*
X1398Y911D01*
X1Y910D02*
X8Y910D01*
X1173Y910D02*
X1179Y910D01*
X1223Y910D02*
X1229Y910D01*
X1280Y910D02*
X1286Y910D01*
X1300Y910D02*
X1306Y910D01*
X1337Y910D02*
X1343Y910D01*
X1391Y910D02*
X1398Y910D01*
X1Y909D02*
X8Y909D01*
X1173Y909D02*
X1179Y909D01*
X1223Y909D02*
X1240Y909D01*
X1280Y909D02*
X1286Y909D01*
X1300Y909D02*
X1307Y909D01*
X1337Y909D02*
X1343Y909D01*
X1391Y909D02*
X1398Y909D01*
X1Y908D02*
X8Y908D01*
X1173Y908D02*
X1179Y908D01*
X1223Y908D02*
X1242Y908D01*
X1280Y908D02*
X1286Y908D01*
X1301Y908D02*
X1307Y908D01*
X1337Y908D02*
X1343Y908D01*
X1391Y908D02*
X1398Y908D01*
X1Y907D02*
X8Y907D01*
X1173Y907D02*
X1179Y907D01*
X1223Y907D02*
X1243Y907D01*
X1280Y907D02*
X1286Y907D01*
X1301Y907D02*
X1307Y907D01*
X1337Y907D02*
X1343Y907D01*
X1391Y907D02*
X1398Y907D01*
X1Y906D02*
X8Y906D01*
X1173Y906D02*
X1179Y906D01*
X1223Y906D02*
X1243Y906D01*
X1280Y906D02*
X1286Y906D01*
X1301Y906D02*
X1307Y906D01*
X1337Y906D02*
X1343Y906D01*
X1391Y906D02*
X1398Y906D01*
X1Y905D02*
X8Y905D01*
X1173Y905D02*
X1179Y905D01*
X1223Y905D02*
X1243Y905D01*
X1280Y905D02*
X1286Y905D01*
X1301Y905D02*
X1307Y905D01*
X1337Y905D02*
X1343Y905D01*
X1391Y905D02*
X1398Y905D01*
X1Y904D02*
X8Y904D01*
X1173Y904D02*
X1179Y904D01*
X1223Y904D02*
X1243Y904D01*
X1280Y904D02*
X1286Y904D01*
X1301Y904D02*
X1307Y904D01*
X1337Y904D02*
X1343Y904D01*
X1391Y904D02*
X1398Y904D01*
X1Y903D02*
X8Y903D01*
X1173Y903D02*
X1179Y903D01*
X1223Y903D02*
X1242Y903D01*
X1280Y903D02*
X1286Y903D01*
X1301Y903D02*
X1307Y903D01*
X1337Y903D02*
X1343Y903D01*
X1354Y903D02*
X1354Y903D01*
X1391Y903D02*
X1398Y903D01*
X1Y902D02*
X8Y902D01*
X1173Y902D02*
X1179Y902D01*
X1223Y902D02*
X1230Y902D01*
X1280Y902D02*
X1286Y902D01*
X1300Y902D02*
X1307Y902D01*
X1337Y902D02*
X1343Y902D01*
X1352Y902D02*
X1356Y902D01*
X1391Y902D02*
X1398Y902D01*
X1Y901D02*
X8Y901D01*
X1173Y901D02*
X1179Y901D01*
X1223Y901D02*
X1229Y901D01*
X1280Y901D02*
X1286Y901D01*
X1300Y901D02*
X1306Y901D01*
X1337Y901D02*
X1343Y901D01*
X1351Y901D02*
X1357Y901D01*
X1391Y901D02*
X1398Y901D01*
X1Y900D02*
X8Y900D01*
X1173Y900D02*
X1179Y900D01*
X1223Y900D02*
X1229Y900D01*
X1280Y900D02*
X1286Y900D01*
X1299Y900D02*
X1306Y900D01*
X1337Y900D02*
X1343Y900D01*
X1351Y900D02*
X1357Y900D01*
X1391Y900D02*
X1398Y900D01*
X1Y899D02*
X8Y899D01*
X1173Y899D02*
X1179Y899D01*
X1223Y899D02*
X1229Y899D01*
X1280Y899D02*
X1286Y899D01*
X1299Y899D02*
X1306Y899D01*
X1337Y899D02*
X1343Y899D01*
X1351Y899D02*
X1357Y899D01*
X1391Y899D02*
X1398Y899D01*
X1Y898D02*
X8Y898D01*
X1173Y898D02*
X1179Y898D01*
X1223Y898D02*
X1229Y898D01*
X1280Y898D02*
X1286Y898D01*
X1298Y898D02*
X1305Y898D01*
X1337Y898D02*
X1343Y898D01*
X1351Y898D02*
X1357Y898D01*
X1391Y898D02*
X1398Y898D01*
X1Y897D02*
X8Y897D01*
X1173Y897D02*
X1179Y897D01*
X1223Y897D02*
X1229Y897D01*
X1280Y897D02*
X1286Y897D01*
X1298Y897D02*
X1305Y897D01*
X1337Y897D02*
X1343Y897D01*
X1351Y897D02*
X1357Y897D01*
X1391Y897D02*
X1398Y897D01*
X1Y896D02*
X8Y896D01*
X1173Y896D02*
X1179Y896D01*
X1223Y896D02*
X1229Y896D01*
X1280Y896D02*
X1286Y896D01*
X1297Y896D02*
X1304Y896D01*
X1337Y896D02*
X1343Y896D01*
X1351Y896D02*
X1357Y896D01*
X1391Y896D02*
X1398Y896D01*
X1Y895D02*
X8Y895D01*
X1173Y895D02*
X1179Y895D01*
X1223Y895D02*
X1229Y895D01*
X1280Y895D02*
X1286Y895D01*
X1297Y895D02*
X1304Y895D01*
X1337Y895D02*
X1343Y895D01*
X1351Y895D02*
X1357Y895D01*
X1391Y895D02*
X1398Y895D01*
X1Y894D02*
X8Y894D01*
X1173Y894D02*
X1179Y894D01*
X1223Y894D02*
X1229Y894D01*
X1280Y894D02*
X1286Y894D01*
X1296Y894D02*
X1303Y894D01*
X1337Y894D02*
X1343Y894D01*
X1351Y894D02*
X1357Y894D01*
X1391Y894D02*
X1398Y894D01*
X1Y893D02*
X8Y893D01*
X1173Y893D02*
X1179Y893D01*
X1223Y893D02*
X1229Y893D01*
X1280Y893D02*
X1286Y893D01*
X1296Y893D02*
X1303Y893D01*
X1337Y893D02*
X1343Y893D01*
X1351Y893D02*
X1357Y893D01*
X1391Y893D02*
X1398Y893D01*
X1Y892D02*
X8Y892D01*
X1173Y892D02*
X1179Y892D01*
X1223Y892D02*
X1229Y892D01*
X1280Y892D02*
X1286Y892D01*
X1295Y892D02*
X1302Y892D01*
X1337Y892D02*
X1343Y892D01*
X1351Y892D02*
X1357Y892D01*
X1391Y892D02*
X1398Y892D01*
X1Y891D02*
X8Y891D01*
X1173Y891D02*
X1179Y891D01*
X1223Y891D02*
X1229Y891D01*
X1280Y891D02*
X1286Y891D01*
X1295Y891D02*
X1302Y891D01*
X1337Y891D02*
X1343Y891D01*
X1351Y891D02*
X1357Y891D01*
X1391Y891D02*
X1398Y891D01*
X1Y890D02*
X8Y890D01*
X1173Y890D02*
X1179Y890D01*
X1223Y890D02*
X1229Y890D01*
X1280Y890D02*
X1286Y890D01*
X1294Y890D02*
X1301Y890D01*
X1337Y890D02*
X1343Y890D01*
X1351Y890D02*
X1357Y890D01*
X1391Y890D02*
X1398Y890D01*
X1Y889D02*
X8Y889D01*
X1173Y889D02*
X1179Y889D01*
X1223Y889D02*
X1229Y889D01*
X1280Y889D02*
X1286Y889D01*
X1294Y889D02*
X1301Y889D01*
X1337Y889D02*
X1343Y889D01*
X1351Y889D02*
X1357Y889D01*
X1391Y889D02*
X1398Y889D01*
X1Y888D02*
X8Y888D01*
X1173Y888D02*
X1179Y888D01*
X1223Y888D02*
X1229Y888D01*
X1280Y888D02*
X1286Y888D01*
X1293Y888D02*
X1300Y888D01*
X1337Y888D02*
X1343Y888D01*
X1351Y888D02*
X1357Y888D01*
X1391Y888D02*
X1398Y888D01*
X1Y887D02*
X8Y887D01*
X1173Y887D02*
X1179Y887D01*
X1223Y887D02*
X1229Y887D01*
X1280Y887D02*
X1286Y887D01*
X1293Y887D02*
X1300Y887D01*
X1337Y887D02*
X1343Y887D01*
X1351Y887D02*
X1357Y887D01*
X1391Y887D02*
X1398Y887D01*
X1Y886D02*
X8Y886D01*
X1173Y886D02*
X1179Y886D01*
X1223Y886D02*
X1229Y886D01*
X1280Y886D02*
X1286Y886D01*
X1292Y886D02*
X1299Y886D01*
X1337Y886D02*
X1343Y886D01*
X1351Y886D02*
X1357Y886D01*
X1391Y886D02*
X1398Y886D01*
X1Y885D02*
X8Y885D01*
X1173Y885D02*
X1205Y885D01*
X1223Y885D02*
X1255Y885D01*
X1275Y885D02*
X1299Y885D01*
X1325Y885D02*
X1357Y885D01*
X1391Y885D02*
X1398Y885D01*
X1Y884D02*
X8Y884D01*
X1173Y884D02*
X1206Y884D01*
X1223Y884D02*
X1256Y884D01*
X1274Y884D02*
X1298Y884D01*
X1324Y884D02*
X1357Y884D01*
X1391Y884D02*
X1398Y884D01*
X1Y883D02*
X8Y883D01*
X1173Y883D02*
X1207Y883D01*
X1223Y883D02*
X1257Y883D01*
X1274Y883D02*
X1297Y883D01*
X1324Y883D02*
X1357Y883D01*
X1391Y883D02*
X1398Y883D01*
X1Y882D02*
X8Y882D01*
X1173Y882D02*
X1207Y882D01*
X1223Y882D02*
X1257Y882D01*
X1273Y882D02*
X1297Y882D01*
X1323Y882D02*
X1357Y882D01*
X1391Y882D02*
X1398Y882D01*
X1Y881D02*
X8Y881D01*
X1173Y881D02*
X1207Y881D01*
X1223Y881D02*
X1257Y881D01*
X1274Y881D02*
X1296Y881D01*
X1324Y881D02*
X1357Y881D01*
X1391Y881D02*
X1398Y881D01*
X1Y880D02*
X8Y880D01*
X1173Y880D02*
X1206Y880D01*
X1223Y880D02*
X1256Y880D01*
X1274Y880D02*
X1294Y880D01*
X1324Y880D02*
X1356Y880D01*
X1391Y880D02*
X1398Y880D01*
X1Y879D02*
X8Y879D01*
X1173Y879D02*
X1205Y879D01*
X1223Y879D02*
X1255Y879D01*
X1275Y879D02*
X1292Y879D01*
X1325Y879D02*
X1355Y879D01*
X1391Y879D02*
X1398Y879D01*
X1Y878D02*
X8Y878D01*
X1391Y878D02*
X1398Y878D01*
X1Y877D02*
X8Y877D01*
X1391Y877D02*
X1398Y877D01*
X1Y876D02*
X8Y876D01*
X1391Y876D02*
X1398Y876D01*
X1Y875D02*
X8Y875D01*
X1391Y875D02*
X1398Y875D01*
X1Y874D02*
X8Y874D01*
X1391Y874D02*
X1398Y874D01*
X1Y873D02*
X8Y873D01*
X1391Y873D02*
X1398Y873D01*
X1Y872D02*
X8Y872D01*
X1391Y872D02*
X1398Y872D01*
X1Y871D02*
X8Y871D01*
X1391Y871D02*
X1398Y871D01*
X1Y870D02*
X8Y870D01*
X1391Y870D02*
X1398Y870D01*
X1Y869D02*
X8Y869D01*
X1391Y869D02*
X1398Y869D01*
X1Y868D02*
X8Y868D01*
X1391Y868D02*
X1398Y868D01*
X1Y867D02*
X8Y867D01*
X1391Y867D02*
X1398Y867D01*
X1Y866D02*
X8Y866D01*
X1391Y866D02*
X1398Y866D01*
X1Y865D02*
X8Y865D01*
X1391Y865D02*
X1398Y865D01*
X1Y864D02*
X8Y864D01*
X1391Y864D02*
X1398Y864D01*
X1Y863D02*
X8Y863D01*
X1391Y863D02*
X1398Y863D01*
X1Y862D02*
X8Y862D01*
X1391Y862D02*
X1398Y862D01*
X1Y861D02*
X8Y861D01*
X1391Y861D02*
X1398Y861D01*
X1Y860D02*
X8Y860D01*
X1391Y860D02*
X1398Y860D01*
X1Y859D02*
X8Y859D01*
X1391Y859D02*
X1398Y859D01*
X1Y858D02*
X8Y858D01*
X1391Y858D02*
X1398Y858D01*
X1Y857D02*
X8Y857D01*
X1391Y857D02*
X1398Y857D01*
X1Y856D02*
X8Y856D01*
X1391Y856D02*
X1398Y856D01*
X1Y855D02*
X8Y855D01*
X1391Y855D02*
X1398Y855D01*
X1Y854D02*
X8Y854D01*
X1391Y854D02*
X1398Y854D01*
X1Y853D02*
X8Y853D01*
X662Y853D02*
X688Y853D01*
X713Y853D02*
X732Y853D01*
X1391Y853D02*
X1398Y853D01*
X1Y852D02*
X8Y852D01*
X662Y852D02*
X690Y852D01*
X712Y852D02*
X732Y852D01*
X1054Y852D02*
X1079Y852D01*
X1391Y852D02*
X1398Y852D01*
X1Y851D02*
X8Y851D01*
X662Y851D02*
X692Y851D01*
X712Y851D02*
X732Y851D01*
X1047Y851D02*
X1086Y851D01*
X1391Y851D02*
X1398Y851D01*
X1Y850D02*
X8Y850D01*
X662Y850D02*
X693Y850D01*
X712Y850D02*
X732Y850D01*
X1041Y850D02*
X1092Y850D01*
X1391Y850D02*
X1398Y850D01*
X1Y849D02*
X8Y849D01*
X662Y849D02*
X693Y849D01*
X712Y849D02*
X732Y849D01*
X1037Y849D02*
X1096Y849D01*
X1391Y849D02*
X1398Y849D01*
X1Y848D02*
X8Y848D01*
X662Y848D02*
X694Y848D01*
X713Y848D02*
X732Y848D01*
X1033Y848D02*
X1100Y848D01*
X1391Y848D02*
X1398Y848D01*
X1Y847D02*
X8Y847D01*
X662Y847D02*
X695Y847D01*
X714Y847D02*
X732Y847D01*
X1030Y847D02*
X1103Y847D01*
X1391Y847D02*
X1398Y847D01*
X1Y846D02*
X8Y846D01*
X662Y846D02*
X668Y846D01*
X688Y846D02*
X695Y846D01*
X726Y846D02*
X732Y846D01*
X1027Y846D02*
X1106Y846D01*
X1391Y846D02*
X1398Y846D01*
X1Y845D02*
X8Y845D01*
X662Y845D02*
X668Y845D01*
X689Y845D02*
X695Y845D01*
X726Y845D02*
X732Y845D01*
X1024Y845D02*
X1109Y845D01*
X1391Y845D02*
X1398Y845D01*
X1Y844D02*
X8Y844D01*
X662Y844D02*
X668Y844D01*
X689Y844D02*
X695Y844D01*
X726Y844D02*
X732Y844D01*
X1022Y844D02*
X1052Y844D01*
X1082Y844D02*
X1111Y844D01*
X1391Y844D02*
X1398Y844D01*
X1Y843D02*
X8Y843D01*
X662Y843D02*
X668Y843D01*
X689Y843D02*
X695Y843D01*
X726Y843D02*
X732Y843D01*
X1019Y843D02*
X1045Y843D01*
X1088Y843D02*
X1114Y843D01*
X1391Y843D02*
X1398Y843D01*
X1Y842D02*
X8Y842D01*
X662Y842D02*
X668Y842D01*
X689Y842D02*
X695Y842D01*
X726Y842D02*
X732Y842D01*
X1017Y842D02*
X1041Y842D01*
X1093Y842D02*
X1116Y842D01*
X1391Y842D02*
X1398Y842D01*
X1Y841D02*
X8Y841D01*
X662Y841D02*
X668Y841D01*
X689Y841D02*
X695Y841D01*
X726Y841D02*
X732Y841D01*
X1015Y841D02*
X1037Y841D01*
X1097Y841D02*
X1118Y841D01*
X1391Y841D02*
X1398Y841D01*
X1Y840D02*
X8Y840D01*
X662Y840D02*
X668Y840D01*
X689Y840D02*
X695Y840D01*
X726Y840D02*
X732Y840D01*
X1013Y840D02*
X1033Y840D01*
X1101Y840D02*
X1120Y840D01*
X1391Y840D02*
X1398Y840D01*
X1Y839D02*
X8Y839D01*
X662Y839D02*
X668Y839D01*
X689Y839D02*
X695Y839D01*
X726Y839D02*
X732Y839D01*
X1011Y839D02*
X1030Y839D01*
X1104Y839D02*
X1122Y839D01*
X1391Y839D02*
X1398Y839D01*
X1Y838D02*
X8Y838D01*
X662Y838D02*
X668Y838D01*
X689Y838D02*
X695Y838D01*
X726Y838D02*
X732Y838D01*
X1009Y838D02*
X1027Y838D01*
X1107Y838D02*
X1124Y838D01*
X1391Y838D02*
X1398Y838D01*
X1Y837D02*
X8Y837D01*
X662Y837D02*
X668Y837D01*
X688Y837D02*
X695Y837D01*
X726Y837D02*
X732Y837D01*
X1007Y837D02*
X1024Y837D01*
X1109Y837D02*
X1126Y837D01*
X1391Y837D02*
X1398Y837D01*
X1Y836D02*
X8Y836D01*
X662Y836D02*
X668Y836D01*
X686Y836D02*
X695Y836D01*
X726Y836D02*
X732Y836D01*
X1005Y836D02*
X1022Y836D01*
X1112Y836D02*
X1128Y836D01*
X1391Y836D02*
X1398Y836D01*
X1Y835D02*
X8Y835D01*
X662Y835D02*
X694Y835D01*
X726Y835D02*
X732Y835D01*
X1004Y835D02*
X1019Y835D01*
X1114Y835D02*
X1130Y835D01*
X1391Y835D02*
X1398Y835D01*
X1Y834D02*
X8Y834D01*
X662Y834D02*
X694Y834D01*
X726Y834D02*
X732Y834D01*
X1002Y834D02*
X1017Y834D01*
X1116Y834D02*
X1131Y834D01*
X1391Y834D02*
X1398Y834D01*
X1Y833D02*
X8Y833D01*
X662Y833D02*
X693Y833D01*
X726Y833D02*
X732Y833D01*
X1001Y833D02*
X1015Y833D01*
X1118Y833D02*
X1133Y833D01*
X1391Y833D02*
X1398Y833D01*
X1Y832D02*
X8Y832D01*
X662Y832D02*
X692Y832D01*
X726Y832D02*
X732Y832D01*
X999Y832D02*
X1013Y832D01*
X1120Y832D02*
X1134Y832D01*
X1391Y832D02*
X1398Y832D01*
X1Y831D02*
X8Y831D01*
X662Y831D02*
X691Y831D01*
X726Y831D02*
X732Y831D01*
X998Y831D02*
X1011Y831D01*
X1122Y831D02*
X1136Y831D01*
X1391Y831D02*
X1398Y831D01*
X1Y830D02*
X8Y830D01*
X662Y830D02*
X689Y830D01*
X726Y830D02*
X732Y830D01*
X996Y830D02*
X1010Y830D01*
X1124Y830D02*
X1137Y830D01*
X1391Y830D02*
X1398Y830D01*
X1Y829D02*
X8Y829D01*
X662Y829D02*
X686Y829D01*
X726Y829D02*
X732Y829D01*
X995Y829D02*
X1008Y829D01*
X1125Y829D02*
X1139Y829D01*
X1391Y829D02*
X1398Y829D01*
X1Y828D02*
X8Y828D01*
X662Y828D02*
X668Y828D01*
X674Y828D02*
X681Y828D01*
X726Y828D02*
X732Y828D01*
X994Y828D02*
X1006Y828D01*
X1127Y828D02*
X1140Y828D01*
X1391Y828D02*
X1398Y828D01*
X1Y827D02*
X8Y827D01*
X662Y827D02*
X668Y827D01*
X675Y827D02*
X682Y827D01*
X726Y827D02*
X732Y827D01*
X992Y827D02*
X1005Y827D01*
X1129Y827D02*
X1141Y827D01*
X1391Y827D02*
X1398Y827D01*
X1Y826D02*
X8Y826D01*
X662Y826D02*
X668Y826D01*
X675Y826D02*
X683Y826D01*
X726Y826D02*
X732Y826D01*
X991Y826D02*
X1003Y826D01*
X1130Y826D02*
X1142Y826D01*
X1391Y826D02*
X1398Y826D01*
X1Y825D02*
X8Y825D01*
X662Y825D02*
X668Y825D01*
X676Y825D02*
X683Y825D01*
X726Y825D02*
X732Y825D01*
X990Y825D02*
X1002Y825D01*
X1132Y825D02*
X1144Y825D01*
X1391Y825D02*
X1398Y825D01*
X1Y824D02*
X8Y824D01*
X662Y824D02*
X668Y824D01*
X676Y824D02*
X684Y824D01*
X726Y824D02*
X732Y824D01*
X742Y824D02*
X743Y824D01*
X988Y824D02*
X1000Y824D01*
X1133Y824D02*
X1145Y824D01*
X1391Y824D02*
X1398Y824D01*
X1Y823D02*
X8Y823D01*
X662Y823D02*
X668Y823D01*
X677Y823D02*
X684Y823D01*
X726Y823D02*
X732Y823D01*
X740Y823D02*
X744Y823D01*
X987Y823D02*
X999Y823D01*
X1134Y823D02*
X1146Y823D01*
X1391Y823D02*
X1398Y823D01*
X1Y822D02*
X8Y822D01*
X662Y822D02*
X668Y822D01*
X678Y822D02*
X685Y822D01*
X726Y822D02*
X732Y822D01*
X740Y822D02*
X745Y822D01*
X986Y822D02*
X997Y822D01*
X1136Y822D02*
X1147Y822D01*
X1391Y822D02*
X1398Y822D01*
X1Y821D02*
X8Y821D01*
X662Y821D02*
X668Y821D01*
X678Y821D02*
X685Y821D01*
X726Y821D02*
X732Y821D01*
X739Y821D02*
X745Y821D01*
X985Y821D02*
X996Y821D01*
X1137Y821D02*
X1148Y821D01*
X1391Y821D02*
X1398Y821D01*
X1Y820D02*
X8Y820D01*
X662Y820D02*
X668Y820D01*
X679Y820D02*
X686Y820D01*
X726Y820D02*
X732Y820D01*
X739Y820D02*
X745Y820D01*
X984Y820D02*
X995Y820D01*
X1138Y820D02*
X1149Y820D01*
X1391Y820D02*
X1398Y820D01*
X1Y819D02*
X8Y819D01*
X662Y819D02*
X668Y819D01*
X679Y819D02*
X687Y819D01*
X726Y819D02*
X732Y819D01*
X739Y819D02*
X745Y819D01*
X983Y819D02*
X994Y819D01*
X1139Y819D02*
X1150Y819D01*
X1391Y819D02*
X1398Y819D01*
X1Y818D02*
X8Y818D01*
X662Y818D02*
X668Y818D01*
X680Y818D02*
X687Y818D01*
X726Y818D02*
X732Y818D01*
X739Y818D02*
X745Y818D01*
X982Y818D02*
X992Y818D01*
X1141Y818D02*
X1151Y818D01*
X1391Y818D02*
X1398Y818D01*
X1Y817D02*
X8Y817D01*
X662Y817D02*
X668Y817D01*
X681Y817D02*
X688Y817D01*
X726Y817D02*
X732Y817D01*
X739Y817D02*
X745Y817D01*
X981Y817D02*
X991Y817D01*
X1142Y817D02*
X1152Y817D01*
X1391Y817D02*
X1398Y817D01*
X1Y816D02*
X8Y816D01*
X662Y816D02*
X668Y816D01*
X681Y816D02*
X688Y816D01*
X726Y816D02*
X732Y816D01*
X739Y816D02*
X745Y816D01*
X980Y816D02*
X990Y816D01*
X1143Y816D02*
X1153Y816D01*
X1391Y816D02*
X1398Y816D01*
X1Y815D02*
X8Y815D01*
X662Y815D02*
X668Y815D01*
X682Y815D02*
X689Y815D01*
X726Y815D02*
X732Y815D01*
X739Y815D02*
X745Y815D01*
X979Y815D02*
X989Y815D01*
X1144Y815D02*
X1154Y815D01*
X1391Y815D02*
X1398Y815D01*
X1Y814D02*
X8Y814D01*
X662Y814D02*
X668Y814D01*
X682Y814D02*
X690Y814D01*
X726Y814D02*
X732Y814D01*
X739Y814D02*
X745Y814D01*
X978Y814D02*
X988Y814D01*
X1145Y814D02*
X1155Y814D01*
X1391Y814D02*
X1398Y814D01*
X1Y813D02*
X8Y813D01*
X662Y813D02*
X668Y813D01*
X683Y813D02*
X690Y813D01*
X726Y813D02*
X732Y813D01*
X739Y813D02*
X745Y813D01*
X977Y813D02*
X987Y813D01*
X1146Y813D02*
X1156Y813D01*
X1391Y813D02*
X1398Y813D01*
X1Y812D02*
X8Y812D01*
X662Y812D02*
X668Y812D01*
X683Y812D02*
X691Y812D01*
X726Y812D02*
X732Y812D01*
X739Y812D02*
X745Y812D01*
X976Y812D02*
X986Y812D01*
X1147Y812D02*
X1157Y812D01*
X1391Y812D02*
X1398Y812D01*
X1Y811D02*
X8Y811D01*
X662Y811D02*
X668Y811D01*
X684Y811D02*
X691Y811D01*
X726Y811D02*
X732Y811D01*
X739Y811D02*
X745Y811D01*
X975Y811D02*
X985Y811D01*
X1148Y811D02*
X1158Y811D01*
X1391Y811D02*
X1398Y811D01*
X1Y810D02*
X8Y810D01*
X662Y810D02*
X668Y810D01*
X685Y810D02*
X692Y810D01*
X726Y810D02*
X732Y810D01*
X739Y810D02*
X745Y810D01*
X974Y810D02*
X984Y810D01*
X1149Y810D02*
X1159Y810D01*
X1391Y810D02*
X1398Y810D01*
X1Y809D02*
X8Y809D01*
X662Y809D02*
X668Y809D01*
X685Y809D02*
X692Y809D01*
X726Y809D02*
X732Y809D01*
X739Y809D02*
X745Y809D01*
X974Y809D02*
X983Y809D01*
X1150Y809D02*
X1160Y809D01*
X1391Y809D02*
X1398Y809D01*
X1Y808D02*
X8Y808D01*
X662Y808D02*
X668Y808D01*
X686Y808D02*
X693Y808D01*
X726Y808D02*
X732Y808D01*
X739Y808D02*
X745Y808D01*
X973Y808D02*
X982Y808D01*
X1151Y808D02*
X1161Y808D01*
X1391Y808D02*
X1398Y808D01*
X1Y807D02*
X8Y807D01*
X662Y807D02*
X668Y807D01*
X686Y807D02*
X694Y807D01*
X726Y807D02*
X732Y807D01*
X739Y807D02*
X745Y807D01*
X972Y807D02*
X981Y807D01*
X1152Y807D02*
X1161Y807D01*
X1391Y807D02*
X1398Y807D01*
X1Y806D02*
X8Y806D01*
X662Y806D02*
X668Y806D01*
X687Y806D02*
X694Y806D01*
X714Y806D02*
X745Y806D01*
X971Y806D02*
X980Y806D01*
X1153Y806D02*
X1162Y806D01*
X1391Y806D02*
X1398Y806D01*
X1Y805D02*
X8Y805D01*
X662Y805D02*
X668Y805D01*
X688Y805D02*
X695Y805D01*
X713Y805D02*
X745Y805D01*
X970Y805D02*
X979Y805D01*
X1154Y805D02*
X1163Y805D01*
X1391Y805D02*
X1398Y805D01*
X1Y804D02*
X8Y804D01*
X662Y804D02*
X668Y804D01*
X688Y804D02*
X695Y804D01*
X712Y804D02*
X745Y804D01*
X970Y804D02*
X979Y804D01*
X1155Y804D02*
X1164Y804D01*
X1391Y804D02*
X1398Y804D01*
X1Y803D02*
X8Y803D01*
X662Y803D02*
X668Y803D01*
X689Y803D02*
X695Y803D01*
X712Y803D02*
X745Y803D01*
X969Y803D02*
X978Y803D01*
X1155Y803D02*
X1164Y803D01*
X1391Y803D02*
X1398Y803D01*
X1Y802D02*
X8Y802D01*
X662Y802D02*
X668Y802D01*
X689Y802D02*
X695Y802D01*
X712Y802D02*
X745Y802D01*
X968Y802D02*
X977Y802D01*
X1156Y802D02*
X1165Y802D01*
X1391Y802D02*
X1398Y802D01*
X1Y801D02*
X8Y801D01*
X663Y801D02*
X667Y801D01*
X690Y801D02*
X695Y801D01*
X712Y801D02*
X745Y801D01*
X967Y801D02*
X976Y801D01*
X1157Y801D02*
X1165Y801D01*
X1391Y801D02*
X1398Y801D01*
X1Y800D02*
X8Y800D01*
X664Y800D02*
X666Y800D01*
X691Y800D02*
X694Y800D01*
X714Y800D02*
X744Y800D01*
X967Y800D02*
X975Y800D01*
X1158Y800D02*
X1165Y800D01*
X1391Y800D02*
X1398Y800D01*
X1Y799D02*
X8Y799D01*
X966Y799D02*
X975Y799D01*
X1158Y799D02*
X1165Y799D01*
X1391Y799D02*
X1398Y799D01*
X1Y798D02*
X8Y798D01*
X965Y798D02*
X974Y798D01*
X1158Y798D02*
X1165Y798D01*
X1391Y798D02*
X1398Y798D01*
X1Y797D02*
X8Y797D01*
X965Y797D02*
X973Y797D01*
X1158Y797D02*
X1165Y797D01*
X1391Y797D02*
X1398Y797D01*
X1Y796D02*
X8Y796D01*
X964Y796D02*
X972Y796D01*
X1158Y796D02*
X1165Y796D01*
X1391Y796D02*
X1398Y796D01*
X1Y795D02*
X8Y795D01*
X963Y795D02*
X972Y795D01*
X1158Y795D02*
X1165Y795D01*
X1391Y795D02*
X1398Y795D01*
X1Y794D02*
X8Y794D01*
X963Y794D02*
X971Y794D01*
X1158Y794D02*
X1165Y794D01*
X1391Y794D02*
X1398Y794D01*
X1Y793D02*
X8Y793D01*
X962Y793D02*
X970Y793D01*
X1158Y793D02*
X1165Y793D01*
X1391Y793D02*
X1398Y793D01*
X1Y792D02*
X8Y792D01*
X962Y792D02*
X970Y792D01*
X1158Y792D02*
X1165Y792D01*
X1391Y792D02*
X1398Y792D01*
X1Y791D02*
X8Y791D01*
X961Y791D02*
X969Y791D01*
X1158Y791D02*
X1165Y791D01*
X1391Y791D02*
X1398Y791D01*
X1Y790D02*
X8Y790D01*
X960Y790D02*
X969Y790D01*
X1158Y790D02*
X1165Y790D01*
X1391Y790D02*
X1398Y790D01*
X1Y789D02*
X8Y789D01*
X960Y789D02*
X968Y789D01*
X1158Y789D02*
X1165Y789D01*
X1391Y789D02*
X1398Y789D01*
X1Y788D02*
X8Y788D01*
X959Y788D02*
X967Y788D01*
X1158Y788D02*
X1165Y788D01*
X1391Y788D02*
X1398Y788D01*
X1Y787D02*
X8Y787D01*
X959Y787D02*
X967Y787D01*
X1158Y787D02*
X1165Y787D01*
X1391Y787D02*
X1398Y787D01*
X1Y786D02*
X8Y786D01*
X958Y786D02*
X966Y786D01*
X1158Y786D02*
X1165Y786D01*
X1391Y786D02*
X1398Y786D01*
X1Y785D02*
X8Y785D01*
X958Y785D02*
X966Y785D01*
X1158Y785D02*
X1165Y785D01*
X1391Y785D02*
X1398Y785D01*
X1Y784D02*
X8Y784D01*
X957Y784D02*
X965Y784D01*
X1158Y784D02*
X1165Y784D01*
X1391Y784D02*
X1398Y784D01*
X1Y783D02*
X8Y783D01*
X957Y783D02*
X965Y783D01*
X1158Y783D02*
X1165Y783D01*
X1391Y783D02*
X1398Y783D01*
X1Y782D02*
X8Y782D01*
X956Y782D02*
X964Y782D01*
X1158Y782D02*
X1165Y782D01*
X1391Y782D02*
X1398Y782D01*
X1Y781D02*
X8Y781D01*
X956Y781D02*
X964Y781D01*
X1158Y781D02*
X1165Y781D01*
X1391Y781D02*
X1398Y781D01*
X1Y780D02*
X8Y780D01*
X956Y780D02*
X963Y780D01*
X1158Y780D02*
X1165Y780D01*
X1391Y780D02*
X1398Y780D01*
X1Y779D02*
X8Y779D01*
X955Y779D02*
X963Y779D01*
X1158Y779D02*
X1165Y779D01*
X1391Y779D02*
X1398Y779D01*
X1Y778D02*
X8Y778D01*
X955Y778D02*
X962Y778D01*
X1158Y778D02*
X1165Y778D01*
X1391Y778D02*
X1398Y778D01*
X1Y777D02*
X8Y777D01*
X954Y777D02*
X962Y777D01*
X1158Y777D02*
X1165Y777D01*
X1391Y777D02*
X1398Y777D01*
X1Y776D02*
X8Y776D01*
X954Y776D02*
X961Y776D01*
X1158Y776D02*
X1165Y776D01*
X1391Y776D02*
X1398Y776D01*
X1Y775D02*
X8Y775D01*
X953Y775D02*
X961Y775D01*
X1158Y775D02*
X1165Y775D01*
X1391Y775D02*
X1398Y775D01*
X1Y774D02*
X8Y774D01*
X953Y774D02*
X960Y774D01*
X1158Y774D02*
X1165Y774D01*
X1391Y774D02*
X1398Y774D01*
X1Y773D02*
X8Y773D01*
X953Y773D02*
X960Y773D01*
X1158Y773D02*
X1165Y773D01*
X1391Y773D02*
X1398Y773D01*
X1Y772D02*
X8Y772D01*
X952Y772D02*
X960Y772D01*
X1158Y772D02*
X1165Y772D01*
X1391Y772D02*
X1398Y772D01*
X1Y771D02*
X8Y771D01*
X952Y771D02*
X959Y771D01*
X1158Y771D02*
X1165Y771D01*
X1391Y771D02*
X1398Y771D01*
X1Y770D02*
X8Y770D01*
X952Y770D02*
X959Y770D01*
X1158Y770D02*
X1165Y770D01*
X1391Y770D02*
X1398Y770D01*
X1Y769D02*
X8Y769D01*
X951Y769D02*
X959Y769D01*
X1158Y769D02*
X1165Y769D01*
X1391Y769D02*
X1398Y769D01*
X1Y768D02*
X8Y768D01*
X951Y768D02*
X958Y768D01*
X1158Y768D02*
X1165Y768D01*
X1391Y768D02*
X1398Y768D01*
X1Y767D02*
X8Y767D01*
X951Y767D02*
X958Y767D01*
X1158Y767D02*
X1165Y767D01*
X1391Y767D02*
X1398Y767D01*
X1Y766D02*
X8Y766D01*
X950Y766D02*
X958Y766D01*
X1158Y766D02*
X1165Y766D01*
X1391Y766D02*
X1398Y766D01*
X1Y765D02*
X8Y765D01*
X950Y765D02*
X957Y765D01*
X1158Y765D02*
X1165Y765D01*
X1391Y765D02*
X1398Y765D01*
X1Y764D02*
X8Y764D01*
X950Y764D02*
X957Y764D01*
X1158Y764D02*
X1165Y764D01*
X1391Y764D02*
X1398Y764D01*
X1Y763D02*
X8Y763D01*
X950Y763D02*
X957Y763D01*
X1158Y763D02*
X1165Y763D01*
X1391Y763D02*
X1398Y763D01*
X1Y762D02*
X8Y762D01*
X949Y762D02*
X956Y762D01*
X1158Y762D02*
X1165Y762D01*
X1391Y762D02*
X1398Y762D01*
X1Y761D02*
X8Y761D01*
X949Y761D02*
X956Y761D01*
X1158Y761D02*
X1165Y761D01*
X1391Y761D02*
X1398Y761D01*
X1Y760D02*
X8Y760D01*
X949Y760D02*
X956Y760D01*
X1158Y760D02*
X1165Y760D01*
X1391Y760D02*
X1398Y760D01*
X1Y759D02*
X8Y759D01*
X949Y759D02*
X955Y759D01*
X1158Y759D02*
X1165Y759D01*
X1391Y759D02*
X1398Y759D01*
X1Y758D02*
X8Y758D01*
X948Y758D02*
X955Y758D01*
X1158Y758D02*
X1165Y758D01*
X1391Y758D02*
X1398Y758D01*
X1Y757D02*
X8Y757D01*
X948Y757D02*
X955Y757D01*
X1158Y757D02*
X1165Y757D01*
X1391Y757D02*
X1398Y757D01*
X1Y756D02*
X8Y756D01*
X948Y756D02*
X955Y756D01*
X1158Y756D02*
X1165Y756D01*
X1391Y756D02*
X1398Y756D01*
X1Y755D02*
X8Y755D01*
X948Y755D02*
X955Y755D01*
X1158Y755D02*
X1165Y755D01*
X1391Y755D02*
X1398Y755D01*
X1Y754D02*
X8Y754D01*
X947Y754D02*
X954Y754D01*
X1158Y754D02*
X1165Y754D01*
X1391Y754D02*
X1398Y754D01*
X1Y753D02*
X8Y753D01*
X947Y753D02*
X954Y753D01*
X1158Y753D02*
X1165Y753D01*
X1391Y753D02*
X1398Y753D01*
X1Y752D02*
X8Y752D01*
X947Y752D02*
X954Y752D01*
X1158Y752D02*
X1165Y752D01*
X1391Y752D02*
X1398Y752D01*
X1Y751D02*
X8Y751D01*
X947Y751D02*
X954Y751D01*
X1158Y751D02*
X1165Y751D01*
X1391Y751D02*
X1398Y751D01*
X1Y750D02*
X8Y750D01*
X947Y750D02*
X954Y750D01*
X1158Y750D02*
X1165Y750D01*
X1391Y750D02*
X1398Y750D01*
X1Y749D02*
X8Y749D01*
X947Y749D02*
X953Y749D01*
X1158Y749D02*
X1165Y749D01*
X1391Y749D02*
X1398Y749D01*
X1Y748D02*
X8Y748D01*
X946Y748D02*
X953Y748D01*
X1158Y748D02*
X1165Y748D01*
X1391Y748D02*
X1398Y748D01*
X1Y747D02*
X8Y747D01*
X946Y747D02*
X953Y747D01*
X1158Y747D02*
X1165Y747D01*
X1391Y747D02*
X1398Y747D01*
X1Y746D02*
X8Y746D01*
X946Y746D02*
X953Y746D01*
X1158Y746D02*
X1165Y746D01*
X1391Y746D02*
X1398Y746D01*
X1Y745D02*
X8Y745D01*
X946Y745D02*
X953Y745D01*
X1158Y745D02*
X1165Y745D01*
X1391Y745D02*
X1398Y745D01*
X1Y744D02*
X8Y744D01*
X946Y744D02*
X953Y744D01*
X1158Y744D02*
X1165Y744D01*
X1391Y744D02*
X1398Y744D01*
X1Y743D02*
X8Y743D01*
X946Y743D02*
X953Y743D01*
X1158Y743D02*
X1165Y743D01*
X1391Y743D02*
X1398Y743D01*
X1Y742D02*
X8Y742D01*
X946Y742D02*
X953Y742D01*
X1158Y742D02*
X1165Y742D01*
X1391Y742D02*
X1398Y742D01*
X1Y741D02*
X8Y741D01*
X946Y741D02*
X952Y741D01*
X1158Y741D02*
X1165Y741D01*
X1391Y741D02*
X1398Y741D01*
X1Y740D02*
X8Y740D01*
X946Y740D02*
X952Y740D01*
X1158Y740D02*
X1165Y740D01*
X1391Y740D02*
X1398Y740D01*
X1Y739D02*
X8Y739D01*
X945Y739D02*
X952Y739D01*
X1158Y739D02*
X1165Y739D01*
X1391Y739D02*
X1398Y739D01*
X1Y738D02*
X8Y738D01*
X945Y738D02*
X952Y738D01*
X1158Y738D02*
X1165Y738D01*
X1391Y738D02*
X1398Y738D01*
X1Y737D02*
X8Y737D01*
X945Y737D02*
X952Y737D01*
X1158Y737D02*
X1165Y737D01*
X1391Y737D02*
X1398Y737D01*
X1Y736D02*
X8Y736D01*
X945Y736D02*
X952Y736D01*
X1158Y736D02*
X1165Y736D01*
X1391Y736D02*
X1398Y736D01*
X1Y735D02*
X8Y735D01*
X259Y735D02*
X325Y735D01*
X526Y735D02*
X573Y735D01*
X945Y735D02*
X952Y735D01*
X1158Y735D02*
X1165Y735D01*
X1391Y735D02*
X1398Y735D01*
X1Y734D02*
X8Y734D01*
X259Y734D02*
X325Y734D01*
X526Y734D02*
X573Y734D01*
X945Y734D02*
X952Y734D01*
X1158Y734D02*
X1165Y734D01*
X1391Y734D02*
X1398Y734D01*
X1Y733D02*
X8Y733D01*
X259Y733D02*
X325Y733D01*
X526Y733D02*
X573Y733D01*
X945Y733D02*
X952Y733D01*
X1158Y733D02*
X1165Y733D01*
X1391Y733D02*
X1398Y733D01*
X1Y732D02*
X8Y732D01*
X259Y732D02*
X325Y732D01*
X526Y732D02*
X573Y732D01*
X945Y732D02*
X952Y732D01*
X1158Y732D02*
X1165Y732D01*
X1391Y732D02*
X1398Y732D01*
X1Y731D02*
X8Y731D01*
X259Y731D02*
X325Y731D01*
X526Y731D02*
X573Y731D01*
X945Y731D02*
X952Y731D01*
X1158Y731D02*
X1165Y731D01*
X1391Y731D02*
X1398Y731D01*
X1Y730D02*
X8Y730D01*
X259Y730D02*
X325Y730D01*
X526Y730D02*
X573Y730D01*
X945Y730D02*
X952Y730D01*
X1158Y730D02*
X1165Y730D01*
X1391Y730D02*
X1398Y730D01*
X1Y729D02*
X8Y729D01*
X259Y729D02*
X325Y729D01*
X526Y729D02*
X573Y729D01*
X945Y729D02*
X952Y729D01*
X1158Y729D02*
X1165Y729D01*
X1391Y729D02*
X1398Y729D01*
X1Y728D02*
X8Y728D01*
X259Y728D02*
X325Y728D01*
X526Y728D02*
X573Y728D01*
X945Y728D02*
X952Y728D01*
X1158Y728D02*
X1165Y728D01*
X1391Y728D02*
X1398Y728D01*
X1Y727D02*
X8Y727D01*
X259Y727D02*
X325Y727D01*
X526Y727D02*
X573Y727D01*
X945Y727D02*
X952Y727D01*
X1158Y727D02*
X1165Y727D01*
X1391Y727D02*
X1398Y727D01*
X1Y726D02*
X8Y726D01*
X259Y726D02*
X325Y726D01*
X526Y726D02*
X573Y726D01*
X945Y726D02*
X952Y726D01*
X1158Y726D02*
X1165Y726D01*
X1391Y726D02*
X1398Y726D01*
X1Y725D02*
X8Y725D01*
X945Y725D02*
X952Y725D01*
X1158Y725D02*
X1165Y725D01*
X1391Y725D02*
X1398Y725D01*
X1Y724D02*
X8Y724D01*
X945Y724D02*
X952Y724D01*
X1158Y724D02*
X1165Y724D01*
X1391Y724D02*
X1398Y724D01*
X1Y723D02*
X8Y723D01*
X945Y723D02*
X952Y723D01*
X1158Y723D02*
X1165Y723D01*
X1391Y723D02*
X1398Y723D01*
X1Y722D02*
X8Y722D01*
X945Y722D02*
X952Y722D01*
X1158Y722D02*
X1165Y722D01*
X1391Y722D02*
X1398Y722D01*
X1Y721D02*
X8Y721D01*
X946Y721D02*
X952Y721D01*
X1158Y721D02*
X1165Y721D01*
X1391Y721D02*
X1398Y721D01*
X1Y720D02*
X8Y720D01*
X946Y720D02*
X953Y720D01*
X1158Y720D02*
X1165Y720D01*
X1391Y720D02*
X1398Y720D01*
X1Y719D02*
X8Y719D01*
X946Y719D02*
X953Y719D01*
X1158Y719D02*
X1165Y719D01*
X1391Y719D02*
X1398Y719D01*
X1Y718D02*
X8Y718D01*
X946Y718D02*
X953Y718D01*
X1158Y718D02*
X1165Y718D01*
X1391Y718D02*
X1398Y718D01*
X1Y717D02*
X8Y717D01*
X946Y717D02*
X953Y717D01*
X1158Y717D02*
X1165Y717D01*
X1391Y717D02*
X1398Y717D01*
X1Y716D02*
X8Y716D01*
X946Y716D02*
X953Y716D01*
X1158Y716D02*
X1165Y716D01*
X1391Y716D02*
X1398Y716D01*
X1Y715D02*
X8Y715D01*
X946Y715D02*
X953Y715D01*
X1158Y715D02*
X1165Y715D01*
X1391Y715D02*
X1398Y715D01*
X1Y714D02*
X8Y714D01*
X946Y714D02*
X953Y714D01*
X1158Y714D02*
X1165Y714D01*
X1391Y714D02*
X1398Y714D01*
X1Y713D02*
X8Y713D01*
X946Y713D02*
X953Y713D01*
X1158Y713D02*
X1165Y713D01*
X1391Y713D02*
X1398Y713D01*
X1Y712D02*
X8Y712D01*
X947Y712D02*
X954Y712D01*
X1158Y712D02*
X1165Y712D01*
X1391Y712D02*
X1398Y712D01*
X1Y711D02*
X8Y711D01*
X947Y711D02*
X954Y711D01*
X1158Y711D02*
X1165Y711D01*
X1391Y711D02*
X1398Y711D01*
X1Y710D02*
X8Y710D01*
X947Y710D02*
X954Y710D01*
X1158Y710D02*
X1165Y710D01*
X1391Y710D02*
X1398Y710D01*
X1Y709D02*
X8Y709D01*
X947Y709D02*
X954Y709D01*
X1158Y709D02*
X1165Y709D01*
X1391Y709D02*
X1398Y709D01*
X1Y708D02*
X8Y708D01*
X947Y708D02*
X954Y708D01*
X1158Y708D02*
X1165Y708D01*
X1391Y708D02*
X1398Y708D01*
X1Y707D02*
X8Y707D01*
X948Y707D02*
X955Y707D01*
X1158Y707D02*
X1165Y707D01*
X1391Y707D02*
X1398Y707D01*
X1Y706D02*
X8Y706D01*
X948Y706D02*
X955Y706D01*
X1158Y706D02*
X1165Y706D01*
X1391Y706D02*
X1398Y706D01*
X1Y705D02*
X8Y705D01*
X948Y705D02*
X955Y705D01*
X1158Y705D02*
X1165Y705D01*
X1391Y705D02*
X1398Y705D01*
X1Y704D02*
X8Y704D01*
X948Y704D02*
X955Y704D01*
X1158Y704D02*
X1165Y704D01*
X1391Y704D02*
X1398Y704D01*
X1Y703D02*
X8Y703D01*
X948Y703D02*
X955Y703D01*
X1158Y703D02*
X1165Y703D01*
X1391Y703D02*
X1398Y703D01*
X1Y702D02*
X8Y702D01*
X949Y702D02*
X956Y702D01*
X1158Y702D02*
X1165Y702D01*
X1391Y702D02*
X1398Y702D01*
X1Y701D02*
X8Y701D01*
X949Y701D02*
X956Y701D01*
X1158Y701D02*
X1165Y701D01*
X1391Y701D02*
X1398Y701D01*
X1Y700D02*
X8Y700D01*
X949Y700D02*
X956Y700D01*
X1158Y700D02*
X1165Y700D01*
X1391Y700D02*
X1398Y700D01*
X1Y699D02*
X8Y699D01*
X949Y699D02*
X957Y699D01*
X1158Y699D02*
X1165Y699D01*
X1391Y699D02*
X1398Y699D01*
X1Y698D02*
X8Y698D01*
X950Y698D02*
X957Y698D01*
X1158Y698D02*
X1165Y698D01*
X1391Y698D02*
X1398Y698D01*
X1Y697D02*
X8Y697D01*
X950Y697D02*
X957Y697D01*
X1158Y697D02*
X1165Y697D01*
X1391Y697D02*
X1398Y697D01*
X1Y696D02*
X8Y696D01*
X950Y696D02*
X957Y696D01*
X1158Y696D02*
X1165Y696D01*
X1391Y696D02*
X1398Y696D01*
X1Y695D02*
X8Y695D01*
X951Y695D02*
X958Y695D01*
X1158Y695D02*
X1165Y695D01*
X1391Y695D02*
X1398Y695D01*
X1Y694D02*
X8Y694D01*
X951Y694D02*
X958Y694D01*
X1158Y694D02*
X1165Y694D01*
X1391Y694D02*
X1398Y694D01*
X1Y693D02*
X8Y693D01*
X951Y693D02*
X958Y693D01*
X1158Y693D02*
X1165Y693D01*
X1391Y693D02*
X1398Y693D01*
X1Y692D02*
X8Y692D01*
X952Y692D02*
X959Y692D01*
X1158Y692D02*
X1165Y692D01*
X1391Y692D02*
X1398Y692D01*
X1Y691D02*
X8Y691D01*
X952Y691D02*
X959Y691D01*
X1158Y691D02*
X1165Y691D01*
X1391Y691D02*
X1398Y691D01*
X1Y690D02*
X8Y690D01*
X952Y690D02*
X960Y690D01*
X1158Y690D02*
X1165Y690D01*
X1391Y690D02*
X1398Y690D01*
X1Y689D02*
X8Y689D01*
X953Y689D02*
X960Y689D01*
X1158Y689D02*
X1165Y689D01*
X1391Y689D02*
X1398Y689D01*
X1Y688D02*
X8Y688D01*
X953Y688D02*
X960Y688D01*
X1158Y688D02*
X1165Y688D01*
X1391Y688D02*
X1398Y688D01*
X1Y687D02*
X8Y687D01*
X953Y687D02*
X961Y687D01*
X1158Y687D02*
X1165Y687D01*
X1391Y687D02*
X1398Y687D01*
X1Y686D02*
X8Y686D01*
X954Y686D02*
X961Y686D01*
X1158Y686D02*
X1165Y686D01*
X1391Y686D02*
X1398Y686D01*
X1Y685D02*
X8Y685D01*
X954Y685D02*
X962Y685D01*
X1158Y685D02*
X1165Y685D01*
X1391Y685D02*
X1398Y685D01*
X1Y684D02*
X8Y684D01*
X955Y684D02*
X962Y684D01*
X1158Y684D02*
X1165Y684D01*
X1391Y684D02*
X1398Y684D01*
X1Y683D02*
X8Y683D01*
X955Y683D02*
X962Y683D01*
X1158Y683D02*
X1165Y683D01*
X1391Y683D02*
X1398Y683D01*
X1Y682D02*
X8Y682D01*
X955Y682D02*
X963Y682D01*
X1158Y682D02*
X1165Y682D01*
X1391Y682D02*
X1398Y682D01*
X1Y681D02*
X8Y681D01*
X956Y681D02*
X963Y681D01*
X1158Y681D02*
X1165Y681D01*
X1391Y681D02*
X1398Y681D01*
X1Y680D02*
X8Y680D01*
X956Y680D02*
X964Y680D01*
X1158Y680D02*
X1165Y680D01*
X1391Y680D02*
X1398Y680D01*
X1Y679D02*
X8Y679D01*
X957Y679D02*
X964Y679D01*
X1158Y679D02*
X1165Y679D01*
X1391Y679D02*
X1398Y679D01*
X1Y678D02*
X8Y678D01*
X957Y678D02*
X965Y678D01*
X1158Y678D02*
X1165Y678D01*
X1391Y678D02*
X1398Y678D01*
X1Y677D02*
X8Y677D01*
X958Y677D02*
X965Y677D01*
X1158Y677D02*
X1165Y677D01*
X1391Y677D02*
X1398Y677D01*
X1Y676D02*
X8Y676D01*
X958Y676D02*
X966Y676D01*
X1158Y676D02*
X1165Y676D01*
X1391Y676D02*
X1398Y676D01*
X1Y675D02*
X8Y675D01*
X959Y675D02*
X967Y675D01*
X1158Y675D02*
X1165Y675D01*
X1391Y675D02*
X1398Y675D01*
X1Y674D02*
X8Y674D01*
X959Y674D02*
X967Y674D01*
X1158Y674D02*
X1165Y674D01*
X1391Y674D02*
X1398Y674D01*
X1Y673D02*
X8Y673D01*
X960Y673D02*
X968Y673D01*
X1158Y673D02*
X1165Y673D01*
X1391Y673D02*
X1398Y673D01*
X1Y672D02*
X8Y672D01*
X960Y672D02*
X968Y672D01*
X1158Y672D02*
X1165Y672D01*
X1391Y672D02*
X1398Y672D01*
X1Y671D02*
X8Y671D01*
X961Y671D02*
X969Y671D01*
X1158Y671D02*
X1165Y671D01*
X1391Y671D02*
X1398Y671D01*
X1Y670D02*
X8Y670D01*
X961Y670D02*
X970Y670D01*
X1158Y670D02*
X1165Y670D01*
X1391Y670D02*
X1398Y670D01*
X1Y669D02*
X8Y669D01*
X962Y669D02*
X970Y669D01*
X1158Y669D02*
X1165Y669D01*
X1391Y669D02*
X1398Y669D01*
X1Y668D02*
X8Y668D01*
X963Y668D02*
X971Y668D01*
X1158Y668D02*
X1165Y668D01*
X1391Y668D02*
X1398Y668D01*
X1Y667D02*
X8Y667D01*
X963Y667D02*
X971Y667D01*
X1158Y667D02*
X1165Y667D01*
X1391Y667D02*
X1398Y667D01*
X1Y666D02*
X8Y666D01*
X964Y666D02*
X972Y666D01*
X1158Y666D02*
X1165Y666D01*
X1391Y666D02*
X1398Y666D01*
X1Y665D02*
X8Y665D01*
X965Y665D02*
X973Y665D01*
X1158Y665D02*
X1165Y665D01*
X1391Y665D02*
X1398Y665D01*
X1Y664D02*
X8Y664D01*
X965Y664D02*
X974Y664D01*
X1158Y664D02*
X1165Y664D01*
X1391Y664D02*
X1398Y664D01*
X1Y663D02*
X8Y663D01*
X966Y663D02*
X974Y663D01*
X1158Y663D02*
X1165Y663D01*
X1391Y663D02*
X1398Y663D01*
X1Y662D02*
X8Y662D01*
X967Y662D02*
X975Y662D01*
X1158Y662D02*
X1165Y662D01*
X1391Y662D02*
X1398Y662D01*
X1Y661D02*
X8Y661D01*
X967Y661D02*
X976Y661D01*
X1157Y661D02*
X1165Y661D01*
X1391Y661D02*
X1398Y661D01*
X1Y660D02*
X8Y660D01*
X968Y660D02*
X977Y660D01*
X1157Y660D02*
X1165Y660D01*
X1391Y660D02*
X1398Y660D01*
X1Y659D02*
X8Y659D01*
X969Y659D02*
X977Y659D01*
X1156Y659D02*
X1164Y659D01*
X1391Y659D02*
X1398Y659D01*
X1Y658D02*
X8Y658D01*
X969Y658D02*
X978Y658D01*
X1155Y658D02*
X1164Y658D01*
X1391Y658D02*
X1398Y658D01*
X1Y657D02*
X8Y657D01*
X970Y657D02*
X979Y657D01*
X1154Y657D02*
X1163Y657D01*
X1391Y657D02*
X1398Y657D01*
X1Y656D02*
X8Y656D01*
X971Y656D02*
X980Y656D01*
X1153Y656D02*
X1162Y656D01*
X1391Y656D02*
X1398Y656D01*
X1Y655D02*
X8Y655D01*
X972Y655D02*
X981Y655D01*
X1152Y655D02*
X1162Y655D01*
X1391Y655D02*
X1398Y655D01*
X1Y654D02*
X8Y654D01*
X972Y654D02*
X982Y654D01*
X1152Y654D02*
X1161Y654D01*
X1391Y654D02*
X1398Y654D01*
X1Y653D02*
X8Y653D01*
X973Y653D02*
X983Y653D01*
X1151Y653D02*
X1160Y653D01*
X1391Y653D02*
X1398Y653D01*
X1Y652D02*
X8Y652D01*
X974Y652D02*
X984Y652D01*
X1150Y652D02*
X1159Y652D01*
X1391Y652D02*
X1398Y652D01*
X1Y651D02*
X8Y651D01*
X975Y651D02*
X985Y651D01*
X1149Y651D02*
X1158Y651D01*
X1391Y651D02*
X1398Y651D01*
X1Y650D02*
X8Y650D01*
X976Y650D02*
X986Y650D01*
X1148Y650D02*
X1157Y650D01*
X1391Y650D02*
X1398Y650D01*
X1Y649D02*
X8Y649D01*
X977Y649D02*
X987Y649D01*
X1147Y649D02*
X1157Y649D01*
X1391Y649D02*
X1398Y649D01*
X1Y648D02*
X8Y648D01*
X978Y648D02*
X988Y648D01*
X1146Y648D02*
X1156Y648D01*
X1391Y648D02*
X1398Y648D01*
X1Y647D02*
X8Y647D01*
X979Y647D02*
X989Y647D01*
X1145Y647D02*
X1155Y647D01*
X1391Y647D02*
X1398Y647D01*
X1Y646D02*
X8Y646D01*
X980Y646D02*
X990Y646D01*
X1144Y646D02*
X1154Y646D01*
X1391Y646D02*
X1398Y646D01*
X1Y645D02*
X8Y645D01*
X981Y645D02*
X991Y645D01*
X1142Y645D02*
X1153Y645D01*
X1391Y645D02*
X1398Y645D01*
X1Y644D02*
X8Y644D01*
X982Y644D02*
X992Y644D01*
X1141Y644D02*
X1152Y644D01*
X1391Y644D02*
X1398Y644D01*
X1Y643D02*
X8Y643D01*
X983Y643D02*
X993Y643D01*
X1140Y643D02*
X1151Y643D01*
X1391Y643D02*
X1398Y643D01*
X1Y642D02*
X8Y642D01*
X984Y642D02*
X995Y642D01*
X1139Y642D02*
X1150Y642D01*
X1391Y642D02*
X1398Y642D01*
X1Y641D02*
X8Y641D01*
X985Y641D02*
X996Y641D01*
X1138Y641D02*
X1149Y641D01*
X1391Y641D02*
X1398Y641D01*
X1Y640D02*
X8Y640D01*
X986Y640D02*
X997Y640D01*
X1136Y640D02*
X1148Y640D01*
X1391Y640D02*
X1398Y640D01*
X1Y639D02*
X8Y639D01*
X987Y639D02*
X999Y639D01*
X1135Y639D02*
X1146Y639D01*
X1391Y639D02*
X1398Y639D01*
X1Y638D02*
X8Y638D01*
X988Y638D02*
X1000Y638D01*
X1134Y638D02*
X1145Y638D01*
X1391Y638D02*
X1398Y638D01*
X1Y637D02*
X8Y637D01*
X989Y637D02*
X1001Y637D01*
X1132Y637D02*
X1144Y637D01*
X1391Y637D02*
X1398Y637D01*
X1Y636D02*
X8Y636D01*
X991Y636D02*
X1003Y636D01*
X1131Y636D02*
X1143Y636D01*
X1391Y636D02*
X1398Y636D01*
X1Y635D02*
X8Y635D01*
X992Y635D02*
X1004Y635D01*
X1129Y635D02*
X1142Y635D01*
X1391Y635D02*
X1398Y635D01*
X1Y634D02*
X8Y634D01*
X993Y634D02*
X1006Y634D01*
X1128Y634D02*
X1140Y634D01*
X1391Y634D02*
X1398Y634D01*
X1Y633D02*
X8Y633D01*
X994Y633D02*
X1007Y633D01*
X1126Y633D02*
X1139Y633D01*
X1391Y633D02*
X1398Y633D01*
X1Y632D02*
X8Y632D01*
X996Y632D02*
X1009Y632D01*
X1124Y632D02*
X1138Y632D01*
X1391Y632D02*
X1398Y632D01*
X1Y631D02*
X8Y631D01*
X997Y631D02*
X1011Y631D01*
X1123Y631D02*
X1136Y631D01*
X1391Y631D02*
X1398Y631D01*
X1Y630D02*
X8Y630D01*
X999Y630D02*
X1013Y630D01*
X1121Y630D02*
X1135Y630D01*
X1391Y630D02*
X1398Y630D01*
X1Y629D02*
X8Y629D01*
X1000Y629D02*
X1015Y629D01*
X1119Y629D02*
X1133Y629D01*
X1391Y629D02*
X1398Y629D01*
X1Y628D02*
X8Y628D01*
X1002Y628D02*
X1017Y628D01*
X1117Y628D02*
X1132Y628D01*
X1391Y628D02*
X1398Y628D01*
X1Y627D02*
X8Y627D01*
X1003Y627D02*
X1019Y627D01*
X1115Y627D02*
X1130Y627D01*
X1391Y627D02*
X1398Y627D01*
X1Y626D02*
X8Y626D01*
X1005Y626D02*
X1021Y626D01*
X1112Y626D02*
X1128Y626D01*
X1391Y626D02*
X1398Y626D01*
X1Y625D02*
X8Y625D01*
X1007Y625D02*
X1023Y625D01*
X1110Y625D02*
X1127Y625D01*
X1391Y625D02*
X1398Y625D01*
X1Y624D02*
X8Y624D01*
X1008Y624D02*
X1026Y624D01*
X1107Y624D02*
X1125Y624D01*
X1391Y624D02*
X1398Y624D01*
X1Y623D02*
X8Y623D01*
X1010Y623D02*
X1029Y623D01*
X1105Y623D02*
X1123Y623D01*
X1391Y623D02*
X1398Y623D01*
X1Y622D02*
X8Y622D01*
X1012Y622D02*
X1032Y622D01*
X1101Y622D02*
X1121Y622D01*
X1391Y622D02*
X1398Y622D01*
X1Y621D02*
X8Y621D01*
X1014Y621D02*
X1035Y621D01*
X1098Y621D02*
X1119Y621D01*
X1391Y621D02*
X1398Y621D01*
X1Y620D02*
X8Y620D01*
X1016Y620D02*
X1039Y620D01*
X1094Y620D02*
X1117Y620D01*
X1391Y620D02*
X1398Y620D01*
X1Y619D02*
X8Y619D01*
X1019Y619D02*
X1043Y619D01*
X1090Y619D02*
X1115Y619D01*
X1391Y619D02*
X1398Y619D01*
X1Y618D02*
X8Y618D01*
X1021Y618D02*
X1049Y618D01*
X1084Y618D02*
X1112Y618D01*
X1391Y618D02*
X1398Y618D01*
X1Y617D02*
X8Y617D01*
X1024Y617D02*
X1059Y617D01*
X1074Y617D02*
X1110Y617D01*
X1391Y617D02*
X1398Y617D01*
X1Y616D02*
X8Y616D01*
X1026Y616D02*
X1107Y616D01*
X1391Y616D02*
X1398Y616D01*
X1Y615D02*
X8Y615D01*
X1029Y615D02*
X1104Y615D01*
X1391Y615D02*
X1398Y615D01*
X1Y614D02*
X8Y614D01*
X1032Y614D02*
X1101Y614D01*
X1391Y614D02*
X1398Y614D01*
X1Y613D02*
X8Y613D01*
X1036Y613D02*
X1097Y613D01*
X1391Y613D02*
X1398Y613D01*
X1Y612D02*
X8Y612D01*
X1040Y612D02*
X1093Y612D01*
X1391Y612D02*
X1398Y612D01*
X1Y611D02*
X8Y611D01*
X1045Y611D02*
X1089Y611D01*
X1391Y611D02*
X1398Y611D01*
X1Y610D02*
X8Y610D01*
X1051Y610D02*
X1082Y610D01*
X1391Y610D02*
X1398Y610D01*
X1Y609D02*
X8Y609D01*
X1064Y609D02*
X1070Y609D01*
X1391Y609D02*
X1398Y609D01*
X1Y608D02*
X8Y608D01*
X1391Y608D02*
X1398Y608D01*
X1Y607D02*
X8Y607D01*
X1391Y607D02*
X1398Y607D01*
X1Y606D02*
X8Y606D01*
X1391Y606D02*
X1398Y606D01*
X1Y605D02*
X8Y605D01*
X1391Y605D02*
X1398Y605D01*
X1Y604D02*
X8Y604D01*
X1391Y604D02*
X1398Y604D01*
X1Y603D02*
X8Y603D01*
X1391Y603D02*
X1398Y603D01*
X1Y602D02*
X8Y602D01*
X1391Y602D02*
X1398Y602D01*
X1Y601D02*
X8Y601D01*
X1391Y601D02*
X1398Y601D01*
X1Y600D02*
X8Y600D01*
X1391Y600D02*
X1398Y600D01*
X1Y599D02*
X8Y599D01*
X1391Y599D02*
X1398Y599D01*
X1Y598D02*
X8Y598D01*
X1391Y598D02*
X1398Y598D01*
X1Y597D02*
X8Y597D01*
X1391Y597D02*
X1398Y597D01*
X1Y596D02*
X8Y596D01*
X1391Y596D02*
X1398Y596D01*
X1Y595D02*
X8Y595D01*
X1391Y595D02*
X1398Y595D01*
X1Y594D02*
X8Y594D01*
X1391Y594D02*
X1398Y594D01*
X1Y593D02*
X8Y593D01*
X1391Y593D02*
X1398Y593D01*
X1Y592D02*
X8Y592D01*
X1391Y592D02*
X1398Y592D01*
X1Y591D02*
X8Y591D01*
X1391Y591D02*
X1398Y591D01*
X1Y590D02*
X8Y590D01*
X1391Y590D02*
X1398Y590D01*
X1Y589D02*
X8Y589D01*
X1391Y589D02*
X1398Y589D01*
X1Y588D02*
X8Y588D01*
X1391Y588D02*
X1398Y588D01*
X1Y587D02*
X8Y587D01*
X1391Y587D02*
X1398Y587D01*
X1Y586D02*
X8Y586D01*
X1391Y586D02*
X1398Y586D01*
X1Y585D02*
X8Y585D01*
X1391Y585D02*
X1398Y585D01*
X1Y584D02*
X8Y584D01*
X1391Y584D02*
X1398Y584D01*
X1Y583D02*
X8Y583D01*
X1391Y583D02*
X1398Y583D01*
X1Y582D02*
X8Y582D01*
X1391Y582D02*
X1398Y582D01*
X1Y581D02*
X8Y581D01*
X1391Y581D02*
X1398Y581D01*
X1Y580D02*
X8Y580D01*
X1391Y580D02*
X1398Y580D01*
X1Y579D02*
X8Y579D01*
X1391Y579D02*
X1398Y579D01*
X1Y578D02*
X8Y578D01*
X1391Y578D02*
X1398Y578D01*
X1Y577D02*
X8Y577D01*
X1391Y577D02*
X1398Y577D01*
X1Y576D02*
X8Y576D01*
X1391Y576D02*
X1398Y576D01*
X1Y575D02*
X8Y575D01*
X1391Y575D02*
X1398Y575D01*
X1Y574D02*
X8Y574D01*
X1391Y574D02*
X1398Y574D01*
X1Y573D02*
X8Y573D01*
X1391Y573D02*
X1398Y573D01*
X1Y572D02*
X8Y572D01*
X1391Y572D02*
X1398Y572D01*
X1Y571D02*
X8Y571D01*
X1391Y571D02*
X1398Y571D01*
X1Y570D02*
X8Y570D01*
X1391Y570D02*
X1398Y570D01*
X1Y569D02*
X8Y569D01*
X1391Y569D02*
X1398Y569D01*
X1Y568D02*
X8Y568D01*
X1391Y568D02*
X1398Y568D01*
X1Y567D02*
X8Y567D01*
X1391Y567D02*
X1398Y567D01*
X1Y566D02*
X8Y566D01*
X1391Y566D02*
X1398Y566D01*
X1Y565D02*
X8Y565D01*
X1391Y565D02*
X1398Y565D01*
X1Y564D02*
X8Y564D01*
X1391Y564D02*
X1398Y564D01*
X1Y563D02*
X8Y563D01*
X1391Y563D02*
X1398Y563D01*
X1Y562D02*
X8Y562D01*
X1391Y562D02*
X1398Y562D01*
X1Y561D02*
X8Y561D01*
X1391Y561D02*
X1398Y561D01*
X1Y560D02*
X8Y560D01*
X1391Y560D02*
X1398Y560D01*
X1Y559D02*
X8Y559D01*
X1391Y559D02*
X1398Y559D01*
X1Y558D02*
X8Y558D01*
X1391Y558D02*
X1398Y558D01*
X1Y557D02*
X8Y557D01*
X1391Y557D02*
X1398Y557D01*
X1Y556D02*
X8Y556D01*
X1391Y556D02*
X1398Y556D01*
X1Y555D02*
X8Y555D01*
X1391Y555D02*
X1398Y555D01*
X1Y554D02*
X8Y554D01*
X1391Y554D02*
X1398Y554D01*
X1Y553D02*
X8Y553D01*
X1391Y553D02*
X1398Y553D01*
X1Y552D02*
X8Y552D01*
X1391Y552D02*
X1398Y552D01*
X1Y551D02*
X8Y551D01*
X1391Y551D02*
X1398Y551D01*
X1Y550D02*
X8Y550D01*
X1391Y550D02*
X1398Y550D01*
X1Y549D02*
X8Y549D01*
X1391Y549D02*
X1398Y549D01*
X1Y548D02*
X8Y548D01*
X1391Y548D02*
X1398Y548D01*
X1Y547D02*
X8Y547D01*
X1391Y547D02*
X1398Y547D01*
X1Y546D02*
X8Y546D01*
X1391Y546D02*
X1398Y546D01*
X1Y545D02*
X8Y545D01*
X1391Y545D02*
X1398Y545D01*
X1Y544D02*
X8Y544D01*
X1391Y544D02*
X1398Y544D01*
X1Y543D02*
X8Y543D01*
X1391Y543D02*
X1398Y543D01*
X1Y542D02*
X8Y542D01*
X1391Y542D02*
X1398Y542D01*
X1Y541D02*
X8Y541D01*
X1391Y541D02*
X1398Y541D01*
X1Y540D02*
X8Y540D01*
X1391Y540D02*
X1398Y540D01*
X1Y539D02*
X8Y539D01*
X1391Y539D02*
X1398Y539D01*
X1Y538D02*
X8Y538D01*
X1391Y538D02*
X1398Y538D01*
X1Y537D02*
X8Y537D01*
X1391Y537D02*
X1398Y537D01*
X1Y536D02*
X8Y536D01*
X1391Y536D02*
X1398Y536D01*
X1Y535D02*
X8Y535D01*
X1391Y535D02*
X1398Y535D01*
X1Y534D02*
X8Y534D01*
X1391Y534D02*
X1398Y534D01*
X1Y533D02*
X8Y533D01*
X1391Y533D02*
X1398Y533D01*
X1Y532D02*
X8Y532D01*
X1391Y532D02*
X1398Y532D01*
X1Y531D02*
X8Y531D01*
X1391Y531D02*
X1398Y531D01*
X1Y530D02*
X8Y530D01*
X1391Y530D02*
X1398Y530D01*
X1Y529D02*
X8Y529D01*
X1391Y529D02*
X1398Y529D01*
X1Y528D02*
X8Y528D01*
X1391Y528D02*
X1398Y528D01*
X1Y527D02*
X8Y527D01*
X1391Y527D02*
X1398Y527D01*
X1Y526D02*
X8Y526D01*
X1391Y526D02*
X1398Y526D01*
X1Y525D02*
X8Y525D01*
X1391Y525D02*
X1398Y525D01*
X1Y524D02*
X8Y524D01*
X1391Y524D02*
X1398Y524D01*
X1Y523D02*
X8Y523D01*
X1391Y523D02*
X1398Y523D01*
X1Y522D02*
X8Y522D01*
X1391Y522D02*
X1398Y522D01*
X1Y521D02*
X8Y521D01*
X1391Y521D02*
X1398Y521D01*
X1Y520D02*
X8Y520D01*
X1391Y520D02*
X1398Y520D01*
X1Y519D02*
X8Y519D01*
X1391Y519D02*
X1398Y519D01*
X1Y518D02*
X8Y518D01*
X1391Y518D02*
X1398Y518D01*
X1Y517D02*
X8Y517D01*
X1391Y517D02*
X1398Y517D01*
X1Y516D02*
X8Y516D01*
X1391Y516D02*
X1398Y516D01*
X1Y515D02*
X8Y515D01*
X1391Y515D02*
X1398Y515D01*
X1Y514D02*
X8Y514D01*
X1391Y514D02*
X1398Y514D01*
X1Y513D02*
X8Y513D01*
X1391Y513D02*
X1398Y513D01*
X1Y512D02*
X8Y512D01*
X1391Y512D02*
X1398Y512D01*
X1Y511D02*
X8Y511D01*
X1391Y511D02*
X1398Y511D01*
X1Y510D02*
X8Y510D01*
X1391Y510D02*
X1398Y510D01*
X1Y509D02*
X8Y509D01*
X1391Y509D02*
X1398Y509D01*
X1Y508D02*
X8Y508D01*
X1391Y508D02*
X1398Y508D01*
X1Y507D02*
X8Y507D01*
X1391Y507D02*
X1398Y507D01*
X1Y506D02*
X8Y506D01*
X1391Y506D02*
X1398Y506D01*
X1Y505D02*
X8Y505D01*
X1391Y505D02*
X1398Y505D01*
X1Y504D02*
X8Y504D01*
X1391Y504D02*
X1398Y504D01*
X1Y503D02*
X8Y503D01*
X1391Y503D02*
X1398Y503D01*
X1Y502D02*
X8Y502D01*
X1391Y502D02*
X1398Y502D01*
X1Y501D02*
X8Y501D01*
X1391Y501D02*
X1398Y501D01*
X1Y500D02*
X8Y500D01*
X1391Y500D02*
X1398Y500D01*
X1Y499D02*
X8Y499D01*
X1391Y499D02*
X1398Y499D01*
X1Y498D02*
X8Y498D01*
X1391Y498D02*
X1398Y498D01*
X1Y497D02*
X8Y497D01*
X1391Y497D02*
X1398Y497D01*
X1Y496D02*
X8Y496D01*
X1391Y496D02*
X1398Y496D01*
X1Y495D02*
X8Y495D01*
X1391Y495D02*
X1398Y495D01*
X1Y494D02*
X8Y494D01*
X1391Y494D02*
X1398Y494D01*
X1Y493D02*
X8Y493D01*
X1391Y493D02*
X1398Y493D01*
X1Y492D02*
X8Y492D01*
X1391Y492D02*
X1398Y492D01*
X1Y491D02*
X8Y491D01*
X1391Y491D02*
X1398Y491D01*
X1Y490D02*
X8Y490D01*
X1391Y490D02*
X1398Y490D01*
X1Y489D02*
X8Y489D01*
X1391Y489D02*
X1398Y489D01*
X1Y488D02*
X8Y488D01*
X1391Y488D02*
X1398Y488D01*
X1Y487D02*
X8Y487D01*
X1391Y487D02*
X1398Y487D01*
X1Y486D02*
X8Y486D01*
X1391Y486D02*
X1398Y486D01*
X1Y485D02*
X8Y485D01*
X1391Y485D02*
X1398Y485D01*
X1Y484D02*
X8Y484D01*
X1391Y484D02*
X1398Y484D01*
X1Y483D02*
X8Y483D01*
X1391Y483D02*
X1398Y483D01*
X1Y482D02*
X8Y482D01*
X1391Y482D02*
X1398Y482D01*
X1Y481D02*
X8Y481D01*
X1391Y481D02*
X1398Y481D01*
X1Y480D02*
X8Y480D01*
X1391Y480D02*
X1398Y480D01*
X1Y479D02*
X8Y479D01*
X1391Y479D02*
X1398Y479D01*
X1Y478D02*
X8Y478D01*
X1391Y478D02*
X1398Y478D01*
X1Y477D02*
X8Y477D01*
X1391Y477D02*
X1398Y477D01*
X1Y476D02*
X8Y476D01*
X1391Y476D02*
X1398Y476D01*
X1Y475D02*
X8Y475D01*
X1391Y475D02*
X1398Y475D01*
X1Y474D02*
X8Y474D01*
X1391Y474D02*
X1398Y474D01*
X1Y473D02*
X8Y473D01*
X1391Y473D02*
X1398Y473D01*
X1Y472D02*
X8Y472D01*
X1391Y472D02*
X1398Y472D01*
X1Y471D02*
X8Y471D01*
X1391Y471D02*
X1398Y471D01*
X1Y470D02*
X8Y470D01*
X1391Y470D02*
X1398Y470D01*
X1Y469D02*
X8Y469D01*
X1391Y469D02*
X1398Y469D01*
X1Y468D02*
X8Y468D01*
X1391Y468D02*
X1398Y468D01*
X1Y467D02*
X8Y467D01*
X1391Y467D02*
X1398Y467D01*
X1Y466D02*
X8Y466D01*
X1391Y466D02*
X1398Y466D01*
X1Y465D02*
X8Y465D01*
X1391Y465D02*
X1398Y465D01*
X1Y464D02*
X8Y464D01*
X1391Y464D02*
X1398Y464D01*
X1Y463D02*
X8Y463D01*
X1391Y463D02*
X1398Y463D01*
X1Y462D02*
X8Y462D01*
X1391Y462D02*
X1398Y462D01*
X1Y461D02*
X8Y461D01*
X1391Y461D02*
X1398Y461D01*
X1Y460D02*
X8Y460D01*
X1391Y460D02*
X1398Y460D01*
X1Y459D02*
X8Y459D01*
X1391Y459D02*
X1398Y459D01*
X1Y458D02*
X8Y458D01*
X1391Y458D02*
X1398Y458D01*
X1Y457D02*
X8Y457D01*
X1391Y457D02*
X1398Y457D01*
X1Y456D02*
X8Y456D01*
X1391Y456D02*
X1398Y456D01*
X1Y455D02*
X8Y455D01*
X1391Y455D02*
X1398Y455D01*
X1Y454D02*
X8Y454D01*
X1391Y454D02*
X1398Y454D01*
X1Y453D02*
X8Y453D01*
X1391Y453D02*
X1398Y453D01*
X1Y452D02*
X8Y452D01*
X1391Y452D02*
X1398Y452D01*
X1Y451D02*
X8Y451D01*
X1391Y451D02*
X1398Y451D01*
X1Y450D02*
X8Y450D01*
X1391Y450D02*
X1398Y450D01*
X1Y449D02*
X8Y449D01*
X1391Y449D02*
X1398Y449D01*
X1Y448D02*
X8Y448D01*
X1391Y448D02*
X1398Y448D01*
X1Y447D02*
X8Y447D01*
X1391Y447D02*
X1398Y447D01*
X1Y446D02*
X8Y446D01*
X1391Y446D02*
X1398Y446D01*
X1Y445D02*
X8Y445D01*
X1391Y445D02*
X1398Y445D01*
X1Y444D02*
X8Y444D01*
X1391Y444D02*
X1398Y444D01*
X1Y443D02*
X8Y443D01*
X1391Y443D02*
X1398Y443D01*
X1Y442D02*
X8Y442D01*
X1391Y442D02*
X1398Y442D01*
X1Y441D02*
X8Y441D01*
X1391Y441D02*
X1398Y441D01*
X1Y440D02*
X8Y440D01*
X1391Y440D02*
X1398Y440D01*
X1Y439D02*
X8Y439D01*
X1391Y439D02*
X1398Y439D01*
X1Y438D02*
X8Y438D01*
X1391Y438D02*
X1398Y438D01*
X1Y437D02*
X8Y437D01*
X1391Y437D02*
X1398Y437D01*
X1Y436D02*
X8Y436D01*
X1391Y436D02*
X1398Y436D01*
X1Y435D02*
X8Y435D01*
X1391Y435D02*
X1398Y435D01*
X1Y434D02*
X8Y434D01*
X1391Y434D02*
X1398Y434D01*
X1Y433D02*
X8Y433D01*
X1391Y433D02*
X1398Y433D01*
X1Y432D02*
X8Y432D01*
X1391Y432D02*
X1398Y432D01*
X1Y431D02*
X8Y431D01*
X1391Y431D02*
X1398Y431D01*
X1Y430D02*
X8Y430D01*
X1391Y430D02*
X1398Y430D01*
X1Y429D02*
X8Y429D01*
X1391Y429D02*
X1398Y429D01*
X1Y428D02*
X8Y428D01*
X1391Y428D02*
X1398Y428D01*
X1Y427D02*
X8Y427D01*
X1391Y427D02*
X1398Y427D01*
X1Y426D02*
X8Y426D01*
X1391Y426D02*
X1398Y426D01*
X1Y425D02*
X8Y425D01*
X1391Y425D02*
X1398Y425D01*
X1Y424D02*
X8Y424D01*
X1391Y424D02*
X1398Y424D01*
X1Y423D02*
X8Y423D01*
X1391Y423D02*
X1398Y423D01*
X1Y422D02*
X8Y422D01*
X1391Y422D02*
X1398Y422D01*
X1Y421D02*
X8Y421D01*
X1391Y421D02*
X1398Y421D01*
X1Y420D02*
X8Y420D01*
X1391Y420D02*
X1398Y420D01*
X1Y419D02*
X8Y419D01*
X1391Y419D02*
X1398Y419D01*
X1Y418D02*
X8Y418D01*
X1391Y418D02*
X1398Y418D01*
X1Y417D02*
X8Y417D01*
X1391Y417D02*
X1398Y417D01*
X1Y416D02*
X8Y416D01*
X1391Y416D02*
X1398Y416D01*
X1Y415D02*
X8Y415D01*
X1391Y415D02*
X1398Y415D01*
X1Y414D02*
X8Y414D01*
X1391Y414D02*
X1398Y414D01*
X1Y413D02*
X8Y413D01*
X1391Y413D02*
X1398Y413D01*
X1Y412D02*
X8Y412D01*
X1391Y412D02*
X1398Y412D01*
X1Y411D02*
X8Y411D01*
X1391Y411D02*
X1398Y411D01*
X1Y410D02*
X8Y410D01*
X1391Y410D02*
X1398Y410D01*
X1Y409D02*
X8Y409D01*
X1391Y409D02*
X1398Y409D01*
X1Y408D02*
X8Y408D01*
X1391Y408D02*
X1398Y408D01*
X1Y407D02*
X8Y407D01*
X1391Y407D02*
X1398Y407D01*
X1Y406D02*
X8Y406D01*
X1391Y406D02*
X1398Y406D01*
X1Y405D02*
X8Y405D01*
X1391Y405D02*
X1398Y405D01*
X1Y404D02*
X8Y404D01*
X1391Y404D02*
X1398Y404D01*
X1Y403D02*
X8Y403D01*
X1391Y403D02*
X1398Y403D01*
X1Y402D02*
X8Y402D01*
X1391Y402D02*
X1398Y402D01*
X1Y401D02*
X8Y401D01*
X1391Y401D02*
X1398Y401D01*
X1Y400D02*
X8Y400D01*
X1391Y400D02*
X1398Y400D01*
X1Y399D02*
X8Y399D01*
X1391Y399D02*
X1398Y399D01*
X1Y398D02*
X8Y398D01*
X1391Y398D02*
X1398Y398D01*
X1Y397D02*
X8Y397D01*
X1391Y397D02*
X1398Y397D01*
X1Y396D02*
X8Y396D01*
X1391Y396D02*
X1398Y396D01*
X1Y395D02*
X8Y395D01*
X1391Y395D02*
X1398Y395D01*
X1Y394D02*
X8Y394D01*
X1391Y394D02*
X1398Y394D01*
X1Y393D02*
X8Y393D01*
X1391Y393D02*
X1398Y393D01*
X1Y392D02*
X8Y392D01*
X1391Y392D02*
X1398Y392D01*
X1Y391D02*
X8Y391D01*
X1391Y391D02*
X1398Y391D01*
X1Y390D02*
X8Y390D01*
X1391Y390D02*
X1398Y390D01*
X1Y389D02*
X8Y389D01*
X1391Y389D02*
X1398Y389D01*
X1Y388D02*
X8Y388D01*
X1391Y388D02*
X1398Y388D01*
X1Y387D02*
X8Y387D01*
X1391Y387D02*
X1398Y387D01*
X1Y386D02*
X8Y386D01*
X1391Y386D02*
X1398Y386D01*
X1Y385D02*
X8Y385D01*
X1391Y385D02*
X1398Y385D01*
X1Y384D02*
X8Y384D01*
X1391Y384D02*
X1398Y384D01*
X1Y383D02*
X8Y383D01*
X1391Y383D02*
X1398Y383D01*
X1Y382D02*
X8Y382D01*
X1391Y382D02*
X1398Y382D01*
X1Y381D02*
X8Y381D01*
X1263Y381D02*
X1274Y381D01*
X1313Y381D02*
X1324Y381D01*
X1348Y381D02*
X1363Y381D01*
X1391Y381D02*
X1398Y381D01*
X1Y380D02*
X8Y380D01*
X1195Y380D02*
X1199Y380D01*
X1223Y380D02*
X1227Y380D01*
X1258Y380D02*
X1277Y380D01*
X1308Y380D02*
X1327Y380D01*
X1345Y380D02*
X1364Y380D01*
X1391Y380D02*
X1398Y380D01*
X1Y379D02*
X8Y379D01*
X1195Y379D02*
X1200Y379D01*
X1222Y379D02*
X1227Y379D01*
X1256Y379D02*
X1277Y379D01*
X1306Y379D02*
X1327Y379D01*
X1345Y379D02*
X1364Y379D01*
X1391Y379D02*
X1398Y379D01*
X1Y378D02*
X8Y378D01*
X1194Y378D02*
X1200Y378D01*
X1222Y378D02*
X1228Y378D01*
X1255Y378D02*
X1278Y378D01*
X1305Y378D02*
X1328Y378D01*
X1344Y378D02*
X1364Y378D01*
X1391Y378D02*
X1398Y378D01*
X1Y377D02*
X8Y377D01*
X1194Y377D02*
X1200Y377D01*
X1222Y377D02*
X1228Y377D01*
X1254Y377D02*
X1278Y377D01*
X1304Y377D02*
X1328Y377D01*
X1344Y377D02*
X1364Y377D01*
X1391Y377D02*
X1398Y377D01*
X1Y376D02*
X8Y376D01*
X1194Y376D02*
X1200Y376D01*
X1222Y376D02*
X1228Y376D01*
X1253Y376D02*
X1277Y376D01*
X1303Y376D02*
X1327Y376D01*
X1345Y376D02*
X1364Y376D01*
X1391Y376D02*
X1398Y376D01*
X1Y375D02*
X8Y375D01*
X1194Y375D02*
X1200Y375D01*
X1222Y375D02*
X1228Y375D01*
X1253Y375D02*
X1277Y375D01*
X1303Y375D02*
X1327Y375D01*
X1345Y375D02*
X1364Y375D01*
X1391Y375D02*
X1398Y375D01*
X1Y374D02*
X8Y374D01*
X1194Y374D02*
X1200Y374D01*
X1222Y374D02*
X1228Y374D01*
X1252Y374D02*
X1274Y374D01*
X1302Y374D02*
X1324Y374D01*
X1348Y374D02*
X1364Y374D01*
X1391Y374D02*
X1398Y374D01*
X1Y373D02*
X8Y373D01*
X1194Y373D02*
X1200Y373D01*
X1222Y373D02*
X1228Y373D01*
X1252Y373D02*
X1259Y373D01*
X1302Y373D02*
X1309Y373D01*
X1358Y373D02*
X1364Y373D01*
X1391Y373D02*
X1398Y373D01*
X1Y372D02*
X8Y372D01*
X1194Y372D02*
X1200Y372D01*
X1222Y372D02*
X1228Y372D01*
X1251Y372D02*
X1258Y372D01*
X1301Y372D02*
X1308Y372D01*
X1358Y372D02*
X1364Y372D01*
X1391Y372D02*
X1398Y372D01*
X1Y371D02*
X8Y371D01*
X1194Y371D02*
X1200Y371D01*
X1222Y371D02*
X1228Y371D01*
X1251Y371D02*
X1258Y371D01*
X1301Y371D02*
X1308Y371D01*
X1358Y371D02*
X1364Y371D01*
X1391Y371D02*
X1398Y371D01*
X1Y370D02*
X8Y370D01*
X1194Y370D02*
X1200Y370D01*
X1222Y370D02*
X1228Y370D01*
X1250Y370D02*
X1257Y370D01*
X1300Y370D02*
X1307Y370D01*
X1358Y370D02*
X1364Y370D01*
X1391Y370D02*
X1398Y370D01*
X1Y369D02*
X8Y369D01*
X1194Y369D02*
X1200Y369D01*
X1222Y369D02*
X1228Y369D01*
X1250Y369D02*
X1257Y369D01*
X1300Y369D02*
X1307Y369D01*
X1358Y369D02*
X1364Y369D01*
X1391Y369D02*
X1398Y369D01*
X1Y368D02*
X8Y368D01*
X1194Y368D02*
X1200Y368D01*
X1222Y368D02*
X1228Y368D01*
X1249Y368D02*
X1256Y368D01*
X1299Y368D02*
X1306Y368D01*
X1358Y368D02*
X1364Y368D01*
X1391Y368D02*
X1398Y368D01*
X1Y367D02*
X8Y367D01*
X1194Y367D02*
X1200Y367D01*
X1222Y367D02*
X1228Y367D01*
X1249Y367D02*
X1256Y367D01*
X1299Y367D02*
X1306Y367D01*
X1358Y367D02*
X1364Y367D01*
X1391Y367D02*
X1398Y367D01*
X1Y366D02*
X8Y366D01*
X1194Y366D02*
X1200Y366D01*
X1222Y366D02*
X1228Y366D01*
X1248Y366D02*
X1255Y366D01*
X1298Y366D02*
X1305Y366D01*
X1358Y366D02*
X1364Y366D01*
X1391Y366D02*
X1398Y366D01*
X1Y365D02*
X8Y365D01*
X1194Y365D02*
X1201Y365D01*
X1221Y365D02*
X1228Y365D01*
X1248Y365D02*
X1255Y365D01*
X1298Y365D02*
X1305Y365D01*
X1358Y365D02*
X1364Y365D01*
X1391Y365D02*
X1398Y365D01*
X1Y364D02*
X8Y364D01*
X1195Y364D02*
X1201Y364D01*
X1221Y364D02*
X1227Y364D01*
X1247Y364D02*
X1254Y364D01*
X1297Y364D02*
X1304Y364D01*
X1358Y364D02*
X1364Y364D01*
X1391Y364D02*
X1398Y364D01*
X1Y363D02*
X8Y363D01*
X1195Y363D02*
X1202Y363D01*
X1220Y363D02*
X1227Y363D01*
X1247Y363D02*
X1254Y363D01*
X1297Y363D02*
X1304Y363D01*
X1358Y363D02*
X1364Y363D01*
X1391Y363D02*
X1398Y363D01*
X1Y362D02*
X8Y362D01*
X1195Y362D02*
X1202Y362D01*
X1220Y362D02*
X1227Y362D01*
X1246Y362D02*
X1253Y362D01*
X1296Y362D02*
X1303Y362D01*
X1358Y362D02*
X1364Y362D01*
X1391Y362D02*
X1398Y362D01*
X1Y361D02*
X8Y361D01*
X1196Y361D02*
X1202Y361D01*
X1220Y361D02*
X1226Y361D01*
X1246Y361D02*
X1253Y361D01*
X1296Y361D02*
X1303Y361D01*
X1358Y361D02*
X1364Y361D01*
X1391Y361D02*
X1398Y361D01*
X1Y360D02*
X8Y360D01*
X1196Y360D02*
X1203Y360D01*
X1219Y360D02*
X1226Y360D01*
X1245Y360D02*
X1252Y360D01*
X1295Y360D02*
X1302Y360D01*
X1358Y360D02*
X1364Y360D01*
X1391Y360D02*
X1398Y360D01*
X1Y359D02*
X8Y359D01*
X1197Y359D02*
X1203Y359D01*
X1219Y359D02*
X1225Y359D01*
X1245Y359D02*
X1252Y359D01*
X1295Y359D02*
X1302Y359D01*
X1358Y359D02*
X1364Y359D01*
X1391Y359D02*
X1398Y359D01*
X1Y358D02*
X8Y358D01*
X1197Y358D02*
X1203Y358D01*
X1219Y358D02*
X1225Y358D01*
X1245Y358D02*
X1251Y358D01*
X1295Y358D02*
X1301Y358D01*
X1358Y358D02*
X1364Y358D01*
X1391Y358D02*
X1398Y358D01*
X1Y357D02*
X8Y357D01*
X1197Y357D02*
X1204Y357D01*
X1218Y357D02*
X1225Y357D01*
X1245Y357D02*
X1251Y357D01*
X1295Y357D02*
X1301Y357D01*
X1358Y357D02*
X1364Y357D01*
X1391Y357D02*
X1398Y357D01*
X1Y356D02*
X8Y356D01*
X1198Y356D02*
X1204Y356D01*
X1218Y356D02*
X1224Y356D01*
X1244Y356D02*
X1250Y356D01*
X1294Y356D02*
X1300Y356D01*
X1358Y356D02*
X1364Y356D01*
X1391Y356D02*
X1398Y356D01*
X1Y355D02*
X8Y355D01*
X1198Y355D02*
X1205Y355D01*
X1217Y355D02*
X1224Y355D01*
X1244Y355D02*
X1250Y355D01*
X1294Y355D02*
X1300Y355D01*
X1358Y355D02*
X1364Y355D01*
X1391Y355D02*
X1398Y355D01*
X1Y354D02*
X8Y354D01*
X1198Y354D02*
X1205Y354D01*
X1217Y354D02*
X1223Y354D01*
X1244Y354D02*
X1250Y354D01*
X1294Y354D02*
X1300Y354D01*
X1358Y354D02*
X1364Y354D01*
X1391Y354D02*
X1398Y354D01*
X1Y353D02*
X8Y353D01*
X1199Y353D02*
X1205Y353D01*
X1217Y353D02*
X1223Y353D01*
X1244Y353D02*
X1250Y353D01*
X1294Y353D02*
X1300Y353D01*
X1358Y353D02*
X1364Y353D01*
X1391Y353D02*
X1398Y353D01*
X1Y352D02*
X8Y352D01*
X1199Y352D02*
X1206Y352D01*
X1216Y352D02*
X1223Y352D01*
X1244Y352D02*
X1250Y352D01*
X1294Y352D02*
X1300Y352D01*
X1358Y352D02*
X1364Y352D01*
X1391Y352D02*
X1398Y352D01*
X1Y351D02*
X8Y351D01*
X1200Y351D02*
X1206Y351D01*
X1216Y351D02*
X1222Y351D01*
X1245Y351D02*
X1251Y351D01*
X1294Y351D02*
X1301Y351D01*
X1358Y351D02*
X1364Y351D01*
X1373Y351D02*
X1376Y351D01*
X1391Y351D02*
X1398Y351D01*
X1Y350D02*
X8Y350D01*
X1200Y350D02*
X1207Y350D01*
X1215Y350D02*
X1222Y350D01*
X1245Y350D02*
X1251Y350D01*
X1295Y350D02*
X1301Y350D01*
X1358Y350D02*
X1364Y350D01*
X1372Y350D02*
X1377Y350D01*
X1391Y350D02*
X1398Y350D01*
X1Y349D02*
X8Y349D01*
X1200Y349D02*
X1207Y349D01*
X1215Y349D02*
X1222Y349D01*
X1245Y349D02*
X1252Y349D01*
X1295Y349D02*
X1302Y349D01*
X1358Y349D02*
X1364Y349D01*
X1372Y349D02*
X1378Y349D01*
X1391Y349D02*
X1398Y349D01*
X1Y348D02*
X8Y348D01*
X1201Y348D02*
X1207Y348D01*
X1215Y348D02*
X1221Y348D01*
X1245Y348D02*
X1252Y348D01*
X1295Y348D02*
X1302Y348D01*
X1358Y348D02*
X1364Y348D01*
X1372Y348D02*
X1378Y348D01*
X1391Y348D02*
X1398Y348D01*
X1Y347D02*
X8Y347D01*
X1201Y347D02*
X1208Y347D01*
X1214Y347D02*
X1221Y347D01*
X1246Y347D02*
X1253Y347D01*
X1296Y347D02*
X1303Y347D01*
X1358Y347D02*
X1364Y347D01*
X1372Y347D02*
X1378Y347D01*
X1391Y347D02*
X1398Y347D01*
X1Y346D02*
X8Y346D01*
X1202Y346D02*
X1208Y346D01*
X1214Y346D02*
X1220Y346D01*
X1246Y346D02*
X1253Y346D01*
X1296Y346D02*
X1303Y346D01*
X1358Y346D02*
X1364Y346D01*
X1372Y346D02*
X1378Y346D01*
X1391Y346D02*
X1398Y346D01*
X1Y345D02*
X8Y345D01*
X1202Y345D02*
X1209Y345D01*
X1213Y345D02*
X1220Y345D01*
X1247Y345D02*
X1254Y345D01*
X1297Y345D02*
X1304Y345D01*
X1358Y345D02*
X1364Y345D01*
X1372Y345D02*
X1378Y345D01*
X1391Y345D02*
X1398Y345D01*
X1Y344D02*
X8Y344D01*
X1202Y344D02*
X1209Y344D01*
X1213Y344D02*
X1220Y344D01*
X1247Y344D02*
X1254Y344D01*
X1297Y344D02*
X1304Y344D01*
X1358Y344D02*
X1364Y344D01*
X1372Y344D02*
X1378Y344D01*
X1391Y344D02*
X1398Y344D01*
X1Y343D02*
X8Y343D01*
X1203Y343D02*
X1209Y343D01*
X1213Y343D02*
X1219Y343D01*
X1248Y343D02*
X1255Y343D01*
X1298Y343D02*
X1305Y343D01*
X1358Y343D02*
X1364Y343D01*
X1372Y343D02*
X1378Y343D01*
X1391Y343D02*
X1398Y343D01*
X1Y342D02*
X8Y342D01*
X1203Y342D02*
X1210Y342D01*
X1212Y342D02*
X1219Y342D01*
X1248Y342D02*
X1255Y342D01*
X1298Y342D02*
X1305Y342D01*
X1358Y342D02*
X1364Y342D01*
X1372Y342D02*
X1378Y342D01*
X1391Y342D02*
X1398Y342D01*
X1Y341D02*
X8Y341D01*
X1204Y341D02*
X1210Y341D01*
X1212Y341D02*
X1218Y341D01*
X1249Y341D02*
X1256Y341D01*
X1299Y341D02*
X1306Y341D01*
X1358Y341D02*
X1364Y341D01*
X1372Y341D02*
X1378Y341D01*
X1391Y341D02*
X1398Y341D01*
X1Y340D02*
X8Y340D01*
X1204Y340D02*
X1218Y340D01*
X1249Y340D02*
X1256Y340D01*
X1299Y340D02*
X1306Y340D01*
X1358Y340D02*
X1364Y340D01*
X1372Y340D02*
X1378Y340D01*
X1391Y340D02*
X1398Y340D01*
X1Y339D02*
X8Y339D01*
X1204Y339D02*
X1218Y339D01*
X1250Y339D02*
X1257Y339D01*
X1300Y339D02*
X1307Y339D01*
X1358Y339D02*
X1364Y339D01*
X1372Y339D02*
X1378Y339D01*
X1391Y339D02*
X1398Y339D01*
X1Y338D02*
X8Y338D01*
X1205Y338D02*
X1217Y338D01*
X1250Y338D02*
X1257Y338D01*
X1300Y338D02*
X1307Y338D01*
X1358Y338D02*
X1364Y338D01*
X1372Y338D02*
X1378Y338D01*
X1391Y338D02*
X1398Y338D01*
X1Y337D02*
X8Y337D01*
X1205Y337D02*
X1217Y337D01*
X1251Y337D02*
X1258Y337D01*
X1301Y337D02*
X1308Y337D01*
X1358Y337D02*
X1364Y337D01*
X1372Y337D02*
X1378Y337D01*
X1391Y337D02*
X1398Y337D01*
X1Y336D02*
X8Y336D01*
X1205Y336D02*
X1216Y336D01*
X1251Y336D02*
X1258Y336D01*
X1301Y336D02*
X1308Y336D01*
X1358Y336D02*
X1364Y336D01*
X1372Y336D02*
X1378Y336D01*
X1391Y336D02*
X1398Y336D01*
X1Y335D02*
X8Y335D01*
X1206Y335D02*
X1216Y335D01*
X1252Y335D02*
X1259Y335D01*
X1302Y335D02*
X1309Y335D01*
X1358Y335D02*
X1364Y335D01*
X1372Y335D02*
X1378Y335D01*
X1391Y335D02*
X1398Y335D01*
X1Y334D02*
X8Y334D01*
X1206Y334D02*
X1216Y334D01*
X1252Y334D02*
X1261Y334D01*
X1302Y334D02*
X1311Y334D01*
X1358Y334D02*
X1364Y334D01*
X1371Y334D02*
X1378Y334D01*
X1391Y334D02*
X1398Y334D01*
X1Y333D02*
X8Y333D01*
X1207Y333D02*
X1215Y333D01*
X1253Y333D02*
X1276Y333D01*
X1303Y333D02*
X1326Y333D01*
X1345Y333D02*
X1378Y333D01*
X1391Y333D02*
X1398Y333D01*
X1Y332D02*
X8Y332D01*
X1207Y332D02*
X1215Y332D01*
X1253Y332D02*
X1277Y332D01*
X1303Y332D02*
X1327Y332D01*
X1345Y332D02*
X1378Y332D01*
X1391Y332D02*
X1398Y332D01*
X1Y331D02*
X8Y331D01*
X1207Y331D02*
X1215Y331D01*
X1254Y331D02*
X1278Y331D01*
X1304Y331D02*
X1328Y331D01*
X1344Y331D02*
X1378Y331D01*
X1391Y331D02*
X1398Y331D01*
X1Y330D02*
X8Y330D01*
X1208Y330D02*
X1214Y330D01*
X1255Y330D02*
X1278Y330D01*
X1305Y330D02*
X1328Y330D01*
X1344Y330D02*
X1378Y330D01*
X1391Y330D02*
X1398Y330D01*
X1Y329D02*
X8Y329D01*
X1208Y329D02*
X1214Y329D01*
X1256Y329D02*
X1277Y329D01*
X1306Y329D02*
X1327Y329D01*
X1345Y329D02*
X1377Y329D01*
X1391Y329D02*
X1398Y329D01*
X1Y328D02*
X8Y328D01*
X1209Y328D02*
X1213Y328D01*
X1258Y328D02*
X1277Y328D01*
X1308Y328D02*
X1327Y328D01*
X1345Y328D02*
X1377Y328D01*
X1391Y328D02*
X1398Y328D01*
X1Y327D02*
X8Y327D01*
X1211Y327D02*
X1211Y327D01*
X1261Y327D02*
X1275Y327D01*
X1311Y327D02*
X1325Y327D01*
X1347Y327D02*
X1375Y327D01*
X1391Y327D02*
X1398Y327D01*
X1Y326D02*
X8Y326D01*
X1391Y326D02*
X1398Y326D01*
X1Y325D02*
X8Y325D01*
X1391Y325D02*
X1398Y325D01*
X1Y324D02*
X8Y324D01*
X1391Y324D02*
X1398Y324D01*
X1Y323D02*
X8Y323D01*
X1391Y323D02*
X1398Y323D01*
X1Y322D02*
X8Y322D01*
X1391Y322D02*
X1398Y322D01*
X1Y321D02*
X8Y321D01*
X1391Y321D02*
X1398Y321D01*
X1Y320D02*
X8Y320D01*
X1391Y320D02*
X1398Y320D01*
X1Y319D02*
X8Y319D01*
X1391Y319D02*
X1398Y319D01*
X1Y318D02*
X8Y318D01*
X1391Y318D02*
X1398Y318D01*
X1Y317D02*
X8Y317D01*
X1391Y317D02*
X1398Y317D01*
X1Y316D02*
X8Y316D01*
X1391Y316D02*
X1398Y316D01*
X1Y315D02*
X8Y315D01*
X1391Y315D02*
X1398Y315D01*
X1Y314D02*
X8Y314D01*
X1391Y314D02*
X1398Y314D01*
X1Y313D02*
X8Y313D01*
X1391Y313D02*
X1398Y313D01*
X1Y312D02*
X8Y312D01*
X1391Y312D02*
X1398Y312D01*
X1Y311D02*
X8Y311D01*
X1391Y311D02*
X1398Y311D01*
X1Y310D02*
X8Y310D01*
X1391Y310D02*
X1398Y310D01*
X1Y309D02*
X8Y309D01*
X1391Y309D02*
X1398Y309D01*
X1Y308D02*
X8Y308D01*
X1391Y308D02*
X1398Y308D01*
X1Y307D02*
X8Y307D01*
X1391Y307D02*
X1398Y307D01*
X1Y306D02*
X8Y306D01*
X1391Y306D02*
X1398Y306D01*
X1Y305D02*
X8Y305D01*
X1391Y305D02*
X1398Y305D01*
X1Y304D02*
X8Y304D01*
X1391Y304D02*
X1398Y304D01*
X1Y303D02*
X8Y303D01*
X1391Y303D02*
X1398Y303D01*
X1Y302D02*
X8Y302D01*
X1391Y302D02*
X1398Y302D01*
X1Y301D02*
X8Y301D01*
X1391Y301D02*
X1398Y301D01*
X1Y300D02*
X8Y300D01*
X1391Y300D02*
X1398Y300D01*
X1Y299D02*
X8Y299D01*
X1391Y299D02*
X1398Y299D01*
X1Y298D02*
X8Y298D01*
X1391Y298D02*
X1398Y298D01*
X1Y297D02*
X8Y297D01*
X1391Y297D02*
X1398Y297D01*
X1Y296D02*
X8Y296D01*
X1391Y296D02*
X1398Y296D01*
X1Y295D02*
X8Y295D01*
X1391Y295D02*
X1398Y295D01*
X1Y294D02*
X8Y294D01*
X1391Y294D02*
X1398Y294D01*
X1Y293D02*
X8Y293D01*
X1391Y293D02*
X1398Y293D01*
X1Y292D02*
X8Y292D01*
X1391Y292D02*
X1398Y292D01*
X1Y291D02*
X8Y291D01*
X1391Y291D02*
X1398Y291D01*
X1Y290D02*
X8Y290D01*
X1391Y290D02*
X1398Y290D01*
X1Y289D02*
X8Y289D01*
X1391Y289D02*
X1398Y289D01*
X1Y288D02*
X8Y288D01*
X1391Y288D02*
X1398Y288D01*
X1Y287D02*
X8Y287D01*
X1391Y287D02*
X1398Y287D01*
X1Y286D02*
X8Y286D01*
X1391Y286D02*
X1398Y286D01*
X1Y285D02*
X8Y285D01*
X1391Y285D02*
X1398Y285D01*
X1Y284D02*
X8Y284D01*
X1391Y284D02*
X1398Y284D01*
X1Y283D02*
X8Y283D01*
X1391Y283D02*
X1398Y283D01*
X1Y282D02*
X8Y282D01*
X1099Y282D02*
X1100Y282D01*
X1391Y282D02*
X1398Y282D01*
X1Y281D02*
X8Y281D01*
X1098Y281D02*
X1101Y281D01*
X1391Y281D02*
X1398Y281D01*
X1Y280D02*
X8Y280D01*
X1097Y280D02*
X1102Y280D01*
X1391Y280D02*
X1398Y280D01*
X1Y279D02*
X8Y279D01*
X1096Y279D02*
X1102Y279D01*
X1391Y279D02*
X1398Y279D01*
X1Y278D02*
X8Y278D01*
X1095Y278D02*
X1101Y278D01*
X1391Y278D02*
X1398Y278D01*
X1Y277D02*
X8Y277D01*
X1094Y277D02*
X1100Y277D01*
X1391Y277D02*
X1398Y277D01*
X1Y276D02*
X8Y276D01*
X1093Y276D02*
X1099Y276D01*
X1391Y276D02*
X1398Y276D01*
X1Y275D02*
X8Y275D01*
X1391Y275D02*
X1398Y275D01*
X1Y274D02*
X8Y274D01*
X1391Y274D02*
X1398Y274D01*
X1Y273D02*
X8Y273D01*
X1391Y273D02*
X1398Y273D01*
X1Y272D02*
X8Y272D01*
X1391Y272D02*
X1398Y272D01*
X1Y271D02*
X8Y271D01*
X1391Y271D02*
X1398Y271D01*
X1Y270D02*
X8Y270D01*
X1391Y270D02*
X1398Y270D01*
X1Y269D02*
X8Y269D01*
X1391Y269D02*
X1398Y269D01*
X1Y268D02*
X8Y268D01*
X1391Y268D02*
X1398Y268D01*
X1Y267D02*
X8Y267D01*
X1391Y267D02*
X1398Y267D01*
X1Y266D02*
X8Y266D01*
X1391Y266D02*
X1398Y266D01*
X1Y265D02*
X8Y265D01*
X1391Y265D02*
X1398Y265D01*
X1Y264D02*
X8Y264D01*
X1391Y264D02*
X1398Y264D01*
X1Y263D02*
X8Y263D01*
X1391Y263D02*
X1398Y263D01*
X1Y262D02*
X8Y262D01*
X1391Y262D02*
X1398Y262D01*
X1Y261D02*
X8Y261D01*
X1391Y261D02*
X1398Y261D01*
X1Y260D02*
X8Y260D01*
X1391Y260D02*
X1398Y260D01*
X1Y259D02*
X8Y259D01*
X1391Y259D02*
X1398Y259D01*
X1Y258D02*
X8Y258D01*
X1391Y258D02*
X1398Y258D01*
X1Y257D02*
X8Y257D01*
X1391Y257D02*
X1398Y257D01*
X1Y256D02*
X8Y256D01*
X1391Y256D02*
X1398Y256D01*
X1Y255D02*
X8Y255D01*
X1391Y255D02*
X1398Y255D01*
X1Y254D02*
X8Y254D01*
X1071Y254D02*
X1071Y254D01*
X1391Y254D02*
X1398Y254D01*
X1Y253D02*
X8Y253D01*
X1070Y253D02*
X1071Y253D01*
X1391Y253D02*
X1398Y253D01*
X1Y252D02*
X8Y252D01*
X1069Y252D02*
X1071Y252D01*
X1391Y252D02*
X1398Y252D01*
X1Y251D02*
X8Y251D01*
X1068Y251D02*
X1071Y251D01*
X1391Y251D02*
X1398Y251D01*
X1Y250D02*
X8Y250D01*
X1067Y250D02*
X1071Y250D01*
X1391Y250D02*
X1398Y250D01*
X1Y249D02*
X8Y249D01*
X1066Y249D02*
X1071Y249D01*
X1391Y249D02*
X1398Y249D01*
X1Y248D02*
X8Y248D01*
X1065Y248D02*
X1071Y248D01*
X1391Y248D02*
X1398Y248D01*
X1Y247D02*
X8Y247D01*
X1066Y247D02*
X1070Y247D01*
X1391Y247D02*
X1398Y247D01*
X1Y246D02*
X8Y246D01*
X1067Y246D02*
X1069Y246D01*
X1391Y246D02*
X1398Y246D01*
X1Y245D02*
X8Y245D01*
X1068Y245D02*
X1068Y245D01*
X1391Y245D02*
X1398Y245D01*
X1Y244D02*
X8Y244D01*
X1391Y244D02*
X1398Y244D01*
X1Y243D02*
X8Y243D01*
X1391Y243D02*
X1398Y243D01*
X1Y242D02*
X8Y242D01*
X1391Y242D02*
X1398Y242D01*
X1Y241D02*
X8Y241D01*
X1391Y241D02*
X1398Y241D01*
X1Y240D02*
X8Y240D01*
X1391Y240D02*
X1398Y240D01*
X1Y239D02*
X8Y239D01*
X1391Y239D02*
X1398Y239D01*
X1Y238D02*
X8Y238D01*
X1391Y238D02*
X1398Y238D01*
X1Y237D02*
X8Y237D01*
X1391Y237D02*
X1398Y237D01*
X1Y236D02*
X8Y236D01*
X1391Y236D02*
X1398Y236D01*
X1Y235D02*
X8Y235D01*
X1391Y235D02*
X1398Y235D01*
X1Y234D02*
X8Y234D01*
X1391Y234D02*
X1398Y234D01*
X1Y233D02*
X8Y233D01*
X1391Y233D02*
X1398Y233D01*
X1Y232D02*
X8Y232D01*
X1391Y232D02*
X1398Y232D01*
X1Y231D02*
X8Y231D01*
X1391Y231D02*
X1398Y231D01*
X1Y230D02*
X8Y230D01*
X1391Y230D02*
X1398Y230D01*
X1Y229D02*
X8Y229D01*
X1391Y229D02*
X1398Y229D01*
X1Y228D02*
X8Y228D01*
X1391Y228D02*
X1398Y228D01*
X1Y227D02*
X8Y227D01*
X1391Y227D02*
X1398Y227D01*
X1Y226D02*
X8Y226D01*
X1391Y226D02*
X1398Y226D01*
X1Y225D02*
X8Y225D01*
X1391Y225D02*
X1398Y225D01*
X1Y224D02*
X8Y224D01*
X1391Y224D02*
X1398Y224D01*
X1Y223D02*
X8Y223D01*
X1391Y223D02*
X1398Y223D01*
X1Y222D02*
X8Y222D01*
X1391Y222D02*
X1398Y222D01*
X1Y221D02*
X8Y221D01*
X1391Y221D02*
X1398Y221D01*
X1Y220D02*
X8Y220D01*
X1391Y220D02*
X1398Y220D01*
X1Y219D02*
X8Y219D01*
X1391Y219D02*
X1398Y219D01*
X1Y218D02*
X8Y218D01*
X1391Y218D02*
X1398Y218D01*
X1Y217D02*
X8Y217D01*
X1391Y217D02*
X1398Y217D01*
X1Y216D02*
X8Y216D01*
X1391Y216D02*
X1398Y216D01*
X1Y215D02*
X8Y215D01*
X1391Y215D02*
X1398Y215D01*
X1Y214D02*
X8Y214D01*
X1391Y214D02*
X1398Y214D01*
X1Y213D02*
X8Y213D01*
X1391Y213D02*
X1398Y213D01*
X1Y212D02*
X8Y212D01*
X1391Y212D02*
X1398Y212D01*
X1Y211D02*
X8Y211D01*
X1391Y211D02*
X1398Y211D01*
X1Y210D02*
X8Y210D01*
X1391Y210D02*
X1398Y210D01*
X1Y209D02*
X8Y209D01*
X1391Y209D02*
X1398Y209D01*
X1Y208D02*
X8Y208D01*
X1391Y208D02*
X1398Y208D01*
X1Y207D02*
X8Y207D01*
X1391Y207D02*
X1398Y207D01*
X1Y206D02*
X8Y206D01*
X1391Y206D02*
X1398Y206D01*
X1Y205D02*
X8Y205D01*
X1391Y205D02*
X1398Y205D01*
X1Y204D02*
X8Y204D01*
X1391Y204D02*
X1398Y204D01*
X1Y203D02*
X8Y203D01*
X1391Y203D02*
X1398Y203D01*
X1Y202D02*
X8Y202D01*
X1391Y202D02*
X1398Y202D01*
X1Y201D02*
X8Y201D01*
X1391Y201D02*
X1398Y201D01*
X1Y200D02*
X8Y200D01*
X1391Y200D02*
X1398Y200D01*
X1Y199D02*
X8Y199D01*
X1391Y199D02*
X1398Y199D01*
X1Y198D02*
X8Y198D01*
X1391Y198D02*
X1398Y198D01*
X1Y197D02*
X8Y197D01*
X1391Y197D02*
X1398Y197D01*
X1Y196D02*
X8Y196D01*
X1391Y196D02*
X1398Y196D01*
X1Y195D02*
X8Y195D01*
X1391Y195D02*
X1398Y195D01*
X1Y194D02*
X8Y194D01*
X1391Y194D02*
X1398Y194D01*
X1Y193D02*
X8Y193D01*
X1391Y193D02*
X1398Y193D01*
X1Y192D02*
X8Y192D01*
X1391Y192D02*
X1398Y192D01*
X1Y191D02*
X8Y191D01*
X1391Y191D02*
X1398Y191D01*
X1Y190D02*
X8Y190D01*
X1391Y190D02*
X1398Y190D01*
X1Y189D02*
X8Y189D01*
X1391Y189D02*
X1398Y189D01*
X1Y188D02*
X8Y188D01*
X1391Y188D02*
X1398Y188D01*
X1Y187D02*
X8Y187D01*
X1391Y187D02*
X1398Y187D01*
X1Y186D02*
X8Y186D01*
X1391Y186D02*
X1398Y186D01*
X1Y185D02*
X8Y185D01*
X1391Y185D02*
X1398Y185D01*
X1Y184D02*
X8Y184D01*
X1391Y184D02*
X1398Y184D01*
X1Y183D02*
X8Y183D01*
X1391Y183D02*
X1398Y183D01*
X1Y182D02*
X8Y182D01*
X1391Y182D02*
X1398Y182D01*
X1Y181D02*
X8Y181D01*
X1391Y181D02*
X1398Y181D01*
X1Y180D02*
X8Y180D01*
X1391Y180D02*
X1398Y180D01*
X1Y179D02*
X8Y179D01*
X1391Y179D02*
X1398Y179D01*
X1Y178D02*
X8Y178D01*
X1391Y178D02*
X1398Y178D01*
X1Y177D02*
X8Y177D01*
X1391Y177D02*
X1398Y177D01*
X1Y176D02*
X8Y176D01*
X1391Y176D02*
X1398Y176D01*
X1Y175D02*
X8Y175D01*
X1391Y175D02*
X1398Y175D01*
X1Y174D02*
X8Y174D01*
X1391Y174D02*
X1398Y174D01*
X1Y173D02*
X8Y173D01*
X1391Y173D02*
X1398Y173D01*
X1Y172D02*
X8Y172D01*
X1391Y172D02*
X1398Y172D01*
X1Y171D02*
X8Y171D01*
X1391Y171D02*
X1398Y171D01*
X1Y170D02*
X8Y170D01*
X1391Y170D02*
X1398Y170D01*
X1Y169D02*
X8Y169D01*
X1391Y169D02*
X1398Y169D01*
X1Y168D02*
X8Y168D01*
X1391Y168D02*
X1398Y168D01*
X1Y167D02*
X8Y167D01*
X1391Y167D02*
X1398Y167D01*
X1Y166D02*
X8Y166D01*
X1391Y166D02*
X1398Y166D01*
X1Y165D02*
X8Y165D01*
X1391Y165D02*
X1398Y165D01*
X1Y164D02*
X8Y164D01*
X1391Y164D02*
X1398Y164D01*
X1Y163D02*
X8Y163D01*
X1391Y163D02*
X1398Y163D01*
X1Y162D02*
X8Y162D01*
X1391Y162D02*
X1398Y162D01*
X1Y161D02*
X8Y161D01*
X1391Y161D02*
X1398Y161D01*
X1Y160D02*
X8Y160D01*
X1391Y160D02*
X1398Y160D01*
X1Y159D02*
X8Y159D01*
X1391Y159D02*
X1398Y159D01*
X1Y158D02*
X8Y158D01*
X1391Y158D02*
X1398Y158D01*
X1Y157D02*
X8Y157D01*
X1391Y157D02*
X1398Y157D01*
X1Y156D02*
X8Y156D01*
X1391Y156D02*
X1398Y156D01*
X1Y155D02*
X8Y155D01*
X1391Y155D02*
X1398Y155D01*
X1Y154D02*
X8Y154D01*
X1391Y154D02*
X1398Y154D01*
X1Y153D02*
X8Y153D01*
X1391Y153D02*
X1398Y153D01*
X1Y152D02*
X8Y152D01*
X1391Y152D02*
X1398Y152D01*
X1Y151D02*
X8Y151D01*
X1391Y151D02*
X1398Y151D01*
X1Y150D02*
X8Y150D01*
X1391Y150D02*
X1398Y150D01*
X1Y149D02*
X8Y149D01*
X1391Y149D02*
X1398Y149D01*
X1Y148D02*
X8Y148D01*
X1391Y148D02*
X1398Y148D01*
X1Y147D02*
X8Y147D01*
X1391Y147D02*
X1398Y147D01*
X1Y146D02*
X8Y146D01*
X1391Y146D02*
X1398Y146D01*
X1Y145D02*
X8Y145D01*
X1391Y145D02*
X1398Y145D01*
X1Y144D02*
X8Y144D01*
X1391Y144D02*
X1398Y144D01*
X1Y143D02*
X8Y143D01*
X1391Y143D02*
X1398Y143D01*
X1Y142D02*
X8Y142D01*
X1391Y142D02*
X1398Y142D01*
X1Y141D02*
X8Y141D01*
X1391Y141D02*
X1398Y141D01*
X1Y140D02*
X8Y140D01*
X1391Y140D02*
X1398Y140D01*
X1Y139D02*
X8Y139D01*
X1391Y139D02*
X1398Y139D01*
X1Y138D02*
X8Y138D01*
X1391Y138D02*
X1398Y138D01*
X1Y137D02*
X8Y137D01*
X1391Y137D02*
X1398Y137D01*
X1Y136D02*
X8Y136D01*
X1391Y136D02*
X1398Y136D01*
X1Y135D02*
X8Y135D01*
X1391Y135D02*
X1398Y135D01*
X1Y134D02*
X8Y134D01*
X1391Y134D02*
X1398Y134D01*
X1Y133D02*
X8Y133D01*
X1391Y133D02*
X1398Y133D01*
X1Y132D02*
X8Y132D01*
X1391Y132D02*
X1398Y132D01*
X1Y131D02*
X8Y131D01*
X1391Y131D02*
X1398Y131D01*
X1Y130D02*
X8Y130D01*
X1391Y130D02*
X1398Y130D01*
X1Y129D02*
X8Y129D01*
X1391Y129D02*
X1398Y129D01*
X1Y128D02*
X8Y128D01*
X1391Y128D02*
X1398Y128D01*
X1Y127D02*
X8Y127D01*
X1391Y127D02*
X1398Y127D01*
X1Y126D02*
X8Y126D01*
X1391Y126D02*
X1398Y126D01*
X1Y125D02*
X8Y125D01*
X1391Y125D02*
X1398Y125D01*
X1Y124D02*
X8Y124D01*
X1391Y124D02*
X1398Y124D01*
X1Y123D02*
X8Y123D01*
X1391Y123D02*
X1398Y123D01*
X1Y122D02*
X8Y122D01*
X1391Y122D02*
X1398Y122D01*
X1Y121D02*
X8Y121D01*
X1391Y121D02*
X1398Y121D01*
X1Y120D02*
X8Y120D01*
X1391Y120D02*
X1398Y120D01*
X1Y119D02*
X8Y119D01*
X1391Y119D02*
X1398Y119D01*
X1Y118D02*
X8Y118D01*
X1391Y118D02*
X1398Y118D01*
X1Y117D02*
X8Y117D01*
X1391Y117D02*
X1398Y117D01*
X1Y116D02*
X8Y116D01*
X1391Y116D02*
X1398Y116D01*
X1Y115D02*
X8Y115D01*
X1391Y115D02*
X1398Y115D01*
X1Y114D02*
X8Y114D01*
X1391Y114D02*
X1398Y114D01*
X1Y113D02*
X8Y113D01*
X1391Y113D02*
X1398Y113D01*
X1Y112D02*
X8Y112D01*
X1391Y112D02*
X1398Y112D01*
X1Y111D02*
X8Y111D01*
X1391Y111D02*
X1398Y111D01*
X1Y110D02*
X8Y110D01*
X1391Y110D02*
X1398Y110D01*
X1Y109D02*
X8Y109D01*
X1391Y109D02*
X1398Y109D01*
X1Y108D02*
X8Y108D01*
X1391Y108D02*
X1398Y108D01*
X1Y107D02*
X8Y107D01*
X1391Y107D02*
X1398Y107D01*
X1Y106D02*
X8Y106D01*
X1391Y106D02*
X1398Y106D01*
X1Y105D02*
X8Y105D01*
X1391Y105D02*
X1398Y105D01*
X1Y104D02*
X8Y104D01*
X1391Y104D02*
X1398Y104D01*
X1Y103D02*
X8Y103D01*
X1391Y103D02*
X1398Y103D01*
X1Y102D02*
X8Y102D01*
X1391Y102D02*
X1398Y102D01*
X1Y101D02*
X8Y101D01*
X1391Y101D02*
X1398Y101D01*
X1Y100D02*
X8Y100D01*
X1391Y100D02*
X1398Y100D01*
X1Y99D02*
X8Y99D01*
X1391Y99D02*
X1398Y99D01*
X1Y98D02*
X8Y98D01*
X1391Y98D02*
X1398Y98D01*
X1Y97D02*
X8Y97D01*
X1391Y97D02*
X1398Y97D01*
X1Y96D02*
X8Y96D01*
X1391Y96D02*
X1398Y96D01*
X1Y95D02*
X8Y95D01*
X1391Y95D02*
X1398Y95D01*
X1Y94D02*
X8Y94D01*
X1391Y94D02*
X1398Y94D01*
X1Y93D02*
X8Y93D01*
X1391Y93D02*
X1398Y93D01*
X1Y92D02*
X8Y92D01*
X1391Y92D02*
X1398Y92D01*
X1Y91D02*
X8Y91D01*
X1391Y91D02*
X1398Y91D01*
X1Y90D02*
X8Y90D01*
X1391Y90D02*
X1398Y90D01*
X1Y89D02*
X8Y89D01*
X1391Y89D02*
X1398Y89D01*
X1Y88D02*
X8Y88D01*
X1391Y88D02*
X1398Y88D01*
X1Y87D02*
X8Y87D01*
X1391Y87D02*
X1398Y87D01*
X1Y86D02*
X8Y86D01*
X1391Y86D02*
X1398Y86D01*
X1Y85D02*
X8Y85D01*
X1391Y85D02*
X1398Y85D01*
X1Y84D02*
X8Y84D01*
X1391Y84D02*
X1398Y84D01*
X1Y83D02*
X8Y83D01*
X1391Y83D02*
X1398Y83D01*
X1Y82D02*
X8Y82D01*
X1391Y82D02*
X1398Y82D01*
X1Y81D02*
X8Y81D01*
X1391Y81D02*
X1398Y81D01*
X1Y80D02*
X8Y80D01*
X1391Y80D02*
X1398Y80D01*
X1Y79D02*
X8Y79D01*
X1391Y79D02*
X1398Y79D01*
X1Y78D02*
X8Y78D01*
X1391Y78D02*
X1398Y78D01*
X1Y77D02*
X8Y77D01*
X1391Y77D02*
X1398Y77D01*
X1Y76D02*
X8Y76D01*
X1391Y76D02*
X1398Y76D01*
X1Y75D02*
X8Y75D01*
X1391Y75D02*
X1398Y75D01*
X1Y74D02*
X8Y74D01*
X1391Y74D02*
X1398Y74D01*
X1Y73D02*
X8Y73D01*
X1391Y73D02*
X1398Y73D01*
X1Y72D02*
X8Y72D01*
X1391Y72D02*
X1398Y72D01*
X1Y71D02*
X8Y71D01*
X1391Y71D02*
X1398Y71D01*
X1Y70D02*
X8Y70D01*
X1391Y70D02*
X1398Y70D01*
X1Y69D02*
X8Y69D01*
X1391Y69D02*
X1398Y69D01*
X1Y68D02*
X8Y68D01*
X1391Y68D02*
X1398Y68D01*
X1Y67D02*
X8Y67D01*
X1391Y67D02*
X1398Y67D01*
X1Y66D02*
X8Y66D01*
X1391Y66D02*
X1398Y66D01*
X1Y65D02*
X8Y65D01*
X1391Y65D02*
X1398Y65D01*
X1Y64D02*
X8Y64D01*
X1391Y64D02*
X1398Y64D01*
X1Y63D02*
X8Y63D01*
X1391Y63D02*
X1398Y63D01*
X1Y62D02*
X8Y62D01*
X1391Y62D02*
X1398Y62D01*
X1Y61D02*
X8Y61D01*
X1391Y61D02*
X1398Y61D01*
X1Y60D02*
X8Y60D01*
X1391Y60D02*
X1398Y60D01*
X1Y59D02*
X8Y59D01*
X1391Y59D02*
X1398Y59D01*
X1Y58D02*
X8Y58D01*
X1391Y58D02*
X1398Y58D01*
X1Y57D02*
X8Y57D01*
X1391Y57D02*
X1398Y57D01*
X1Y56D02*
X8Y56D01*
X1391Y56D02*
X1398Y56D01*
X1Y55D02*
X8Y55D01*
X1391Y55D02*
X1398Y55D01*
X1Y54D02*
X8Y54D01*
X1391Y54D02*
X1398Y54D01*
X1Y53D02*
X8Y53D01*
X1391Y53D02*
X1398Y53D01*
X1Y52D02*
X8Y52D01*
X1391Y52D02*
X1398Y52D01*
X1Y51D02*
X8Y51D01*
X1391Y51D02*
X1398Y51D01*
X1Y50D02*
X8Y50D01*
X1391Y50D02*
X1398Y50D01*
X1Y49D02*
X8Y49D01*
X1391Y49D02*
X1398Y49D01*
X1Y48D02*
X8Y48D01*
X1391Y48D02*
X1398Y48D01*
X1Y47D02*
X8Y47D01*
X1391Y47D02*
X1398Y47D01*
X1Y46D02*
X8Y46D01*
X1391Y46D02*
X1398Y46D01*
X1Y45D02*
X8Y45D01*
X1391Y45D02*
X1398Y45D01*
X1Y44D02*
X8Y44D01*
X1391Y44D02*
X1398Y44D01*
X1Y43D02*
X8Y43D01*
X1391Y43D02*
X1398Y43D01*
X1Y42D02*
X8Y42D01*
X1391Y42D02*
X1398Y42D01*
X1Y41D02*
X8Y41D01*
X1391Y41D02*
X1398Y41D01*
X1Y40D02*
X8Y40D01*
X1391Y40D02*
X1398Y40D01*
X1Y39D02*
X8Y39D01*
X1391Y39D02*
X1398Y39D01*
X1Y38D02*
X8Y38D01*
X1391Y38D02*
X1398Y38D01*
X1Y37D02*
X8Y37D01*
X1391Y37D02*
X1398Y37D01*
X1Y36D02*
X8Y36D01*
X1391Y36D02*
X1398Y36D01*
X1Y35D02*
X8Y35D01*
X1391Y35D02*
X1398Y35D01*
X1Y34D02*
X8Y34D01*
X1391Y34D02*
X1398Y34D01*
X1Y33D02*
X8Y33D01*
X1391Y33D02*
X1398Y33D01*
X1Y32D02*
X8Y32D01*
X1391Y32D02*
X1398Y32D01*
X1Y31D02*
X8Y31D01*
X1391Y31D02*
X1398Y31D01*
X1Y30D02*
X8Y30D01*
X1391Y30D02*
X1398Y30D01*
X1Y29D02*
X8Y29D01*
X1391Y29D02*
X1398Y29D01*
X1Y28D02*
X8Y28D01*
X1391Y28D02*
X1398Y28D01*
X1Y27D02*
X8Y27D01*
X1391Y27D02*
X1398Y27D01*
X1Y26D02*
X8Y26D01*
X1391Y26D02*
X1398Y26D01*
X1Y25D02*
X8Y25D01*
X1391Y25D02*
X1398Y25D01*
X1Y24D02*
X8Y24D01*
X1391Y24D02*
X1398Y24D01*
X1Y23D02*
X8Y23D01*
X1391Y23D02*
X1398Y23D01*
X1Y22D02*
X8Y22D01*
X1391Y22D02*
X1398Y22D01*
X1Y21D02*
X8Y21D01*
X1391Y21D02*
X1398Y21D01*
X1Y20D02*
X8Y20D01*
X1391Y20D02*
X1398Y20D01*
X1Y19D02*
X8Y19D01*
X1391Y19D02*
X1398Y19D01*
X1Y18D02*
X8Y18D01*
X1391Y18D02*
X1398Y18D01*
X1Y17D02*
X8Y17D01*
X1391Y17D02*
X1398Y17D01*
X1Y16D02*
X8Y16D01*
X1391Y16D02*
X1398Y16D01*
X1Y15D02*
X8Y15D01*
X1391Y15D02*
X1398Y15D01*
X1Y14D02*
X8Y14D01*
X1391Y14D02*
X1398Y14D01*
X1Y13D02*
X8Y13D01*
X1391Y13D02*
X1398Y13D01*
X1Y12D02*
X8Y12D01*
X1391Y12D02*
X1398Y12D01*
X1Y11D02*
X8Y11D01*
X1391Y11D02*
X1398Y11D01*
X1Y10D02*
X8Y10D01*
X1391Y10D02*
X1398Y10D01*
X1Y9D02*
X8Y9D01*
X1391Y9D02*
X1398Y9D01*
X1Y8D02*
X1398Y8D01*
X1Y7D02*
X1398Y7D01*
X1Y6D02*
X1398Y6D01*
X1Y5D02*
X1398Y5D01*
X1Y4D02*
X1398Y4D01*
X1Y3D02*
X1398Y3D01*
X1Y2D02*
X1398Y2D01*
X1Y1D02*
X1398Y1D01*
D02*
G04 End of Silk1*
M02*