G04 MADE WITH FRITZING*
G04 WWW.FRITZING.ORG*
G04 SINGLE SIDED*
G04 HOLES NOT PLATED*
G04 CONTOUR ON CENTER OF CONTOUR VECTOR*
%ASAXBY*%
%FSLAX23Y23*%
%MOIN*%
%OFA0B0*%
%SFA1.0B1.0*%
%ADD10C,0.085000*%
%ADD11C,0.072992*%
%ADD12C,0.109583*%
%ADD13C,0.084000*%
%ADD14R,0.085000X0.085000*%
%ADD15R,0.072992X0.072992*%
%LNMASK0*%
G90*
G70*
G54D10*
X1400Y901D03*
X1300Y901D03*
X1600Y401D03*
X1500Y401D03*
G54D11*
X200Y899D03*
X200Y801D03*
G54D10*
X500Y1401D03*
X500Y1501D03*
X500Y1201D03*
X500Y1101D03*
G54D12*
X200Y1501D03*
X200Y1301D03*
X200Y1101D03*
G54D10*
X1300Y601D03*
X1300Y201D03*
X400Y201D03*
X400Y601D03*
X600Y601D03*
X600Y201D03*
X800Y601D03*
X1100Y601D03*
X800Y501D03*
X1100Y501D03*
X800Y401D03*
X1100Y401D03*
X800Y301D03*
X1100Y301D03*
X200Y201D03*
X200Y601D03*
G54D13*
X1050Y901D03*
X950Y901D03*
X850Y901D03*
G54D10*
X800Y1501D03*
X1100Y1501D03*
X800Y1401D03*
X1100Y1401D03*
X800Y1301D03*
X1100Y1301D03*
X800Y1201D03*
X1100Y1201D03*
G54D12*
X1500Y1301D03*
X1500Y1501D03*
G54D14*
X1400Y901D03*
X1600Y401D03*
G54D15*
X200Y899D03*
G54D14*
X500Y1401D03*
X500Y1201D03*
X800Y601D03*
X800Y1501D03*
G04 End of Mask0*
M02*