G04 MADE WITH FRITZING*
G04 WWW.FRITZING.ORG*
G04 SINGLE SIDED*
G04 HOLES NOT PLATED*
G04 CONTOUR ON CENTER OF CONTOUR VECTOR*
%ASAXBY*%
%FSLAX23Y23*%
%MOIN*%
%OFA0B0*%
%SFA1.0B1.0*%
%ADD10C,0.075000*%
%ADD11C,0.062992*%
%ADD12C,0.099583*%
%ADD13C,0.074000*%
%ADD14R,0.075000X0.075000*%
%ADD15R,0.062992X0.062992*%
%ADD16C,0.032000*%
%ADD17C,0.024000*%
%LNCOPPER0*%
G90*
G70*
G54D10*
X1400Y901D03*
X1300Y901D03*
X1600Y401D03*
X1500Y401D03*
G54D11*
X200Y899D03*
X200Y801D03*
G54D10*
X500Y1401D03*
X500Y1501D03*
X500Y1201D03*
X500Y1101D03*
G54D12*
X200Y1501D03*
X200Y1301D03*
X200Y1101D03*
G54D10*
X1300Y601D03*
X1300Y201D03*
X400Y201D03*
X400Y601D03*
X600Y601D03*
X600Y201D03*
X800Y601D03*
X1100Y601D03*
X800Y501D03*
X1100Y501D03*
X800Y401D03*
X1100Y401D03*
X800Y301D03*
X1100Y301D03*
X200Y201D03*
X200Y601D03*
G54D13*
X1050Y901D03*
X950Y901D03*
X850Y901D03*
G54D10*
X800Y1501D03*
X1100Y1501D03*
X800Y1401D03*
X1100Y1401D03*
X800Y1301D03*
X1100Y1301D03*
X800Y1201D03*
X1100Y1201D03*
G54D12*
X1500Y1301D03*
X1500Y1501D03*
G54D14*
X1400Y901D03*
X1600Y401D03*
G54D15*
X200Y899D03*
G54D14*
X500Y1401D03*
X500Y1201D03*
X800Y601D03*
X800Y1501D03*
G54D16*
X1501Y1001D02*
X1412Y913D01*
D02*
X1500Y1272D02*
X1501Y1001D01*
G54D17*
D02*
X1600Y202D02*
X1600Y383D01*
D02*
X1499Y101D02*
X1600Y202D01*
G54D16*
D02*
X799Y1002D02*
X800Y1183D01*
D02*
X841Y919D02*
X799Y1002D01*
D02*
X900Y1301D02*
X818Y1301D01*
D02*
X901Y1000D02*
X900Y1301D01*
D02*
X941Y919D02*
X901Y1000D01*
D02*
X1000Y801D02*
X1041Y883D01*
D02*
X1001Y400D02*
X1000Y801D01*
D02*
X1401Y1601D02*
X1480Y1521D01*
D02*
X1400Y601D02*
X1318Y601D01*
D02*
X1601Y800D02*
X1400Y601D01*
D02*
X1601Y1400D02*
X1601Y800D01*
D02*
X1521Y1480D02*
X1601Y1400D01*
D02*
X1299Y402D02*
X1200Y501D01*
D02*
X1200Y501D02*
X1118Y501D01*
D02*
X1300Y218D02*
X1299Y402D01*
D02*
X600Y602D02*
X600Y602D01*
D02*
X701Y501D02*
X600Y602D01*
D02*
X783Y501D02*
X701Y501D01*
D02*
X301Y701D02*
X388Y613D01*
D02*
X301Y902D02*
X301Y701D01*
D02*
X216Y900D02*
X301Y902D01*
D02*
X1299Y402D02*
X1483Y401D01*
D02*
X501Y1301D02*
X500Y1383D01*
D02*
X500Y1218D02*
X501Y1301D01*
D02*
X501Y1301D02*
X229Y1301D01*
D02*
X700Y1200D02*
X783Y1201D01*
D02*
X599Y1301D02*
X700Y1200D01*
D02*
X501Y1301D02*
X599Y1301D01*
D02*
X700Y1400D02*
X783Y1401D01*
D02*
X599Y1301D02*
X700Y1400D01*
D02*
X483Y1501D02*
X229Y1501D01*
D02*
X483Y1101D02*
X229Y1101D01*
D02*
X899Y1400D02*
X999Y1300D01*
D02*
X999Y1300D02*
X1083Y1301D01*
D02*
X900Y1600D02*
X899Y1400D01*
D02*
X700Y1600D02*
X900Y1600D01*
D02*
X599Y1501D02*
X700Y1600D01*
D02*
X518Y1501D02*
X599Y1501D01*
D02*
X101Y1200D02*
X180Y1280D01*
D02*
X101Y800D02*
X101Y1000D01*
D02*
X101Y1000D02*
X101Y1200D01*
D02*
X184Y801D02*
X101Y800D01*
D02*
X200Y618D02*
X200Y785D01*
D02*
X418Y601D02*
X583Y601D01*
D02*
X900Y701D02*
X899Y300D01*
D02*
X899Y300D02*
X817Y301D01*
D02*
X499Y902D02*
X600Y801D01*
D02*
X799Y800D02*
X900Y701D01*
D02*
X600Y801D02*
X799Y800D01*
D02*
X500Y1083D02*
X499Y902D01*
D02*
X199Y300D02*
X200Y218D01*
D02*
X300Y400D02*
X199Y300D01*
D02*
X783Y401D02*
X300Y400D01*
D02*
X1000Y300D02*
X899Y200D01*
D02*
X1001Y400D02*
X1000Y300D01*
D02*
X899Y200D02*
X618Y201D01*
D02*
X1083Y401D02*
X1001Y400D01*
D02*
X900Y1600D02*
X1401Y1601D01*
D02*
X1100Y1102D02*
X1288Y913D01*
D02*
X1100Y1183D02*
X1100Y1102D01*
D02*
X501Y100D02*
X412Y188D01*
D02*
X1499Y101D02*
X501Y100D01*
G04 End of Copper0*
M02*