G04 MADE WITH FRITZING*
G04 WWW.FRITZING.ORG*
G04 SINGLE SIDED*
G04 HOLES NOT PLATED*
G04 CONTOUR ON CENTER OF CONTOUR VECTOR*
%ASAXBY*%
%FSLAX23Y23*%
%MOIN*%
%OFA0B0*%
%SFA1.0B1.0*%
%ADD10C,0.210000X0.19*%
%ADD11R,1.700790X1.700790X1.684790X1.684790*%
%ADD12C,0.008000*%
%ADD13C,0.006944*%
%ADD14C,0.013889*%
%ADD15C,0.010000*%
%ADD16C,0.009722*%
%ADD17R,0.001000X0.001000*%
%LNSILK1*%
G90*
G70*
G54D10*
X1350Y901D03*
X1550Y401D03*
X500Y1451D03*
X500Y1151D03*
G54D12*
X4Y1697D02*
X1697Y1697D01*
X1697Y4D01*
X4Y4D01*
X4Y1697D01*
D02*
G54D13*
X354Y1601D02*
X354Y1001D01*
D02*
X47Y1601D02*
X354Y1601D01*
D02*
X46Y1001D02*
X318Y1001D01*
D02*
X47Y1462D02*
X47Y1340D01*
D02*
X46Y1261D02*
X46Y1140D01*
D02*
X47Y1601D02*
X47Y1540D01*
D02*
X46Y1061D02*
X46Y1001D01*
G54D14*
D02*
X342Y1609D02*
X318Y1609D01*
G54D13*
D02*
X354Y1001D02*
X342Y1001D01*
G54D15*
D02*
X1300Y563D02*
X1300Y491D01*
D02*
X1300Y291D02*
X1300Y238D01*
D02*
X1333Y491D02*
X1333Y291D01*
D02*
X1333Y291D02*
X1267Y291D01*
D02*
X1267Y291D02*
X1267Y491D01*
D02*
X1267Y491D02*
X1333Y491D01*
D02*
X400Y238D02*
X400Y310D01*
D02*
X400Y510D02*
X400Y563D01*
D02*
X367Y310D02*
X367Y510D01*
D02*
X367Y510D02*
X433Y510D01*
D02*
X433Y510D02*
X433Y310D01*
D02*
X433Y310D02*
X367Y310D01*
D02*
X600Y563D02*
X600Y491D01*
D02*
X600Y291D02*
X600Y238D01*
D02*
X633Y491D02*
X633Y291D01*
D02*
X633Y291D02*
X567Y291D01*
D02*
X567Y291D02*
X567Y491D01*
D02*
X567Y491D02*
X633Y491D01*
D02*
X750Y651D02*
X750Y251D01*
X750Y251D02*
X1150Y251D01*
X1150Y251D02*
X1150Y651D01*
D02*
X750Y651D02*
X900Y651D01*
D02*
X1000Y651D02*
X1150Y651D01*
D02*
X200Y238D02*
X200Y310D01*
D02*
X200Y510D02*
X200Y563D01*
D02*
X167Y310D02*
X167Y510D01*
D02*
X167Y510D02*
X233Y510D01*
D02*
X233Y510D02*
X233Y310D01*
D02*
X233Y310D02*
X167Y310D01*
G54D16*
D02*
X1137Y1000D02*
X763Y1000D01*
D02*
X763Y1000D02*
X763Y803D01*
D02*
X763Y803D02*
X1137Y803D01*
D02*
X1137Y803D02*
X1137Y1000D01*
G54D15*
D02*
X750Y1551D02*
X750Y1151D01*
X750Y1151D02*
X1150Y1151D01*
X1150Y1151D02*
X1150Y1551D01*
D02*
X750Y1551D02*
X900Y1551D01*
D02*
X1000Y1551D02*
X1150Y1551D01*
G54D13*
D02*
X1346Y1201D02*
X1346Y1601D01*
D02*
X1654Y1201D02*
X1346Y1201D01*
D02*
X1654Y1601D02*
X1382Y1601D01*
D02*
X1654Y1340D02*
X1654Y1461D01*
D02*
X1654Y1540D02*
X1654Y1601D01*
D02*
X1654Y1201D02*
X1654Y1261D01*
D02*
X1346Y1601D02*
X1358Y1601D01*
G54D14*
D02*
X1358Y1193D02*
X1382Y1193D01*
G54D17*
X879Y1623D02*
X884Y1623D01*
X910Y1623D02*
X915Y1623D01*
X935Y1623D02*
X958Y1623D01*
X992Y1623D02*
X1007Y1623D01*
X1038Y1623D02*
X1057Y1623D01*
X830Y1622D02*
X834Y1622D01*
X877Y1622D02*
X886Y1622D01*
X908Y1622D02*
X916Y1622D01*
X933Y1622D02*
X962Y1622D01*
X990Y1622D02*
X1009Y1622D01*
X1035Y1622D02*
X1060Y1622D01*
X829Y1621D02*
X834Y1621D01*
X877Y1621D02*
X886Y1621D01*
X908Y1621D02*
X917Y1621D01*
X932Y1621D02*
X963Y1621D01*
X989Y1621D02*
X1010Y1621D01*
X1035Y1621D02*
X1061Y1621D01*
X829Y1620D02*
X835Y1620D01*
X877Y1620D02*
X887Y1620D01*
X907Y1620D02*
X917Y1620D01*
X932Y1620D02*
X964Y1620D01*
X989Y1620D02*
X1010Y1620D01*
X1034Y1620D02*
X1061Y1620D01*
X469Y1619D02*
X486Y1619D01*
X507Y1619D02*
X525Y1619D01*
X829Y1619D02*
X835Y1619D01*
X877Y1619D02*
X887Y1619D01*
X907Y1619D02*
X917Y1619D01*
X932Y1619D02*
X964Y1619D01*
X989Y1619D02*
X1010Y1619D01*
X1034Y1619D02*
X1061Y1619D01*
X467Y1618D02*
X487Y1618D01*
X506Y1618D02*
X525Y1618D01*
X829Y1618D02*
X835Y1618D01*
X877Y1618D02*
X888Y1618D01*
X906Y1618D02*
X917Y1618D01*
X932Y1618D02*
X965Y1618D01*
X989Y1618D02*
X1010Y1618D01*
X1034Y1618D02*
X1060Y1618D01*
X466Y1617D02*
X488Y1617D01*
X506Y1617D02*
X525Y1617D01*
X829Y1617D02*
X835Y1617D01*
X877Y1617D02*
X888Y1617D01*
X906Y1617D02*
X917Y1617D01*
X933Y1617D02*
X965Y1617D01*
X989Y1617D02*
X1010Y1617D01*
X1034Y1617D02*
X1060Y1617D01*
X465Y1616D02*
X488Y1616D01*
X506Y1616D02*
X525Y1616D01*
X829Y1616D02*
X835Y1616D01*
X877Y1616D02*
X889Y1616D01*
X905Y1616D02*
X917Y1616D01*
X959Y1616D02*
X965Y1616D01*
X989Y1616D02*
X995Y1616D01*
X1004Y1616D02*
X1010Y1616D01*
X1034Y1616D02*
X1041Y1616D01*
X464Y1615D02*
X488Y1615D01*
X506Y1615D02*
X525Y1615D01*
X829Y1615D02*
X835Y1615D01*
X877Y1615D02*
X889Y1615D01*
X905Y1615D02*
X917Y1615D01*
X959Y1615D02*
X965Y1615D01*
X989Y1615D02*
X995Y1615D01*
X1004Y1615D02*
X1010Y1615D01*
X1034Y1615D02*
X1040Y1615D01*
X463Y1614D02*
X487Y1614D01*
X506Y1614D02*
X525Y1614D01*
X829Y1614D02*
X835Y1614D01*
X877Y1614D02*
X890Y1614D01*
X904Y1614D02*
X917Y1614D01*
X959Y1614D02*
X965Y1614D01*
X989Y1614D02*
X995Y1614D01*
X1004Y1614D02*
X1010Y1614D01*
X1034Y1614D02*
X1040Y1614D01*
X463Y1613D02*
X486Y1613D01*
X508Y1613D02*
X525Y1613D01*
X829Y1613D02*
X835Y1613D01*
X877Y1613D02*
X890Y1613D01*
X904Y1613D02*
X917Y1613D01*
X959Y1613D02*
X965Y1613D01*
X989Y1613D02*
X995Y1613D01*
X1004Y1613D02*
X1010Y1613D01*
X1034Y1613D02*
X1040Y1613D01*
X462Y1612D02*
X470Y1612D01*
X519Y1612D02*
X525Y1612D01*
X829Y1612D02*
X835Y1612D01*
X877Y1612D02*
X891Y1612D01*
X903Y1612D02*
X917Y1612D01*
X959Y1612D02*
X965Y1612D01*
X989Y1612D02*
X995Y1612D01*
X1004Y1612D02*
X1010Y1612D01*
X1034Y1612D02*
X1040Y1612D01*
X462Y1611D02*
X469Y1611D01*
X519Y1611D02*
X525Y1611D01*
X829Y1611D02*
X835Y1611D01*
X877Y1611D02*
X891Y1611D01*
X903Y1611D02*
X917Y1611D01*
X959Y1611D02*
X965Y1611D01*
X989Y1611D02*
X995Y1611D01*
X1004Y1611D02*
X1010Y1611D01*
X1034Y1611D02*
X1040Y1611D01*
X461Y1610D02*
X468Y1610D01*
X519Y1610D02*
X525Y1610D01*
X829Y1610D02*
X835Y1610D01*
X877Y1610D02*
X883Y1610D01*
X885Y1610D02*
X891Y1610D01*
X902Y1610D02*
X909Y1610D01*
X911Y1610D02*
X917Y1610D01*
X959Y1610D02*
X965Y1610D01*
X989Y1610D02*
X995Y1610D01*
X1004Y1610D02*
X1010Y1610D01*
X1034Y1610D02*
X1040Y1610D01*
X461Y1609D02*
X468Y1609D01*
X519Y1609D02*
X525Y1609D01*
X829Y1609D02*
X835Y1609D01*
X877Y1609D02*
X883Y1609D01*
X885Y1609D02*
X892Y1609D01*
X902Y1609D02*
X909Y1609D01*
X911Y1609D02*
X917Y1609D01*
X959Y1609D02*
X965Y1609D01*
X989Y1609D02*
X995Y1609D01*
X1004Y1609D02*
X1010Y1609D01*
X1034Y1609D02*
X1040Y1609D01*
X460Y1608D02*
X467Y1608D01*
X519Y1608D02*
X525Y1608D01*
X829Y1608D02*
X835Y1608D01*
X877Y1608D02*
X883Y1608D01*
X886Y1608D02*
X892Y1608D01*
X901Y1608D02*
X908Y1608D01*
X911Y1608D02*
X917Y1608D01*
X959Y1608D02*
X965Y1608D01*
X989Y1608D02*
X995Y1608D01*
X1004Y1608D02*
X1010Y1608D01*
X1034Y1608D02*
X1040Y1608D01*
X460Y1607D02*
X467Y1607D01*
X519Y1607D02*
X525Y1607D01*
X829Y1607D02*
X835Y1607D01*
X877Y1607D02*
X883Y1607D01*
X886Y1607D02*
X893Y1607D01*
X901Y1607D02*
X908Y1607D01*
X911Y1607D02*
X917Y1607D01*
X959Y1607D02*
X965Y1607D01*
X989Y1607D02*
X995Y1607D01*
X1004Y1607D02*
X1010Y1607D01*
X1034Y1607D02*
X1040Y1607D01*
X459Y1606D02*
X466Y1606D01*
X519Y1606D02*
X525Y1606D01*
X829Y1606D02*
X835Y1606D01*
X877Y1606D02*
X883Y1606D01*
X887Y1606D02*
X893Y1606D01*
X900Y1606D02*
X907Y1606D01*
X911Y1606D02*
X917Y1606D01*
X959Y1606D02*
X965Y1606D01*
X989Y1606D02*
X995Y1606D01*
X1004Y1606D02*
X1010Y1606D01*
X1034Y1606D02*
X1040Y1606D01*
X459Y1605D02*
X466Y1605D01*
X519Y1605D02*
X525Y1605D01*
X829Y1605D02*
X835Y1605D01*
X877Y1605D02*
X883Y1605D01*
X887Y1605D02*
X894Y1605D01*
X900Y1605D02*
X907Y1605D01*
X911Y1605D02*
X917Y1605D01*
X959Y1605D02*
X965Y1605D01*
X989Y1605D02*
X995Y1605D01*
X1004Y1605D02*
X1010Y1605D01*
X1034Y1605D02*
X1040Y1605D01*
X458Y1604D02*
X465Y1604D01*
X519Y1604D02*
X525Y1604D01*
X829Y1604D02*
X835Y1604D01*
X877Y1604D02*
X883Y1604D01*
X888Y1604D02*
X894Y1604D01*
X899Y1604D02*
X906Y1604D01*
X911Y1604D02*
X917Y1604D01*
X959Y1604D02*
X965Y1604D01*
X989Y1604D02*
X995Y1604D01*
X1004Y1604D02*
X1010Y1604D01*
X1034Y1604D02*
X1040Y1604D01*
X458Y1603D02*
X465Y1603D01*
X519Y1603D02*
X525Y1603D01*
X829Y1603D02*
X835Y1603D01*
X877Y1603D02*
X883Y1603D01*
X888Y1603D02*
X895Y1603D01*
X899Y1603D02*
X906Y1603D01*
X911Y1603D02*
X917Y1603D01*
X959Y1603D02*
X965Y1603D01*
X989Y1603D02*
X995Y1603D01*
X1004Y1603D02*
X1010Y1603D01*
X1034Y1603D02*
X1040Y1603D01*
X457Y1602D02*
X464Y1602D01*
X519Y1602D02*
X525Y1602D01*
X829Y1602D02*
X835Y1602D01*
X877Y1602D02*
X883Y1602D01*
X889Y1602D02*
X895Y1602D01*
X898Y1602D02*
X905Y1602D01*
X911Y1602D02*
X917Y1602D01*
X959Y1602D02*
X965Y1602D01*
X989Y1602D02*
X995Y1602D01*
X1004Y1602D02*
X1010Y1602D01*
X1034Y1602D02*
X1040Y1602D01*
X457Y1601D02*
X464Y1601D01*
X519Y1601D02*
X525Y1601D01*
X829Y1601D02*
X835Y1601D01*
X877Y1601D02*
X883Y1601D01*
X889Y1601D02*
X896Y1601D01*
X898Y1601D02*
X905Y1601D01*
X911Y1601D02*
X917Y1601D01*
X958Y1601D02*
X965Y1601D01*
X989Y1601D02*
X995Y1601D01*
X1004Y1601D02*
X1010Y1601D01*
X1034Y1601D02*
X1040Y1601D01*
X456Y1600D02*
X463Y1600D01*
X519Y1600D02*
X525Y1600D01*
X829Y1600D02*
X835Y1600D01*
X877Y1600D02*
X883Y1600D01*
X889Y1600D02*
X904Y1600D01*
X911Y1600D02*
X917Y1600D01*
X957Y1600D02*
X965Y1600D01*
X989Y1600D02*
X995Y1600D01*
X1004Y1600D02*
X1010Y1600D01*
X1034Y1600D02*
X1040Y1600D01*
X456Y1599D02*
X462Y1599D01*
X519Y1599D02*
X525Y1599D01*
X829Y1599D02*
X835Y1599D01*
X877Y1599D02*
X883Y1599D01*
X890Y1599D02*
X904Y1599D01*
X911Y1599D02*
X917Y1599D01*
X940Y1599D02*
X964Y1599D01*
X987Y1599D02*
X1012Y1599D01*
X1034Y1599D02*
X1040Y1599D01*
X455Y1598D02*
X462Y1598D01*
X519Y1598D02*
X525Y1598D01*
X829Y1598D02*
X835Y1598D01*
X877Y1598D02*
X883Y1598D01*
X890Y1598D02*
X903Y1598D01*
X911Y1598D02*
X917Y1598D01*
X939Y1598D02*
X964Y1598D01*
X985Y1598D02*
X1014Y1598D01*
X1034Y1598D02*
X1040Y1598D01*
X455Y1597D02*
X461Y1597D01*
X519Y1597D02*
X525Y1597D01*
X829Y1597D02*
X835Y1597D01*
X877Y1597D02*
X883Y1597D01*
X891Y1597D02*
X903Y1597D01*
X911Y1597D02*
X917Y1597D01*
X939Y1597D02*
X963Y1597D01*
X984Y1597D02*
X1015Y1597D01*
X1034Y1597D02*
X1040Y1597D01*
X455Y1596D02*
X461Y1596D01*
X519Y1596D02*
X525Y1596D01*
X829Y1596D02*
X835Y1596D01*
X877Y1596D02*
X883Y1596D01*
X891Y1596D02*
X902Y1596D01*
X911Y1596D02*
X917Y1596D01*
X938Y1596D02*
X963Y1596D01*
X984Y1596D02*
X1016Y1596D01*
X1034Y1596D02*
X1040Y1596D01*
X455Y1595D02*
X461Y1595D01*
X519Y1595D02*
X525Y1595D01*
X829Y1595D02*
X835Y1595D01*
X877Y1595D02*
X883Y1595D01*
X892Y1595D02*
X902Y1595D01*
X911Y1595D02*
X917Y1595D01*
X939Y1595D02*
X963Y1595D01*
X983Y1595D02*
X1016Y1595D01*
X1034Y1595D02*
X1066Y1595D01*
X454Y1594D02*
X461Y1594D01*
X519Y1594D02*
X525Y1594D01*
X829Y1594D02*
X835Y1594D01*
X877Y1594D02*
X883Y1594D01*
X892Y1594D02*
X901Y1594D01*
X911Y1594D02*
X917Y1594D01*
X939Y1594D02*
X964Y1594D01*
X983Y1594D02*
X1016Y1594D01*
X1034Y1594D02*
X1067Y1594D01*
X454Y1593D02*
X460Y1593D01*
X519Y1593D02*
X525Y1593D01*
X829Y1593D02*
X835Y1593D01*
X877Y1593D02*
X883Y1593D01*
X893Y1593D02*
X901Y1593D01*
X911Y1593D02*
X917Y1593D01*
X940Y1593D02*
X964Y1593D01*
X983Y1593D02*
X1016Y1593D01*
X1034Y1593D02*
X1068Y1593D01*
X454Y1592D02*
X460Y1592D01*
X519Y1592D02*
X525Y1592D01*
X829Y1592D02*
X835Y1592D01*
X877Y1592D02*
X883Y1592D01*
X893Y1592D02*
X900Y1592D01*
X911Y1592D02*
X917Y1592D01*
X957Y1592D02*
X965Y1592D01*
X983Y1592D02*
X989Y1592D01*
X1010Y1592D02*
X1016Y1592D01*
X1034Y1592D02*
X1068Y1592D01*
X455Y1591D02*
X461Y1591D01*
X519Y1591D02*
X525Y1591D01*
X829Y1591D02*
X835Y1591D01*
X877Y1591D02*
X883Y1591D01*
X894Y1591D02*
X900Y1591D01*
X911Y1591D02*
X917Y1591D01*
X958Y1591D02*
X965Y1591D01*
X983Y1591D02*
X989Y1591D01*
X1010Y1591D02*
X1016Y1591D01*
X1034Y1591D02*
X1068Y1591D01*
X455Y1590D02*
X461Y1590D01*
X519Y1590D02*
X525Y1590D01*
X829Y1590D02*
X835Y1590D01*
X877Y1590D02*
X883Y1590D01*
X894Y1590D02*
X899Y1590D01*
X911Y1590D02*
X917Y1590D01*
X959Y1590D02*
X965Y1590D01*
X983Y1590D02*
X989Y1590D01*
X1010Y1590D02*
X1016Y1590D01*
X1034Y1590D02*
X1068Y1590D01*
X455Y1589D02*
X461Y1589D01*
X519Y1589D02*
X525Y1589D01*
X829Y1589D02*
X835Y1589D01*
X877Y1589D02*
X883Y1589D01*
X895Y1589D02*
X899Y1589D01*
X911Y1589D02*
X917Y1589D01*
X959Y1589D02*
X965Y1589D01*
X983Y1589D02*
X989Y1589D01*
X1010Y1589D02*
X1016Y1589D01*
X1034Y1589D02*
X1068Y1589D01*
X455Y1588D02*
X462Y1588D01*
X519Y1588D02*
X525Y1588D01*
X829Y1588D02*
X835Y1588D01*
X877Y1588D02*
X883Y1588D01*
X896Y1588D02*
X898Y1588D01*
X911Y1588D02*
X917Y1588D01*
X959Y1588D02*
X965Y1588D01*
X983Y1588D02*
X989Y1588D01*
X1010Y1588D02*
X1016Y1588D01*
X1034Y1588D02*
X1040Y1588D01*
X1062Y1588D02*
X1068Y1588D01*
X456Y1587D02*
X462Y1587D01*
X519Y1587D02*
X525Y1587D01*
X829Y1587D02*
X835Y1587D01*
X877Y1587D02*
X883Y1587D01*
X911Y1587D02*
X917Y1587D01*
X959Y1587D02*
X965Y1587D01*
X983Y1587D02*
X989Y1587D01*
X1010Y1587D02*
X1016Y1587D01*
X1034Y1587D02*
X1040Y1587D01*
X1062Y1587D02*
X1068Y1587D01*
X456Y1586D02*
X463Y1586D01*
X519Y1586D02*
X525Y1586D01*
X535Y1586D02*
X537Y1586D01*
X829Y1586D02*
X835Y1586D01*
X877Y1586D02*
X883Y1586D01*
X911Y1586D02*
X917Y1586D01*
X959Y1586D02*
X965Y1586D01*
X983Y1586D02*
X989Y1586D01*
X1010Y1586D02*
X1016Y1586D01*
X1034Y1586D02*
X1040Y1586D01*
X1062Y1586D02*
X1068Y1586D01*
X456Y1585D02*
X463Y1585D01*
X519Y1585D02*
X525Y1585D01*
X534Y1585D02*
X539Y1585D01*
X829Y1585D02*
X835Y1585D01*
X877Y1585D02*
X883Y1585D01*
X911Y1585D02*
X917Y1585D01*
X959Y1585D02*
X965Y1585D01*
X983Y1585D02*
X989Y1585D01*
X1010Y1585D02*
X1016Y1585D01*
X1034Y1585D02*
X1040Y1585D01*
X1062Y1585D02*
X1068Y1585D01*
X457Y1584D02*
X464Y1584D01*
X519Y1584D02*
X525Y1584D01*
X533Y1584D02*
X539Y1584D01*
X829Y1584D02*
X835Y1584D01*
X877Y1584D02*
X883Y1584D01*
X911Y1584D02*
X917Y1584D01*
X959Y1584D02*
X965Y1584D01*
X983Y1584D02*
X989Y1584D01*
X1010Y1584D02*
X1016Y1584D01*
X1034Y1584D02*
X1040Y1584D01*
X1062Y1584D02*
X1068Y1584D01*
X457Y1583D02*
X464Y1583D01*
X519Y1583D02*
X525Y1583D01*
X533Y1583D02*
X539Y1583D01*
X829Y1583D02*
X835Y1583D01*
X877Y1583D02*
X883Y1583D01*
X911Y1583D02*
X917Y1583D01*
X959Y1583D02*
X965Y1583D01*
X983Y1583D02*
X989Y1583D01*
X1010Y1583D02*
X1016Y1583D01*
X1034Y1583D02*
X1040Y1583D01*
X1062Y1583D02*
X1068Y1583D01*
X458Y1582D02*
X465Y1582D01*
X519Y1582D02*
X525Y1582D01*
X533Y1582D02*
X539Y1582D01*
X829Y1582D02*
X835Y1582D01*
X877Y1582D02*
X883Y1582D01*
X911Y1582D02*
X917Y1582D01*
X959Y1582D02*
X965Y1582D01*
X983Y1582D02*
X989Y1582D01*
X1010Y1582D02*
X1016Y1582D01*
X1034Y1582D02*
X1040Y1582D01*
X1062Y1582D02*
X1068Y1582D01*
X458Y1581D02*
X465Y1581D01*
X519Y1581D02*
X525Y1581D01*
X533Y1581D02*
X539Y1581D01*
X829Y1581D02*
X835Y1581D01*
X877Y1581D02*
X883Y1581D01*
X911Y1581D02*
X917Y1581D01*
X959Y1581D02*
X965Y1581D01*
X983Y1581D02*
X989Y1581D01*
X1010Y1581D02*
X1016Y1581D01*
X1034Y1581D02*
X1040Y1581D01*
X1062Y1581D02*
X1068Y1581D01*
X459Y1580D02*
X466Y1580D01*
X519Y1580D02*
X525Y1580D01*
X533Y1580D02*
X539Y1580D01*
X829Y1580D02*
X835Y1580D01*
X877Y1580D02*
X883Y1580D01*
X911Y1580D02*
X917Y1580D01*
X959Y1580D02*
X965Y1580D01*
X983Y1580D02*
X989Y1580D01*
X1010Y1580D02*
X1016Y1580D01*
X1034Y1580D02*
X1040Y1580D01*
X1062Y1580D02*
X1068Y1580D01*
X459Y1579D02*
X466Y1579D01*
X519Y1579D02*
X525Y1579D01*
X533Y1579D02*
X539Y1579D01*
X829Y1579D02*
X835Y1579D01*
X877Y1579D02*
X883Y1579D01*
X911Y1579D02*
X917Y1579D01*
X959Y1579D02*
X965Y1579D01*
X983Y1579D02*
X989Y1579D01*
X1010Y1579D02*
X1016Y1579D01*
X1034Y1579D02*
X1040Y1579D01*
X1062Y1579D02*
X1068Y1579D01*
X460Y1578D02*
X467Y1578D01*
X519Y1578D02*
X525Y1578D01*
X533Y1578D02*
X539Y1578D01*
X829Y1578D02*
X835Y1578D01*
X877Y1578D02*
X883Y1578D01*
X911Y1578D02*
X917Y1578D01*
X959Y1578D02*
X965Y1578D01*
X983Y1578D02*
X989Y1578D01*
X1010Y1578D02*
X1016Y1578D01*
X1034Y1578D02*
X1040Y1578D01*
X1062Y1578D02*
X1068Y1578D01*
X460Y1577D02*
X467Y1577D01*
X519Y1577D02*
X525Y1577D01*
X533Y1577D02*
X539Y1577D01*
X829Y1577D02*
X835Y1577D01*
X877Y1577D02*
X883Y1577D01*
X911Y1577D02*
X917Y1577D01*
X959Y1577D02*
X965Y1577D01*
X983Y1577D02*
X989Y1577D01*
X1010Y1577D02*
X1016Y1577D01*
X1034Y1577D02*
X1040Y1577D01*
X1062Y1577D02*
X1068Y1577D01*
X461Y1576D02*
X468Y1576D01*
X519Y1576D02*
X525Y1576D01*
X533Y1576D02*
X539Y1576D01*
X829Y1576D02*
X835Y1576D01*
X877Y1576D02*
X883Y1576D01*
X911Y1576D02*
X917Y1576D01*
X959Y1576D02*
X965Y1576D01*
X983Y1576D02*
X989Y1576D01*
X1010Y1576D02*
X1016Y1576D01*
X1034Y1576D02*
X1041Y1576D01*
X1062Y1576D02*
X1068Y1576D01*
X461Y1575D02*
X468Y1575D01*
X519Y1575D02*
X525Y1575D01*
X533Y1575D02*
X539Y1575D01*
X829Y1575D02*
X861Y1575D01*
X877Y1575D02*
X883Y1575D01*
X911Y1575D02*
X917Y1575D01*
X933Y1575D02*
X965Y1575D01*
X983Y1575D02*
X1016Y1575D01*
X1034Y1575D02*
X1068Y1575D01*
X462Y1574D02*
X469Y1574D01*
X519Y1574D02*
X525Y1574D01*
X533Y1574D02*
X539Y1574D01*
X829Y1574D02*
X862Y1574D01*
X877Y1574D02*
X883Y1574D01*
X911Y1574D02*
X917Y1574D01*
X932Y1574D02*
X965Y1574D01*
X983Y1574D02*
X1016Y1574D01*
X1034Y1574D02*
X1068Y1574D01*
X462Y1573D02*
X470Y1573D01*
X519Y1573D02*
X525Y1573D01*
X533Y1573D02*
X539Y1573D01*
X829Y1573D02*
X862Y1573D01*
X877Y1573D02*
X883Y1573D01*
X911Y1573D02*
X917Y1573D01*
X932Y1573D02*
X964Y1573D01*
X984Y1573D02*
X1016Y1573D01*
X1034Y1573D02*
X1068Y1573D01*
X463Y1572D02*
X486Y1572D01*
X507Y1572D02*
X539Y1572D01*
X829Y1572D02*
X862Y1572D01*
X877Y1572D02*
X883Y1572D01*
X911Y1572D02*
X917Y1572D01*
X932Y1572D02*
X964Y1572D01*
X984Y1572D02*
X1015Y1572D01*
X1034Y1572D02*
X1068Y1572D01*
X463Y1571D02*
X487Y1571D01*
X506Y1571D02*
X539Y1571D01*
X829Y1571D02*
X862Y1571D01*
X878Y1571D02*
X883Y1571D01*
X911Y1571D02*
X916Y1571D01*
X932Y1571D02*
X963Y1571D01*
X985Y1571D02*
X1014Y1571D01*
X1035Y1571D02*
X1067Y1571D01*
X464Y1570D02*
X488Y1570D01*
X506Y1570D02*
X539Y1570D01*
X829Y1570D02*
X861Y1570D01*
X878Y1570D02*
X882Y1570D01*
X912Y1570D02*
X916Y1570D01*
X933Y1570D02*
X962Y1570D01*
X986Y1570D02*
X1013Y1570D01*
X1035Y1570D02*
X1067Y1570D01*
X465Y1569D02*
X488Y1569D01*
X506Y1569D02*
X539Y1569D01*
X830Y1569D02*
X859Y1569D01*
X880Y1569D02*
X880Y1569D01*
X914Y1569D02*
X914Y1569D01*
X934Y1569D02*
X959Y1569D01*
X989Y1569D02*
X1010Y1569D01*
X1037Y1569D02*
X1065Y1569D01*
X466Y1568D02*
X488Y1568D01*
X506Y1568D02*
X539Y1568D01*
X467Y1567D02*
X487Y1567D01*
X506Y1567D02*
X538Y1567D01*
X469Y1566D02*
X486Y1566D01*
X508Y1566D02*
X537Y1566D01*
X1279Y1453D02*
X1298Y1453D01*
X1305Y1453D02*
X1324Y1453D01*
X1278Y1452D02*
X1300Y1452D01*
X1303Y1452D02*
X1326Y1452D01*
X1277Y1451D02*
X1327Y1451D01*
X1276Y1450D02*
X1327Y1450D01*
X1276Y1449D02*
X1328Y1449D01*
X1275Y1448D02*
X1328Y1448D01*
X1275Y1447D02*
X1328Y1447D01*
X1275Y1446D02*
X1281Y1446D01*
X1297Y1446D02*
X1306Y1446D01*
X1322Y1446D02*
X1328Y1446D01*
X1275Y1445D02*
X1281Y1445D01*
X1298Y1445D02*
X1305Y1445D01*
X1322Y1445D02*
X1328Y1445D01*
X1275Y1444D02*
X1281Y1444D01*
X1298Y1444D02*
X1305Y1444D01*
X1322Y1444D02*
X1328Y1444D01*
X1275Y1443D02*
X1281Y1443D01*
X1299Y1443D02*
X1305Y1443D01*
X1322Y1443D02*
X1328Y1443D01*
X1275Y1442D02*
X1281Y1442D01*
X1299Y1442D02*
X1305Y1442D01*
X1322Y1442D02*
X1328Y1442D01*
X1275Y1441D02*
X1281Y1441D01*
X1299Y1441D02*
X1305Y1441D01*
X1322Y1441D02*
X1328Y1441D01*
X1275Y1440D02*
X1281Y1440D01*
X1299Y1440D02*
X1305Y1440D01*
X1322Y1440D02*
X1328Y1440D01*
X1275Y1439D02*
X1281Y1439D01*
X1299Y1439D02*
X1305Y1439D01*
X1322Y1439D02*
X1328Y1439D01*
X1275Y1438D02*
X1281Y1438D01*
X1299Y1438D02*
X1305Y1438D01*
X1322Y1438D02*
X1328Y1438D01*
X1275Y1437D02*
X1281Y1437D01*
X1299Y1437D02*
X1305Y1437D01*
X1322Y1437D02*
X1328Y1437D01*
X1275Y1436D02*
X1281Y1436D01*
X1299Y1436D02*
X1305Y1436D01*
X1322Y1436D02*
X1328Y1436D01*
X1275Y1435D02*
X1281Y1435D01*
X1299Y1435D02*
X1305Y1435D01*
X1322Y1435D02*
X1328Y1435D01*
X1275Y1434D02*
X1281Y1434D01*
X1299Y1434D02*
X1305Y1434D01*
X1322Y1434D02*
X1328Y1434D01*
X1275Y1433D02*
X1281Y1433D01*
X1299Y1433D02*
X1305Y1433D01*
X1322Y1433D02*
X1328Y1433D01*
X1275Y1432D02*
X1281Y1432D01*
X1299Y1432D02*
X1305Y1432D01*
X1322Y1432D02*
X1328Y1432D01*
X1275Y1431D02*
X1281Y1431D01*
X1299Y1431D02*
X1305Y1431D01*
X1322Y1431D02*
X1328Y1431D01*
X1275Y1430D02*
X1281Y1430D01*
X1299Y1430D02*
X1305Y1430D01*
X1322Y1430D02*
X1328Y1430D01*
X1275Y1429D02*
X1281Y1429D01*
X1299Y1429D02*
X1305Y1429D01*
X1322Y1429D02*
X1328Y1429D01*
X1275Y1428D02*
X1281Y1428D01*
X1299Y1428D02*
X1304Y1428D01*
X1322Y1428D02*
X1328Y1428D01*
X1275Y1427D02*
X1281Y1427D01*
X1300Y1427D02*
X1303Y1427D01*
X1322Y1427D02*
X1328Y1427D01*
X1275Y1426D02*
X1281Y1426D01*
X1322Y1426D02*
X1328Y1426D01*
X1275Y1425D02*
X1281Y1425D01*
X1322Y1425D02*
X1328Y1425D01*
X1275Y1424D02*
X1281Y1424D01*
X1322Y1424D02*
X1328Y1424D01*
X1275Y1423D02*
X1281Y1423D01*
X1322Y1423D02*
X1328Y1423D01*
X1275Y1422D02*
X1281Y1422D01*
X1322Y1422D02*
X1328Y1422D01*
X445Y1421D02*
X445Y1421D01*
X555Y1421D02*
X555Y1421D01*
X1276Y1421D02*
X1281Y1421D01*
X1323Y1421D02*
X1328Y1421D01*
X443Y1420D02*
X448Y1420D01*
X553Y1420D02*
X558Y1420D01*
X1277Y1420D02*
X1280Y1420D01*
X1324Y1420D02*
X1327Y1420D01*
X442Y1419D02*
X449Y1419D01*
X552Y1419D02*
X559Y1419D01*
X441Y1418D02*
X450Y1418D01*
X551Y1418D02*
X560Y1418D01*
X441Y1417D02*
X450Y1417D01*
X551Y1417D02*
X560Y1417D01*
X440Y1416D02*
X450Y1416D01*
X550Y1416D02*
X560Y1416D01*
X440Y1415D02*
X450Y1415D01*
X550Y1415D02*
X560Y1415D01*
X440Y1414D02*
X450Y1414D01*
X550Y1414D02*
X560Y1414D01*
X440Y1413D02*
X450Y1413D01*
X550Y1413D02*
X560Y1413D01*
X440Y1412D02*
X450Y1412D01*
X550Y1412D02*
X560Y1412D01*
X440Y1411D02*
X450Y1411D01*
X550Y1411D02*
X560Y1411D01*
X440Y1410D02*
X450Y1410D01*
X550Y1410D02*
X560Y1410D01*
X440Y1409D02*
X450Y1409D01*
X550Y1409D02*
X560Y1409D01*
X440Y1408D02*
X450Y1408D01*
X550Y1408D02*
X560Y1408D01*
X440Y1407D02*
X450Y1407D01*
X550Y1407D02*
X560Y1407D01*
X440Y1406D02*
X450Y1406D01*
X550Y1406D02*
X560Y1406D01*
X440Y1405D02*
X450Y1405D01*
X550Y1405D02*
X560Y1405D01*
X440Y1404D02*
X450Y1404D01*
X550Y1404D02*
X560Y1404D01*
X440Y1403D02*
X450Y1403D01*
X550Y1403D02*
X560Y1403D01*
X440Y1402D02*
X450Y1402D01*
X550Y1402D02*
X560Y1402D01*
X1277Y1402D02*
X1279Y1402D01*
X440Y1401D02*
X450Y1401D01*
X550Y1401D02*
X560Y1401D01*
X1276Y1401D02*
X1280Y1401D01*
X440Y1400D02*
X450Y1400D01*
X550Y1400D02*
X560Y1400D01*
X1275Y1400D02*
X1281Y1400D01*
X440Y1399D02*
X450Y1399D01*
X550Y1399D02*
X560Y1399D01*
X1275Y1399D02*
X1281Y1399D01*
X440Y1398D02*
X450Y1398D01*
X550Y1398D02*
X560Y1398D01*
X1275Y1398D02*
X1281Y1398D01*
X440Y1397D02*
X450Y1397D01*
X550Y1397D02*
X560Y1397D01*
X1275Y1397D02*
X1281Y1397D01*
X440Y1396D02*
X450Y1396D01*
X550Y1396D02*
X560Y1396D01*
X1275Y1396D02*
X1281Y1396D01*
X440Y1395D02*
X450Y1395D01*
X550Y1395D02*
X560Y1395D01*
X1275Y1395D02*
X1321Y1395D01*
X440Y1394D02*
X450Y1394D01*
X550Y1394D02*
X560Y1394D01*
X1275Y1394D02*
X1323Y1394D01*
X440Y1393D02*
X450Y1393D01*
X550Y1393D02*
X560Y1393D01*
X1275Y1393D02*
X1325Y1393D01*
X440Y1392D02*
X450Y1392D01*
X550Y1392D02*
X560Y1392D01*
X1275Y1392D02*
X1326Y1392D01*
X440Y1391D02*
X450Y1391D01*
X550Y1391D02*
X560Y1391D01*
X1275Y1391D02*
X1326Y1391D01*
X440Y1390D02*
X450Y1390D01*
X550Y1390D02*
X560Y1390D01*
X1275Y1390D02*
X1327Y1390D01*
X440Y1389D02*
X450Y1389D01*
X550Y1389D02*
X560Y1389D01*
X1275Y1389D02*
X1327Y1389D01*
X440Y1388D02*
X450Y1388D01*
X550Y1388D02*
X560Y1388D01*
X1275Y1388D02*
X1281Y1388D01*
X1321Y1388D02*
X1328Y1388D01*
X440Y1387D02*
X450Y1387D01*
X550Y1387D02*
X560Y1387D01*
X1275Y1387D02*
X1281Y1387D01*
X1322Y1387D02*
X1328Y1387D01*
X440Y1386D02*
X450Y1386D01*
X550Y1386D02*
X560Y1386D01*
X1275Y1386D02*
X1281Y1386D01*
X1322Y1386D02*
X1328Y1386D01*
X440Y1385D02*
X450Y1385D01*
X550Y1385D02*
X560Y1385D01*
X1275Y1385D02*
X1281Y1385D01*
X1322Y1385D02*
X1328Y1385D01*
X441Y1384D02*
X450Y1384D01*
X551Y1384D02*
X560Y1384D01*
X1275Y1384D02*
X1281Y1384D01*
X1322Y1384D02*
X1328Y1384D01*
X441Y1383D02*
X450Y1383D01*
X551Y1383D02*
X559Y1383D01*
X1275Y1383D02*
X1281Y1383D01*
X1322Y1383D02*
X1328Y1383D01*
X442Y1382D02*
X449Y1382D01*
X552Y1382D02*
X559Y1382D01*
X1275Y1382D02*
X1281Y1382D01*
X1322Y1382D02*
X1328Y1382D01*
X443Y1381D02*
X448Y1381D01*
X553Y1381D02*
X557Y1381D01*
X1275Y1381D02*
X1281Y1381D01*
X1322Y1381D02*
X1328Y1381D01*
X1275Y1380D02*
X1281Y1380D01*
X1322Y1380D02*
X1328Y1380D01*
X1276Y1379D02*
X1280Y1379D01*
X1322Y1379D02*
X1328Y1379D01*
X1277Y1378D02*
X1279Y1378D01*
X1322Y1378D02*
X1328Y1378D01*
X1322Y1377D02*
X1328Y1377D01*
X1321Y1376D02*
X1328Y1376D01*
X1310Y1375D02*
X1328Y1375D01*
X1308Y1374D02*
X1328Y1374D01*
X1308Y1373D02*
X1327Y1373D01*
X1307Y1372D02*
X1326Y1372D01*
X1307Y1371D02*
X1326Y1371D01*
X1308Y1370D02*
X1325Y1370D01*
X1308Y1369D02*
X1323Y1369D01*
X1310Y1368D02*
X1319Y1368D01*
X474Y1320D02*
X488Y1320D01*
X511Y1320D02*
X536Y1320D01*
X470Y1319D02*
X489Y1319D01*
X509Y1319D02*
X538Y1319D01*
X469Y1318D02*
X490Y1318D01*
X509Y1318D02*
X540Y1318D01*
X467Y1317D02*
X490Y1317D01*
X508Y1317D02*
X540Y1317D01*
X467Y1316D02*
X490Y1316D01*
X508Y1316D02*
X541Y1316D01*
X466Y1315D02*
X490Y1315D01*
X509Y1315D02*
X541Y1315D01*
X465Y1314D02*
X489Y1314D01*
X510Y1314D02*
X542Y1314D01*
X465Y1313D02*
X473Y1313D01*
X536Y1313D02*
X542Y1313D01*
X464Y1312D02*
X472Y1312D01*
X536Y1312D02*
X542Y1312D01*
X464Y1311D02*
X471Y1311D01*
X536Y1311D02*
X542Y1311D01*
X463Y1310D02*
X470Y1310D01*
X536Y1310D02*
X542Y1310D01*
X463Y1309D02*
X470Y1309D01*
X536Y1309D02*
X542Y1309D01*
X462Y1308D02*
X469Y1308D01*
X536Y1308D02*
X542Y1308D01*
X462Y1307D02*
X469Y1307D01*
X536Y1307D02*
X542Y1307D01*
X461Y1306D02*
X468Y1306D01*
X536Y1306D02*
X542Y1306D01*
X461Y1305D02*
X468Y1305D01*
X536Y1305D02*
X542Y1305D01*
X460Y1304D02*
X467Y1304D01*
X536Y1304D02*
X542Y1304D01*
X460Y1303D02*
X467Y1303D01*
X536Y1303D02*
X542Y1303D01*
X459Y1302D02*
X466Y1302D01*
X536Y1302D02*
X542Y1302D01*
X459Y1301D02*
X466Y1301D01*
X536Y1301D02*
X542Y1301D01*
X458Y1300D02*
X465Y1300D01*
X536Y1300D02*
X542Y1300D01*
X458Y1299D02*
X465Y1299D01*
X536Y1299D02*
X542Y1299D01*
X458Y1298D02*
X464Y1298D01*
X536Y1298D02*
X542Y1298D01*
X457Y1297D02*
X464Y1297D01*
X536Y1297D02*
X542Y1297D01*
X457Y1296D02*
X463Y1296D01*
X513Y1296D02*
X542Y1296D01*
X457Y1295D02*
X463Y1295D01*
X511Y1295D02*
X542Y1295D01*
X457Y1294D02*
X463Y1294D01*
X510Y1294D02*
X541Y1294D01*
X457Y1293D02*
X463Y1293D01*
X509Y1293D02*
X541Y1293D01*
X457Y1292D02*
X463Y1292D01*
X509Y1292D02*
X540Y1292D01*
X457Y1291D02*
X463Y1291D01*
X508Y1291D02*
X539Y1291D01*
X457Y1290D02*
X463Y1290D01*
X508Y1290D02*
X537Y1290D01*
X458Y1289D02*
X464Y1289D01*
X508Y1289D02*
X514Y1289D01*
X458Y1288D02*
X464Y1288D01*
X508Y1288D02*
X514Y1288D01*
X458Y1287D02*
X465Y1287D01*
X508Y1287D02*
X514Y1287D01*
X459Y1286D02*
X465Y1286D01*
X508Y1286D02*
X514Y1286D01*
X459Y1285D02*
X466Y1285D01*
X508Y1285D02*
X514Y1285D01*
X460Y1284D02*
X466Y1284D01*
X508Y1284D02*
X514Y1284D01*
X460Y1283D02*
X467Y1283D01*
X508Y1283D02*
X514Y1283D01*
X460Y1282D02*
X467Y1282D01*
X508Y1282D02*
X514Y1282D01*
X461Y1281D02*
X468Y1281D01*
X508Y1281D02*
X514Y1281D01*
X461Y1280D02*
X468Y1280D01*
X508Y1280D02*
X514Y1280D01*
X462Y1279D02*
X469Y1279D01*
X508Y1279D02*
X514Y1279D01*
X462Y1278D02*
X469Y1278D01*
X508Y1278D02*
X514Y1278D01*
X463Y1277D02*
X470Y1277D01*
X508Y1277D02*
X514Y1277D01*
X463Y1276D02*
X470Y1276D01*
X508Y1276D02*
X514Y1276D01*
X464Y1275D02*
X471Y1275D01*
X508Y1275D02*
X514Y1275D01*
X464Y1274D02*
X472Y1274D01*
X508Y1274D02*
X514Y1274D01*
X465Y1273D02*
X487Y1273D01*
X508Y1273D02*
X539Y1273D01*
X466Y1272D02*
X489Y1272D01*
X508Y1272D02*
X541Y1272D01*
X466Y1271D02*
X490Y1271D01*
X508Y1271D02*
X541Y1271D01*
X467Y1270D02*
X490Y1270D01*
X508Y1270D02*
X542Y1270D01*
X468Y1269D02*
X490Y1269D01*
X508Y1269D02*
X542Y1269D01*
X469Y1268D02*
X490Y1268D01*
X508Y1268D02*
X541Y1268D01*
X471Y1267D02*
X489Y1267D01*
X508Y1267D02*
X541Y1267D01*
X445Y1221D02*
X446Y1221D01*
X555Y1221D02*
X556Y1221D01*
X442Y1220D02*
X448Y1220D01*
X552Y1220D02*
X558Y1220D01*
X441Y1219D02*
X449Y1219D01*
X551Y1219D02*
X559Y1219D01*
X441Y1218D02*
X450Y1218D01*
X551Y1218D02*
X560Y1218D01*
X441Y1217D02*
X450Y1217D01*
X550Y1217D02*
X560Y1217D01*
X440Y1216D02*
X450Y1216D01*
X550Y1216D02*
X560Y1216D01*
X440Y1215D02*
X450Y1215D01*
X550Y1215D02*
X560Y1215D01*
X440Y1214D02*
X450Y1214D01*
X550Y1214D02*
X560Y1214D01*
X440Y1213D02*
X450Y1213D01*
X550Y1213D02*
X560Y1213D01*
X440Y1212D02*
X450Y1212D01*
X550Y1212D02*
X560Y1212D01*
X440Y1211D02*
X450Y1211D01*
X550Y1211D02*
X560Y1211D01*
X440Y1210D02*
X450Y1210D01*
X550Y1210D02*
X560Y1210D01*
X440Y1209D02*
X450Y1209D01*
X550Y1209D02*
X560Y1209D01*
X440Y1208D02*
X450Y1208D01*
X550Y1208D02*
X560Y1208D01*
X440Y1207D02*
X450Y1207D01*
X550Y1207D02*
X560Y1207D01*
X440Y1206D02*
X450Y1206D01*
X550Y1206D02*
X560Y1206D01*
X440Y1205D02*
X450Y1205D01*
X550Y1205D02*
X560Y1205D01*
X440Y1204D02*
X450Y1204D01*
X550Y1204D02*
X560Y1204D01*
X440Y1203D02*
X450Y1203D01*
X550Y1203D02*
X560Y1203D01*
X440Y1202D02*
X450Y1202D01*
X550Y1202D02*
X560Y1202D01*
X440Y1201D02*
X450Y1201D01*
X550Y1201D02*
X560Y1201D01*
X440Y1200D02*
X450Y1200D01*
X550Y1200D02*
X560Y1200D01*
X440Y1199D02*
X450Y1199D01*
X550Y1199D02*
X560Y1199D01*
X440Y1198D02*
X450Y1198D01*
X550Y1198D02*
X560Y1198D01*
X440Y1197D02*
X450Y1197D01*
X550Y1197D02*
X560Y1197D01*
X440Y1196D02*
X450Y1196D01*
X550Y1196D02*
X560Y1196D01*
X440Y1195D02*
X450Y1195D01*
X550Y1195D02*
X560Y1195D01*
X440Y1194D02*
X450Y1194D01*
X550Y1194D02*
X560Y1194D01*
X440Y1193D02*
X450Y1193D01*
X550Y1193D02*
X560Y1193D01*
X440Y1192D02*
X450Y1192D01*
X550Y1192D02*
X560Y1192D01*
X440Y1191D02*
X450Y1191D01*
X550Y1191D02*
X560Y1191D01*
X440Y1190D02*
X450Y1190D01*
X550Y1190D02*
X560Y1190D01*
X440Y1189D02*
X450Y1189D01*
X550Y1189D02*
X560Y1189D01*
X440Y1188D02*
X450Y1188D01*
X550Y1188D02*
X560Y1188D01*
X440Y1187D02*
X450Y1187D01*
X550Y1187D02*
X560Y1187D01*
X440Y1186D02*
X450Y1186D01*
X550Y1186D02*
X560Y1186D01*
X440Y1185D02*
X450Y1185D01*
X550Y1185D02*
X560Y1185D01*
X441Y1184D02*
X450Y1184D01*
X551Y1184D02*
X560Y1184D01*
X441Y1183D02*
X449Y1183D01*
X551Y1183D02*
X559Y1183D01*
X442Y1182D02*
X449Y1182D01*
X552Y1182D02*
X559Y1182D01*
X443Y1181D02*
X447Y1181D01*
X553Y1181D02*
X557Y1181D01*
X872Y1069D02*
X874Y1069D01*
X900Y1069D02*
X902Y1069D01*
X922Y1069D02*
X947Y1069D01*
X975Y1069D02*
X993Y1069D01*
X871Y1068D02*
X876Y1068D01*
X899Y1068D02*
X903Y1068D01*
X922Y1068D02*
X950Y1068D01*
X974Y1068D02*
X993Y1068D01*
X871Y1067D02*
X876Y1067D01*
X898Y1067D02*
X904Y1067D01*
X922Y1067D02*
X951Y1067D01*
X973Y1067D02*
X993Y1067D01*
X870Y1066D02*
X876Y1066D01*
X898Y1066D02*
X904Y1066D01*
X922Y1066D02*
X952Y1066D01*
X973Y1066D02*
X993Y1066D01*
X870Y1065D02*
X876Y1065D01*
X898Y1065D02*
X904Y1065D01*
X922Y1065D02*
X953Y1065D01*
X973Y1065D02*
X993Y1065D01*
X870Y1064D02*
X876Y1064D01*
X898Y1064D02*
X904Y1064D01*
X922Y1064D02*
X954Y1064D01*
X974Y1064D02*
X993Y1064D01*
X870Y1063D02*
X876Y1063D01*
X898Y1063D02*
X904Y1063D01*
X922Y1063D02*
X954Y1063D01*
X975Y1063D02*
X993Y1063D01*
X870Y1062D02*
X876Y1062D01*
X898Y1062D02*
X904Y1062D01*
X922Y1062D02*
X928Y1062D01*
X947Y1062D02*
X955Y1062D01*
X987Y1062D02*
X993Y1062D01*
X870Y1061D02*
X876Y1061D01*
X898Y1061D02*
X904Y1061D01*
X922Y1061D02*
X928Y1061D01*
X948Y1061D02*
X955Y1061D01*
X987Y1061D02*
X993Y1061D01*
X870Y1060D02*
X876Y1060D01*
X898Y1060D02*
X904Y1060D01*
X922Y1060D02*
X928Y1060D01*
X949Y1060D02*
X955Y1060D01*
X987Y1060D02*
X993Y1060D01*
X870Y1059D02*
X876Y1059D01*
X898Y1059D02*
X904Y1059D01*
X922Y1059D02*
X928Y1059D01*
X949Y1059D02*
X955Y1059D01*
X987Y1059D02*
X993Y1059D01*
X870Y1058D02*
X876Y1058D01*
X898Y1058D02*
X904Y1058D01*
X922Y1058D02*
X928Y1058D01*
X949Y1058D02*
X955Y1058D01*
X987Y1058D02*
X993Y1058D01*
X870Y1057D02*
X876Y1057D01*
X898Y1057D02*
X904Y1057D01*
X922Y1057D02*
X928Y1057D01*
X949Y1057D02*
X955Y1057D01*
X987Y1057D02*
X993Y1057D01*
X870Y1056D02*
X876Y1056D01*
X898Y1056D02*
X904Y1056D01*
X922Y1056D02*
X928Y1056D01*
X949Y1056D02*
X955Y1056D01*
X987Y1056D02*
X993Y1056D01*
X870Y1055D02*
X876Y1055D01*
X898Y1055D02*
X904Y1055D01*
X922Y1055D02*
X928Y1055D01*
X949Y1055D02*
X955Y1055D01*
X987Y1055D02*
X993Y1055D01*
X870Y1054D02*
X877Y1054D01*
X898Y1054D02*
X904Y1054D01*
X922Y1054D02*
X928Y1054D01*
X949Y1054D02*
X955Y1054D01*
X987Y1054D02*
X993Y1054D01*
X870Y1053D02*
X877Y1053D01*
X897Y1053D02*
X904Y1053D01*
X922Y1053D02*
X928Y1053D01*
X948Y1053D02*
X955Y1053D01*
X987Y1053D02*
X993Y1053D01*
X871Y1052D02*
X877Y1052D01*
X897Y1052D02*
X903Y1052D01*
X922Y1052D02*
X928Y1052D01*
X947Y1052D02*
X955Y1052D01*
X987Y1052D02*
X993Y1052D01*
X871Y1051D02*
X878Y1051D01*
X896Y1051D02*
X903Y1051D01*
X922Y1051D02*
X954Y1051D01*
X987Y1051D02*
X993Y1051D01*
X872Y1050D02*
X878Y1050D01*
X896Y1050D02*
X903Y1050D01*
X922Y1050D02*
X954Y1050D01*
X987Y1050D02*
X993Y1050D01*
X872Y1049D02*
X879Y1049D01*
X896Y1049D02*
X902Y1049D01*
X922Y1049D02*
X953Y1049D01*
X987Y1049D02*
X993Y1049D01*
X872Y1048D02*
X879Y1048D01*
X895Y1048D02*
X902Y1048D01*
X922Y1048D02*
X952Y1048D01*
X987Y1048D02*
X993Y1048D01*
X873Y1047D02*
X879Y1047D01*
X895Y1047D02*
X901Y1047D01*
X922Y1047D02*
X951Y1047D01*
X987Y1047D02*
X993Y1047D01*
X873Y1046D02*
X880Y1046D01*
X894Y1046D02*
X901Y1046D01*
X922Y1046D02*
X950Y1046D01*
X987Y1046D02*
X993Y1046D01*
X874Y1045D02*
X880Y1045D01*
X894Y1045D02*
X901Y1045D01*
X922Y1045D02*
X947Y1045D01*
X987Y1045D02*
X993Y1045D01*
X874Y1044D02*
X881Y1044D01*
X894Y1044D02*
X900Y1044D01*
X922Y1044D02*
X928Y1044D01*
X934Y1044D02*
X941Y1044D01*
X987Y1044D02*
X993Y1044D01*
X874Y1043D02*
X881Y1043D01*
X893Y1043D02*
X900Y1043D01*
X922Y1043D02*
X928Y1043D01*
X935Y1043D02*
X942Y1043D01*
X987Y1043D02*
X993Y1043D01*
X875Y1042D02*
X881Y1042D01*
X893Y1042D02*
X899Y1042D01*
X922Y1042D02*
X928Y1042D01*
X935Y1042D02*
X942Y1042D01*
X987Y1042D02*
X993Y1042D01*
X875Y1041D02*
X882Y1041D01*
X892Y1041D02*
X899Y1041D01*
X922Y1041D02*
X928Y1041D01*
X936Y1041D02*
X943Y1041D01*
X987Y1041D02*
X993Y1041D01*
X876Y1040D02*
X882Y1040D01*
X892Y1040D02*
X899Y1040D01*
X922Y1040D02*
X928Y1040D01*
X936Y1040D02*
X943Y1040D01*
X987Y1040D02*
X993Y1040D01*
X876Y1039D02*
X883Y1039D01*
X892Y1039D02*
X898Y1039D01*
X922Y1039D02*
X928Y1039D01*
X937Y1039D02*
X944Y1039D01*
X987Y1039D02*
X993Y1039D01*
X876Y1038D02*
X883Y1038D01*
X891Y1038D02*
X898Y1038D01*
X922Y1038D02*
X928Y1038D01*
X937Y1038D02*
X945Y1038D01*
X987Y1038D02*
X993Y1038D01*
X877Y1037D02*
X883Y1037D01*
X891Y1037D02*
X897Y1037D01*
X922Y1037D02*
X928Y1037D01*
X938Y1037D02*
X945Y1037D01*
X987Y1037D02*
X993Y1037D01*
X877Y1036D02*
X884Y1036D01*
X891Y1036D02*
X897Y1036D01*
X922Y1036D02*
X928Y1036D01*
X939Y1036D02*
X946Y1036D01*
X987Y1036D02*
X993Y1036D01*
X1003Y1036D02*
X1004Y1036D01*
X877Y1035D02*
X884Y1035D01*
X890Y1035D02*
X897Y1035D01*
X922Y1035D02*
X928Y1035D01*
X939Y1035D02*
X946Y1035D01*
X987Y1035D02*
X993Y1035D01*
X1001Y1035D02*
X1006Y1035D01*
X878Y1034D02*
X884Y1034D01*
X890Y1034D02*
X896Y1034D01*
X922Y1034D02*
X928Y1034D01*
X940Y1034D02*
X947Y1034D01*
X987Y1034D02*
X993Y1034D01*
X1001Y1034D02*
X1006Y1034D01*
X878Y1033D02*
X885Y1033D01*
X889Y1033D02*
X896Y1033D01*
X922Y1033D02*
X928Y1033D01*
X940Y1033D02*
X948Y1033D01*
X987Y1033D02*
X993Y1033D01*
X1001Y1033D02*
X1007Y1033D01*
X879Y1032D02*
X885Y1032D01*
X889Y1032D02*
X896Y1032D01*
X922Y1032D02*
X928Y1032D01*
X941Y1032D02*
X948Y1032D01*
X987Y1032D02*
X993Y1032D01*
X1001Y1032D02*
X1007Y1032D01*
X879Y1031D02*
X886Y1031D01*
X889Y1031D02*
X895Y1031D01*
X922Y1031D02*
X928Y1031D01*
X942Y1031D02*
X949Y1031D01*
X987Y1031D02*
X993Y1031D01*
X1001Y1031D02*
X1007Y1031D01*
X879Y1030D02*
X886Y1030D01*
X888Y1030D02*
X895Y1030D01*
X922Y1030D02*
X928Y1030D01*
X942Y1030D02*
X949Y1030D01*
X987Y1030D02*
X993Y1030D01*
X1001Y1030D02*
X1007Y1030D01*
X880Y1029D02*
X894Y1029D01*
X922Y1029D02*
X928Y1029D01*
X943Y1029D02*
X950Y1029D01*
X987Y1029D02*
X993Y1029D01*
X1001Y1029D02*
X1007Y1029D01*
X880Y1028D02*
X894Y1028D01*
X922Y1028D02*
X928Y1028D01*
X943Y1028D02*
X950Y1028D01*
X987Y1028D02*
X993Y1028D01*
X1001Y1028D02*
X1007Y1028D01*
X881Y1027D02*
X894Y1027D01*
X922Y1027D02*
X928Y1027D01*
X944Y1027D02*
X951Y1027D01*
X987Y1027D02*
X993Y1027D01*
X1001Y1027D02*
X1007Y1027D01*
X881Y1026D02*
X893Y1026D01*
X922Y1026D02*
X928Y1026D01*
X944Y1026D02*
X952Y1026D01*
X987Y1026D02*
X993Y1026D01*
X1001Y1026D02*
X1007Y1026D01*
X881Y1025D02*
X893Y1025D01*
X922Y1025D02*
X928Y1025D01*
X945Y1025D02*
X952Y1025D01*
X987Y1025D02*
X993Y1025D01*
X1001Y1025D02*
X1007Y1025D01*
X882Y1024D02*
X892Y1024D01*
X922Y1024D02*
X928Y1024D01*
X946Y1024D02*
X953Y1024D01*
X987Y1024D02*
X993Y1024D01*
X1001Y1024D02*
X1007Y1024D01*
X882Y1023D02*
X892Y1023D01*
X922Y1023D02*
X928Y1023D01*
X946Y1023D02*
X953Y1023D01*
X987Y1023D02*
X993Y1023D01*
X1001Y1023D02*
X1007Y1023D01*
X883Y1022D02*
X892Y1022D01*
X922Y1022D02*
X928Y1022D01*
X947Y1022D02*
X954Y1022D01*
X975Y1022D02*
X1007Y1022D01*
X883Y1021D02*
X891Y1021D01*
X922Y1021D02*
X928Y1021D01*
X947Y1021D02*
X955Y1021D01*
X974Y1021D02*
X1007Y1021D01*
X883Y1020D02*
X891Y1020D01*
X922Y1020D02*
X928Y1020D01*
X948Y1020D02*
X955Y1020D01*
X973Y1020D02*
X1007Y1020D01*
X884Y1019D02*
X890Y1019D01*
X922Y1019D02*
X928Y1019D01*
X949Y1019D02*
X955Y1019D01*
X973Y1019D02*
X1007Y1019D01*
X884Y1018D02*
X890Y1018D01*
X922Y1018D02*
X928Y1018D01*
X949Y1018D02*
X955Y1018D01*
X973Y1018D02*
X1006Y1018D01*
X885Y1017D02*
X890Y1017D01*
X922Y1017D02*
X927Y1017D01*
X950Y1017D02*
X955Y1017D01*
X974Y1017D02*
X1006Y1017D01*
X885Y1016D02*
X889Y1016D01*
X923Y1016D02*
X926Y1016D01*
X951Y1016D02*
X954Y1016D01*
X975Y1016D02*
X1005Y1016D01*
X372Y989D02*
X386Y989D01*
X370Y988D02*
X387Y988D01*
X369Y987D02*
X387Y987D01*
X368Y986D02*
X387Y986D01*
X368Y985D02*
X387Y985D01*
X367Y984D02*
X387Y984D01*
X367Y983D02*
X386Y983D01*
X367Y982D02*
X374Y982D01*
X366Y981D02*
X373Y981D01*
X366Y980D02*
X372Y980D01*
X416Y980D02*
X416Y980D01*
X366Y979D02*
X372Y979D01*
X414Y979D02*
X418Y979D01*
X366Y978D02*
X372Y978D01*
X414Y978D02*
X419Y978D01*
X366Y977D02*
X372Y977D01*
X413Y977D02*
X419Y977D01*
X366Y976D02*
X372Y976D01*
X413Y976D02*
X419Y976D01*
X366Y975D02*
X372Y975D01*
X413Y975D02*
X419Y975D01*
X366Y974D02*
X372Y974D01*
X413Y974D02*
X419Y974D01*
X366Y973D02*
X372Y973D01*
X413Y973D02*
X419Y973D01*
X196Y972D02*
X204Y972D01*
X366Y972D02*
X372Y972D01*
X413Y972D02*
X419Y972D01*
X185Y971D02*
X216Y971D01*
X366Y971D02*
X373Y971D01*
X413Y971D02*
X419Y971D01*
X178Y970D02*
X222Y970D01*
X367Y970D02*
X373Y970D01*
X413Y970D02*
X419Y970D01*
X174Y969D02*
X227Y969D01*
X367Y969D02*
X419Y969D01*
X170Y968D02*
X231Y968D01*
X367Y968D02*
X419Y968D01*
X166Y967D02*
X235Y967D01*
X368Y967D02*
X419Y967D01*
X163Y966D02*
X238Y966D01*
X369Y966D02*
X419Y966D01*
X160Y965D02*
X241Y965D01*
X370Y965D02*
X419Y965D01*
X157Y964D02*
X193Y964D01*
X209Y964D02*
X243Y964D01*
X371Y964D02*
X419Y964D01*
X155Y963D02*
X183Y963D01*
X218Y963D02*
X246Y963D01*
X372Y963D02*
X419Y963D01*
X152Y962D02*
X177Y962D01*
X224Y962D02*
X248Y962D01*
X413Y962D02*
X419Y962D01*
X150Y961D02*
X173Y961D01*
X228Y961D02*
X251Y961D01*
X413Y961D02*
X419Y961D01*
X1384Y961D02*
X1416Y961D01*
X148Y960D02*
X169Y960D01*
X232Y960D02*
X253Y960D01*
X413Y960D02*
X419Y960D01*
X1382Y960D02*
X1418Y960D01*
X146Y959D02*
X166Y959D01*
X235Y959D02*
X255Y959D01*
X413Y959D02*
X419Y959D01*
X1381Y959D02*
X1419Y959D01*
X144Y958D02*
X163Y958D01*
X238Y958D02*
X257Y958D01*
X414Y958D02*
X419Y958D01*
X1380Y958D02*
X1419Y958D01*
X142Y957D02*
X160Y957D01*
X241Y957D02*
X259Y957D01*
X414Y957D02*
X419Y957D01*
X1380Y957D02*
X1420Y957D01*
X140Y956D02*
X157Y956D01*
X244Y956D02*
X260Y956D01*
X415Y956D02*
X418Y956D01*
X1380Y956D02*
X1420Y956D01*
X139Y955D02*
X155Y955D01*
X246Y955D02*
X262Y955D01*
X1380Y955D02*
X1420Y955D01*
X137Y954D02*
X152Y954D01*
X248Y954D02*
X264Y954D01*
X1380Y954D02*
X1419Y954D01*
X135Y953D02*
X150Y953D01*
X250Y953D02*
X265Y953D01*
X1381Y953D02*
X1419Y953D01*
X134Y952D02*
X148Y952D01*
X252Y952D02*
X267Y952D01*
X1382Y952D02*
X1418Y952D01*
X132Y951D02*
X146Y951D01*
X254Y951D02*
X268Y951D01*
X1383Y951D02*
X1417Y951D01*
X131Y950D02*
X145Y950D01*
X256Y950D02*
X270Y950D01*
X130Y949D02*
X143Y949D01*
X258Y949D02*
X271Y949D01*
X128Y948D02*
X141Y948D01*
X260Y948D02*
X273Y948D01*
X127Y947D02*
X139Y947D01*
X261Y947D02*
X274Y947D01*
X126Y946D02*
X138Y946D01*
X263Y946D02*
X275Y946D01*
X124Y945D02*
X136Y945D01*
X264Y945D02*
X277Y945D01*
X123Y944D02*
X135Y944D01*
X266Y944D02*
X278Y944D01*
X122Y943D02*
X133Y943D01*
X267Y943D02*
X279Y943D01*
X121Y942D02*
X132Y942D01*
X269Y942D02*
X280Y942D01*
X120Y941D02*
X131Y941D01*
X270Y941D02*
X281Y941D01*
X119Y940D02*
X129Y940D01*
X271Y940D02*
X282Y940D01*
X117Y939D02*
X128Y939D01*
X272Y939D02*
X283Y939D01*
X116Y938D02*
X127Y938D01*
X274Y938D02*
X284Y938D01*
X366Y938D02*
X391Y938D01*
X415Y938D02*
X417Y938D01*
X115Y937D02*
X126Y937D01*
X275Y937D02*
X285Y937D01*
X366Y937D02*
X393Y937D01*
X414Y937D02*
X419Y937D01*
X114Y936D02*
X125Y936D01*
X276Y936D02*
X287Y936D01*
X366Y936D02*
X394Y936D01*
X414Y936D02*
X419Y936D01*
X113Y935D02*
X124Y935D01*
X277Y935D02*
X288Y935D01*
X366Y935D02*
X395Y935D01*
X413Y935D02*
X419Y935D01*
X112Y934D02*
X123Y934D01*
X278Y934D02*
X288Y934D01*
X366Y934D02*
X395Y934D01*
X413Y934D02*
X419Y934D01*
X111Y933D02*
X121Y933D01*
X279Y933D02*
X289Y933D01*
X366Y933D02*
X396Y933D01*
X413Y933D02*
X419Y933D01*
X111Y932D02*
X120Y932D01*
X280Y932D02*
X290Y932D01*
X366Y932D02*
X396Y932D01*
X413Y932D02*
X419Y932D01*
X110Y931D02*
X119Y931D01*
X281Y931D02*
X291Y931D01*
X366Y931D02*
X372Y931D01*
X390Y931D02*
X396Y931D01*
X413Y931D02*
X419Y931D01*
X109Y930D02*
X118Y930D01*
X282Y930D02*
X292Y930D01*
X366Y930D02*
X372Y930D01*
X390Y930D02*
X396Y930D01*
X413Y930D02*
X419Y930D01*
X108Y929D02*
X117Y929D01*
X283Y929D02*
X293Y929D01*
X366Y929D02*
X372Y929D01*
X390Y929D02*
X396Y929D01*
X413Y929D02*
X419Y929D01*
X107Y928D02*
X116Y928D01*
X284Y928D02*
X294Y928D01*
X366Y928D02*
X372Y928D01*
X390Y928D02*
X396Y928D01*
X413Y928D02*
X419Y928D01*
X106Y927D02*
X116Y927D01*
X285Y927D02*
X295Y927D01*
X366Y927D02*
X372Y927D01*
X390Y927D02*
X396Y927D01*
X413Y927D02*
X419Y927D01*
X105Y926D02*
X115Y926D01*
X286Y926D02*
X295Y926D01*
X366Y926D02*
X372Y926D01*
X390Y926D02*
X396Y926D01*
X413Y926D02*
X419Y926D01*
X105Y925D02*
X114Y925D01*
X287Y925D02*
X296Y925D01*
X366Y925D02*
X372Y925D01*
X390Y925D02*
X396Y925D01*
X413Y925D02*
X419Y925D01*
X104Y924D02*
X113Y924D01*
X288Y924D02*
X297Y924D01*
X366Y924D02*
X372Y924D01*
X390Y924D02*
X396Y924D01*
X413Y924D02*
X419Y924D01*
X103Y923D02*
X112Y923D01*
X289Y923D02*
X298Y923D01*
X366Y923D02*
X372Y923D01*
X390Y923D02*
X396Y923D01*
X413Y923D02*
X419Y923D01*
X102Y922D02*
X111Y922D01*
X290Y922D02*
X298Y922D01*
X366Y922D02*
X372Y922D01*
X390Y922D02*
X396Y922D01*
X413Y922D02*
X419Y922D01*
X102Y921D02*
X111Y921D01*
X290Y921D02*
X299Y921D01*
X366Y921D02*
X372Y921D01*
X390Y921D02*
X396Y921D01*
X413Y921D02*
X419Y921D01*
X101Y920D02*
X110Y920D01*
X291Y920D02*
X300Y920D01*
X366Y920D02*
X372Y920D01*
X390Y920D02*
X396Y920D01*
X413Y920D02*
X419Y920D01*
X100Y919D02*
X109Y919D01*
X292Y919D02*
X301Y919D01*
X366Y919D02*
X372Y919D01*
X390Y919D02*
X396Y919D01*
X413Y919D02*
X419Y919D01*
X100Y918D02*
X108Y918D01*
X293Y918D02*
X301Y918D01*
X366Y918D02*
X372Y918D01*
X390Y918D02*
X396Y918D01*
X413Y918D02*
X419Y918D01*
X99Y917D02*
X107Y917D01*
X293Y917D02*
X302Y917D01*
X366Y917D02*
X372Y917D01*
X390Y917D02*
X396Y917D01*
X413Y917D02*
X419Y917D01*
X98Y916D02*
X107Y916D01*
X294Y916D02*
X303Y916D01*
X366Y916D02*
X372Y916D01*
X390Y916D02*
X396Y916D01*
X413Y916D02*
X419Y916D01*
X98Y915D02*
X106Y915D01*
X295Y915D02*
X303Y915D01*
X366Y915D02*
X372Y915D01*
X390Y915D02*
X396Y915D01*
X413Y915D02*
X419Y915D01*
X97Y914D02*
X105Y914D01*
X296Y914D02*
X304Y914D01*
X366Y914D02*
X372Y914D01*
X390Y914D02*
X396Y914D01*
X413Y914D02*
X419Y914D01*
X96Y913D02*
X105Y913D01*
X296Y913D02*
X304Y913D01*
X366Y913D02*
X372Y913D01*
X390Y913D02*
X396Y913D01*
X413Y913D02*
X419Y913D01*
X96Y912D02*
X104Y912D01*
X297Y912D02*
X305Y912D01*
X366Y912D02*
X372Y912D01*
X390Y912D02*
X396Y912D01*
X413Y912D02*
X419Y912D01*
X95Y911D02*
X103Y911D01*
X298Y911D02*
X306Y911D01*
X366Y911D02*
X372Y911D01*
X390Y911D02*
X396Y911D01*
X413Y911D02*
X419Y911D01*
X95Y910D02*
X103Y910D01*
X298Y910D02*
X306Y910D01*
X366Y910D02*
X372Y910D01*
X390Y910D02*
X419Y910D01*
X94Y909D02*
X102Y909D01*
X299Y909D02*
X307Y909D01*
X366Y909D02*
X372Y909D01*
X390Y909D02*
X419Y909D01*
X94Y908D02*
X102Y908D01*
X299Y908D02*
X307Y908D01*
X366Y908D02*
X372Y908D01*
X391Y908D02*
X419Y908D01*
X93Y907D02*
X101Y907D01*
X300Y907D02*
X308Y907D01*
X366Y907D02*
X372Y907D01*
X391Y907D02*
X418Y907D01*
X93Y906D02*
X100Y906D01*
X301Y906D02*
X308Y906D01*
X367Y906D02*
X372Y906D01*
X392Y906D02*
X417Y906D01*
X92Y905D02*
X100Y905D01*
X301Y905D02*
X309Y905D01*
X367Y905D02*
X371Y905D01*
X393Y905D02*
X416Y905D01*
X92Y904D02*
X99Y904D01*
X302Y904D02*
X309Y904D01*
X369Y904D02*
X369Y904D01*
X396Y904D02*
X413Y904D01*
X91Y903D02*
X99Y903D01*
X302Y903D02*
X310Y903D01*
X91Y902D02*
X98Y902D01*
X303Y902D02*
X310Y902D01*
X90Y901D02*
X98Y901D01*
X303Y901D02*
X311Y901D01*
X90Y900D02*
X97Y900D01*
X304Y900D02*
X311Y900D01*
X89Y899D02*
X97Y899D01*
X304Y899D02*
X312Y899D01*
X89Y898D02*
X96Y898D01*
X305Y898D02*
X312Y898D01*
X88Y897D02*
X96Y897D01*
X305Y897D02*
X312Y897D01*
X88Y896D02*
X95Y896D01*
X305Y896D02*
X313Y896D01*
X88Y895D02*
X95Y895D01*
X306Y895D02*
X313Y895D01*
X87Y894D02*
X94Y894D01*
X306Y894D02*
X314Y894D01*
X87Y893D02*
X94Y893D01*
X307Y893D02*
X314Y893D01*
X86Y892D02*
X94Y892D01*
X307Y892D02*
X314Y892D01*
X86Y891D02*
X93Y891D01*
X308Y891D02*
X315Y891D01*
X86Y890D02*
X93Y890D01*
X308Y890D02*
X315Y890D01*
X85Y889D02*
X93Y889D01*
X308Y889D02*
X316Y889D01*
X85Y888D02*
X92Y888D01*
X309Y888D02*
X316Y888D01*
X85Y887D02*
X92Y887D01*
X309Y887D02*
X316Y887D01*
X84Y886D02*
X92Y886D01*
X309Y886D02*
X316Y886D01*
X84Y885D02*
X91Y885D01*
X310Y885D02*
X317Y885D01*
X84Y884D02*
X91Y884D01*
X310Y884D02*
X317Y884D01*
X84Y883D02*
X91Y883D01*
X310Y883D02*
X317Y883D01*
X83Y882D02*
X90Y882D01*
X311Y882D02*
X318Y882D01*
X83Y881D02*
X90Y881D01*
X311Y881D02*
X318Y881D01*
X83Y880D02*
X90Y880D01*
X311Y880D02*
X318Y880D01*
X82Y879D02*
X89Y879D01*
X311Y879D02*
X318Y879D01*
X82Y878D02*
X89Y878D01*
X312Y878D02*
X319Y878D01*
X82Y877D02*
X89Y877D01*
X312Y877D02*
X319Y877D01*
X82Y876D02*
X89Y876D01*
X312Y876D02*
X319Y876D01*
X82Y875D02*
X88Y875D01*
X312Y875D02*
X319Y875D01*
X81Y874D02*
X88Y874D01*
X312Y874D02*
X320Y874D01*
X81Y873D02*
X88Y873D01*
X313Y873D02*
X320Y873D01*
X81Y872D02*
X88Y872D01*
X313Y872D02*
X320Y872D01*
X81Y871D02*
X88Y871D01*
X313Y871D02*
X320Y871D01*
X81Y870D02*
X87Y870D01*
X313Y870D02*
X320Y870D01*
X80Y869D02*
X87Y869D01*
X313Y869D02*
X320Y869D01*
X80Y868D02*
X87Y868D01*
X314Y868D02*
X321Y868D01*
X80Y867D02*
X87Y867D01*
X314Y867D02*
X321Y867D01*
X80Y866D02*
X87Y866D01*
X314Y866D02*
X321Y866D01*
X80Y865D02*
X87Y865D01*
X314Y865D02*
X321Y865D01*
X80Y864D02*
X87Y864D01*
X314Y864D02*
X321Y864D01*
X80Y863D02*
X86Y863D01*
X314Y863D02*
X321Y863D01*
X80Y862D02*
X86Y862D01*
X314Y862D02*
X321Y862D01*
X79Y861D02*
X86Y861D01*
X315Y861D02*
X321Y861D01*
X79Y860D02*
X86Y860D01*
X315Y860D02*
X321Y860D01*
X79Y859D02*
X86Y859D01*
X315Y859D02*
X322Y859D01*
X79Y858D02*
X86Y858D01*
X315Y858D02*
X322Y858D01*
X79Y857D02*
X86Y857D01*
X315Y857D02*
X322Y857D01*
X79Y856D02*
X86Y856D01*
X315Y856D02*
X322Y856D01*
X79Y855D02*
X86Y855D01*
X315Y855D02*
X322Y855D01*
X79Y854D02*
X86Y854D01*
X315Y854D02*
X322Y854D01*
X79Y853D02*
X86Y853D01*
X315Y853D02*
X322Y853D01*
X79Y852D02*
X86Y852D01*
X315Y852D02*
X322Y852D01*
X79Y851D02*
X86Y851D01*
X315Y851D02*
X322Y851D01*
X1383Y851D02*
X1416Y851D01*
X79Y850D02*
X86Y850D01*
X315Y850D02*
X322Y850D01*
X1382Y850D02*
X1418Y850D01*
X79Y849D02*
X86Y849D01*
X315Y849D02*
X322Y849D01*
X1381Y849D02*
X1419Y849D01*
X79Y848D02*
X86Y848D01*
X315Y848D02*
X322Y848D01*
X1380Y848D02*
X1419Y848D01*
X79Y847D02*
X86Y847D01*
X315Y847D02*
X322Y847D01*
X1380Y847D02*
X1420Y847D01*
X79Y846D02*
X86Y846D01*
X315Y846D02*
X322Y846D01*
X1380Y846D02*
X1420Y846D01*
X79Y845D02*
X86Y845D01*
X315Y845D02*
X322Y845D01*
X1380Y845D02*
X1420Y845D01*
X79Y844D02*
X86Y844D01*
X315Y844D02*
X322Y844D01*
X1380Y844D02*
X1419Y844D01*
X79Y843D02*
X86Y843D01*
X315Y843D02*
X322Y843D01*
X1381Y843D02*
X1419Y843D01*
X79Y842D02*
X86Y842D01*
X315Y842D02*
X322Y842D01*
X1382Y842D02*
X1418Y842D01*
X79Y841D02*
X86Y841D01*
X315Y841D02*
X321Y841D01*
X1383Y841D02*
X1417Y841D01*
X79Y840D02*
X86Y840D01*
X315Y840D02*
X321Y840D01*
X79Y839D02*
X86Y839D01*
X315Y839D02*
X321Y839D01*
X80Y838D02*
X86Y838D01*
X314Y838D02*
X321Y838D01*
X80Y837D02*
X87Y837D01*
X314Y837D02*
X321Y837D01*
X80Y836D02*
X87Y836D01*
X314Y836D02*
X321Y836D01*
X80Y835D02*
X87Y835D01*
X314Y835D02*
X321Y835D01*
X80Y834D02*
X87Y834D01*
X314Y834D02*
X321Y834D01*
X80Y833D02*
X87Y833D01*
X314Y833D02*
X321Y833D01*
X80Y832D02*
X87Y832D01*
X314Y832D02*
X321Y832D01*
X80Y831D02*
X87Y831D01*
X313Y831D02*
X320Y831D01*
X81Y830D02*
X88Y830D01*
X313Y830D02*
X320Y830D01*
X81Y829D02*
X88Y829D01*
X313Y829D02*
X320Y829D01*
X81Y828D02*
X88Y828D01*
X313Y828D02*
X320Y828D01*
X81Y827D02*
X88Y827D01*
X313Y827D02*
X320Y827D01*
X81Y826D02*
X88Y826D01*
X313Y826D02*
X319Y826D01*
X82Y825D02*
X89Y825D01*
X312Y825D02*
X319Y825D01*
X82Y824D02*
X89Y824D01*
X312Y824D02*
X319Y824D01*
X82Y823D02*
X89Y823D01*
X312Y823D02*
X319Y823D01*
X82Y822D02*
X89Y822D01*
X312Y822D02*
X319Y822D01*
X82Y821D02*
X90Y821D01*
X311Y821D02*
X318Y821D01*
X83Y820D02*
X90Y820D01*
X311Y820D02*
X318Y820D01*
X83Y819D02*
X90Y819D01*
X311Y819D02*
X318Y819D01*
X83Y818D02*
X90Y818D01*
X310Y818D02*
X318Y818D01*
X84Y817D02*
X91Y817D01*
X310Y817D02*
X317Y817D01*
X84Y816D02*
X91Y816D01*
X310Y816D02*
X317Y816D01*
X84Y815D02*
X91Y815D01*
X310Y815D02*
X317Y815D01*
X84Y814D02*
X92Y814D01*
X309Y814D02*
X316Y814D01*
X85Y813D02*
X92Y813D01*
X309Y813D02*
X316Y813D01*
X85Y812D02*
X92Y812D01*
X309Y812D02*
X316Y812D01*
X85Y811D02*
X93Y811D01*
X308Y811D02*
X315Y811D01*
X86Y810D02*
X93Y810D01*
X308Y810D02*
X315Y810D01*
X86Y809D02*
X93Y809D01*
X307Y809D02*
X315Y809D01*
X86Y808D02*
X94Y808D01*
X307Y808D02*
X314Y808D01*
X87Y807D02*
X94Y807D01*
X307Y807D02*
X314Y807D01*
X87Y806D02*
X95Y806D01*
X306Y806D02*
X314Y806D01*
X88Y805D02*
X95Y805D01*
X306Y805D02*
X313Y805D01*
X88Y804D02*
X95Y804D01*
X305Y804D02*
X313Y804D01*
X88Y803D02*
X96Y803D01*
X305Y803D02*
X312Y803D01*
X89Y802D02*
X96Y802D01*
X304Y802D02*
X312Y802D01*
X89Y801D02*
X97Y801D01*
X304Y801D02*
X312Y801D01*
X90Y800D02*
X97Y800D01*
X303Y800D02*
X311Y800D01*
X90Y799D02*
X98Y799D01*
X303Y799D02*
X311Y799D01*
X91Y798D02*
X98Y798D01*
X302Y798D02*
X310Y798D01*
X91Y797D02*
X99Y797D01*
X302Y797D02*
X310Y797D01*
X92Y796D02*
X99Y796D01*
X301Y796D02*
X309Y796D01*
X92Y795D02*
X100Y795D01*
X301Y795D02*
X309Y795D01*
X93Y794D02*
X100Y794D01*
X300Y794D02*
X308Y794D01*
X93Y793D02*
X101Y793D01*
X300Y793D02*
X308Y793D01*
X94Y792D02*
X102Y792D01*
X299Y792D02*
X307Y792D01*
X94Y791D02*
X102Y791D01*
X299Y791D02*
X307Y791D01*
X95Y790D02*
X103Y790D01*
X298Y790D02*
X306Y790D01*
X95Y789D02*
X103Y789D01*
X297Y789D02*
X305Y789D01*
X96Y788D02*
X104Y788D01*
X297Y788D02*
X305Y788D01*
X97Y787D02*
X105Y787D01*
X296Y787D02*
X304Y787D01*
X1157Y787D02*
X1178Y787D01*
X1205Y787D02*
X1222Y787D01*
X97Y786D02*
X105Y786D01*
X295Y786D02*
X304Y786D01*
X1156Y786D02*
X1180Y786D01*
X1204Y786D02*
X1224Y786D01*
X98Y785D02*
X106Y785D01*
X295Y785D02*
X303Y785D01*
X1155Y785D02*
X1182Y785D01*
X1203Y785D02*
X1225Y785D01*
X98Y784D02*
X107Y784D01*
X294Y784D02*
X302Y784D01*
X1154Y784D02*
X1183Y784D01*
X1203Y784D02*
X1226Y784D01*
X99Y783D02*
X108Y783D01*
X293Y783D02*
X302Y783D01*
X1154Y783D02*
X1184Y783D01*
X1203Y783D02*
X1227Y783D01*
X100Y782D02*
X108Y782D01*
X292Y782D02*
X301Y782D01*
X1153Y782D02*
X1184Y782D01*
X1204Y782D02*
X1228Y782D01*
X100Y781D02*
X109Y781D01*
X292Y781D02*
X300Y781D01*
X1153Y781D02*
X1184Y781D01*
X1205Y781D02*
X1228Y781D01*
X101Y780D02*
X110Y780D01*
X291Y780D02*
X300Y780D01*
X1153Y780D02*
X1159Y780D01*
X1178Y780D02*
X1183Y780D01*
X1221Y780D02*
X1229Y780D01*
X102Y779D02*
X111Y779D01*
X290Y779D02*
X299Y779D01*
X1153Y779D02*
X1159Y779D01*
X1180Y779D02*
X1182Y779D01*
X1222Y779D02*
X1229Y779D01*
X103Y778D02*
X111Y778D01*
X289Y778D02*
X298Y778D01*
X1153Y778D02*
X1159Y778D01*
X1223Y778D02*
X1230Y778D01*
X103Y777D02*
X112Y777D01*
X288Y777D02*
X298Y777D01*
X1153Y777D02*
X1159Y777D01*
X1223Y777D02*
X1230Y777D01*
X104Y776D02*
X113Y776D01*
X288Y776D02*
X297Y776D01*
X1153Y776D02*
X1159Y776D01*
X1224Y776D02*
X1231Y776D01*
X105Y775D02*
X114Y775D01*
X287Y775D02*
X296Y775D01*
X1153Y775D02*
X1159Y775D01*
X1224Y775D02*
X1231Y775D01*
X106Y774D02*
X115Y774D01*
X286Y774D02*
X295Y774D01*
X1153Y774D02*
X1159Y774D01*
X1225Y774D02*
X1232Y774D01*
X106Y773D02*
X116Y773D01*
X285Y773D02*
X294Y773D01*
X1153Y773D02*
X1159Y773D01*
X1225Y773D02*
X1232Y773D01*
X107Y772D02*
X117Y772D01*
X284Y772D02*
X294Y772D01*
X1153Y772D02*
X1159Y772D01*
X1226Y772D02*
X1233Y772D01*
X108Y771D02*
X118Y771D01*
X283Y771D02*
X293Y771D01*
X1153Y771D02*
X1159Y771D01*
X1226Y771D02*
X1233Y771D01*
X109Y770D02*
X119Y770D01*
X282Y770D02*
X292Y770D01*
X1153Y770D02*
X1159Y770D01*
X1227Y770D02*
X1234Y770D01*
X110Y769D02*
X120Y769D01*
X281Y769D02*
X291Y769D01*
X1153Y769D02*
X1159Y769D01*
X1227Y769D02*
X1234Y769D01*
X111Y768D02*
X121Y768D01*
X280Y768D02*
X290Y768D01*
X1153Y768D02*
X1159Y768D01*
X1228Y768D02*
X1235Y768D01*
X112Y767D02*
X122Y767D01*
X279Y767D02*
X289Y767D01*
X1153Y767D02*
X1159Y767D01*
X1228Y767D02*
X1235Y767D01*
X113Y766D02*
X123Y766D01*
X278Y766D02*
X288Y766D01*
X1153Y766D02*
X1159Y766D01*
X1229Y766D02*
X1235Y766D01*
X114Y765D02*
X124Y765D01*
X277Y765D02*
X287Y765D01*
X1153Y765D02*
X1159Y765D01*
X1229Y765D02*
X1236Y765D01*
X115Y764D02*
X125Y764D01*
X276Y764D02*
X286Y764D01*
X1153Y764D02*
X1160Y764D01*
X1230Y764D02*
X1236Y764D01*
X116Y763D02*
X126Y763D01*
X275Y763D02*
X285Y763D01*
X1153Y763D02*
X1180Y763D01*
X1230Y763D02*
X1236Y763D01*
X117Y762D02*
X127Y762D01*
X273Y762D02*
X284Y762D01*
X1153Y762D02*
X1180Y762D01*
X1230Y762D02*
X1236Y762D01*
X118Y761D02*
X129Y761D01*
X272Y761D02*
X283Y761D01*
X1154Y761D02*
X1180Y761D01*
X1231Y761D02*
X1237Y761D01*
X119Y760D02*
X130Y760D01*
X271Y760D02*
X282Y760D01*
X1154Y760D02*
X1180Y760D01*
X1231Y760D02*
X1237Y760D01*
X120Y759D02*
X281Y759D01*
X1155Y759D02*
X1180Y759D01*
X1230Y759D02*
X1236Y759D01*
X121Y758D02*
X280Y758D01*
X1156Y758D02*
X1180Y758D01*
X1230Y758D02*
X1236Y758D01*
X122Y757D02*
X279Y757D01*
X1160Y757D02*
X1180Y757D01*
X1230Y757D02*
X1236Y757D01*
X123Y756D02*
X277Y756D01*
X1174Y756D02*
X1180Y756D01*
X1229Y756D02*
X1236Y756D01*
X125Y755D02*
X276Y755D01*
X1174Y755D02*
X1180Y755D01*
X1229Y755D02*
X1235Y755D01*
X126Y754D02*
X275Y754D01*
X1174Y754D02*
X1180Y754D01*
X1228Y754D02*
X1235Y754D01*
X127Y753D02*
X274Y753D01*
X1174Y753D02*
X1180Y753D01*
X1228Y753D02*
X1235Y753D01*
X129Y752D02*
X272Y752D01*
X1174Y752D02*
X1180Y752D01*
X1227Y752D02*
X1234Y752D01*
X1174Y751D02*
X1180Y751D01*
X1227Y751D02*
X1234Y751D01*
X1174Y750D02*
X1180Y750D01*
X1226Y750D02*
X1233Y750D01*
X1174Y749D02*
X1180Y749D01*
X1226Y749D02*
X1233Y749D01*
X1174Y748D02*
X1180Y748D01*
X1225Y748D02*
X1232Y748D01*
X1174Y747D02*
X1180Y747D01*
X1225Y747D02*
X1232Y747D01*
X1174Y746D02*
X1180Y746D01*
X1224Y746D02*
X1231Y746D01*
X1174Y745D02*
X1180Y745D01*
X1224Y745D02*
X1231Y745D01*
X1174Y744D02*
X1180Y744D01*
X1223Y744D02*
X1230Y744D01*
X1174Y743D02*
X1180Y743D01*
X1223Y743D02*
X1230Y743D01*
X1174Y742D02*
X1180Y742D01*
X1222Y742D02*
X1229Y742D01*
X1174Y741D02*
X1180Y741D01*
X1221Y741D02*
X1229Y741D01*
X1155Y740D02*
X1180Y740D01*
X1205Y740D02*
X1228Y740D01*
X1154Y739D02*
X1180Y739D01*
X1204Y739D02*
X1228Y739D01*
X1153Y738D02*
X1180Y738D01*
X1203Y738D02*
X1227Y738D01*
X1153Y737D02*
X1180Y737D01*
X1203Y737D02*
X1226Y737D01*
X111Y736D02*
X113Y736D01*
X162Y736D02*
X191Y736D01*
X212Y736D02*
X231Y736D01*
X265Y736D02*
X282Y736D01*
X1153Y736D02*
X1180Y736D01*
X1203Y736D02*
X1225Y736D01*
X110Y735D02*
X114Y735D01*
X161Y735D02*
X192Y735D01*
X211Y735D02*
X233Y735D01*
X264Y735D02*
X283Y735D01*
X1154Y735D02*
X1180Y735D01*
X1204Y735D02*
X1224Y735D01*
X109Y734D02*
X115Y734D01*
X161Y734D02*
X193Y734D01*
X211Y734D02*
X234Y734D01*
X263Y734D02*
X283Y734D01*
X1155Y734D02*
X1180Y734D01*
X1205Y734D02*
X1222Y734D01*
X109Y733D02*
X115Y733D01*
X161Y733D02*
X193Y733D01*
X211Y733D02*
X236Y733D01*
X263Y733D02*
X283Y733D01*
X109Y732D02*
X115Y732D01*
X161Y732D02*
X193Y732D01*
X211Y732D02*
X236Y732D01*
X263Y732D02*
X283Y732D01*
X109Y731D02*
X115Y731D01*
X161Y731D02*
X192Y731D01*
X211Y731D02*
X237Y731D01*
X264Y731D02*
X283Y731D01*
X109Y730D02*
X115Y730D01*
X161Y730D02*
X191Y730D01*
X212Y730D02*
X238Y730D01*
X265Y730D02*
X283Y730D01*
X109Y729D02*
X115Y729D01*
X161Y729D02*
X167Y729D01*
X217Y729D02*
X223Y729D01*
X231Y729D02*
X238Y729D01*
X277Y729D02*
X283Y729D01*
X109Y728D02*
X115Y728D01*
X161Y728D02*
X167Y728D01*
X217Y728D02*
X223Y728D01*
X232Y728D02*
X239Y728D01*
X277Y728D02*
X283Y728D01*
X109Y727D02*
X115Y727D01*
X161Y727D02*
X167Y727D01*
X217Y727D02*
X223Y727D01*
X232Y727D02*
X239Y727D01*
X277Y727D02*
X283Y727D01*
X109Y726D02*
X115Y726D01*
X161Y726D02*
X167Y726D01*
X217Y726D02*
X223Y726D01*
X233Y726D02*
X240Y726D01*
X277Y726D02*
X283Y726D01*
X109Y725D02*
X115Y725D01*
X161Y725D02*
X167Y725D01*
X217Y725D02*
X223Y725D01*
X233Y725D02*
X240Y725D01*
X277Y725D02*
X283Y725D01*
X109Y724D02*
X115Y724D01*
X161Y724D02*
X167Y724D01*
X217Y724D02*
X223Y724D01*
X234Y724D02*
X241Y724D01*
X277Y724D02*
X283Y724D01*
X842Y724D02*
X845Y724D01*
X889Y724D02*
X897Y724D01*
X920Y724D02*
X928Y724D01*
X944Y724D02*
X977Y724D01*
X997Y724D02*
X1000Y724D01*
X1047Y724D02*
X1065Y724D01*
X109Y723D02*
X115Y723D01*
X161Y723D02*
X167Y723D01*
X217Y723D02*
X223Y723D01*
X234Y723D02*
X241Y723D01*
X277Y723D02*
X283Y723D01*
X841Y723D02*
X846Y723D01*
X889Y723D02*
X898Y723D01*
X919Y723D02*
X928Y723D01*
X944Y723D02*
X977Y723D01*
X996Y723D02*
X1001Y723D01*
X1046Y723D02*
X1065Y723D01*
X109Y722D02*
X115Y722D01*
X161Y722D02*
X167Y722D01*
X217Y722D02*
X223Y722D01*
X235Y722D02*
X242Y722D01*
X277Y722D02*
X283Y722D01*
X840Y722D02*
X846Y722D01*
X889Y722D02*
X898Y722D01*
X919Y722D02*
X928Y722D01*
X943Y722D02*
X977Y722D01*
X996Y722D02*
X1001Y722D01*
X1046Y722D02*
X1065Y722D01*
X109Y721D02*
X115Y721D01*
X161Y721D02*
X167Y721D01*
X217Y721D02*
X223Y721D01*
X235Y721D02*
X242Y721D01*
X277Y721D02*
X283Y721D01*
X840Y721D02*
X846Y721D01*
X889Y721D02*
X899Y721D01*
X918Y721D02*
X928Y721D01*
X943Y721D02*
X977Y721D01*
X996Y721D02*
X1002Y721D01*
X1046Y721D02*
X1065Y721D01*
X109Y720D02*
X115Y720D01*
X161Y720D02*
X167Y720D01*
X217Y720D02*
X223Y720D01*
X236Y720D02*
X243Y720D01*
X277Y720D02*
X283Y720D01*
X840Y720D02*
X846Y720D01*
X889Y720D02*
X899Y720D01*
X918Y720D02*
X928Y720D01*
X943Y720D02*
X977Y720D01*
X996Y720D02*
X1002Y720D01*
X1046Y720D02*
X1065Y720D01*
X109Y719D02*
X115Y719D01*
X161Y719D02*
X167Y719D01*
X217Y719D02*
X223Y719D01*
X236Y719D02*
X243Y719D01*
X277Y719D02*
X283Y719D01*
X840Y719D02*
X846Y719D01*
X889Y719D02*
X899Y719D01*
X917Y719D02*
X928Y719D01*
X943Y719D02*
X977Y719D01*
X996Y719D02*
X1002Y719D01*
X1046Y719D02*
X1065Y719D01*
X109Y718D02*
X115Y718D01*
X161Y718D02*
X167Y718D01*
X217Y718D02*
X223Y718D01*
X237Y718D02*
X244Y718D01*
X277Y718D02*
X283Y718D01*
X840Y718D02*
X846Y718D01*
X889Y718D02*
X900Y718D01*
X917Y718D02*
X928Y718D01*
X943Y718D02*
X977Y718D01*
X996Y718D02*
X1002Y718D01*
X1018Y718D02*
X1021Y718D01*
X1048Y718D02*
X1065Y718D01*
X109Y717D02*
X115Y717D01*
X161Y717D02*
X167Y717D01*
X217Y717D02*
X223Y717D01*
X237Y717D02*
X244Y717D01*
X277Y717D02*
X283Y717D01*
X840Y717D02*
X846Y717D01*
X889Y717D02*
X900Y717D01*
X916Y717D02*
X928Y717D01*
X943Y717D02*
X949Y717D01*
X971Y717D02*
X977Y717D01*
X996Y717D02*
X1002Y717D01*
X1017Y717D02*
X1022Y717D01*
X1059Y717D02*
X1065Y717D01*
X109Y716D02*
X115Y716D01*
X161Y716D02*
X167Y716D01*
X217Y716D02*
X223Y716D01*
X238Y716D02*
X245Y716D01*
X277Y716D02*
X283Y716D01*
X840Y716D02*
X846Y716D01*
X889Y716D02*
X901Y716D01*
X916Y716D02*
X928Y716D01*
X944Y716D02*
X948Y716D01*
X971Y716D02*
X977Y716D01*
X996Y716D02*
X1002Y716D01*
X1016Y716D02*
X1022Y716D01*
X1059Y716D02*
X1065Y716D01*
X109Y715D02*
X115Y715D01*
X161Y715D02*
X167Y715D01*
X217Y715D02*
X223Y715D01*
X238Y715D02*
X245Y715D01*
X277Y715D02*
X283Y715D01*
X840Y715D02*
X846Y715D01*
X889Y715D02*
X901Y715D01*
X915Y715D02*
X928Y715D01*
X945Y715D02*
X946Y715D01*
X971Y715D02*
X977Y715D01*
X996Y715D02*
X1002Y715D01*
X1016Y715D02*
X1022Y715D01*
X1059Y715D02*
X1065Y715D01*
X109Y714D02*
X115Y714D01*
X161Y714D02*
X167Y714D01*
X217Y714D02*
X223Y714D01*
X239Y714D02*
X245Y714D01*
X277Y714D02*
X283Y714D01*
X840Y714D02*
X846Y714D01*
X889Y714D02*
X902Y714D01*
X915Y714D02*
X928Y714D01*
X971Y714D02*
X977Y714D01*
X996Y714D02*
X1002Y714D01*
X1016Y714D02*
X1022Y714D01*
X1059Y714D02*
X1065Y714D01*
X109Y713D02*
X115Y713D01*
X161Y713D02*
X167Y713D01*
X217Y713D02*
X223Y713D01*
X239Y713D02*
X246Y713D01*
X277Y713D02*
X283Y713D01*
X840Y713D02*
X846Y713D01*
X889Y713D02*
X902Y713D01*
X914Y713D02*
X928Y713D01*
X971Y713D02*
X977Y713D01*
X996Y713D02*
X1002Y713D01*
X1016Y713D02*
X1022Y713D01*
X1059Y713D02*
X1065Y713D01*
X109Y712D02*
X115Y712D01*
X161Y712D02*
X180Y712D01*
X217Y712D02*
X223Y712D01*
X240Y712D02*
X246Y712D01*
X277Y712D02*
X283Y712D01*
X840Y712D02*
X846Y712D01*
X889Y712D02*
X903Y712D01*
X914Y712D02*
X928Y712D01*
X971Y712D02*
X977Y712D01*
X996Y712D02*
X1002Y712D01*
X1016Y712D02*
X1022Y712D01*
X1059Y712D02*
X1065Y712D01*
X109Y711D02*
X115Y711D01*
X161Y711D02*
X181Y711D01*
X217Y711D02*
X223Y711D01*
X240Y711D02*
X246Y711D01*
X277Y711D02*
X283Y711D01*
X840Y711D02*
X846Y711D01*
X889Y711D02*
X895Y711D01*
X897Y711D02*
X903Y711D01*
X913Y711D02*
X920Y711D01*
X922Y711D02*
X928Y711D01*
X971Y711D02*
X977Y711D01*
X996Y711D02*
X1002Y711D01*
X1016Y711D02*
X1022Y711D01*
X1059Y711D02*
X1065Y711D01*
X109Y710D02*
X115Y710D01*
X161Y710D02*
X181Y710D01*
X217Y710D02*
X223Y710D01*
X240Y710D02*
X246Y710D01*
X277Y710D02*
X283Y710D01*
X840Y710D02*
X846Y710D01*
X889Y710D02*
X895Y710D01*
X897Y710D02*
X904Y710D01*
X913Y710D02*
X920Y710D01*
X922Y710D02*
X928Y710D01*
X971Y710D02*
X977Y710D01*
X996Y710D02*
X1002Y710D01*
X1016Y710D02*
X1022Y710D01*
X1059Y710D02*
X1065Y710D01*
X109Y709D02*
X115Y709D01*
X161Y709D02*
X181Y709D01*
X217Y709D02*
X223Y709D01*
X240Y709D02*
X246Y709D01*
X277Y709D02*
X283Y709D01*
X840Y709D02*
X846Y709D01*
X889Y709D02*
X895Y709D01*
X897Y709D02*
X904Y709D01*
X912Y709D02*
X919Y709D01*
X922Y709D02*
X928Y709D01*
X971Y709D02*
X977Y709D01*
X996Y709D02*
X1002Y709D01*
X1016Y709D02*
X1022Y709D01*
X1059Y709D02*
X1065Y709D01*
X109Y708D02*
X115Y708D01*
X161Y708D02*
X181Y708D01*
X217Y708D02*
X223Y708D01*
X240Y708D02*
X246Y708D01*
X277Y708D02*
X283Y708D01*
X840Y708D02*
X846Y708D01*
X889Y708D02*
X895Y708D01*
X898Y708D02*
X905Y708D01*
X912Y708D02*
X919Y708D01*
X922Y708D02*
X928Y708D01*
X971Y708D02*
X977Y708D01*
X996Y708D02*
X1002Y708D01*
X1016Y708D02*
X1022Y708D01*
X1059Y708D02*
X1065Y708D01*
X109Y707D02*
X115Y707D01*
X161Y707D02*
X181Y707D01*
X217Y707D02*
X223Y707D01*
X240Y707D02*
X246Y707D01*
X277Y707D02*
X283Y707D01*
X840Y707D02*
X846Y707D01*
X889Y707D02*
X895Y707D01*
X898Y707D02*
X905Y707D01*
X911Y707D02*
X918Y707D01*
X922Y707D02*
X928Y707D01*
X971Y707D02*
X977Y707D01*
X996Y707D02*
X1002Y707D01*
X1016Y707D02*
X1022Y707D01*
X1059Y707D02*
X1065Y707D01*
X109Y706D02*
X115Y706D01*
X161Y706D02*
X179Y706D01*
X217Y706D02*
X223Y706D01*
X239Y706D02*
X246Y706D01*
X277Y706D02*
X283Y706D01*
X840Y706D02*
X846Y706D01*
X889Y706D02*
X895Y706D01*
X899Y706D02*
X906Y706D01*
X911Y706D02*
X918Y706D01*
X922Y706D02*
X928Y706D01*
X971Y706D02*
X977Y706D01*
X996Y706D02*
X1002Y706D01*
X1016Y706D02*
X1022Y706D01*
X1059Y706D02*
X1065Y706D01*
X109Y705D02*
X115Y705D01*
X161Y705D02*
X167Y705D01*
X217Y705D02*
X223Y705D01*
X239Y705D02*
X245Y705D01*
X277Y705D02*
X283Y705D01*
X840Y705D02*
X846Y705D01*
X889Y705D02*
X895Y705D01*
X899Y705D02*
X906Y705D01*
X910Y705D02*
X917Y705D01*
X922Y705D02*
X928Y705D01*
X970Y705D02*
X977Y705D01*
X996Y705D02*
X1002Y705D01*
X1016Y705D02*
X1022Y705D01*
X1059Y705D02*
X1065Y705D01*
X109Y704D02*
X115Y704D01*
X161Y704D02*
X167Y704D01*
X217Y704D02*
X223Y704D01*
X238Y704D02*
X245Y704D01*
X277Y704D02*
X283Y704D01*
X840Y704D02*
X846Y704D01*
X889Y704D02*
X895Y704D01*
X900Y704D02*
X907Y704D01*
X910Y704D02*
X917Y704D01*
X922Y704D02*
X928Y704D01*
X969Y704D02*
X977Y704D01*
X996Y704D02*
X1002Y704D01*
X1016Y704D02*
X1022Y704D01*
X1059Y704D02*
X1065Y704D01*
X109Y703D02*
X115Y703D01*
X161Y703D02*
X167Y703D01*
X217Y703D02*
X223Y703D01*
X238Y703D02*
X245Y703D01*
X277Y703D02*
X283Y703D01*
X293Y703D02*
X294Y703D01*
X840Y703D02*
X846Y703D01*
X889Y703D02*
X895Y703D01*
X900Y703D02*
X907Y703D01*
X910Y703D02*
X916Y703D01*
X922Y703D02*
X928Y703D01*
X968Y703D02*
X976Y703D01*
X996Y703D02*
X1002Y703D01*
X1016Y703D02*
X1022Y703D01*
X1059Y703D02*
X1065Y703D01*
X109Y702D02*
X115Y702D01*
X161Y702D02*
X167Y702D01*
X217Y702D02*
X223Y702D01*
X237Y702D02*
X244Y702D01*
X277Y702D02*
X283Y702D01*
X291Y702D02*
X296Y702D01*
X840Y702D02*
X846Y702D01*
X889Y702D02*
X895Y702D01*
X901Y702D02*
X916Y702D01*
X922Y702D02*
X928Y702D01*
X967Y702D02*
X976Y702D01*
X996Y702D02*
X1002Y702D01*
X1016Y702D02*
X1022Y702D01*
X1059Y702D02*
X1065Y702D01*
X109Y701D02*
X115Y701D01*
X161Y701D02*
X167Y701D01*
X217Y701D02*
X223Y701D01*
X237Y701D02*
X244Y701D01*
X277Y701D02*
X283Y701D01*
X291Y701D02*
X296Y701D01*
X840Y701D02*
X846Y701D01*
X889Y701D02*
X895Y701D01*
X901Y701D02*
X915Y701D01*
X922Y701D02*
X928Y701D01*
X966Y701D02*
X975Y701D01*
X996Y701D02*
X1002Y701D01*
X1016Y701D02*
X1022Y701D01*
X1059Y701D02*
X1065Y701D01*
X109Y700D02*
X115Y700D01*
X161Y700D02*
X167Y700D01*
X217Y700D02*
X223Y700D01*
X236Y700D02*
X243Y700D01*
X277Y700D02*
X283Y700D01*
X290Y700D02*
X296Y700D01*
X840Y700D02*
X846Y700D01*
X889Y700D02*
X895Y700D01*
X902Y700D02*
X915Y700D01*
X922Y700D02*
X928Y700D01*
X964Y700D02*
X974Y700D01*
X996Y700D02*
X1002Y700D01*
X1016Y700D02*
X1022Y700D01*
X1059Y700D02*
X1065Y700D01*
X109Y699D02*
X115Y699D01*
X161Y699D02*
X167Y699D01*
X217Y699D02*
X223Y699D01*
X236Y699D02*
X243Y699D01*
X277Y699D02*
X283Y699D01*
X290Y699D02*
X296Y699D01*
X840Y699D02*
X846Y699D01*
X889Y699D02*
X895Y699D01*
X902Y699D02*
X914Y699D01*
X922Y699D02*
X928Y699D01*
X963Y699D02*
X973Y699D01*
X996Y699D02*
X1002Y699D01*
X1016Y699D02*
X1022Y699D01*
X1059Y699D02*
X1065Y699D01*
X109Y698D02*
X115Y698D01*
X161Y698D02*
X167Y698D01*
X217Y698D02*
X223Y698D01*
X235Y698D02*
X242Y698D01*
X277Y698D02*
X283Y698D01*
X290Y698D02*
X296Y698D01*
X840Y698D02*
X846Y698D01*
X889Y698D02*
X895Y698D01*
X903Y698D02*
X914Y698D01*
X922Y698D02*
X928Y698D01*
X962Y698D02*
X972Y698D01*
X996Y698D02*
X1002Y698D01*
X1016Y698D02*
X1022Y698D01*
X1059Y698D02*
X1065Y698D01*
X109Y697D02*
X115Y697D01*
X161Y697D02*
X167Y697D01*
X217Y697D02*
X223Y697D01*
X235Y697D02*
X242Y697D01*
X277Y697D02*
X283Y697D01*
X290Y697D02*
X296Y697D01*
X840Y697D02*
X846Y697D01*
X889Y697D02*
X895Y697D01*
X903Y697D02*
X913Y697D01*
X922Y697D02*
X928Y697D01*
X961Y697D02*
X971Y697D01*
X996Y697D02*
X1002Y697D01*
X1016Y697D02*
X1022Y697D01*
X1059Y697D02*
X1065Y697D01*
X109Y696D02*
X115Y696D01*
X161Y696D02*
X167Y696D01*
X217Y696D02*
X223Y696D01*
X234Y696D02*
X241Y696D01*
X277Y696D02*
X283Y696D01*
X290Y696D02*
X296Y696D01*
X840Y696D02*
X846Y696D01*
X889Y696D02*
X895Y696D01*
X904Y696D02*
X913Y696D01*
X922Y696D02*
X928Y696D01*
X960Y696D02*
X970Y696D01*
X996Y696D02*
X1002Y696D01*
X1016Y696D02*
X1022Y696D01*
X1059Y696D02*
X1065Y696D01*
X109Y695D02*
X115Y695D01*
X161Y695D02*
X167Y695D01*
X217Y695D02*
X223Y695D01*
X234Y695D02*
X241Y695D01*
X277Y695D02*
X283Y695D01*
X290Y695D02*
X296Y695D01*
X840Y695D02*
X846Y695D01*
X889Y695D02*
X895Y695D01*
X904Y695D02*
X912Y695D01*
X922Y695D02*
X928Y695D01*
X959Y695D02*
X968Y695D01*
X996Y695D02*
X1024Y695D01*
X1059Y695D02*
X1065Y695D01*
X109Y694D02*
X115Y694D01*
X161Y694D02*
X167Y694D01*
X217Y694D02*
X223Y694D01*
X233Y694D02*
X240Y694D01*
X277Y694D02*
X283Y694D01*
X290Y694D02*
X296Y694D01*
X840Y694D02*
X846Y694D01*
X889Y694D02*
X895Y694D01*
X904Y694D02*
X912Y694D01*
X922Y694D02*
X928Y694D01*
X958Y694D02*
X967Y694D01*
X996Y694D02*
X1026Y694D01*
X1059Y694D02*
X1065Y694D01*
X109Y693D02*
X115Y693D01*
X161Y693D02*
X167Y693D01*
X217Y693D02*
X223Y693D01*
X233Y693D02*
X240Y693D01*
X277Y693D02*
X283Y693D01*
X290Y693D02*
X296Y693D01*
X840Y693D02*
X846Y693D01*
X889Y693D02*
X895Y693D01*
X905Y693D02*
X911Y693D01*
X922Y693D02*
X928Y693D01*
X957Y693D02*
X966Y693D01*
X996Y693D02*
X1026Y693D01*
X1059Y693D02*
X1065Y693D01*
X109Y692D02*
X115Y692D01*
X161Y692D02*
X167Y692D01*
X217Y692D02*
X223Y692D01*
X232Y692D02*
X239Y692D01*
X277Y692D02*
X283Y692D01*
X290Y692D02*
X296Y692D01*
X840Y692D02*
X846Y692D01*
X889Y692D02*
X895Y692D01*
X906Y692D02*
X911Y692D01*
X922Y692D02*
X928Y692D01*
X957Y692D02*
X965Y692D01*
X996Y692D02*
X1026Y692D01*
X1059Y692D02*
X1065Y692D01*
X109Y691D02*
X115Y691D01*
X161Y691D02*
X167Y691D01*
X217Y691D02*
X223Y691D01*
X232Y691D02*
X239Y691D01*
X277Y691D02*
X283Y691D01*
X290Y691D02*
X296Y691D01*
X840Y691D02*
X846Y691D01*
X889Y691D02*
X895Y691D01*
X906Y691D02*
X910Y691D01*
X922Y691D02*
X928Y691D01*
X957Y691D02*
X964Y691D01*
X996Y691D02*
X1026Y691D01*
X1059Y691D02*
X1065Y691D01*
X1075Y691D02*
X1078Y691D01*
X109Y690D02*
X115Y690D01*
X161Y690D02*
X167Y690D01*
X217Y690D02*
X223Y690D01*
X231Y690D02*
X238Y690D01*
X277Y690D02*
X283Y690D01*
X290Y690D02*
X296Y690D01*
X840Y690D02*
X846Y690D01*
X889Y690D02*
X895Y690D01*
X907Y690D02*
X909Y690D01*
X922Y690D02*
X928Y690D01*
X957Y690D02*
X963Y690D01*
X996Y690D02*
X1026Y690D01*
X1059Y690D02*
X1065Y690D01*
X1074Y690D02*
X1079Y690D01*
X109Y689D02*
X140Y689D01*
X161Y689D02*
X190Y689D01*
X213Y689D02*
X238Y689D01*
X265Y689D02*
X296Y689D01*
X840Y689D02*
X846Y689D01*
X889Y689D02*
X895Y689D01*
X922Y689D02*
X928Y689D01*
X957Y689D02*
X963Y689D01*
X996Y689D02*
X1025Y689D01*
X1059Y689D02*
X1065Y689D01*
X1073Y689D02*
X1079Y689D01*
X109Y688D02*
X141Y688D01*
X161Y688D02*
X192Y688D01*
X211Y688D02*
X237Y688D01*
X264Y688D02*
X296Y688D01*
X840Y688D02*
X846Y688D01*
X889Y688D02*
X895Y688D01*
X922Y688D02*
X928Y688D01*
X957Y688D02*
X963Y688D01*
X1016Y688D02*
X1022Y688D01*
X1059Y688D02*
X1065Y688D01*
X1073Y688D02*
X1079Y688D01*
X109Y687D02*
X142Y687D01*
X161Y687D02*
X193Y687D01*
X211Y687D02*
X237Y687D01*
X263Y687D02*
X296Y687D01*
X840Y687D02*
X846Y687D01*
X889Y687D02*
X895Y687D01*
X922Y687D02*
X928Y687D01*
X957Y687D02*
X963Y687D01*
X1016Y687D02*
X1022Y687D01*
X1059Y687D02*
X1065Y687D01*
X1073Y687D02*
X1079Y687D01*
X109Y686D02*
X142Y686D01*
X161Y686D02*
X193Y686D01*
X210Y686D02*
X236Y686D01*
X263Y686D02*
X296Y686D01*
X840Y686D02*
X846Y686D01*
X889Y686D02*
X895Y686D01*
X922Y686D02*
X928Y686D01*
X957Y686D02*
X963Y686D01*
X1016Y686D02*
X1022Y686D01*
X1059Y686D02*
X1065Y686D01*
X1073Y686D02*
X1079Y686D01*
X109Y685D02*
X142Y685D01*
X161Y685D02*
X193Y685D01*
X211Y685D02*
X235Y685D01*
X263Y685D02*
X296Y685D01*
X840Y685D02*
X846Y685D01*
X889Y685D02*
X895Y685D01*
X922Y685D02*
X928Y685D01*
X957Y685D02*
X963Y685D01*
X1016Y685D02*
X1022Y685D01*
X1059Y685D02*
X1065Y685D01*
X1073Y685D02*
X1079Y685D01*
X109Y684D02*
X142Y684D01*
X161Y684D02*
X192Y684D01*
X211Y684D02*
X234Y684D01*
X263Y684D02*
X296Y684D01*
X840Y684D02*
X846Y684D01*
X889Y684D02*
X895Y684D01*
X922Y684D02*
X928Y684D01*
X957Y684D02*
X963Y684D01*
X1016Y684D02*
X1022Y684D01*
X1059Y684D02*
X1065Y684D01*
X1073Y684D02*
X1079Y684D01*
X109Y683D02*
X141Y683D01*
X161Y683D02*
X191Y683D01*
X212Y683D02*
X232Y683D01*
X264Y683D02*
X295Y683D01*
X840Y683D02*
X846Y683D01*
X889Y683D02*
X895Y683D01*
X922Y683D02*
X928Y683D01*
X957Y683D02*
X963Y683D01*
X1016Y683D02*
X1022Y683D01*
X1059Y683D02*
X1065Y683D01*
X1073Y683D02*
X1079Y683D01*
X840Y682D02*
X846Y682D01*
X889Y682D02*
X895Y682D01*
X922Y682D02*
X928Y682D01*
X957Y682D02*
X963Y682D01*
X1016Y682D02*
X1022Y682D01*
X1059Y682D02*
X1065Y682D01*
X1073Y682D02*
X1079Y682D01*
X840Y681D02*
X846Y681D01*
X889Y681D02*
X895Y681D01*
X922Y681D02*
X928Y681D01*
X957Y681D02*
X963Y681D01*
X1016Y681D02*
X1022Y681D01*
X1059Y681D02*
X1065Y681D01*
X1073Y681D02*
X1079Y681D01*
X840Y680D02*
X846Y680D01*
X889Y680D02*
X895Y680D01*
X922Y680D02*
X928Y680D01*
X957Y680D02*
X963Y680D01*
X1016Y680D02*
X1022Y680D01*
X1059Y680D02*
X1065Y680D01*
X1073Y680D02*
X1079Y680D01*
X840Y679D02*
X846Y679D01*
X889Y679D02*
X895Y679D01*
X922Y679D02*
X928Y679D01*
X957Y679D02*
X963Y679D01*
X1016Y679D02*
X1022Y679D01*
X1059Y679D02*
X1065Y679D01*
X1073Y679D02*
X1079Y679D01*
X840Y678D02*
X846Y678D01*
X889Y678D02*
X895Y678D01*
X922Y678D02*
X928Y678D01*
X957Y678D02*
X963Y678D01*
X1016Y678D02*
X1022Y678D01*
X1059Y678D02*
X1065Y678D01*
X1073Y678D02*
X1079Y678D01*
X840Y677D02*
X872Y677D01*
X889Y677D02*
X895Y677D01*
X922Y677D02*
X928Y677D01*
X957Y677D02*
X963Y677D01*
X1016Y677D02*
X1022Y677D01*
X1047Y677D02*
X1079Y677D01*
X840Y676D02*
X873Y676D01*
X889Y676D02*
X895Y676D01*
X922Y676D02*
X928Y676D01*
X957Y676D02*
X963Y676D01*
X1016Y676D02*
X1022Y676D01*
X1046Y676D02*
X1079Y676D01*
X840Y675D02*
X874Y675D01*
X889Y675D02*
X895Y675D01*
X922Y675D02*
X928Y675D01*
X957Y675D02*
X963Y675D01*
X1016Y675D02*
X1022Y675D01*
X1046Y675D02*
X1079Y675D01*
X840Y674D02*
X874Y674D01*
X889Y674D02*
X895Y674D01*
X922Y674D02*
X928Y674D01*
X957Y674D02*
X963Y674D01*
X1016Y674D02*
X1022Y674D01*
X1046Y674D02*
X1079Y674D01*
X840Y673D02*
X874Y673D01*
X889Y673D02*
X894Y673D01*
X922Y673D02*
X928Y673D01*
X957Y673D02*
X962Y673D01*
X1017Y673D02*
X1022Y673D01*
X1046Y673D02*
X1079Y673D01*
X840Y672D02*
X873Y672D01*
X889Y672D02*
X894Y672D01*
X923Y672D02*
X927Y672D01*
X957Y672D02*
X962Y672D01*
X1017Y672D02*
X1022Y672D01*
X1046Y672D02*
X1078Y672D01*
X841Y671D02*
X872Y671D01*
X891Y671D02*
X893Y671D01*
X924Y671D02*
X926Y671D01*
X959Y671D02*
X961Y671D01*
X1018Y671D02*
X1020Y671D01*
X1048Y671D02*
X1077Y671D01*
X1583Y461D02*
X1617Y461D01*
X1581Y460D02*
X1618Y460D01*
X1581Y459D02*
X1619Y459D01*
X1580Y458D02*
X1619Y458D01*
X1580Y457D02*
X1620Y457D01*
X1580Y456D02*
X1620Y456D01*
X1580Y455D02*
X1620Y455D01*
X1580Y454D02*
X1619Y454D01*
X1581Y453D02*
X1619Y453D01*
X1582Y452D02*
X1618Y452D01*
X1583Y451D02*
X1616Y451D01*
X1230Y440D02*
X1247Y440D01*
X69Y439D02*
X72Y439D01*
X114Y439D02*
X118Y439D01*
X142Y439D02*
X145Y439D01*
X1229Y439D02*
X1248Y439D01*
X68Y438D02*
X73Y438D01*
X114Y438D02*
X119Y438D01*
X141Y438D02*
X146Y438D01*
X260Y438D02*
X291Y438D01*
X311Y438D02*
X312Y438D01*
X339Y438D02*
X340Y438D01*
X1229Y438D02*
X1248Y438D01*
X67Y437D02*
X73Y437D01*
X113Y437D02*
X119Y437D01*
X141Y437D02*
X147Y437D01*
X258Y437D02*
X291Y437D01*
X310Y437D02*
X314Y437D01*
X337Y437D02*
X341Y437D01*
X1228Y437D02*
X1248Y437D01*
X67Y436D02*
X73Y436D01*
X113Y436D02*
X120Y436D01*
X141Y436D02*
X147Y436D01*
X258Y436D02*
X291Y436D01*
X309Y436D02*
X314Y436D01*
X336Y436D02*
X342Y436D01*
X1229Y436D02*
X1248Y436D01*
X67Y435D02*
X73Y435D01*
X113Y435D02*
X121Y435D01*
X141Y435D02*
X147Y435D01*
X257Y435D02*
X291Y435D01*
X309Y435D02*
X315Y435D01*
X336Y435D02*
X342Y435D01*
X1229Y435D02*
X1248Y435D01*
X67Y434D02*
X73Y434D01*
X114Y434D02*
X121Y434D01*
X141Y434D02*
X147Y434D01*
X257Y434D02*
X291Y434D01*
X309Y434D02*
X316Y434D01*
X336Y434D02*
X342Y434D01*
X1230Y434D02*
X1248Y434D01*
X67Y433D02*
X73Y433D01*
X115Y433D02*
X122Y433D01*
X141Y433D02*
X147Y433D01*
X258Y433D02*
X291Y433D01*
X309Y433D02*
X316Y433D01*
X336Y433D02*
X342Y433D01*
X1242Y433D02*
X1248Y433D01*
X67Y432D02*
X73Y432D01*
X115Y432D02*
X122Y432D01*
X141Y432D02*
X147Y432D01*
X259Y432D02*
X291Y432D01*
X310Y432D02*
X317Y432D01*
X336Y432D02*
X342Y432D01*
X1242Y432D02*
X1248Y432D01*
X67Y431D02*
X73Y431D01*
X116Y431D02*
X123Y431D01*
X141Y431D02*
X147Y431D01*
X285Y431D02*
X291Y431D01*
X310Y431D02*
X317Y431D01*
X336Y431D02*
X342Y431D01*
X1242Y431D02*
X1248Y431D01*
X67Y430D02*
X73Y430D01*
X116Y430D02*
X123Y430D01*
X141Y430D02*
X147Y430D01*
X285Y430D02*
X291Y430D01*
X311Y430D02*
X318Y430D01*
X336Y430D02*
X342Y430D01*
X1242Y430D02*
X1248Y430D01*
X67Y429D02*
X73Y429D01*
X117Y429D02*
X124Y429D01*
X141Y429D02*
X147Y429D01*
X285Y429D02*
X291Y429D01*
X311Y429D02*
X319Y429D01*
X336Y429D02*
X342Y429D01*
X1242Y429D02*
X1248Y429D01*
X67Y428D02*
X73Y428D01*
X117Y428D02*
X125Y428D01*
X141Y428D02*
X147Y428D01*
X285Y428D02*
X291Y428D01*
X312Y428D02*
X319Y428D01*
X336Y428D02*
X342Y428D01*
X1242Y428D02*
X1248Y428D01*
X67Y427D02*
X73Y427D01*
X118Y427D02*
X125Y427D01*
X141Y427D02*
X147Y427D01*
X285Y427D02*
X291Y427D01*
X313Y427D02*
X320Y427D01*
X336Y427D02*
X342Y427D01*
X1242Y427D02*
X1248Y427D01*
X67Y426D02*
X73Y426D01*
X119Y426D02*
X126Y426D01*
X141Y426D02*
X147Y426D01*
X285Y426D02*
X291Y426D01*
X313Y426D02*
X320Y426D01*
X336Y426D02*
X342Y426D01*
X1195Y426D02*
X1248Y426D01*
X67Y425D02*
X73Y425D01*
X119Y425D02*
X126Y425D01*
X141Y425D02*
X147Y425D01*
X285Y425D02*
X291Y425D01*
X314Y425D02*
X321Y425D01*
X336Y425D02*
X342Y425D01*
X1195Y425D02*
X1248Y425D01*
X67Y424D02*
X73Y424D01*
X120Y424D02*
X127Y424D01*
X141Y424D02*
X147Y424D01*
X285Y424D02*
X291Y424D01*
X314Y424D02*
X321Y424D01*
X336Y424D02*
X342Y424D01*
X1195Y424D02*
X1248Y424D01*
X67Y423D02*
X73Y423D01*
X120Y423D02*
X128Y423D01*
X141Y423D02*
X147Y423D01*
X285Y423D02*
X291Y423D01*
X315Y423D02*
X322Y423D01*
X336Y423D02*
X342Y423D01*
X1195Y423D02*
X1248Y423D01*
X65Y422D02*
X93Y422D01*
X121Y422D02*
X128Y422D01*
X141Y422D02*
X147Y422D01*
X285Y422D02*
X291Y422D01*
X315Y422D02*
X323Y422D01*
X336Y422D02*
X342Y422D01*
X1195Y422D02*
X1248Y422D01*
X64Y421D02*
X94Y421D01*
X122Y421D02*
X129Y421D01*
X141Y421D02*
X147Y421D01*
X285Y421D02*
X291Y421D01*
X316Y421D02*
X323Y421D01*
X336Y421D02*
X342Y421D01*
X1195Y421D02*
X1248Y421D01*
X63Y420D02*
X94Y420D01*
X122Y420D02*
X129Y420D01*
X141Y420D02*
X147Y420D01*
X285Y420D02*
X291Y420D01*
X317Y420D02*
X324Y420D01*
X336Y420D02*
X342Y420D01*
X1195Y420D02*
X1248Y420D01*
X63Y419D02*
X94Y419D01*
X123Y419D02*
X130Y419D01*
X141Y419D02*
X147Y419D01*
X285Y419D02*
X291Y419D01*
X317Y419D02*
X324Y419D01*
X336Y419D02*
X342Y419D01*
X1195Y419D02*
X1201Y419D01*
X1242Y419D02*
X1248Y419D01*
X63Y418D02*
X94Y418D01*
X123Y418D02*
X130Y418D01*
X141Y418D02*
X147Y418D01*
X285Y418D02*
X291Y418D01*
X318Y418D02*
X325Y418D01*
X336Y418D02*
X342Y418D01*
X1195Y418D02*
X1201Y418D01*
X1242Y418D02*
X1248Y418D01*
X64Y417D02*
X94Y417D01*
X124Y417D02*
X131Y417D01*
X141Y417D02*
X147Y417D01*
X285Y417D02*
X291Y417D01*
X318Y417D02*
X326Y417D01*
X336Y417D02*
X342Y417D01*
X1195Y417D02*
X1201Y417D01*
X1242Y417D02*
X1248Y417D01*
X64Y416D02*
X94Y416D01*
X124Y416D02*
X132Y416D01*
X141Y416D02*
X147Y416D01*
X285Y416D02*
X291Y416D01*
X319Y416D02*
X326Y416D01*
X336Y416D02*
X342Y416D01*
X1195Y416D02*
X1201Y416D01*
X1242Y416D02*
X1248Y416D01*
X67Y415D02*
X73Y415D01*
X88Y415D02*
X94Y415D01*
X125Y415D02*
X132Y415D01*
X141Y415D02*
X147Y415D01*
X285Y415D02*
X291Y415D01*
X320Y415D02*
X327Y415D01*
X336Y415D02*
X342Y415D01*
X1195Y415D02*
X1201Y415D01*
X1242Y415D02*
X1248Y415D01*
X67Y414D02*
X73Y414D01*
X88Y414D02*
X94Y414D01*
X126Y414D02*
X133Y414D01*
X141Y414D02*
X147Y414D01*
X262Y414D02*
X291Y414D01*
X320Y414D02*
X327Y414D01*
X336Y414D02*
X342Y414D01*
X1195Y414D02*
X1201Y414D01*
X1242Y414D02*
X1248Y414D01*
X67Y413D02*
X73Y413D01*
X88Y413D02*
X94Y413D01*
X126Y413D02*
X133Y413D01*
X141Y413D02*
X147Y413D01*
X260Y413D02*
X291Y413D01*
X321Y413D02*
X328Y413D01*
X336Y413D02*
X342Y413D01*
X1195Y413D02*
X1201Y413D01*
X1242Y413D02*
X1248Y413D01*
X67Y412D02*
X73Y412D01*
X88Y412D02*
X94Y412D01*
X127Y412D02*
X134Y412D01*
X141Y412D02*
X147Y412D01*
X259Y412D02*
X290Y412D01*
X321Y412D02*
X328Y412D01*
X336Y412D02*
X342Y412D01*
X1195Y412D02*
X1201Y412D01*
X1242Y412D02*
X1248Y412D01*
X67Y411D02*
X73Y411D01*
X88Y411D02*
X94Y411D01*
X127Y411D02*
X135Y411D01*
X141Y411D02*
X147Y411D01*
X258Y411D02*
X290Y411D01*
X322Y411D02*
X329Y411D01*
X336Y411D02*
X342Y411D01*
X1195Y411D02*
X1201Y411D01*
X1242Y411D02*
X1248Y411D01*
X67Y410D02*
X73Y410D01*
X88Y410D02*
X94Y410D01*
X121Y410D02*
X147Y410D01*
X258Y410D02*
X289Y410D01*
X322Y410D02*
X330Y410D01*
X336Y410D02*
X342Y410D01*
X1195Y410D02*
X1201Y410D01*
X1242Y410D02*
X1248Y410D01*
X67Y409D02*
X73Y409D01*
X88Y409D02*
X94Y409D01*
X118Y409D02*
X147Y409D01*
X257Y409D02*
X288Y409D01*
X323Y409D02*
X330Y409D01*
X336Y409D02*
X342Y409D01*
X1195Y409D02*
X1201Y409D01*
X1243Y409D02*
X1248Y409D01*
X67Y408D02*
X73Y408D01*
X88Y408D02*
X94Y408D01*
X117Y408D02*
X147Y408D01*
X257Y408D02*
X286Y408D01*
X315Y408D02*
X342Y408D01*
X1196Y408D02*
X1201Y408D01*
X1243Y408D02*
X1248Y408D01*
X67Y407D02*
X73Y407D01*
X88Y407D02*
X94Y407D01*
X116Y407D02*
X147Y407D01*
X257Y407D02*
X263Y407D01*
X313Y407D02*
X342Y407D01*
X1196Y407D02*
X1200Y407D01*
X1244Y407D02*
X1247Y407D01*
X67Y406D02*
X73Y406D01*
X88Y406D02*
X94Y406D01*
X115Y406D02*
X147Y406D01*
X257Y406D02*
X263Y406D01*
X312Y406D02*
X342Y406D01*
X67Y405D02*
X73Y405D01*
X88Y405D02*
X94Y405D01*
X114Y405D02*
X147Y405D01*
X257Y405D02*
X263Y405D01*
X311Y405D02*
X342Y405D01*
X67Y404D02*
X73Y404D01*
X88Y404D02*
X94Y404D01*
X114Y404D02*
X147Y404D01*
X257Y404D02*
X263Y404D01*
X310Y404D02*
X342Y404D01*
X67Y403D02*
X73Y403D01*
X88Y403D02*
X94Y403D01*
X114Y403D02*
X121Y403D01*
X141Y403D02*
X147Y403D01*
X257Y403D02*
X263Y403D01*
X310Y403D02*
X342Y403D01*
X67Y402D02*
X73Y402D01*
X88Y402D02*
X94Y402D01*
X113Y402D02*
X120Y402D01*
X141Y402D02*
X147Y402D01*
X257Y402D02*
X263Y402D01*
X309Y402D02*
X342Y402D01*
X67Y401D02*
X73Y401D01*
X88Y401D02*
X94Y401D01*
X113Y401D02*
X119Y401D01*
X141Y401D02*
X147Y401D01*
X257Y401D02*
X263Y401D01*
X309Y401D02*
X316Y401D01*
X336Y401D02*
X342Y401D01*
X67Y400D02*
X73Y400D01*
X88Y400D02*
X94Y400D01*
X113Y400D02*
X119Y400D01*
X141Y400D02*
X147Y400D01*
X257Y400D02*
X263Y400D01*
X309Y400D02*
X315Y400D01*
X336Y400D02*
X342Y400D01*
X67Y399D02*
X73Y399D01*
X88Y399D02*
X94Y399D01*
X113Y399D02*
X119Y399D01*
X141Y399D02*
X147Y399D01*
X257Y399D02*
X263Y399D01*
X309Y399D02*
X315Y399D01*
X336Y399D02*
X342Y399D01*
X67Y398D02*
X73Y398D01*
X88Y398D02*
X94Y398D01*
X113Y398D02*
X119Y398D01*
X141Y398D02*
X147Y398D01*
X257Y398D02*
X263Y398D01*
X309Y398D02*
X315Y398D01*
X336Y398D02*
X342Y398D01*
X67Y397D02*
X73Y397D01*
X88Y397D02*
X94Y397D01*
X113Y397D02*
X119Y397D01*
X141Y397D02*
X147Y397D01*
X257Y397D02*
X263Y397D01*
X309Y397D02*
X315Y397D01*
X336Y397D02*
X342Y397D01*
X67Y396D02*
X73Y396D01*
X88Y396D02*
X94Y396D01*
X113Y396D02*
X119Y396D01*
X141Y396D02*
X147Y396D01*
X257Y396D02*
X263Y396D01*
X309Y396D02*
X315Y396D01*
X336Y396D02*
X342Y396D01*
X67Y395D02*
X73Y395D01*
X88Y395D02*
X94Y395D01*
X113Y395D02*
X119Y395D01*
X141Y395D02*
X147Y395D01*
X257Y395D02*
X263Y395D01*
X309Y395D02*
X315Y395D01*
X336Y395D02*
X342Y395D01*
X68Y394D02*
X73Y394D01*
X88Y394D02*
X94Y394D01*
X113Y394D02*
X120Y394D01*
X141Y394D02*
X147Y394D01*
X257Y394D02*
X263Y394D01*
X309Y394D02*
X315Y394D01*
X336Y394D02*
X342Y394D01*
X68Y393D02*
X72Y393D01*
X88Y393D02*
X94Y393D01*
X114Y393D02*
X122Y393D01*
X140Y393D02*
X147Y393D01*
X257Y393D02*
X263Y393D01*
X309Y393D02*
X315Y393D01*
X336Y393D02*
X342Y393D01*
X69Y392D02*
X71Y392D01*
X88Y392D02*
X94Y392D01*
X114Y392D02*
X147Y392D01*
X257Y392D02*
X263Y392D01*
X309Y392D02*
X316Y392D01*
X336Y392D02*
X342Y392D01*
X88Y391D02*
X94Y391D01*
X115Y391D02*
X147Y391D01*
X257Y391D02*
X288Y391D01*
X309Y391D02*
X342Y391D01*
X88Y390D02*
X94Y390D01*
X115Y390D02*
X147Y390D01*
X257Y390D02*
X290Y390D01*
X310Y390D02*
X342Y390D01*
X88Y389D02*
X94Y389D01*
X116Y389D02*
X147Y389D01*
X258Y389D02*
X290Y389D01*
X310Y389D02*
X342Y389D01*
X1204Y389D02*
X1211Y389D01*
X1245Y389D02*
X1246Y389D01*
X88Y388D02*
X94Y388D01*
X117Y388D02*
X147Y388D01*
X258Y388D02*
X291Y388D01*
X311Y388D02*
X342Y388D01*
X1201Y388D02*
X1213Y388D01*
X1243Y388D02*
X1248Y388D01*
X89Y387D02*
X93Y387D01*
X119Y387D02*
X147Y387D01*
X259Y387D02*
X291Y387D01*
X312Y387D02*
X342Y387D01*
X1199Y387D02*
X1215Y387D01*
X1241Y387D02*
X1248Y387D01*
X90Y386D02*
X91Y386D01*
X122Y386D02*
X146Y386D01*
X260Y386D02*
X290Y386D01*
X313Y386D02*
X342Y386D01*
X1198Y386D02*
X1216Y386D01*
X1239Y386D02*
X1248Y386D01*
X261Y385D02*
X290Y385D01*
X315Y385D02*
X342Y385D01*
X1198Y385D02*
X1217Y385D01*
X1238Y385D02*
X1248Y385D01*
X1197Y384D02*
X1218Y384D01*
X1236Y384D02*
X1248Y384D01*
X1196Y383D02*
X1218Y383D01*
X1234Y383D02*
X1247Y383D01*
X1196Y382D02*
X1204Y382D01*
X1211Y382D02*
X1218Y382D01*
X1233Y382D02*
X1246Y382D01*
X1196Y381D02*
X1202Y381D01*
X1212Y381D02*
X1219Y381D01*
X1231Y381D02*
X1244Y381D01*
X1195Y380D02*
X1202Y380D01*
X1213Y380D02*
X1219Y380D01*
X1229Y380D02*
X1242Y380D01*
X1195Y379D02*
X1201Y379D01*
X1213Y379D02*
X1219Y379D01*
X1227Y379D02*
X1240Y379D01*
X1195Y378D02*
X1201Y378D01*
X1213Y378D02*
X1219Y378D01*
X1226Y378D02*
X1239Y378D01*
X1195Y377D02*
X1201Y377D01*
X1213Y377D02*
X1219Y377D01*
X1224Y377D02*
X1237Y377D01*
X1195Y376D02*
X1201Y376D01*
X1213Y376D02*
X1219Y376D01*
X1222Y376D02*
X1235Y376D01*
X1195Y375D02*
X1201Y375D01*
X1213Y375D02*
X1219Y375D01*
X1221Y375D02*
X1234Y375D01*
X1195Y374D02*
X1201Y374D01*
X1213Y374D02*
X1232Y374D01*
X1195Y373D02*
X1201Y373D01*
X1213Y373D02*
X1230Y373D01*
X1195Y372D02*
X1201Y372D01*
X1213Y372D02*
X1228Y372D01*
X1195Y371D02*
X1201Y371D01*
X1213Y371D02*
X1227Y371D01*
X1195Y370D02*
X1201Y370D01*
X1213Y370D02*
X1225Y370D01*
X1195Y369D02*
X1201Y369D01*
X1213Y369D02*
X1223Y369D01*
X1195Y368D02*
X1201Y368D01*
X1213Y368D02*
X1222Y368D01*
X1195Y367D02*
X1201Y367D01*
X1213Y367D02*
X1220Y367D01*
X1195Y366D02*
X1201Y366D01*
X1213Y366D02*
X1219Y366D01*
X1195Y365D02*
X1201Y365D01*
X1213Y365D02*
X1219Y365D01*
X1195Y364D02*
X1201Y364D01*
X1213Y364D02*
X1219Y364D01*
X1195Y363D02*
X1201Y363D01*
X1213Y363D02*
X1219Y363D01*
X1195Y362D02*
X1201Y362D01*
X1213Y362D02*
X1219Y362D01*
X1195Y361D02*
X1247Y361D01*
X1195Y360D02*
X1248Y360D01*
X1195Y359D02*
X1248Y359D01*
X1195Y358D02*
X1248Y358D01*
X1195Y357D02*
X1248Y357D01*
X1195Y356D02*
X1248Y356D01*
X1196Y355D02*
X1246Y355D01*
X1583Y351D02*
X1617Y351D01*
X1581Y350D02*
X1618Y350D01*
X1581Y349D02*
X1619Y349D01*
X1580Y348D02*
X1619Y348D01*
X1580Y347D02*
X1620Y347D01*
X1580Y346D02*
X1620Y346D01*
X1580Y345D02*
X1620Y345D01*
X1580Y344D02*
X1619Y344D01*
X1581Y343D02*
X1619Y343D01*
X1582Y342D02*
X1618Y342D01*
X1583Y341D02*
X1616Y341D01*
X474Y337D02*
X500Y337D01*
X526Y337D02*
X555Y337D01*
X474Y336D02*
X502Y336D01*
X525Y336D02*
X556Y336D01*
X474Y335D02*
X504Y335D01*
X525Y335D02*
X557Y335D01*
X474Y334D02*
X505Y334D01*
X525Y334D02*
X558Y334D01*
X474Y333D02*
X505Y333D01*
X525Y333D02*
X558Y333D01*
X474Y332D02*
X506Y332D01*
X526Y332D02*
X558Y332D01*
X474Y331D02*
X506Y331D01*
X527Y331D02*
X558Y331D01*
X474Y330D02*
X480Y330D01*
X500Y330D02*
X507Y330D01*
X552Y330D02*
X558Y330D01*
X474Y329D02*
X480Y329D01*
X501Y329D02*
X507Y329D01*
X552Y329D02*
X558Y329D01*
X474Y328D02*
X480Y328D01*
X501Y328D02*
X507Y328D01*
X552Y328D02*
X558Y328D01*
X474Y327D02*
X480Y327D01*
X501Y327D02*
X507Y327D01*
X552Y327D02*
X558Y327D01*
X474Y326D02*
X480Y326D01*
X501Y326D02*
X507Y326D01*
X552Y326D02*
X558Y326D01*
X474Y325D02*
X480Y325D01*
X501Y325D02*
X507Y325D01*
X552Y325D02*
X558Y325D01*
X474Y324D02*
X480Y324D01*
X501Y324D02*
X507Y324D01*
X552Y324D02*
X558Y324D01*
X474Y323D02*
X480Y323D01*
X501Y323D02*
X507Y323D01*
X552Y323D02*
X558Y323D01*
X474Y322D02*
X480Y322D01*
X501Y322D02*
X507Y322D01*
X552Y322D02*
X558Y322D01*
X474Y321D02*
X480Y321D01*
X500Y321D02*
X507Y321D01*
X552Y321D02*
X558Y321D01*
X474Y320D02*
X506Y320D01*
X552Y320D02*
X558Y320D01*
X474Y319D02*
X506Y319D01*
X552Y319D02*
X558Y319D01*
X474Y318D02*
X505Y318D01*
X552Y318D02*
X558Y318D01*
X474Y317D02*
X505Y317D01*
X552Y317D02*
X558Y317D01*
X474Y316D02*
X504Y316D01*
X552Y316D02*
X558Y316D01*
X474Y315D02*
X503Y315D01*
X551Y315D02*
X558Y315D01*
X474Y314D02*
X501Y314D01*
X534Y314D02*
X558Y314D01*
X474Y313D02*
X480Y313D01*
X485Y313D02*
X493Y313D01*
X533Y313D02*
X557Y313D01*
X474Y312D02*
X480Y312D01*
X486Y312D02*
X493Y312D01*
X532Y312D02*
X557Y312D01*
X474Y311D02*
X480Y311D01*
X487Y311D02*
X494Y311D01*
X532Y311D02*
X556Y311D01*
X474Y310D02*
X480Y310D01*
X487Y310D02*
X494Y310D01*
X532Y310D02*
X556Y310D01*
X474Y309D02*
X480Y309D01*
X488Y309D02*
X495Y309D01*
X532Y309D02*
X557Y309D01*
X474Y308D02*
X480Y308D01*
X488Y308D02*
X495Y308D01*
X533Y308D02*
X558Y308D01*
X474Y307D02*
X480Y307D01*
X489Y307D02*
X496Y307D01*
X550Y307D02*
X558Y307D01*
X474Y306D02*
X480Y306D01*
X489Y306D02*
X497Y306D01*
X551Y306D02*
X558Y306D01*
X474Y305D02*
X480Y305D01*
X490Y305D02*
X497Y305D01*
X552Y305D02*
X558Y305D01*
X474Y304D02*
X480Y304D01*
X491Y304D02*
X498Y304D01*
X552Y304D02*
X558Y304D01*
X474Y303D02*
X480Y303D01*
X491Y303D02*
X498Y303D01*
X552Y303D02*
X558Y303D01*
X474Y302D02*
X480Y302D01*
X492Y302D02*
X499Y302D01*
X552Y302D02*
X558Y302D01*
X474Y301D02*
X480Y301D01*
X492Y301D02*
X500Y301D01*
X552Y301D02*
X558Y301D01*
X474Y300D02*
X480Y300D01*
X493Y300D02*
X500Y300D01*
X552Y300D02*
X558Y300D01*
X474Y299D02*
X480Y299D01*
X494Y299D02*
X501Y299D01*
X552Y299D02*
X558Y299D01*
X474Y298D02*
X480Y298D01*
X494Y298D02*
X501Y298D01*
X552Y298D02*
X558Y298D01*
X474Y297D02*
X480Y297D01*
X495Y297D02*
X502Y297D01*
X552Y297D02*
X558Y297D01*
X474Y296D02*
X480Y296D01*
X495Y296D02*
X502Y296D01*
X552Y296D02*
X558Y296D01*
X474Y295D02*
X480Y295D01*
X496Y295D02*
X503Y295D01*
X552Y295D02*
X558Y295D01*
X474Y294D02*
X480Y294D01*
X496Y294D02*
X504Y294D01*
X552Y294D02*
X558Y294D01*
X474Y293D02*
X480Y293D01*
X497Y293D02*
X504Y293D01*
X552Y293D02*
X558Y293D01*
X474Y292D02*
X480Y292D01*
X498Y292D02*
X505Y292D01*
X552Y292D02*
X558Y292D01*
X474Y291D02*
X480Y291D01*
X498Y291D02*
X505Y291D01*
X552Y291D02*
X558Y291D01*
X474Y290D02*
X480Y290D01*
X499Y290D02*
X506Y290D01*
X527Y290D02*
X558Y290D01*
X474Y289D02*
X480Y289D01*
X499Y289D02*
X507Y289D01*
X526Y289D02*
X558Y289D01*
X474Y288D02*
X480Y288D01*
X500Y288D02*
X507Y288D01*
X525Y288D02*
X558Y288D01*
X474Y287D02*
X480Y287D01*
X501Y287D02*
X507Y287D01*
X525Y287D02*
X557Y287D01*
X1353Y287D02*
X1384Y287D01*
X1404Y287D02*
X1422Y287D01*
X474Y286D02*
X479Y286D01*
X501Y286D02*
X507Y286D01*
X525Y286D02*
X557Y286D01*
X1352Y286D02*
X1385Y286D01*
X1403Y286D02*
X1424Y286D01*
X474Y285D02*
X479Y285D01*
X502Y285D02*
X506Y285D01*
X526Y285D02*
X556Y285D01*
X1352Y285D02*
X1385Y285D01*
X1403Y285D02*
X1425Y285D01*
X476Y284D02*
X477Y284D01*
X503Y284D02*
X505Y284D01*
X527Y284D02*
X554Y284D01*
X1352Y284D02*
X1385Y284D01*
X1403Y284D02*
X1426Y284D01*
X1352Y283D02*
X1385Y283D01*
X1403Y283D02*
X1427Y283D01*
X1352Y282D02*
X1385Y282D01*
X1404Y282D02*
X1428Y282D01*
X1352Y281D02*
X1385Y281D01*
X1406Y281D02*
X1428Y281D01*
X1352Y280D02*
X1358Y280D01*
X1379Y280D02*
X1385Y280D01*
X1421Y280D02*
X1429Y280D01*
X1352Y279D02*
X1358Y279D01*
X1379Y279D02*
X1385Y279D01*
X1422Y279D02*
X1429Y279D01*
X1352Y278D02*
X1358Y278D01*
X1379Y278D02*
X1385Y278D01*
X1423Y278D02*
X1430Y278D01*
X1352Y277D02*
X1358Y277D01*
X1379Y277D02*
X1385Y277D01*
X1423Y277D02*
X1430Y277D01*
X1352Y276D02*
X1358Y276D01*
X1379Y276D02*
X1385Y276D01*
X1424Y276D02*
X1431Y276D01*
X1352Y275D02*
X1358Y275D01*
X1379Y275D02*
X1385Y275D01*
X1424Y275D02*
X1431Y275D01*
X1352Y274D02*
X1358Y274D01*
X1379Y274D02*
X1385Y274D01*
X1425Y274D02*
X1432Y274D01*
X1352Y273D02*
X1358Y273D01*
X1379Y273D02*
X1385Y273D01*
X1425Y273D02*
X1432Y273D01*
X1352Y272D02*
X1358Y272D01*
X1379Y272D02*
X1385Y272D01*
X1426Y272D02*
X1433Y272D01*
X1352Y271D02*
X1358Y271D01*
X1379Y271D02*
X1385Y271D01*
X1426Y271D02*
X1433Y271D01*
X1352Y270D02*
X1358Y270D01*
X1379Y270D02*
X1385Y270D01*
X1427Y270D02*
X1434Y270D01*
X1352Y269D02*
X1358Y269D01*
X1379Y269D02*
X1385Y269D01*
X1427Y269D02*
X1434Y269D01*
X1352Y268D02*
X1385Y268D01*
X1428Y268D02*
X1435Y268D01*
X1352Y267D02*
X1385Y267D01*
X1428Y267D02*
X1435Y267D01*
X1352Y266D02*
X1385Y266D01*
X1429Y266D02*
X1435Y266D01*
X1352Y265D02*
X1385Y265D01*
X1429Y265D02*
X1436Y265D01*
X1352Y264D02*
X1385Y264D01*
X1430Y264D02*
X1436Y264D01*
X1352Y263D02*
X1385Y263D01*
X1430Y263D02*
X1436Y263D01*
X1353Y262D02*
X1385Y262D01*
X1430Y262D02*
X1436Y262D01*
X1379Y261D02*
X1385Y261D01*
X1430Y261D02*
X1436Y261D01*
X1379Y260D02*
X1385Y260D01*
X1430Y260D02*
X1436Y260D01*
X1379Y259D02*
X1385Y259D01*
X1430Y259D02*
X1436Y259D01*
X1379Y258D02*
X1385Y258D01*
X1430Y258D02*
X1436Y258D01*
X1379Y257D02*
X1385Y257D01*
X1430Y257D02*
X1436Y257D01*
X1379Y256D02*
X1385Y256D01*
X1429Y256D02*
X1436Y256D01*
X1379Y255D02*
X1385Y255D01*
X1429Y255D02*
X1435Y255D01*
X1379Y254D02*
X1385Y254D01*
X1428Y254D02*
X1435Y254D01*
X1379Y253D02*
X1385Y253D01*
X1428Y253D02*
X1435Y253D01*
X1379Y252D02*
X1385Y252D01*
X1427Y252D02*
X1434Y252D01*
X1379Y251D02*
X1385Y251D01*
X1427Y251D02*
X1434Y251D01*
X1379Y250D02*
X1385Y250D01*
X1426Y250D02*
X1433Y250D01*
X1379Y249D02*
X1385Y249D01*
X1426Y249D02*
X1433Y249D01*
X1379Y248D02*
X1385Y248D01*
X1425Y248D02*
X1432Y248D01*
X1379Y247D02*
X1385Y247D01*
X1425Y247D02*
X1432Y247D01*
X1379Y246D02*
X1385Y246D01*
X1424Y246D02*
X1431Y246D01*
X1379Y245D02*
X1385Y245D01*
X1424Y245D02*
X1431Y245D01*
X1379Y244D02*
X1385Y244D01*
X1423Y244D02*
X1430Y244D01*
X1379Y243D02*
X1385Y243D01*
X1423Y243D02*
X1430Y243D01*
X1379Y242D02*
X1385Y242D01*
X1422Y242D02*
X1429Y242D01*
X1379Y241D02*
X1385Y241D01*
X1421Y241D02*
X1429Y241D01*
X1360Y240D02*
X1385Y240D01*
X1404Y240D02*
X1428Y240D01*
X1359Y239D02*
X1385Y239D01*
X1404Y239D02*
X1428Y239D01*
X1359Y238D02*
X1385Y238D01*
X1403Y238D02*
X1427Y238D01*
X1359Y237D02*
X1385Y237D01*
X1403Y237D02*
X1426Y237D01*
X1359Y236D02*
X1385Y236D01*
X1403Y236D02*
X1425Y236D01*
X1359Y235D02*
X1384Y235D01*
X1404Y235D02*
X1423Y235D01*
X1361Y234D02*
X1383Y234D01*
X1405Y234D02*
X1421Y234D01*
D02*
G04 End of Silk1*
M02*