; NON-PLATED HOLES START AT T1
; THROUGH (PLATED) HOLES START AT T100
M48
INCH
T100C0.035000
T101C0.031497
T102C0.057917
T103C0.040000
%
T100
X013000Y002007
X005000Y015007
X004000Y002007
X013000Y009007
X008000Y006007
X015000Y004007
X006000Y002007
X005000Y011007
X002000Y006007
X011000Y012007
X008000Y003007
X008000Y005007
X011000Y014007
X008000Y013007
X011000Y004007
X008000Y015007
X011000Y006007
X005000Y014007
X002000Y002007
X016000Y004007
X014000Y009007
X005000Y012007
X008000Y012007
X013000Y006007
X004000Y006007
X011000Y015007
X008000Y004007
X011000Y013007
X008000Y014007
X011000Y005007
X011000Y003007
X006000Y006007
T101
X002000Y008992
X002000Y008007
T102
X002000Y013007
X014999Y013007
X002000Y011007
X015000Y015007
X002000Y015010
T103
X008498Y009011
X010498Y009011
X009498Y009011
T00
M30
