; NON-PLATED HOLES START AT T1
; THROUGH (PLATED) HOLES START AT T100
M48
INCH
T100C0.040000
T101C0.043307
T102C0.039370
T103C0.035433
T104C0.035000
T105C0.057917
T106C0.032000
%
T100
X024000Y008970
X020010Y009966
X024000Y007969
X013010Y009966
X009000Y009969
X009000Y008970
X013010Y007966
X013010Y008966
X009000Y007969
X020010Y007966
X020010Y008966
X024000Y009969
T101
X015010Y009966
X015010Y011966
X018010Y012966
X015010Y010966
X015010Y014966
X018010Y015966
X018010Y013966
X018010Y009966
X015010Y013966
X015010Y015966
X018010Y011966
X018010Y014966
X018010Y010966
X015010Y012966
T102
X002000Y024969
X002000Y025969
X002000Y023969
T103
X005000Y001969
X002000Y003969
X002000Y005969
X005000Y007969
X005000Y003969
X005000Y005969
X002000Y007969
X002000Y001969
T104
X002000Y028969
X011010Y017966
X026020Y003985
X013000Y023969
X020010Y021966
X023000Y023969
X013010Y017966
X017000Y006969
X015000Y023969
X024000Y023969
X020000Y026969
X020010Y011966
X010010Y011966
X024010Y017966
X015010Y017966
X026010Y011966
X010000Y026969
X014000Y023969
X025000Y023969
X013010Y015966
X016000Y006969
X019000Y023969
X022020Y003985
X002000Y019969
X022010Y021966
X007010Y011966
X008000Y023969
X023010Y015966
X009000Y023969
X018010Y017966
X002000Y029969
X009010Y017966
X018000Y023969
X011000Y003969
X013000Y026969
X013010Y011966
X023010Y011966
X024010Y021966
X015010Y021966
X007010Y015966
X002000Y020969
X023000Y026969
X020000Y023969
X011010Y021966
X015000Y026969
X024000Y026969
X014000Y026969
X025000Y026969
X013010Y021966
X010000Y023969
X020010Y017966
X007000Y003969
X019000Y026969
X018010Y021966
X008000Y026969
X009010Y021966
X020010Y015966
X009000Y026969
X018000Y026969
X010010Y015966
X026010Y015966
X022010Y017966
T105
X010000Y029969
X025000Y029969
X015000Y029969
X007999Y029969
X020000Y029969
X023000Y029969
X002000Y011969
X013000Y029969
X002000Y015972
X018000Y029969
X002000Y013969
T106
X020000Y004969
X013000Y004969
X020000Y003969
X020000Y002969
X013000Y003969
X013000Y002969
T00
M30
