; NON-PLATED HOLES START AT T1
; THROUGH (PLATED) HOLES START AT T100
M48
INCH
T100C0.038000
T101C0.043307
%
T100
X012774Y009390
X026774Y008390
X003774Y005390
X008774Y012390
X017774Y008390
X014774Y012390
X017774Y004390
X012774Y004390
X021774Y012390
X003774Y008390
X003774Y004390
X012774Y008390
X022774Y012390
X012774Y005390
X003774Y009390
X007774Y012390
X015774Y012290
X026774Y004390
X026774Y009390
X017774Y005390
X017774Y009390
X026774Y005390
T101
X020774Y010390
X023774Y007390
X006774Y009390
X006774Y007390
X020774Y009390
X020774Y004390
X009774Y005390
X006774Y008390
X009774Y010390
X009774Y007390
X006774Y010390
X023774Y003390
X023774Y006390
X006774Y003390
X020774Y005390
X009774Y006390
X009774Y003390
X020774Y008390
X023774Y004390
X009774Y004390
X020774Y006390
X023774Y010390
X023774Y005390
X009774Y008390
X023774Y009390
X020774Y007390
X020774Y003390
X023774Y008390
X006774Y005390
X006774Y006390
X009774Y009390
X006774Y004390
T00
M30
