; NON-PLATED HOLES START AT T1
; THROUGH (PLATED) HOLES START AT T100
M48
INCH
T100C0.032000
T101C0.035000
T102C0.038000
%
T100
X009000Y010022
X006000Y010022
X008000Y010022
X009000Y007022
X007000Y007022
X006000Y007022
X008000Y007022
X007000Y010022
T101
X006000Y005077
X009000Y005077
X009000Y012077
X009000Y003077
X009000Y014077
X006000Y003077
X006000Y012077
X006000Y014077
T102
X012000Y006022
X012000Y014022
X003000Y010022
X012000Y007022
X012000Y015022
X012000Y013022
X003000Y011022
X012000Y010022
X012000Y011022
X003000Y007022
X003000Y006022
T00
M30
