G04 MADE WITH FRITZING*
G04 WWW.FRITZING.ORG*
G04 SINGLE SIDED*
G04 HOLES NOT PLATED*
G04 CONTOUR ON CENTER OF CONTOUR VECTOR*
%ASAXBY*%
%FSLAX23Y23*%
%MOIN*%
%OFA0B0*%
%SFA1.0B1.0*%
%ADD10C,0.078000*%
%ADD11C,0.068000*%
%ADD12C,0.075000*%
%ADD13C,0.024000*%
%LNCOPPER0*%
G90*
G70*
G54D10*
X300Y1102D03*
X300Y1002D03*
X300Y702D03*
X300Y602D03*
G54D11*
X600Y702D03*
X700Y702D03*
X800Y702D03*
X900Y702D03*
X900Y1002D03*
X800Y1002D03*
X700Y1002D03*
X600Y1002D03*
G54D12*
X600Y1408D03*
X900Y1408D03*
X600Y1208D03*
X900Y1208D03*
X600Y508D03*
X900Y508D03*
X600Y308D03*
X900Y308D03*
G54D10*
X1200Y1502D03*
X1200Y1402D03*
X1200Y1302D03*
X1200Y702D03*
X1200Y602D03*
X1200Y1102D03*
X1200Y1002D03*
G54D13*
X600Y490D02*
X600Y325D01*
D02*
X618Y1207D02*
X802Y1202D01*
D02*
X802Y1202D02*
X800Y1018D01*
D02*
X800Y718D02*
X802Y800D01*
D02*
X802Y800D02*
X1200Y800D01*
D02*
X1200Y800D02*
X1200Y721D01*
D02*
X900Y1425D02*
X900Y1503D01*
D02*
X900Y1503D02*
X500Y1500D01*
D02*
X500Y1500D02*
X500Y1103D01*
D02*
X500Y1103D02*
X698Y1103D01*
D02*
X698Y1103D02*
X700Y1018D01*
D02*
X1399Y1401D02*
X1219Y1402D01*
D02*
X1399Y403D02*
X1399Y1401D01*
D02*
X799Y404D02*
X1000Y404D01*
D02*
X1000Y404D02*
X1399Y403D01*
D02*
X799Y602D02*
X799Y404D01*
D02*
X900Y686D02*
X900Y602D01*
D02*
X900Y602D02*
X799Y602D01*
D02*
X698Y502D02*
X618Y507D01*
D02*
X700Y686D02*
X698Y502D01*
D02*
X1200Y502D02*
X1200Y583D01*
D02*
X918Y507D02*
X1200Y502D01*
D02*
X1200Y502D02*
X1299Y502D01*
D02*
X1299Y502D02*
X1299Y1003D01*
D02*
X1299Y1003D02*
X1219Y1003D01*
D02*
X1299Y1003D02*
X1299Y1202D01*
D02*
X1200Y1202D02*
X1200Y1202D01*
D02*
X1299Y1202D02*
X1200Y1202D01*
D02*
X1200Y1202D02*
X1200Y1283D01*
D02*
X1200Y1202D02*
X918Y1207D01*
D02*
X900Y203D02*
X900Y290D01*
D02*
X500Y204D02*
X900Y203D01*
D02*
X500Y502D02*
X500Y204D01*
D02*
X500Y701D02*
X500Y502D01*
D02*
X584Y702D02*
X500Y701D01*
D02*
X600Y1390D02*
X600Y1225D01*
D02*
X900Y1018D02*
X901Y1103D01*
D02*
X901Y1103D02*
X1181Y1102D01*
D02*
X501Y1004D02*
X584Y1003D01*
D02*
X400Y1101D02*
X501Y1004D01*
D02*
X1201Y1604D02*
X400Y1604D01*
D02*
X400Y1604D02*
X400Y1101D01*
D02*
X1200Y1521D02*
X1201Y1604D01*
D02*
X500Y701D02*
X319Y702D01*
D02*
X699Y903D02*
X501Y903D01*
D02*
X501Y903D02*
X314Y1089D01*
D02*
X700Y986D02*
X699Y903D01*
D02*
X699Y803D02*
X501Y803D01*
D02*
X501Y803D02*
X314Y989D01*
D02*
X1201Y903D02*
X799Y903D01*
D02*
X799Y903D02*
X699Y803D01*
D02*
X1200Y983D02*
X1201Y903D01*
D02*
X199Y1004D02*
X199Y602D01*
D02*
X281Y1003D02*
X199Y1004D01*
D02*
X199Y602D02*
X281Y602D01*
G04 End of Copper0*
M02*