G04 MADE WITH FRITZING*
G04 WWW.FRITZING.ORG*
G04 SINGLE SIDED*
G04 HOLES NOT PLATED*
G04 CONTOUR ON CENTER OF CONTOUR VECTOR*
%ASAXBY*%
%FSLAX23Y23*%
%MOIN*%
%OFA0B0*%
%SFA1.0B1.0*%
%ADD10C,0.066567X0.046567*%
%ADD11R,1.496160X1.698390X1.480160X1.682390*%
%ADD12C,0.008000*%
%ADD13C,0.010000*%
%ADD14C,0.005000*%
%ADD15R,0.001000X0.001000*%
%LNSILK1*%
G90*
G70*
G54D10*
X600Y802D03*
G54D12*
X4Y1694D02*
X1492Y1694D01*
X1492Y4D01*
X4Y4D01*
X4Y1694D01*
D02*
G54D13*
X250Y1152D02*
X250Y952D01*
D02*
X250Y952D02*
X350Y952D01*
D02*
X350Y952D02*
X350Y1152D01*
D02*
X350Y1152D02*
X250Y1152D01*
G54D14*
D02*
X250Y1117D02*
X285Y1152D01*
G54D13*
D02*
X250Y752D02*
X250Y552D01*
D02*
X250Y552D02*
X350Y552D01*
D02*
X350Y552D02*
X350Y752D01*
D02*
X350Y752D02*
X250Y752D01*
G54D14*
D02*
X250Y717D02*
X285Y752D01*
G54D12*
D02*
X550Y952D02*
X950Y952D01*
D02*
X550Y952D02*
X550Y792D01*
D02*
X950Y952D02*
X950Y752D01*
D02*
X550Y752D02*
X950Y752D01*
D02*
X550Y752D02*
X550Y792D01*
D02*
X550Y792D02*
X550Y812D01*
G54D13*
D02*
X638Y1407D02*
X675Y1407D01*
D02*
X825Y1407D02*
X863Y1407D01*
D02*
X675Y1432D02*
X825Y1432D01*
D02*
X825Y1432D02*
X825Y1382D01*
D02*
X825Y1382D02*
X675Y1382D01*
D02*
X675Y1382D02*
X675Y1432D01*
D02*
X638Y1207D02*
X675Y1207D01*
D02*
X825Y1207D02*
X863Y1207D01*
D02*
X675Y1232D02*
X825Y1232D01*
D02*
X825Y1232D02*
X825Y1182D01*
D02*
X825Y1182D02*
X675Y1182D01*
D02*
X675Y1182D02*
X675Y1232D01*
D02*
X638Y507D02*
X675Y507D01*
D02*
X825Y507D02*
X863Y507D01*
D02*
X675Y532D02*
X825Y532D01*
D02*
X825Y532D02*
X825Y482D01*
D02*
X825Y482D02*
X675Y482D01*
D02*
X675Y482D02*
X675Y532D01*
D02*
X638Y307D02*
X675Y307D01*
D02*
X825Y307D02*
X863Y307D01*
D02*
X675Y332D02*
X825Y332D01*
D02*
X825Y332D02*
X825Y282D01*
D02*
X825Y282D02*
X675Y282D01*
D02*
X675Y282D02*
X675Y332D01*
D02*
X1150Y1552D02*
X1150Y1252D01*
D02*
X1150Y1252D02*
X1250Y1252D01*
D02*
X1250Y1252D02*
X1250Y1552D01*
D02*
X1250Y1552D02*
X1150Y1552D01*
G54D14*
D02*
X1150Y1517D02*
X1185Y1552D01*
G54D13*
D02*
X1150Y752D02*
X1150Y552D01*
D02*
X1150Y552D02*
X1250Y552D01*
D02*
X1250Y552D02*
X1250Y752D01*
D02*
X1250Y752D02*
X1150Y752D01*
G54D14*
D02*
X1150Y717D02*
X1185Y752D01*
G54D13*
D02*
X1150Y1152D02*
X1150Y952D01*
D02*
X1150Y952D02*
X1250Y952D01*
D02*
X1250Y952D02*
X1250Y1152D01*
D02*
X1250Y1152D02*
X1150Y1152D01*
G54D14*
D02*
X1150Y1117D02*
X1185Y1152D01*
G54D15*
X1305Y1652D02*
X1307Y1652D01*
X1331Y1652D02*
X1348Y1652D01*
X1304Y1651D02*
X1308Y1651D01*
X1330Y1651D02*
X1349Y1651D01*
X1303Y1650D02*
X1309Y1650D01*
X1329Y1650D02*
X1349Y1650D01*
X1303Y1649D02*
X1309Y1649D01*
X1329Y1649D02*
X1349Y1649D01*
X1303Y1648D02*
X1309Y1648D01*
X1329Y1648D02*
X1349Y1648D01*
X1303Y1647D02*
X1309Y1647D01*
X1329Y1647D02*
X1349Y1647D01*
X1303Y1646D02*
X1309Y1646D01*
X1330Y1646D02*
X1349Y1646D01*
X1303Y1645D02*
X1309Y1645D01*
X1342Y1645D02*
X1349Y1645D01*
X1303Y1644D02*
X1309Y1644D01*
X1342Y1644D02*
X1349Y1644D01*
X1303Y1643D02*
X1309Y1643D01*
X1342Y1643D02*
X1349Y1643D01*
X1303Y1642D02*
X1309Y1642D01*
X1342Y1642D02*
X1349Y1642D01*
X1303Y1641D02*
X1309Y1641D01*
X1342Y1641D02*
X1349Y1641D01*
X1303Y1640D02*
X1309Y1640D01*
X1342Y1640D02*
X1349Y1640D01*
X1303Y1639D02*
X1309Y1639D01*
X1342Y1639D02*
X1349Y1639D01*
X1303Y1638D02*
X1309Y1638D01*
X1342Y1638D02*
X1349Y1638D01*
X1303Y1637D02*
X1309Y1637D01*
X1342Y1637D02*
X1349Y1637D01*
X1303Y1636D02*
X1309Y1636D01*
X1342Y1636D02*
X1349Y1636D01*
X1303Y1635D02*
X1309Y1635D01*
X1342Y1635D02*
X1349Y1635D01*
X1303Y1634D02*
X1309Y1634D01*
X1342Y1634D02*
X1349Y1634D01*
X1303Y1633D02*
X1309Y1633D01*
X1342Y1633D02*
X1349Y1633D01*
X1303Y1632D02*
X1309Y1632D01*
X1342Y1632D02*
X1349Y1632D01*
X1303Y1631D02*
X1309Y1631D01*
X1342Y1631D02*
X1349Y1631D01*
X1303Y1630D02*
X1309Y1630D01*
X1342Y1630D02*
X1349Y1630D01*
X1303Y1629D02*
X1309Y1629D01*
X1342Y1629D02*
X1349Y1629D01*
X1303Y1628D02*
X1309Y1628D01*
X1342Y1628D02*
X1349Y1628D01*
X1303Y1627D02*
X1309Y1627D01*
X1342Y1627D02*
X1349Y1627D01*
X1303Y1626D02*
X1309Y1626D01*
X1342Y1626D02*
X1349Y1626D01*
X1303Y1625D02*
X1309Y1625D01*
X1342Y1625D02*
X1349Y1625D01*
X1303Y1624D02*
X1309Y1624D01*
X1342Y1624D02*
X1349Y1624D01*
X1303Y1623D02*
X1309Y1623D01*
X1342Y1623D02*
X1349Y1623D01*
X1284Y1622D02*
X1287Y1622D01*
X1303Y1622D02*
X1309Y1622D01*
X1342Y1622D02*
X1349Y1622D01*
X1358Y1622D02*
X1361Y1622D01*
X1283Y1621D02*
X1288Y1621D01*
X1303Y1621D02*
X1309Y1621D01*
X1342Y1621D02*
X1349Y1621D01*
X1357Y1621D02*
X1362Y1621D01*
X1282Y1620D02*
X1288Y1620D01*
X1303Y1620D02*
X1309Y1620D01*
X1342Y1620D02*
X1349Y1620D01*
X1356Y1620D02*
X1362Y1620D01*
X1282Y1619D02*
X1288Y1619D01*
X1303Y1619D02*
X1309Y1619D01*
X1342Y1619D02*
X1349Y1619D01*
X1356Y1619D02*
X1362Y1619D01*
X1282Y1618D02*
X1288Y1618D01*
X1303Y1618D02*
X1309Y1618D01*
X1342Y1618D02*
X1349Y1618D01*
X1356Y1618D02*
X1362Y1618D01*
X1282Y1617D02*
X1288Y1617D01*
X1303Y1617D02*
X1309Y1617D01*
X1342Y1617D02*
X1349Y1617D01*
X1356Y1617D02*
X1362Y1617D01*
X1282Y1616D02*
X1288Y1616D01*
X1303Y1616D02*
X1309Y1616D01*
X1342Y1616D02*
X1349Y1616D01*
X1356Y1616D02*
X1362Y1616D01*
X1282Y1615D02*
X1288Y1615D01*
X1303Y1615D02*
X1309Y1615D01*
X1342Y1615D02*
X1349Y1615D01*
X1356Y1615D02*
X1362Y1615D01*
X1282Y1614D02*
X1288Y1614D01*
X1303Y1614D02*
X1309Y1614D01*
X1342Y1614D02*
X1349Y1614D01*
X1356Y1614D02*
X1362Y1614D01*
X1282Y1613D02*
X1288Y1613D01*
X1303Y1613D02*
X1309Y1613D01*
X1342Y1613D02*
X1349Y1613D01*
X1356Y1613D02*
X1362Y1613D01*
X1282Y1612D02*
X1288Y1612D01*
X1303Y1612D02*
X1309Y1612D01*
X1342Y1612D02*
X1349Y1612D01*
X1356Y1612D02*
X1362Y1612D01*
X1282Y1611D02*
X1288Y1611D01*
X1303Y1611D02*
X1309Y1611D01*
X1342Y1611D02*
X1349Y1611D01*
X1356Y1611D02*
X1362Y1611D01*
X1282Y1610D02*
X1288Y1610D01*
X1303Y1610D02*
X1309Y1610D01*
X1342Y1610D02*
X1349Y1610D01*
X1356Y1610D02*
X1362Y1610D01*
X1282Y1609D02*
X1288Y1609D01*
X1303Y1609D02*
X1309Y1609D01*
X1342Y1609D02*
X1349Y1609D01*
X1356Y1609D02*
X1362Y1609D01*
X1282Y1608D02*
X1288Y1608D01*
X1303Y1608D02*
X1309Y1608D01*
X1342Y1608D02*
X1349Y1608D01*
X1356Y1608D02*
X1362Y1608D01*
X1282Y1607D02*
X1289Y1607D01*
X1302Y1607D02*
X1309Y1607D01*
X1342Y1607D02*
X1349Y1607D01*
X1356Y1607D02*
X1362Y1607D01*
X1282Y1606D02*
X1289Y1606D01*
X1302Y1606D02*
X1309Y1606D01*
X1342Y1606D02*
X1349Y1606D01*
X1356Y1606D02*
X1362Y1606D01*
X1283Y1605D02*
X1308Y1605D01*
X1332Y1605D02*
X1362Y1605D01*
X1283Y1604D02*
X1308Y1604D01*
X1330Y1604D02*
X1362Y1604D01*
X1284Y1603D02*
X1307Y1603D01*
X1329Y1603D02*
X1362Y1603D01*
X1285Y1602D02*
X1306Y1602D01*
X1329Y1602D02*
X1362Y1602D01*
X1286Y1601D02*
X1305Y1601D01*
X1329Y1601D02*
X1362Y1601D01*
X1287Y1600D02*
X1304Y1600D01*
X1329Y1600D02*
X1362Y1600D01*
X1289Y1599D02*
X1302Y1599D01*
X1330Y1599D02*
X1361Y1599D01*
X1046Y1525D02*
X1072Y1525D01*
X1098Y1525D02*
X1116Y1525D01*
X1046Y1524D02*
X1074Y1524D01*
X1097Y1524D02*
X1116Y1524D01*
X1046Y1523D02*
X1076Y1523D01*
X1097Y1523D02*
X1116Y1523D01*
X1046Y1522D02*
X1077Y1522D01*
X1096Y1522D02*
X1116Y1522D01*
X1046Y1521D02*
X1078Y1521D01*
X1096Y1521D02*
X1116Y1521D01*
X1046Y1520D02*
X1078Y1520D01*
X1097Y1520D02*
X1116Y1520D01*
X1046Y1519D02*
X1079Y1519D01*
X1098Y1519D02*
X1116Y1519D01*
X1046Y1518D02*
X1052Y1518D01*
X1072Y1518D02*
X1079Y1518D01*
X1110Y1518D02*
X1116Y1518D01*
X1046Y1517D02*
X1052Y1517D01*
X1073Y1517D02*
X1080Y1517D01*
X1110Y1517D02*
X1116Y1517D01*
X1046Y1516D02*
X1052Y1516D01*
X1074Y1516D02*
X1080Y1516D01*
X1110Y1516D02*
X1116Y1516D01*
X1046Y1515D02*
X1052Y1515D01*
X1074Y1515D02*
X1080Y1515D01*
X1110Y1515D02*
X1116Y1515D01*
X1046Y1514D02*
X1052Y1514D01*
X1074Y1514D02*
X1080Y1514D01*
X1110Y1514D02*
X1116Y1514D01*
X1046Y1513D02*
X1052Y1513D01*
X1074Y1513D02*
X1080Y1513D01*
X1110Y1513D02*
X1116Y1513D01*
X1046Y1512D02*
X1052Y1512D01*
X1074Y1512D02*
X1080Y1512D01*
X1110Y1512D02*
X1116Y1512D01*
X1046Y1511D02*
X1052Y1511D01*
X1074Y1511D02*
X1080Y1511D01*
X1110Y1511D02*
X1116Y1511D01*
X1046Y1510D02*
X1052Y1510D01*
X1074Y1510D02*
X1080Y1510D01*
X1110Y1510D02*
X1116Y1510D01*
X1046Y1509D02*
X1052Y1509D01*
X1073Y1509D02*
X1080Y1509D01*
X1110Y1509D02*
X1116Y1509D01*
X1046Y1508D02*
X1052Y1508D01*
X1072Y1508D02*
X1079Y1508D01*
X1110Y1508D02*
X1116Y1508D01*
X1046Y1507D02*
X1079Y1507D01*
X1110Y1507D02*
X1116Y1507D01*
X1046Y1506D02*
X1078Y1506D01*
X1110Y1506D02*
X1116Y1506D01*
X1046Y1505D02*
X1078Y1505D01*
X1110Y1505D02*
X1116Y1505D01*
X1046Y1504D02*
X1077Y1504D01*
X1110Y1504D02*
X1116Y1504D01*
X1046Y1503D02*
X1076Y1503D01*
X1110Y1503D02*
X1116Y1503D01*
X1046Y1502D02*
X1074Y1502D01*
X1110Y1502D02*
X1116Y1502D01*
X1046Y1501D02*
X1072Y1501D01*
X1110Y1501D02*
X1116Y1501D01*
X1046Y1500D02*
X1052Y1500D01*
X1058Y1500D02*
X1066Y1500D01*
X1110Y1500D02*
X1116Y1500D01*
X1046Y1499D02*
X1052Y1499D01*
X1059Y1499D02*
X1066Y1499D01*
X1110Y1499D02*
X1116Y1499D01*
X1046Y1498D02*
X1052Y1498D01*
X1060Y1498D02*
X1067Y1498D01*
X1110Y1498D02*
X1116Y1498D01*
X1046Y1497D02*
X1052Y1497D01*
X1060Y1497D02*
X1067Y1497D01*
X1110Y1497D02*
X1116Y1497D01*
X1046Y1496D02*
X1052Y1496D01*
X1061Y1496D02*
X1068Y1496D01*
X1110Y1496D02*
X1116Y1496D01*
X1046Y1495D02*
X1052Y1495D01*
X1061Y1495D02*
X1069Y1495D01*
X1110Y1495D02*
X1116Y1495D01*
X1125Y1495D02*
X1129Y1495D01*
X1046Y1494D02*
X1052Y1494D01*
X1062Y1494D02*
X1069Y1494D01*
X1110Y1494D02*
X1116Y1494D01*
X1124Y1494D02*
X1129Y1494D01*
X1046Y1493D02*
X1052Y1493D01*
X1063Y1493D02*
X1070Y1493D01*
X1110Y1493D02*
X1116Y1493D01*
X1124Y1493D02*
X1130Y1493D01*
X1046Y1492D02*
X1052Y1492D01*
X1063Y1492D02*
X1070Y1492D01*
X1110Y1492D02*
X1116Y1492D01*
X1124Y1492D02*
X1130Y1492D01*
X1046Y1491D02*
X1052Y1491D01*
X1064Y1491D02*
X1071Y1491D01*
X1110Y1491D02*
X1116Y1491D01*
X1124Y1491D02*
X1130Y1491D01*
X1046Y1490D02*
X1052Y1490D01*
X1064Y1490D02*
X1071Y1490D01*
X1110Y1490D02*
X1116Y1490D01*
X1124Y1490D02*
X1130Y1490D01*
X1046Y1489D02*
X1052Y1489D01*
X1065Y1489D02*
X1072Y1489D01*
X1110Y1489D02*
X1116Y1489D01*
X1124Y1489D02*
X1130Y1489D01*
X1046Y1488D02*
X1052Y1488D01*
X1065Y1488D02*
X1073Y1488D01*
X1110Y1488D02*
X1116Y1488D01*
X1124Y1488D02*
X1130Y1488D01*
X1046Y1487D02*
X1052Y1487D01*
X1066Y1487D02*
X1073Y1487D01*
X1110Y1487D02*
X1116Y1487D01*
X1124Y1487D02*
X1130Y1487D01*
X1046Y1486D02*
X1052Y1486D01*
X1067Y1486D02*
X1074Y1486D01*
X1110Y1486D02*
X1116Y1486D01*
X1124Y1486D02*
X1130Y1486D01*
X1046Y1485D02*
X1052Y1485D01*
X1067Y1485D02*
X1074Y1485D01*
X1110Y1485D02*
X1116Y1485D01*
X1124Y1485D02*
X1130Y1485D01*
X1046Y1484D02*
X1052Y1484D01*
X1068Y1484D02*
X1075Y1484D01*
X1110Y1484D02*
X1116Y1484D01*
X1124Y1484D02*
X1130Y1484D01*
X1046Y1483D02*
X1052Y1483D01*
X1068Y1483D02*
X1076Y1483D01*
X1110Y1483D02*
X1116Y1483D01*
X1124Y1483D02*
X1130Y1483D01*
X1046Y1482D02*
X1052Y1482D01*
X1069Y1482D02*
X1076Y1482D01*
X1110Y1482D02*
X1116Y1482D01*
X1124Y1482D02*
X1130Y1482D01*
X1046Y1481D02*
X1052Y1481D01*
X1070Y1481D02*
X1077Y1481D01*
X1110Y1481D02*
X1116Y1481D01*
X1124Y1481D02*
X1130Y1481D01*
X1046Y1480D02*
X1052Y1480D01*
X1070Y1480D02*
X1077Y1480D01*
X1110Y1480D02*
X1116Y1480D01*
X1124Y1480D02*
X1130Y1480D01*
X1046Y1479D02*
X1052Y1479D01*
X1071Y1479D02*
X1078Y1479D01*
X1110Y1479D02*
X1116Y1479D01*
X1124Y1479D02*
X1130Y1479D01*
X1046Y1478D02*
X1052Y1478D01*
X1071Y1478D02*
X1078Y1478D01*
X1099Y1478D02*
X1130Y1478D01*
X1046Y1477D02*
X1052Y1477D01*
X1072Y1477D02*
X1079Y1477D01*
X1097Y1477D02*
X1130Y1477D01*
X1046Y1476D02*
X1052Y1476D01*
X1072Y1476D02*
X1079Y1476D01*
X1097Y1476D02*
X1130Y1476D01*
X1046Y1475D02*
X1052Y1475D01*
X1073Y1475D02*
X1080Y1475D01*
X1096Y1475D02*
X1130Y1475D01*
X1046Y1474D02*
X1052Y1474D01*
X1074Y1474D02*
X1080Y1474D01*
X1096Y1474D02*
X1130Y1474D01*
X1047Y1473D02*
X1052Y1473D01*
X1074Y1473D02*
X1079Y1473D01*
X1097Y1473D02*
X1129Y1473D01*
X1048Y1472D02*
X1051Y1472D01*
X1075Y1472D02*
X1079Y1472D01*
X1098Y1472D02*
X1129Y1472D01*
X1046Y1325D02*
X1072Y1325D01*
X1098Y1325D02*
X1125Y1325D01*
X1046Y1324D02*
X1074Y1324D01*
X1097Y1324D02*
X1127Y1324D01*
X1046Y1323D02*
X1076Y1323D01*
X1097Y1323D02*
X1128Y1323D01*
X1046Y1322D02*
X1077Y1322D01*
X1096Y1322D02*
X1129Y1322D01*
X1046Y1321D02*
X1078Y1321D01*
X1096Y1321D02*
X1129Y1321D01*
X1046Y1320D02*
X1078Y1320D01*
X1097Y1320D02*
X1130Y1320D01*
X1046Y1319D02*
X1079Y1319D01*
X1098Y1319D02*
X1130Y1319D01*
X1046Y1318D02*
X1052Y1318D01*
X1072Y1318D02*
X1079Y1318D01*
X1124Y1318D02*
X1130Y1318D01*
X1046Y1317D02*
X1052Y1317D01*
X1073Y1317D02*
X1080Y1317D01*
X1124Y1317D02*
X1130Y1317D01*
X1046Y1316D02*
X1052Y1316D01*
X1074Y1316D02*
X1080Y1316D01*
X1124Y1316D02*
X1130Y1316D01*
X1046Y1315D02*
X1052Y1315D01*
X1074Y1315D02*
X1080Y1315D01*
X1124Y1315D02*
X1130Y1315D01*
X1046Y1314D02*
X1052Y1314D01*
X1074Y1314D02*
X1080Y1314D01*
X1124Y1314D02*
X1130Y1314D01*
X1046Y1313D02*
X1052Y1313D01*
X1074Y1313D02*
X1080Y1313D01*
X1124Y1313D02*
X1130Y1313D01*
X1046Y1312D02*
X1052Y1312D01*
X1074Y1312D02*
X1080Y1312D01*
X1124Y1312D02*
X1130Y1312D01*
X1046Y1311D02*
X1052Y1311D01*
X1074Y1311D02*
X1080Y1311D01*
X1124Y1311D02*
X1130Y1311D01*
X1046Y1310D02*
X1052Y1310D01*
X1074Y1310D02*
X1080Y1310D01*
X1124Y1310D02*
X1130Y1310D01*
X1046Y1309D02*
X1052Y1309D01*
X1073Y1309D02*
X1080Y1309D01*
X1124Y1309D02*
X1130Y1309D01*
X1046Y1308D02*
X1052Y1308D01*
X1072Y1308D02*
X1079Y1308D01*
X1124Y1308D02*
X1130Y1308D01*
X1046Y1307D02*
X1079Y1307D01*
X1124Y1307D02*
X1130Y1307D01*
X1046Y1306D02*
X1078Y1306D01*
X1124Y1306D02*
X1130Y1306D01*
X1046Y1305D02*
X1078Y1305D01*
X1124Y1305D02*
X1130Y1305D01*
X1046Y1304D02*
X1077Y1304D01*
X1124Y1304D02*
X1130Y1304D01*
X1046Y1303D02*
X1076Y1303D01*
X1124Y1303D02*
X1130Y1303D01*
X1046Y1302D02*
X1074Y1302D01*
X1124Y1302D02*
X1130Y1302D01*
X1046Y1301D02*
X1072Y1301D01*
X1100Y1301D02*
X1130Y1301D01*
X1046Y1300D02*
X1052Y1300D01*
X1058Y1300D02*
X1066Y1300D01*
X1099Y1300D02*
X1130Y1300D01*
X1046Y1299D02*
X1052Y1299D01*
X1059Y1299D02*
X1066Y1299D01*
X1098Y1299D02*
X1129Y1299D01*
X1046Y1298D02*
X1052Y1298D01*
X1060Y1298D02*
X1067Y1298D01*
X1097Y1298D02*
X1129Y1298D01*
X1046Y1297D02*
X1052Y1297D01*
X1060Y1297D02*
X1067Y1297D01*
X1097Y1297D02*
X1128Y1297D01*
X1046Y1296D02*
X1052Y1296D01*
X1061Y1296D02*
X1068Y1296D01*
X1096Y1296D02*
X1127Y1296D01*
X1046Y1295D02*
X1052Y1295D01*
X1061Y1295D02*
X1069Y1295D01*
X1096Y1295D02*
X1124Y1295D01*
X1046Y1294D02*
X1052Y1294D01*
X1062Y1294D02*
X1069Y1294D01*
X1096Y1294D02*
X1102Y1294D01*
X1046Y1293D02*
X1052Y1293D01*
X1063Y1293D02*
X1070Y1293D01*
X1096Y1293D02*
X1102Y1293D01*
X1046Y1292D02*
X1052Y1292D01*
X1063Y1292D02*
X1070Y1292D01*
X1096Y1292D02*
X1102Y1292D01*
X1046Y1291D02*
X1052Y1291D01*
X1064Y1291D02*
X1071Y1291D01*
X1096Y1291D02*
X1102Y1291D01*
X1046Y1290D02*
X1052Y1290D01*
X1064Y1290D02*
X1071Y1290D01*
X1096Y1290D02*
X1102Y1290D01*
X1046Y1289D02*
X1052Y1289D01*
X1065Y1289D02*
X1072Y1289D01*
X1096Y1289D02*
X1102Y1289D01*
X1046Y1288D02*
X1052Y1288D01*
X1065Y1288D02*
X1073Y1288D01*
X1096Y1288D02*
X1102Y1288D01*
X1046Y1287D02*
X1052Y1287D01*
X1066Y1287D02*
X1073Y1287D01*
X1096Y1287D02*
X1102Y1287D01*
X1046Y1286D02*
X1052Y1286D01*
X1067Y1286D02*
X1074Y1286D01*
X1096Y1286D02*
X1102Y1286D01*
X1046Y1285D02*
X1052Y1285D01*
X1067Y1285D02*
X1074Y1285D01*
X1096Y1285D02*
X1102Y1285D01*
X1046Y1284D02*
X1052Y1284D01*
X1068Y1284D02*
X1075Y1284D01*
X1096Y1284D02*
X1102Y1284D01*
X1046Y1283D02*
X1052Y1283D01*
X1068Y1283D02*
X1076Y1283D01*
X1096Y1283D02*
X1102Y1283D01*
X1046Y1282D02*
X1052Y1282D01*
X1069Y1282D02*
X1076Y1282D01*
X1096Y1282D02*
X1102Y1282D01*
X1046Y1281D02*
X1052Y1281D01*
X1070Y1281D02*
X1077Y1281D01*
X1096Y1281D02*
X1102Y1281D01*
X1046Y1280D02*
X1052Y1280D01*
X1070Y1280D02*
X1077Y1280D01*
X1096Y1280D02*
X1102Y1280D01*
X1046Y1279D02*
X1052Y1279D01*
X1071Y1279D02*
X1078Y1279D01*
X1096Y1279D02*
X1102Y1279D01*
X1046Y1278D02*
X1052Y1278D01*
X1071Y1278D02*
X1078Y1278D01*
X1096Y1278D02*
X1127Y1278D01*
X1046Y1277D02*
X1052Y1277D01*
X1072Y1277D02*
X1079Y1277D01*
X1096Y1277D02*
X1129Y1277D01*
X1046Y1276D02*
X1052Y1276D01*
X1072Y1276D02*
X1080Y1276D01*
X1096Y1276D02*
X1130Y1276D01*
X1046Y1275D02*
X1052Y1275D01*
X1073Y1275D02*
X1080Y1275D01*
X1096Y1275D02*
X1130Y1275D01*
X1046Y1274D02*
X1052Y1274D01*
X1074Y1274D02*
X1080Y1274D01*
X1096Y1274D02*
X1130Y1274D01*
X1047Y1273D02*
X1052Y1273D01*
X1074Y1273D02*
X1079Y1273D01*
X1096Y1273D02*
X1129Y1273D01*
X1048Y1272D02*
X1051Y1272D01*
X1075Y1272D02*
X1078Y1272D01*
X1096Y1272D02*
X1128Y1272D01*
X405Y1252D02*
X407Y1252D01*
X433Y1252D02*
X434Y1252D01*
X1305Y1252D02*
X1307Y1252D01*
X1331Y1252D02*
X1357Y1252D01*
X404Y1251D02*
X408Y1251D01*
X431Y1251D02*
X436Y1251D01*
X1304Y1251D02*
X1308Y1251D01*
X1330Y1251D02*
X1359Y1251D01*
X403Y1250D02*
X409Y1250D01*
X431Y1250D02*
X436Y1250D01*
X1303Y1250D02*
X1309Y1250D01*
X1329Y1250D02*
X1360Y1250D01*
X403Y1249D02*
X409Y1249D01*
X431Y1249D02*
X436Y1249D01*
X1303Y1249D02*
X1309Y1249D01*
X1329Y1249D02*
X1361Y1249D01*
X403Y1248D02*
X409Y1248D01*
X431Y1248D02*
X437Y1248D01*
X1303Y1248D02*
X1309Y1248D01*
X1329Y1248D02*
X1362Y1248D01*
X403Y1247D02*
X409Y1247D01*
X431Y1247D02*
X437Y1247D01*
X1303Y1247D02*
X1309Y1247D01*
X1329Y1247D02*
X1362Y1247D01*
X403Y1246D02*
X409Y1246D01*
X431Y1246D02*
X437Y1246D01*
X453Y1246D02*
X455Y1246D01*
X1303Y1246D02*
X1309Y1246D01*
X1330Y1246D02*
X1362Y1246D01*
X403Y1245D02*
X409Y1245D01*
X431Y1245D02*
X437Y1245D01*
X452Y1245D02*
X456Y1245D01*
X1303Y1245D02*
X1309Y1245D01*
X1356Y1245D02*
X1362Y1245D01*
X403Y1244D02*
X409Y1244D01*
X431Y1244D02*
X437Y1244D01*
X451Y1244D02*
X457Y1244D01*
X1303Y1244D02*
X1309Y1244D01*
X1356Y1244D02*
X1362Y1244D01*
X403Y1243D02*
X409Y1243D01*
X431Y1243D02*
X437Y1243D01*
X451Y1243D02*
X457Y1243D01*
X1303Y1243D02*
X1309Y1243D01*
X1356Y1243D02*
X1362Y1243D01*
X403Y1242D02*
X409Y1242D01*
X431Y1242D02*
X437Y1242D01*
X451Y1242D02*
X457Y1242D01*
X1303Y1242D02*
X1309Y1242D01*
X1356Y1242D02*
X1362Y1242D01*
X403Y1241D02*
X409Y1241D01*
X431Y1241D02*
X437Y1241D01*
X451Y1241D02*
X457Y1241D01*
X1303Y1241D02*
X1309Y1241D01*
X1356Y1241D02*
X1362Y1241D01*
X403Y1240D02*
X409Y1240D01*
X431Y1240D02*
X437Y1240D01*
X451Y1240D02*
X457Y1240D01*
X1303Y1240D02*
X1309Y1240D01*
X1356Y1240D02*
X1362Y1240D01*
X403Y1239D02*
X409Y1239D01*
X431Y1239D02*
X437Y1239D01*
X451Y1239D02*
X457Y1239D01*
X1303Y1239D02*
X1309Y1239D01*
X1356Y1239D02*
X1362Y1239D01*
X403Y1238D02*
X409Y1238D01*
X431Y1238D02*
X437Y1238D01*
X451Y1238D02*
X457Y1238D01*
X1303Y1238D02*
X1309Y1238D01*
X1356Y1238D02*
X1362Y1238D01*
X403Y1237D02*
X409Y1237D01*
X431Y1237D02*
X437Y1237D01*
X451Y1237D02*
X457Y1237D01*
X1303Y1237D02*
X1309Y1237D01*
X1356Y1237D02*
X1362Y1237D01*
X403Y1236D02*
X409Y1236D01*
X431Y1236D02*
X437Y1236D01*
X451Y1236D02*
X457Y1236D01*
X1303Y1236D02*
X1309Y1236D01*
X1356Y1236D02*
X1362Y1236D01*
X403Y1235D02*
X409Y1235D01*
X431Y1235D02*
X437Y1235D01*
X451Y1235D02*
X457Y1235D01*
X1303Y1235D02*
X1309Y1235D01*
X1356Y1235D02*
X1362Y1235D01*
X403Y1234D02*
X409Y1234D01*
X431Y1234D02*
X437Y1234D01*
X451Y1234D02*
X457Y1234D01*
X1303Y1234D02*
X1309Y1234D01*
X1356Y1234D02*
X1362Y1234D01*
X403Y1233D02*
X409Y1233D01*
X431Y1233D02*
X437Y1233D01*
X451Y1233D02*
X457Y1233D01*
X1303Y1233D02*
X1309Y1233D01*
X1356Y1233D02*
X1362Y1233D01*
X403Y1232D02*
X409Y1232D01*
X431Y1232D02*
X437Y1232D01*
X451Y1232D02*
X457Y1232D01*
X1303Y1232D02*
X1309Y1232D01*
X1356Y1232D02*
X1362Y1232D01*
X403Y1231D02*
X409Y1231D01*
X431Y1231D02*
X437Y1231D01*
X451Y1231D02*
X457Y1231D01*
X1303Y1231D02*
X1309Y1231D01*
X1356Y1231D02*
X1362Y1231D01*
X403Y1230D02*
X409Y1230D01*
X431Y1230D02*
X437Y1230D01*
X451Y1230D02*
X457Y1230D01*
X1303Y1230D02*
X1309Y1230D01*
X1356Y1230D02*
X1362Y1230D01*
X403Y1229D02*
X409Y1229D01*
X431Y1229D02*
X437Y1229D01*
X451Y1229D02*
X457Y1229D01*
X1303Y1229D02*
X1309Y1229D01*
X1356Y1229D02*
X1362Y1229D01*
X403Y1228D02*
X409Y1228D01*
X431Y1228D02*
X437Y1228D01*
X451Y1228D02*
X457Y1228D01*
X1303Y1228D02*
X1309Y1228D01*
X1333Y1228D02*
X1362Y1228D01*
X403Y1227D02*
X409Y1227D01*
X431Y1227D02*
X437Y1227D01*
X451Y1227D02*
X457Y1227D01*
X1303Y1227D02*
X1309Y1227D01*
X1331Y1227D02*
X1362Y1227D01*
X403Y1226D02*
X409Y1226D01*
X431Y1226D02*
X437Y1226D01*
X451Y1226D02*
X457Y1226D01*
X1303Y1226D02*
X1309Y1226D01*
X1330Y1226D02*
X1362Y1226D01*
X403Y1225D02*
X409Y1225D01*
X431Y1225D02*
X437Y1225D01*
X451Y1225D02*
X457Y1225D01*
X1303Y1225D02*
X1309Y1225D01*
X1330Y1225D02*
X1361Y1225D01*
X403Y1224D02*
X409Y1224D01*
X431Y1224D02*
X437Y1224D01*
X451Y1224D02*
X457Y1224D01*
X1303Y1224D02*
X1309Y1224D01*
X1329Y1224D02*
X1360Y1224D01*
X403Y1223D02*
X409Y1223D01*
X431Y1223D02*
X437Y1223D01*
X451Y1223D02*
X457Y1223D01*
X1303Y1223D02*
X1309Y1223D01*
X1329Y1223D02*
X1359Y1223D01*
X384Y1222D02*
X387Y1222D01*
X403Y1222D02*
X409Y1222D01*
X431Y1222D02*
X459Y1222D01*
X1283Y1222D02*
X1287Y1222D01*
X1303Y1222D02*
X1309Y1222D01*
X1329Y1222D02*
X1357Y1222D01*
X383Y1221D02*
X388Y1221D01*
X403Y1221D02*
X409Y1221D01*
X431Y1221D02*
X460Y1221D01*
X1283Y1221D02*
X1288Y1221D01*
X1303Y1221D02*
X1309Y1221D01*
X1329Y1221D02*
X1335Y1221D01*
X382Y1220D02*
X388Y1220D01*
X403Y1220D02*
X409Y1220D01*
X431Y1220D02*
X461Y1220D01*
X1282Y1220D02*
X1288Y1220D01*
X1303Y1220D02*
X1309Y1220D01*
X1329Y1220D02*
X1335Y1220D01*
X382Y1219D02*
X388Y1219D01*
X403Y1219D02*
X409Y1219D01*
X431Y1219D02*
X461Y1219D01*
X1282Y1219D02*
X1288Y1219D01*
X1303Y1219D02*
X1309Y1219D01*
X1329Y1219D02*
X1335Y1219D01*
X382Y1218D02*
X388Y1218D01*
X403Y1218D02*
X409Y1218D01*
X431Y1218D02*
X460Y1218D01*
X1282Y1218D02*
X1288Y1218D01*
X1303Y1218D02*
X1309Y1218D01*
X1329Y1218D02*
X1335Y1218D01*
X382Y1217D02*
X388Y1217D01*
X403Y1217D02*
X409Y1217D01*
X431Y1217D02*
X460Y1217D01*
X1282Y1217D02*
X1288Y1217D01*
X1303Y1217D02*
X1309Y1217D01*
X1329Y1217D02*
X1335Y1217D01*
X382Y1216D02*
X388Y1216D01*
X403Y1216D02*
X409Y1216D01*
X431Y1216D02*
X458Y1216D01*
X1282Y1216D02*
X1288Y1216D01*
X1303Y1216D02*
X1309Y1216D01*
X1329Y1216D02*
X1335Y1216D01*
X382Y1215D02*
X388Y1215D01*
X403Y1215D02*
X409Y1215D01*
X451Y1215D02*
X457Y1215D01*
X1282Y1215D02*
X1288Y1215D01*
X1303Y1215D02*
X1309Y1215D01*
X1329Y1215D02*
X1335Y1215D01*
X382Y1214D02*
X388Y1214D01*
X403Y1214D02*
X409Y1214D01*
X451Y1214D02*
X457Y1214D01*
X1282Y1214D02*
X1288Y1214D01*
X1303Y1214D02*
X1309Y1214D01*
X1329Y1214D02*
X1335Y1214D01*
X382Y1213D02*
X388Y1213D01*
X403Y1213D02*
X409Y1213D01*
X451Y1213D02*
X457Y1213D01*
X1282Y1213D02*
X1288Y1213D01*
X1303Y1213D02*
X1309Y1213D01*
X1329Y1213D02*
X1335Y1213D01*
X382Y1212D02*
X388Y1212D01*
X403Y1212D02*
X409Y1212D01*
X451Y1212D02*
X457Y1212D01*
X1282Y1212D02*
X1288Y1212D01*
X1303Y1212D02*
X1309Y1212D01*
X1329Y1212D02*
X1335Y1212D01*
X382Y1211D02*
X388Y1211D01*
X403Y1211D02*
X409Y1211D01*
X451Y1211D02*
X457Y1211D01*
X1282Y1211D02*
X1288Y1211D01*
X1303Y1211D02*
X1309Y1211D01*
X1329Y1211D02*
X1335Y1211D01*
X382Y1210D02*
X388Y1210D01*
X403Y1210D02*
X409Y1210D01*
X451Y1210D02*
X457Y1210D01*
X1282Y1210D02*
X1288Y1210D01*
X1303Y1210D02*
X1309Y1210D01*
X1329Y1210D02*
X1335Y1210D01*
X382Y1209D02*
X388Y1209D01*
X403Y1209D02*
X409Y1209D01*
X451Y1209D02*
X457Y1209D01*
X1282Y1209D02*
X1288Y1209D01*
X1303Y1209D02*
X1309Y1209D01*
X1329Y1209D02*
X1335Y1209D01*
X382Y1208D02*
X388Y1208D01*
X403Y1208D02*
X409Y1208D01*
X451Y1208D02*
X457Y1208D01*
X1282Y1208D02*
X1288Y1208D01*
X1303Y1208D02*
X1309Y1208D01*
X1329Y1208D02*
X1335Y1208D01*
X382Y1207D02*
X389Y1207D01*
X402Y1207D02*
X409Y1207D01*
X451Y1207D02*
X457Y1207D01*
X1282Y1207D02*
X1289Y1207D01*
X1302Y1207D02*
X1309Y1207D01*
X1329Y1207D02*
X1335Y1207D01*
X383Y1206D02*
X390Y1206D01*
X402Y1206D02*
X409Y1206D01*
X451Y1206D02*
X457Y1206D01*
X1283Y1206D02*
X1290Y1206D01*
X1301Y1206D02*
X1308Y1206D01*
X1329Y1206D02*
X1335Y1206D01*
X383Y1205D02*
X408Y1205D01*
X451Y1205D02*
X457Y1205D01*
X1283Y1205D02*
X1308Y1205D01*
X1329Y1205D02*
X1360Y1205D01*
X383Y1204D02*
X408Y1204D01*
X451Y1204D02*
X457Y1204D01*
X1283Y1204D02*
X1308Y1204D01*
X1329Y1204D02*
X1361Y1204D01*
X384Y1203D02*
X407Y1203D01*
X451Y1203D02*
X457Y1203D01*
X1284Y1203D02*
X1307Y1203D01*
X1329Y1203D02*
X1362Y1203D01*
X385Y1202D02*
X406Y1202D01*
X451Y1202D02*
X457Y1202D01*
X1285Y1202D02*
X1306Y1202D01*
X1329Y1202D02*
X1362Y1202D01*
X386Y1201D02*
X405Y1201D01*
X451Y1201D02*
X457Y1201D01*
X1286Y1201D02*
X1305Y1201D01*
X1329Y1201D02*
X1362Y1201D01*
X387Y1200D02*
X404Y1200D01*
X452Y1200D02*
X457Y1200D01*
X1287Y1200D02*
X1304Y1200D01*
X1329Y1200D02*
X1362Y1200D01*
X389Y1199D02*
X402Y1199D01*
X453Y1199D02*
X456Y1199D01*
X1289Y1199D02*
X1302Y1199D01*
X1329Y1199D02*
X1361Y1199D01*
X646Y1039D02*
X647Y1039D01*
X694Y1039D02*
X701Y1039D01*
X719Y1039D02*
X727Y1039D01*
X746Y1039D02*
X772Y1039D01*
X801Y1039D02*
X824Y1039D01*
X853Y1039D02*
X868Y1039D01*
X645Y1038D02*
X649Y1038D01*
X694Y1038D02*
X702Y1038D01*
X719Y1038D02*
X727Y1038D01*
X745Y1038D02*
X774Y1038D01*
X801Y1038D02*
X826Y1038D01*
X852Y1038D02*
X869Y1038D01*
X644Y1037D02*
X649Y1037D01*
X694Y1037D02*
X703Y1037D01*
X718Y1037D02*
X727Y1037D01*
X744Y1037D02*
X775Y1037D01*
X801Y1037D02*
X827Y1037D01*
X851Y1037D02*
X870Y1037D01*
X644Y1036D02*
X650Y1036D01*
X694Y1036D02*
X704Y1036D01*
X717Y1036D02*
X727Y1036D01*
X744Y1036D02*
X776Y1036D01*
X801Y1036D02*
X827Y1036D01*
X851Y1036D02*
X870Y1036D01*
X644Y1035D02*
X650Y1035D01*
X694Y1035D02*
X704Y1035D01*
X717Y1035D02*
X727Y1035D01*
X744Y1035D02*
X777Y1035D01*
X801Y1035D02*
X827Y1035D01*
X851Y1035D02*
X870Y1035D01*
X644Y1034D02*
X650Y1034D01*
X694Y1034D02*
X705Y1034D01*
X716Y1034D02*
X727Y1034D01*
X744Y1034D02*
X777Y1034D01*
X801Y1034D02*
X827Y1034D01*
X851Y1034D02*
X870Y1034D01*
X644Y1033D02*
X650Y1033D01*
X694Y1033D02*
X706Y1033D01*
X715Y1033D02*
X727Y1033D01*
X745Y1033D02*
X777Y1033D01*
X801Y1033D02*
X826Y1033D01*
X851Y1033D02*
X870Y1033D01*
X644Y1032D02*
X650Y1032D01*
X694Y1032D02*
X706Y1032D01*
X714Y1032D02*
X727Y1032D01*
X771Y1032D02*
X777Y1032D01*
X801Y1032D02*
X807Y1032D01*
X851Y1032D02*
X857Y1032D01*
X864Y1032D02*
X870Y1032D01*
X644Y1031D02*
X650Y1031D01*
X694Y1031D02*
X707Y1031D01*
X714Y1031D02*
X727Y1031D01*
X771Y1031D02*
X777Y1031D01*
X801Y1031D02*
X807Y1031D01*
X851Y1031D02*
X857Y1031D01*
X864Y1031D02*
X870Y1031D01*
X644Y1030D02*
X650Y1030D01*
X694Y1030D02*
X708Y1030D01*
X713Y1030D02*
X727Y1030D01*
X771Y1030D02*
X777Y1030D01*
X801Y1030D02*
X807Y1030D01*
X851Y1030D02*
X857Y1030D01*
X864Y1030D02*
X870Y1030D01*
X644Y1029D02*
X650Y1029D01*
X694Y1029D02*
X709Y1029D01*
X712Y1029D02*
X727Y1029D01*
X771Y1029D02*
X777Y1029D01*
X801Y1029D02*
X807Y1029D01*
X851Y1029D02*
X857Y1029D01*
X864Y1029D02*
X870Y1029D01*
X644Y1028D02*
X650Y1028D01*
X694Y1028D02*
X700Y1028D01*
X702Y1028D02*
X709Y1028D01*
X712Y1028D02*
X719Y1028D01*
X721Y1028D02*
X727Y1028D01*
X771Y1028D02*
X777Y1028D01*
X801Y1028D02*
X807Y1028D01*
X851Y1028D02*
X857Y1028D01*
X864Y1028D02*
X870Y1028D01*
X644Y1027D02*
X650Y1027D01*
X694Y1027D02*
X700Y1027D01*
X702Y1027D02*
X718Y1027D01*
X721Y1027D02*
X727Y1027D01*
X771Y1027D02*
X777Y1027D01*
X801Y1027D02*
X807Y1027D01*
X851Y1027D02*
X857Y1027D01*
X864Y1027D02*
X870Y1027D01*
X644Y1026D02*
X650Y1026D01*
X694Y1026D02*
X700Y1026D01*
X703Y1026D02*
X718Y1026D01*
X721Y1026D02*
X727Y1026D01*
X771Y1026D02*
X777Y1026D01*
X801Y1026D02*
X807Y1026D01*
X851Y1026D02*
X857Y1026D01*
X864Y1026D02*
X870Y1026D01*
X644Y1025D02*
X650Y1025D01*
X694Y1025D02*
X700Y1025D01*
X704Y1025D02*
X717Y1025D01*
X721Y1025D02*
X727Y1025D01*
X771Y1025D02*
X777Y1025D01*
X801Y1025D02*
X807Y1025D01*
X851Y1025D02*
X857Y1025D01*
X864Y1025D02*
X870Y1025D01*
X644Y1024D02*
X650Y1024D01*
X694Y1024D02*
X700Y1024D01*
X704Y1024D02*
X716Y1024D01*
X721Y1024D02*
X727Y1024D01*
X771Y1024D02*
X777Y1024D01*
X801Y1024D02*
X807Y1024D01*
X851Y1024D02*
X857Y1024D01*
X864Y1024D02*
X870Y1024D01*
X644Y1023D02*
X650Y1023D01*
X694Y1023D02*
X700Y1023D01*
X705Y1023D02*
X716Y1023D01*
X721Y1023D02*
X727Y1023D01*
X771Y1023D02*
X777Y1023D01*
X801Y1023D02*
X807Y1023D01*
X851Y1023D02*
X857Y1023D01*
X864Y1023D02*
X870Y1023D01*
X644Y1022D02*
X650Y1022D01*
X694Y1022D02*
X700Y1022D01*
X706Y1022D02*
X715Y1022D01*
X721Y1022D02*
X727Y1022D01*
X771Y1022D02*
X777Y1022D01*
X801Y1022D02*
X807Y1022D01*
X851Y1022D02*
X857Y1022D01*
X864Y1022D02*
X870Y1022D01*
X644Y1021D02*
X650Y1021D01*
X694Y1021D02*
X700Y1021D01*
X707Y1021D02*
X714Y1021D01*
X721Y1021D02*
X727Y1021D01*
X771Y1021D02*
X777Y1021D01*
X801Y1021D02*
X807Y1021D01*
X851Y1021D02*
X857Y1021D01*
X864Y1021D02*
X870Y1021D01*
X644Y1020D02*
X650Y1020D01*
X694Y1020D02*
X700Y1020D01*
X707Y1020D02*
X714Y1020D01*
X721Y1020D02*
X727Y1020D01*
X771Y1020D02*
X777Y1020D01*
X801Y1020D02*
X807Y1020D01*
X851Y1020D02*
X857Y1020D01*
X864Y1020D02*
X870Y1020D01*
X644Y1019D02*
X650Y1019D01*
X694Y1019D02*
X700Y1019D01*
X707Y1019D02*
X713Y1019D01*
X721Y1019D02*
X727Y1019D01*
X771Y1019D02*
X777Y1019D01*
X801Y1019D02*
X807Y1019D01*
X851Y1019D02*
X857Y1019D01*
X864Y1019D02*
X870Y1019D01*
X644Y1018D02*
X650Y1018D01*
X694Y1018D02*
X700Y1018D01*
X707Y1018D02*
X713Y1018D01*
X721Y1018D02*
X727Y1018D01*
X771Y1018D02*
X777Y1018D01*
X801Y1018D02*
X807Y1018D01*
X851Y1018D02*
X857Y1018D01*
X864Y1018D02*
X870Y1018D01*
X644Y1017D02*
X650Y1017D01*
X694Y1017D02*
X700Y1017D01*
X708Y1017D02*
X713Y1017D01*
X721Y1017D02*
X727Y1017D01*
X770Y1017D02*
X777Y1017D01*
X801Y1017D02*
X807Y1017D01*
X851Y1017D02*
X857Y1017D01*
X864Y1017D02*
X870Y1017D01*
X644Y1016D02*
X650Y1016D01*
X694Y1016D02*
X700Y1016D01*
X708Y1016D02*
X713Y1016D01*
X721Y1016D02*
X727Y1016D01*
X769Y1016D02*
X777Y1016D01*
X801Y1016D02*
X807Y1016D01*
X851Y1016D02*
X857Y1016D01*
X864Y1016D02*
X870Y1016D01*
X644Y1015D02*
X650Y1015D01*
X694Y1015D02*
X700Y1015D01*
X709Y1015D02*
X712Y1015D01*
X721Y1015D02*
X727Y1015D01*
X752Y1015D02*
X776Y1015D01*
X801Y1015D02*
X823Y1015D01*
X848Y1015D02*
X873Y1015D01*
X644Y1014D02*
X650Y1014D01*
X694Y1014D02*
X700Y1014D01*
X721Y1014D02*
X727Y1014D01*
X751Y1014D02*
X776Y1014D01*
X801Y1014D02*
X825Y1014D01*
X846Y1014D02*
X874Y1014D01*
X644Y1013D02*
X650Y1013D01*
X694Y1013D02*
X700Y1013D01*
X721Y1013D02*
X727Y1013D01*
X751Y1013D02*
X775Y1013D01*
X801Y1013D02*
X826Y1013D01*
X845Y1013D02*
X876Y1013D01*
X644Y1012D02*
X650Y1012D01*
X694Y1012D02*
X700Y1012D01*
X721Y1012D02*
X727Y1012D01*
X751Y1012D02*
X775Y1012D01*
X801Y1012D02*
X826Y1012D01*
X845Y1012D02*
X876Y1012D01*
X644Y1011D02*
X650Y1011D01*
X694Y1011D02*
X700Y1011D01*
X721Y1011D02*
X727Y1011D01*
X751Y1011D02*
X775Y1011D01*
X801Y1011D02*
X827Y1011D01*
X844Y1011D02*
X877Y1011D01*
X644Y1010D02*
X650Y1010D01*
X694Y1010D02*
X700Y1010D01*
X721Y1010D02*
X727Y1010D01*
X751Y1010D02*
X776Y1010D01*
X801Y1010D02*
X827Y1010D01*
X844Y1010D02*
X877Y1010D01*
X644Y1009D02*
X650Y1009D01*
X694Y1009D02*
X700Y1009D01*
X721Y1009D02*
X727Y1009D01*
X752Y1009D02*
X776Y1009D01*
X801Y1009D02*
X827Y1009D01*
X844Y1009D02*
X877Y1009D01*
X644Y1008D02*
X650Y1008D01*
X694Y1008D02*
X700Y1008D01*
X721Y1008D02*
X727Y1008D01*
X769Y1008D02*
X777Y1008D01*
X821Y1008D02*
X827Y1008D01*
X844Y1008D02*
X850Y1008D01*
X871Y1008D02*
X877Y1008D01*
X644Y1007D02*
X650Y1007D01*
X694Y1007D02*
X700Y1007D01*
X721Y1007D02*
X727Y1007D01*
X770Y1007D02*
X777Y1007D01*
X821Y1007D02*
X827Y1007D01*
X844Y1007D02*
X850Y1007D01*
X871Y1007D02*
X877Y1007D01*
X644Y1006D02*
X650Y1006D01*
X694Y1006D02*
X700Y1006D01*
X721Y1006D02*
X727Y1006D01*
X771Y1006D02*
X777Y1006D01*
X821Y1006D02*
X827Y1006D01*
X844Y1006D02*
X850Y1006D01*
X871Y1006D02*
X877Y1006D01*
X644Y1005D02*
X650Y1005D01*
X694Y1005D02*
X700Y1005D01*
X721Y1005D02*
X727Y1005D01*
X771Y1005D02*
X777Y1005D01*
X821Y1005D02*
X827Y1005D01*
X844Y1005D02*
X850Y1005D01*
X871Y1005D02*
X877Y1005D01*
X644Y1004D02*
X650Y1004D01*
X694Y1004D02*
X700Y1004D01*
X721Y1004D02*
X727Y1004D01*
X771Y1004D02*
X777Y1004D01*
X821Y1004D02*
X827Y1004D01*
X844Y1004D02*
X850Y1004D01*
X871Y1004D02*
X877Y1004D01*
X644Y1003D02*
X650Y1003D01*
X694Y1003D02*
X700Y1003D01*
X721Y1003D02*
X727Y1003D01*
X771Y1003D02*
X777Y1003D01*
X821Y1003D02*
X827Y1003D01*
X844Y1003D02*
X850Y1003D01*
X871Y1003D02*
X877Y1003D01*
X644Y1002D02*
X650Y1002D01*
X694Y1002D02*
X700Y1002D01*
X721Y1002D02*
X727Y1002D01*
X771Y1002D02*
X777Y1002D01*
X821Y1002D02*
X827Y1002D01*
X844Y1002D02*
X850Y1002D01*
X871Y1002D02*
X877Y1002D01*
X644Y1001D02*
X650Y1001D01*
X694Y1001D02*
X700Y1001D01*
X721Y1001D02*
X727Y1001D01*
X771Y1001D02*
X777Y1001D01*
X821Y1001D02*
X827Y1001D01*
X844Y1001D02*
X850Y1001D01*
X871Y1001D02*
X877Y1001D01*
X644Y1000D02*
X650Y1000D01*
X694Y1000D02*
X700Y1000D01*
X721Y1000D02*
X727Y1000D01*
X771Y1000D02*
X777Y1000D01*
X821Y1000D02*
X827Y1000D01*
X844Y1000D02*
X850Y1000D01*
X871Y1000D02*
X877Y1000D01*
X644Y999D02*
X650Y999D01*
X694Y999D02*
X700Y999D01*
X721Y999D02*
X727Y999D01*
X771Y999D02*
X777Y999D01*
X821Y999D02*
X827Y999D01*
X844Y999D02*
X850Y999D01*
X871Y999D02*
X877Y999D01*
X644Y998D02*
X650Y998D01*
X694Y998D02*
X700Y998D01*
X721Y998D02*
X727Y998D01*
X771Y998D02*
X777Y998D01*
X821Y998D02*
X827Y998D01*
X844Y998D02*
X850Y998D01*
X871Y998D02*
X877Y998D01*
X644Y997D02*
X650Y997D01*
X694Y997D02*
X700Y997D01*
X721Y997D02*
X727Y997D01*
X771Y997D02*
X777Y997D01*
X821Y997D02*
X827Y997D01*
X844Y997D02*
X850Y997D01*
X871Y997D02*
X877Y997D01*
X644Y996D02*
X650Y996D01*
X694Y996D02*
X700Y996D01*
X721Y996D02*
X727Y996D01*
X771Y996D02*
X777Y996D01*
X821Y996D02*
X827Y996D01*
X844Y996D02*
X850Y996D01*
X871Y996D02*
X877Y996D01*
X644Y995D02*
X650Y995D01*
X694Y995D02*
X700Y995D01*
X721Y995D02*
X727Y995D01*
X771Y995D02*
X777Y995D01*
X821Y995D02*
X827Y995D01*
X844Y995D02*
X850Y995D01*
X871Y995D02*
X877Y995D01*
X644Y994D02*
X650Y994D01*
X694Y994D02*
X700Y994D01*
X721Y994D02*
X727Y994D01*
X771Y994D02*
X777Y994D01*
X795Y994D02*
X799Y994D01*
X821Y994D02*
X827Y994D01*
X844Y994D02*
X850Y994D01*
X871Y994D02*
X877Y994D01*
X644Y993D02*
X650Y993D01*
X694Y993D02*
X700Y993D01*
X721Y993D02*
X727Y993D01*
X771Y993D02*
X777Y993D01*
X794Y993D02*
X801Y993D01*
X821Y993D02*
X827Y993D01*
X844Y993D02*
X850Y993D01*
X871Y993D02*
X877Y993D01*
X644Y992D02*
X673Y992D01*
X694Y992D02*
X700Y992D01*
X721Y992D02*
X727Y992D01*
X747Y992D02*
X777Y992D01*
X794Y992D02*
X827Y992D01*
X844Y992D02*
X877Y992D01*
X644Y991D02*
X676Y991D01*
X694Y991D02*
X700Y991D01*
X721Y991D02*
X727Y991D01*
X745Y991D02*
X777Y991D01*
X794Y991D02*
X827Y991D01*
X844Y991D02*
X877Y991D01*
X644Y990D02*
X677Y990D01*
X694Y990D02*
X700Y990D01*
X721Y990D02*
X727Y990D01*
X744Y990D02*
X777Y990D01*
X794Y990D02*
X827Y990D01*
X844Y990D02*
X877Y990D01*
X644Y989D02*
X677Y989D01*
X694Y989D02*
X700Y989D01*
X721Y989D02*
X727Y989D01*
X744Y989D02*
X777Y989D01*
X795Y989D02*
X827Y989D01*
X844Y989D02*
X877Y989D01*
X644Y988D02*
X677Y988D01*
X694Y988D02*
X700Y988D01*
X721Y988D02*
X727Y988D01*
X744Y988D02*
X776Y988D01*
X796Y988D02*
X826Y988D01*
X845Y988D02*
X876Y988D01*
X644Y987D02*
X677Y987D01*
X694Y987D02*
X699Y987D01*
X722Y987D02*
X727Y987D01*
X744Y987D02*
X775Y987D01*
X798Y987D02*
X825Y987D01*
X846Y987D02*
X875Y987D01*
X644Y986D02*
X676Y986D01*
X695Y986D02*
X699Y986D01*
X722Y986D02*
X726Y986D01*
X745Y986D02*
X774Y986D01*
X801Y986D02*
X824Y986D01*
X847Y986D02*
X874Y986D01*
X644Y985D02*
X674Y985D01*
X747Y985D02*
X770Y985D01*
X805Y985D02*
X820Y985D01*
X850Y985D02*
X870Y985D01*
X405Y852D02*
X407Y852D01*
X436Y852D02*
X460Y852D01*
X1305Y852D02*
X1307Y852D01*
X1331Y852D02*
X1358Y852D01*
X404Y851D02*
X408Y851D01*
X436Y851D02*
X462Y851D01*
X1304Y851D02*
X1308Y851D01*
X1329Y851D02*
X1359Y851D01*
X403Y850D02*
X409Y850D01*
X436Y850D02*
X462Y850D01*
X1303Y850D02*
X1309Y850D01*
X1329Y850D02*
X1361Y850D01*
X403Y849D02*
X409Y849D01*
X436Y849D02*
X462Y849D01*
X1303Y849D02*
X1309Y849D01*
X1329Y849D02*
X1361Y849D01*
X403Y848D02*
X409Y848D01*
X436Y848D02*
X462Y848D01*
X1303Y848D02*
X1309Y848D01*
X1329Y848D02*
X1362Y848D01*
X403Y847D02*
X409Y847D01*
X436Y847D02*
X462Y847D01*
X1303Y847D02*
X1309Y847D01*
X1329Y847D02*
X1362Y847D01*
X403Y846D02*
X409Y846D01*
X436Y846D02*
X461Y846D01*
X1303Y846D02*
X1309Y846D01*
X1330Y846D02*
X1362Y846D01*
X403Y845D02*
X409Y845D01*
X436Y845D02*
X442Y845D01*
X1303Y845D02*
X1309Y845D01*
X1356Y845D02*
X1362Y845D01*
X403Y844D02*
X409Y844D01*
X436Y844D02*
X442Y844D01*
X1303Y844D02*
X1309Y844D01*
X1356Y844D02*
X1362Y844D01*
X403Y843D02*
X409Y843D01*
X436Y843D02*
X442Y843D01*
X1303Y843D02*
X1309Y843D01*
X1356Y843D02*
X1362Y843D01*
X403Y842D02*
X409Y842D01*
X436Y842D02*
X442Y842D01*
X1303Y842D02*
X1309Y842D01*
X1356Y842D02*
X1362Y842D01*
X403Y841D02*
X409Y841D01*
X436Y841D02*
X442Y841D01*
X1303Y841D02*
X1309Y841D01*
X1356Y841D02*
X1362Y841D01*
X403Y840D02*
X409Y840D01*
X436Y840D02*
X442Y840D01*
X1303Y840D02*
X1309Y840D01*
X1356Y840D02*
X1362Y840D01*
X403Y839D02*
X409Y839D01*
X436Y839D02*
X442Y839D01*
X1303Y839D02*
X1309Y839D01*
X1356Y839D02*
X1362Y839D01*
X403Y838D02*
X409Y838D01*
X436Y838D02*
X442Y838D01*
X1303Y838D02*
X1309Y838D01*
X1356Y838D02*
X1362Y838D01*
X403Y837D02*
X409Y837D01*
X436Y837D02*
X442Y837D01*
X1303Y837D02*
X1309Y837D01*
X1356Y837D02*
X1362Y837D01*
X403Y836D02*
X409Y836D01*
X436Y836D02*
X442Y836D01*
X1303Y836D02*
X1309Y836D01*
X1356Y836D02*
X1362Y836D01*
X403Y835D02*
X409Y835D01*
X436Y835D02*
X442Y835D01*
X1303Y835D02*
X1309Y835D01*
X1356Y835D02*
X1362Y835D01*
X403Y834D02*
X409Y834D01*
X436Y834D02*
X442Y834D01*
X1303Y834D02*
X1309Y834D01*
X1356Y834D02*
X1362Y834D01*
X403Y833D02*
X409Y833D01*
X436Y833D02*
X442Y833D01*
X1303Y833D02*
X1309Y833D01*
X1356Y833D02*
X1362Y833D01*
X403Y832D02*
X409Y832D01*
X436Y832D02*
X442Y832D01*
X1303Y832D02*
X1309Y832D01*
X1356Y832D02*
X1362Y832D01*
X403Y831D02*
X409Y831D01*
X436Y831D02*
X442Y831D01*
X1303Y831D02*
X1309Y831D01*
X1356Y831D02*
X1362Y831D01*
X403Y830D02*
X409Y830D01*
X436Y830D02*
X442Y830D01*
X1303Y830D02*
X1309Y830D01*
X1355Y830D02*
X1362Y830D01*
X403Y829D02*
X409Y829D01*
X436Y829D02*
X442Y829D01*
X1303Y829D02*
X1309Y829D01*
X1353Y829D02*
X1362Y829D01*
X403Y828D02*
X409Y828D01*
X436Y828D02*
X459Y828D01*
X1303Y828D02*
X1309Y828D01*
X1337Y828D02*
X1361Y828D01*
X403Y827D02*
X409Y827D01*
X436Y827D02*
X460Y827D01*
X1303Y827D02*
X1309Y827D01*
X1336Y827D02*
X1361Y827D01*
X403Y826D02*
X409Y826D01*
X436Y826D02*
X461Y826D01*
X1303Y826D02*
X1309Y826D01*
X1336Y826D02*
X1360Y826D01*
X403Y825D02*
X409Y825D01*
X436Y825D02*
X462Y825D01*
X1303Y825D02*
X1309Y825D01*
X1336Y825D02*
X1360Y825D01*
X403Y824D02*
X409Y824D01*
X436Y824D02*
X462Y824D01*
X1303Y824D02*
X1309Y824D01*
X1336Y824D02*
X1361Y824D01*
X403Y823D02*
X409Y823D01*
X436Y823D02*
X462Y823D01*
X1303Y823D02*
X1309Y823D01*
X1337Y823D02*
X1361Y823D01*
X383Y822D02*
X387Y822D01*
X403Y822D02*
X409Y822D01*
X436Y822D02*
X462Y822D01*
X1283Y822D02*
X1287Y822D01*
X1303Y822D02*
X1309Y822D01*
X1339Y822D02*
X1362Y822D01*
X383Y821D02*
X388Y821D01*
X403Y821D02*
X409Y821D01*
X456Y821D02*
X462Y821D01*
X1283Y821D02*
X1288Y821D01*
X1303Y821D02*
X1309Y821D01*
X1355Y821D02*
X1362Y821D01*
X382Y820D02*
X388Y820D01*
X403Y820D02*
X409Y820D01*
X456Y820D02*
X462Y820D01*
X1282Y820D02*
X1288Y820D01*
X1303Y820D02*
X1309Y820D01*
X1356Y820D02*
X1362Y820D01*
X382Y819D02*
X388Y819D01*
X403Y819D02*
X409Y819D01*
X456Y819D02*
X462Y819D01*
X1282Y819D02*
X1288Y819D01*
X1303Y819D02*
X1309Y819D01*
X1356Y819D02*
X1362Y819D01*
X382Y818D02*
X388Y818D01*
X403Y818D02*
X409Y818D01*
X456Y818D02*
X462Y818D01*
X1282Y818D02*
X1288Y818D01*
X1303Y818D02*
X1309Y818D01*
X1356Y818D02*
X1362Y818D01*
X382Y817D02*
X388Y817D01*
X403Y817D02*
X409Y817D01*
X456Y817D02*
X462Y817D01*
X1282Y817D02*
X1288Y817D01*
X1303Y817D02*
X1309Y817D01*
X1356Y817D02*
X1362Y817D01*
X382Y816D02*
X388Y816D01*
X403Y816D02*
X409Y816D01*
X456Y816D02*
X462Y816D01*
X1282Y816D02*
X1288Y816D01*
X1303Y816D02*
X1309Y816D01*
X1356Y816D02*
X1362Y816D01*
X382Y815D02*
X388Y815D01*
X403Y815D02*
X409Y815D01*
X456Y815D02*
X462Y815D01*
X1282Y815D02*
X1288Y815D01*
X1303Y815D02*
X1309Y815D01*
X1356Y815D02*
X1362Y815D01*
X382Y814D02*
X388Y814D01*
X403Y814D02*
X409Y814D01*
X456Y814D02*
X462Y814D01*
X1282Y814D02*
X1288Y814D01*
X1303Y814D02*
X1309Y814D01*
X1356Y814D02*
X1362Y814D01*
X382Y813D02*
X388Y813D01*
X403Y813D02*
X409Y813D01*
X456Y813D02*
X462Y813D01*
X1282Y813D02*
X1288Y813D01*
X1303Y813D02*
X1309Y813D01*
X1356Y813D02*
X1362Y813D01*
X382Y812D02*
X388Y812D01*
X403Y812D02*
X409Y812D01*
X456Y812D02*
X462Y812D01*
X1282Y812D02*
X1288Y812D01*
X1303Y812D02*
X1309Y812D01*
X1356Y812D02*
X1362Y812D01*
X382Y811D02*
X388Y811D01*
X403Y811D02*
X409Y811D01*
X456Y811D02*
X462Y811D01*
X1282Y811D02*
X1288Y811D01*
X1303Y811D02*
X1309Y811D01*
X1356Y811D02*
X1362Y811D01*
X382Y810D02*
X388Y810D01*
X403Y810D02*
X409Y810D01*
X456Y810D02*
X462Y810D01*
X1282Y810D02*
X1288Y810D01*
X1303Y810D02*
X1309Y810D01*
X1356Y810D02*
X1362Y810D01*
X382Y809D02*
X388Y809D01*
X403Y809D02*
X409Y809D01*
X456Y809D02*
X462Y809D01*
X1282Y809D02*
X1288Y809D01*
X1303Y809D02*
X1309Y809D01*
X1356Y809D02*
X1362Y809D01*
X382Y808D02*
X388Y808D01*
X403Y808D02*
X409Y808D01*
X431Y808D02*
X432Y808D01*
X456Y808D02*
X462Y808D01*
X1282Y808D02*
X1288Y808D01*
X1303Y808D02*
X1309Y808D01*
X1356Y808D02*
X1362Y808D01*
X382Y807D02*
X389Y807D01*
X402Y807D02*
X409Y807D01*
X430Y807D02*
X435Y807D01*
X456Y807D02*
X462Y807D01*
X1282Y807D02*
X1289Y807D01*
X1302Y807D02*
X1309Y807D01*
X1356Y807D02*
X1362Y807D01*
X383Y806D02*
X390Y806D01*
X401Y806D02*
X409Y806D01*
X429Y806D02*
X437Y806D01*
X456Y806D02*
X462Y806D01*
X1283Y806D02*
X1290Y806D01*
X1301Y806D02*
X1308Y806D01*
X1356Y806D02*
X1362Y806D01*
X383Y805D02*
X408Y805D01*
X429Y805D02*
X462Y805D01*
X1283Y805D02*
X1308Y805D01*
X1331Y805D02*
X1362Y805D01*
X383Y804D02*
X408Y804D01*
X429Y804D02*
X462Y804D01*
X1283Y804D02*
X1308Y804D01*
X1330Y804D02*
X1362Y804D01*
X384Y803D02*
X407Y803D01*
X429Y803D02*
X462Y803D01*
X1284Y803D02*
X1307Y803D01*
X1329Y803D02*
X1362Y803D01*
X385Y802D02*
X406Y802D01*
X430Y802D02*
X462Y802D01*
X1285Y802D02*
X1306Y802D01*
X1329Y802D02*
X1361Y802D01*
X386Y801D02*
X405Y801D01*
X432Y801D02*
X461Y801D01*
X1286Y801D02*
X1305Y801D01*
X1329Y801D02*
X1361Y801D01*
X387Y800D02*
X404Y800D01*
X434Y800D02*
X460Y800D01*
X1287Y800D02*
X1304Y800D01*
X1329Y800D02*
X1360Y800D01*
X389Y799D02*
X402Y799D01*
X437Y799D02*
X458Y799D01*
X1289Y799D02*
X1302Y799D01*
X1330Y799D02*
X1358Y799D01*
X1046Y625D02*
X1072Y625D01*
X1098Y625D02*
X1125Y625D01*
X1046Y624D02*
X1075Y624D01*
X1097Y624D02*
X1127Y624D01*
X1046Y623D02*
X1076Y623D01*
X1096Y623D02*
X1128Y623D01*
X1046Y622D02*
X1077Y622D01*
X1096Y622D02*
X1129Y622D01*
X1046Y621D02*
X1078Y621D01*
X1096Y621D02*
X1129Y621D01*
X1046Y620D02*
X1079Y620D01*
X1097Y620D02*
X1130Y620D01*
X1046Y619D02*
X1079Y619D01*
X1098Y619D02*
X1130Y619D01*
X1046Y618D02*
X1052Y618D01*
X1072Y618D02*
X1079Y618D01*
X1124Y618D02*
X1130Y618D01*
X1046Y617D02*
X1052Y617D01*
X1073Y617D02*
X1080Y617D01*
X1124Y617D02*
X1130Y617D01*
X1046Y616D02*
X1052Y616D01*
X1074Y616D02*
X1080Y616D01*
X1124Y616D02*
X1130Y616D01*
X1046Y615D02*
X1052Y615D01*
X1074Y615D02*
X1080Y615D01*
X1124Y615D02*
X1130Y615D01*
X1046Y614D02*
X1052Y614D01*
X1074Y614D02*
X1080Y614D01*
X1124Y614D02*
X1130Y614D01*
X1046Y613D02*
X1052Y613D01*
X1074Y613D02*
X1080Y613D01*
X1124Y613D02*
X1130Y613D01*
X1046Y612D02*
X1052Y612D01*
X1074Y612D02*
X1080Y612D01*
X1124Y612D02*
X1130Y612D01*
X1046Y611D02*
X1052Y611D01*
X1074Y611D02*
X1080Y611D01*
X1124Y611D02*
X1130Y611D01*
X1046Y610D02*
X1052Y610D01*
X1073Y610D02*
X1080Y610D01*
X1124Y610D02*
X1130Y610D01*
X1046Y609D02*
X1052Y609D01*
X1073Y609D02*
X1080Y609D01*
X1124Y609D02*
X1130Y609D01*
X1046Y608D02*
X1052Y608D01*
X1071Y608D02*
X1079Y608D01*
X1124Y608D02*
X1130Y608D01*
X1046Y607D02*
X1079Y607D01*
X1124Y607D02*
X1130Y607D01*
X1046Y606D02*
X1078Y606D01*
X1124Y606D02*
X1130Y606D01*
X1046Y605D02*
X1078Y605D01*
X1124Y605D02*
X1130Y605D01*
X1046Y604D02*
X1077Y604D01*
X1123Y604D02*
X1130Y604D01*
X1046Y603D02*
X1076Y603D01*
X1123Y603D02*
X1130Y603D01*
X1046Y602D02*
X1074Y602D01*
X1120Y602D02*
X1129Y602D01*
X1046Y601D02*
X1071Y601D01*
X1104Y601D02*
X1129Y601D01*
X1046Y600D02*
X1052Y600D01*
X1059Y600D02*
X1066Y600D01*
X1104Y600D02*
X1128Y600D01*
X1046Y599D02*
X1052Y599D01*
X1059Y599D02*
X1066Y599D01*
X1103Y599D02*
X1128Y599D01*
X1046Y598D02*
X1052Y598D01*
X1060Y598D02*
X1067Y598D01*
X1103Y598D02*
X1127Y598D01*
X1046Y597D02*
X1052Y597D01*
X1060Y597D02*
X1067Y597D01*
X1103Y597D02*
X1128Y597D01*
X1046Y596D02*
X1052Y596D01*
X1061Y596D02*
X1068Y596D01*
X1104Y596D02*
X1129Y596D01*
X1046Y595D02*
X1052Y595D01*
X1061Y595D02*
X1069Y595D01*
X1106Y595D02*
X1129Y595D01*
X1046Y594D02*
X1052Y594D01*
X1062Y594D02*
X1069Y594D01*
X1123Y594D02*
X1129Y594D01*
X1046Y593D02*
X1052Y593D01*
X1063Y593D02*
X1070Y593D01*
X1123Y593D02*
X1130Y593D01*
X1046Y592D02*
X1052Y592D01*
X1063Y592D02*
X1070Y592D01*
X1124Y592D02*
X1130Y592D01*
X1046Y591D02*
X1052Y591D01*
X1064Y591D02*
X1071Y591D01*
X1124Y591D02*
X1130Y591D01*
X1046Y590D02*
X1052Y590D01*
X1064Y590D02*
X1072Y590D01*
X1124Y590D02*
X1130Y590D01*
X1046Y589D02*
X1052Y589D01*
X1065Y589D02*
X1072Y589D01*
X1124Y589D02*
X1130Y589D01*
X1046Y588D02*
X1052Y588D01*
X1066Y588D02*
X1073Y588D01*
X1124Y588D02*
X1130Y588D01*
X1046Y587D02*
X1052Y587D01*
X1066Y587D02*
X1073Y587D01*
X1124Y587D02*
X1130Y587D01*
X1046Y586D02*
X1052Y586D01*
X1067Y586D02*
X1074Y586D01*
X1124Y586D02*
X1130Y586D01*
X1046Y585D02*
X1052Y585D01*
X1067Y585D02*
X1074Y585D01*
X1124Y585D02*
X1130Y585D01*
X1046Y584D02*
X1052Y584D01*
X1068Y584D02*
X1075Y584D01*
X1124Y584D02*
X1130Y584D01*
X1046Y583D02*
X1052Y583D01*
X1068Y583D02*
X1076Y583D01*
X1124Y583D02*
X1130Y583D01*
X1046Y582D02*
X1052Y582D01*
X1069Y582D02*
X1076Y582D01*
X1124Y582D02*
X1130Y582D01*
X1046Y581D02*
X1052Y581D01*
X1070Y581D02*
X1077Y581D01*
X1124Y581D02*
X1130Y581D01*
X1046Y580D02*
X1052Y580D01*
X1070Y580D02*
X1077Y580D01*
X1124Y580D02*
X1130Y580D01*
X1046Y579D02*
X1052Y579D01*
X1071Y579D02*
X1078Y579D01*
X1124Y579D02*
X1130Y579D01*
X1046Y578D02*
X1052Y578D01*
X1071Y578D02*
X1079Y578D01*
X1098Y578D02*
X1130Y578D01*
X1046Y577D02*
X1052Y577D01*
X1072Y577D02*
X1079Y577D01*
X1097Y577D02*
X1130Y577D01*
X1046Y576D02*
X1052Y576D01*
X1073Y576D02*
X1080Y576D01*
X1096Y576D02*
X1129Y576D01*
X1046Y575D02*
X1052Y575D01*
X1073Y575D02*
X1080Y575D01*
X1096Y575D02*
X1129Y575D01*
X1046Y574D02*
X1052Y574D01*
X1074Y574D02*
X1080Y574D01*
X1096Y574D02*
X1128Y574D01*
X1047Y573D02*
X1052Y573D01*
X1074Y573D02*
X1079Y573D01*
X1097Y573D02*
X1127Y573D01*
X1048Y572D02*
X1051Y572D01*
X1075Y572D02*
X1078Y572D01*
X1098Y572D02*
X1126Y572D01*
X1046Y425D02*
X1073Y425D01*
X1100Y425D02*
X1102Y425D01*
X1046Y424D02*
X1075Y424D01*
X1099Y424D02*
X1103Y424D01*
X1046Y423D02*
X1076Y423D01*
X1098Y423D02*
X1104Y423D01*
X1046Y422D02*
X1077Y422D01*
X1098Y422D02*
X1104Y422D01*
X1046Y421D02*
X1078Y421D01*
X1098Y421D02*
X1104Y421D01*
X1046Y420D02*
X1079Y420D01*
X1098Y420D02*
X1104Y420D01*
X1046Y419D02*
X1079Y419D01*
X1098Y419D02*
X1104Y419D01*
X1120Y419D02*
X1123Y419D01*
X1046Y418D02*
X1052Y418D01*
X1072Y418D02*
X1079Y418D01*
X1098Y418D02*
X1104Y418D01*
X1119Y418D02*
X1124Y418D01*
X1046Y417D02*
X1052Y417D01*
X1073Y417D02*
X1080Y417D01*
X1098Y417D02*
X1104Y417D01*
X1119Y417D02*
X1124Y417D01*
X1046Y416D02*
X1052Y416D01*
X1074Y416D02*
X1080Y416D01*
X1098Y416D02*
X1104Y416D01*
X1119Y416D02*
X1125Y416D01*
X1046Y415D02*
X1052Y415D01*
X1074Y415D02*
X1080Y415D01*
X1098Y415D02*
X1104Y415D01*
X1119Y415D02*
X1125Y415D01*
X1046Y414D02*
X1052Y414D01*
X1074Y414D02*
X1080Y414D01*
X1098Y414D02*
X1104Y414D01*
X1119Y414D02*
X1125Y414D01*
X1046Y413D02*
X1052Y413D01*
X1074Y413D02*
X1080Y413D01*
X1098Y413D02*
X1104Y413D01*
X1119Y413D02*
X1125Y413D01*
X1046Y412D02*
X1052Y412D01*
X1074Y412D02*
X1080Y412D01*
X1098Y412D02*
X1104Y412D01*
X1119Y412D02*
X1125Y412D01*
X1046Y411D02*
X1052Y411D01*
X1074Y411D02*
X1080Y411D01*
X1098Y411D02*
X1104Y411D01*
X1119Y411D02*
X1125Y411D01*
X1046Y410D02*
X1052Y410D01*
X1073Y410D02*
X1080Y410D01*
X1098Y410D02*
X1104Y410D01*
X1119Y410D02*
X1125Y410D01*
X1046Y409D02*
X1052Y409D01*
X1073Y409D02*
X1080Y409D01*
X1098Y409D02*
X1104Y409D01*
X1119Y409D02*
X1125Y409D01*
X1046Y408D02*
X1053Y408D01*
X1071Y408D02*
X1079Y408D01*
X1098Y408D02*
X1104Y408D01*
X1119Y408D02*
X1125Y408D01*
X1046Y407D02*
X1079Y407D01*
X1098Y407D02*
X1104Y407D01*
X1119Y407D02*
X1125Y407D01*
X1046Y406D02*
X1078Y406D01*
X1098Y406D02*
X1104Y406D01*
X1119Y406D02*
X1125Y406D01*
X1046Y405D02*
X1078Y405D01*
X1098Y405D02*
X1104Y405D01*
X1119Y405D02*
X1125Y405D01*
X1046Y404D02*
X1077Y404D01*
X1098Y404D02*
X1104Y404D01*
X1119Y404D02*
X1125Y404D01*
X1046Y403D02*
X1076Y403D01*
X1098Y403D02*
X1104Y403D01*
X1119Y403D02*
X1125Y403D01*
X1046Y402D02*
X1074Y402D01*
X1098Y402D02*
X1104Y402D01*
X1119Y402D02*
X1125Y402D01*
X1046Y401D02*
X1071Y401D01*
X1098Y401D02*
X1104Y401D01*
X1119Y401D02*
X1125Y401D01*
X1046Y400D02*
X1052Y400D01*
X1059Y400D02*
X1066Y400D01*
X1098Y400D02*
X1104Y400D01*
X1119Y400D02*
X1125Y400D01*
X1046Y399D02*
X1052Y399D01*
X1059Y399D02*
X1066Y399D01*
X1098Y399D02*
X1104Y399D01*
X1119Y399D02*
X1125Y399D01*
X1046Y398D02*
X1052Y398D01*
X1060Y398D02*
X1067Y398D01*
X1098Y398D02*
X1104Y398D01*
X1119Y398D02*
X1125Y398D01*
X1046Y397D02*
X1052Y397D01*
X1060Y397D02*
X1068Y397D01*
X1098Y397D02*
X1104Y397D01*
X1119Y397D02*
X1125Y397D01*
X1046Y396D02*
X1052Y396D01*
X1061Y396D02*
X1068Y396D01*
X1098Y396D02*
X1125Y396D01*
X1046Y395D02*
X1052Y395D01*
X1061Y395D02*
X1069Y395D01*
X1098Y395D02*
X1127Y395D01*
X1046Y394D02*
X1052Y394D01*
X1062Y394D02*
X1069Y394D01*
X1098Y394D02*
X1128Y394D01*
X1046Y393D02*
X1052Y393D01*
X1063Y393D02*
X1070Y393D01*
X1098Y393D02*
X1128Y393D01*
X1046Y392D02*
X1052Y392D01*
X1063Y392D02*
X1070Y392D01*
X1098Y392D02*
X1128Y392D01*
X1046Y391D02*
X1052Y391D01*
X1064Y391D02*
X1071Y391D01*
X1098Y391D02*
X1128Y391D01*
X1046Y390D02*
X1052Y390D01*
X1064Y390D02*
X1072Y390D01*
X1098Y390D02*
X1127Y390D01*
X1046Y389D02*
X1052Y389D01*
X1065Y389D02*
X1072Y389D01*
X1118Y389D02*
X1125Y389D01*
X1046Y388D02*
X1052Y388D01*
X1066Y388D02*
X1073Y388D01*
X1119Y388D02*
X1125Y388D01*
X1046Y387D02*
X1052Y387D01*
X1066Y387D02*
X1073Y387D01*
X1119Y387D02*
X1125Y387D01*
X1046Y386D02*
X1052Y386D01*
X1067Y386D02*
X1074Y386D01*
X1119Y386D02*
X1125Y386D01*
X1046Y385D02*
X1052Y385D01*
X1067Y385D02*
X1075Y385D01*
X1119Y385D02*
X1125Y385D01*
X1046Y384D02*
X1052Y384D01*
X1068Y384D02*
X1075Y384D01*
X1119Y384D02*
X1125Y384D01*
X1046Y383D02*
X1052Y383D01*
X1068Y383D02*
X1076Y383D01*
X1119Y383D02*
X1125Y383D01*
X1046Y382D02*
X1052Y382D01*
X1069Y382D02*
X1076Y382D01*
X1119Y382D02*
X1125Y382D01*
X1046Y381D02*
X1052Y381D01*
X1070Y381D02*
X1077Y381D01*
X1119Y381D02*
X1125Y381D01*
X1046Y380D02*
X1052Y380D01*
X1070Y380D02*
X1077Y380D01*
X1119Y380D02*
X1125Y380D01*
X1046Y379D02*
X1052Y379D01*
X1071Y379D02*
X1078Y379D01*
X1119Y379D02*
X1125Y379D01*
X1046Y378D02*
X1052Y378D01*
X1071Y378D02*
X1079Y378D01*
X1119Y378D02*
X1125Y378D01*
X1046Y377D02*
X1052Y377D01*
X1072Y377D02*
X1079Y377D01*
X1119Y377D02*
X1125Y377D01*
X1046Y376D02*
X1052Y376D01*
X1073Y376D02*
X1080Y376D01*
X1119Y376D02*
X1125Y376D01*
X1046Y375D02*
X1052Y375D01*
X1073Y375D02*
X1080Y375D01*
X1119Y375D02*
X1125Y375D01*
X1046Y374D02*
X1052Y374D01*
X1074Y374D02*
X1080Y374D01*
X1119Y374D02*
X1124Y374D01*
X1047Y373D02*
X1052Y373D01*
X1074Y373D02*
X1079Y373D01*
X1119Y373D02*
X1124Y373D01*
X1048Y372D02*
X1051Y372D01*
X1075Y372D02*
X1078Y372D01*
X1120Y372D02*
X1123Y372D01*
X1210Y308D02*
X1217Y308D01*
X1208Y307D02*
X1219Y307D01*
X1207Y306D02*
X1220Y306D01*
X1207Y305D02*
X1220Y305D01*
X1207Y304D02*
X1220Y304D01*
X1208Y303D02*
X1220Y303D01*
X1215Y302D02*
X1220Y302D01*
X1215Y301D02*
X1220Y301D01*
X1215Y300D02*
X1220Y300D01*
X1215Y299D02*
X1220Y299D01*
X1215Y298D02*
X1220Y298D01*
X1215Y297D02*
X1220Y297D01*
X1215Y296D02*
X1220Y296D01*
X1215Y295D02*
X1220Y295D01*
X1252Y295D02*
X1266Y295D01*
X1293Y295D02*
X1304Y295D01*
X1310Y295D02*
X1313Y295D01*
X1334Y295D02*
X1348Y295D01*
X1215Y294D02*
X1220Y294D01*
X1250Y294D02*
X1267Y294D01*
X1291Y294D02*
X1305Y294D01*
X1309Y294D02*
X1313Y294D01*
X1333Y294D02*
X1349Y294D01*
X1215Y293D02*
X1220Y293D01*
X1249Y293D02*
X1268Y293D01*
X1290Y293D02*
X1307Y293D01*
X1309Y293D02*
X1314Y293D01*
X1331Y293D02*
X1351Y293D01*
X1215Y292D02*
X1220Y292D01*
X1248Y292D02*
X1270Y292D01*
X1289Y292D02*
X1314Y292D01*
X1330Y292D02*
X1352Y292D01*
X1215Y291D02*
X1220Y291D01*
X1247Y291D02*
X1271Y291D01*
X1288Y291D02*
X1314Y291D01*
X1329Y291D02*
X1353Y291D01*
X1215Y290D02*
X1220Y290D01*
X1247Y290D02*
X1254Y290D01*
X1264Y290D02*
X1271Y290D01*
X1287Y290D02*
X1295Y290D01*
X1302Y290D02*
X1314Y290D01*
X1329Y290D02*
X1336Y290D01*
X1346Y290D02*
X1353Y290D01*
X1215Y289D02*
X1220Y289D01*
X1246Y289D02*
X1252Y289D01*
X1266Y289D02*
X1272Y289D01*
X1287Y289D02*
X1293Y289D01*
X1303Y289D02*
X1314Y289D01*
X1328Y289D02*
X1334Y289D01*
X1348Y289D02*
X1354Y289D01*
X1215Y288D02*
X1220Y288D01*
X1246Y288D02*
X1251Y288D01*
X1267Y288D02*
X1272Y288D01*
X1286Y288D02*
X1292Y288D01*
X1305Y288D02*
X1314Y288D01*
X1328Y288D02*
X1333Y288D01*
X1349Y288D02*
X1354Y288D01*
X1215Y287D02*
X1220Y287D01*
X1245Y287D02*
X1250Y287D01*
X1267Y287D02*
X1272Y287D01*
X1286Y287D02*
X1291Y287D01*
X1306Y287D02*
X1314Y287D01*
X1327Y287D02*
X1332Y287D01*
X1349Y287D02*
X1355Y287D01*
X1215Y286D02*
X1220Y286D01*
X1245Y286D02*
X1250Y286D01*
X1268Y286D02*
X1272Y286D01*
X1286Y286D02*
X1291Y286D01*
X1307Y286D02*
X1314Y286D01*
X1327Y286D02*
X1332Y286D01*
X1350Y286D02*
X1355Y286D01*
X1215Y285D02*
X1220Y285D01*
X1245Y285D02*
X1250Y285D01*
X1268Y285D02*
X1273Y285D01*
X1286Y285D02*
X1291Y285D01*
X1308Y285D02*
X1314Y285D01*
X1327Y285D02*
X1332Y285D01*
X1350Y285D02*
X1355Y285D01*
X1215Y284D02*
X1220Y284D01*
X1245Y284D02*
X1250Y284D01*
X1268Y284D02*
X1273Y284D01*
X1286Y284D02*
X1291Y284D01*
X1309Y284D02*
X1314Y284D01*
X1327Y284D02*
X1332Y284D01*
X1350Y284D02*
X1355Y284D01*
X1215Y283D02*
X1220Y283D01*
X1245Y283D02*
X1250Y283D01*
X1268Y283D02*
X1273Y283D01*
X1286Y283D02*
X1291Y283D01*
X1309Y283D02*
X1314Y283D01*
X1327Y283D02*
X1332Y283D01*
X1350Y283D02*
X1355Y283D01*
X1215Y282D02*
X1220Y282D01*
X1245Y282D02*
X1250Y282D01*
X1268Y282D02*
X1273Y282D01*
X1286Y282D02*
X1291Y282D01*
X1309Y282D02*
X1314Y282D01*
X1327Y282D02*
X1332Y282D01*
X1350Y282D02*
X1355Y282D01*
X1215Y281D02*
X1220Y281D01*
X1245Y281D02*
X1250Y281D01*
X1268Y281D02*
X1273Y281D01*
X1286Y281D02*
X1291Y281D01*
X1309Y281D02*
X1314Y281D01*
X1327Y281D02*
X1332Y281D01*
X1350Y281D02*
X1355Y281D01*
X1215Y280D02*
X1220Y280D01*
X1245Y280D02*
X1250Y280D01*
X1268Y280D02*
X1273Y280D01*
X1286Y280D02*
X1291Y280D01*
X1309Y280D02*
X1314Y280D01*
X1327Y280D02*
X1332Y280D01*
X1350Y280D02*
X1355Y280D01*
X1215Y279D02*
X1220Y279D01*
X1245Y279D02*
X1250Y279D01*
X1268Y279D02*
X1273Y279D01*
X1286Y279D02*
X1291Y279D01*
X1309Y279D02*
X1314Y279D01*
X1327Y279D02*
X1332Y279D01*
X1350Y279D02*
X1355Y279D01*
X1215Y278D02*
X1220Y278D01*
X1245Y278D02*
X1250Y278D01*
X1268Y278D02*
X1273Y278D01*
X1286Y278D02*
X1291Y278D01*
X1309Y278D02*
X1314Y278D01*
X1327Y278D02*
X1332Y278D01*
X1350Y278D02*
X1355Y278D01*
X1215Y277D02*
X1220Y277D01*
X1245Y277D02*
X1250Y277D01*
X1268Y277D02*
X1273Y277D01*
X1286Y277D02*
X1291Y277D01*
X1308Y277D02*
X1314Y277D01*
X1327Y277D02*
X1332Y277D01*
X1350Y277D02*
X1355Y277D01*
X1215Y276D02*
X1220Y276D01*
X1245Y276D02*
X1250Y276D01*
X1268Y276D02*
X1273Y276D01*
X1286Y276D02*
X1291Y276D01*
X1307Y276D02*
X1314Y276D01*
X1327Y276D02*
X1332Y276D01*
X1350Y276D02*
X1355Y276D01*
X1215Y275D02*
X1220Y275D01*
X1245Y275D02*
X1250Y275D01*
X1268Y275D02*
X1273Y275D01*
X1286Y275D02*
X1291Y275D01*
X1306Y275D02*
X1314Y275D01*
X1327Y275D02*
X1332Y275D01*
X1350Y275D02*
X1355Y275D01*
X1215Y274D02*
X1220Y274D01*
X1245Y274D02*
X1250Y274D01*
X1268Y274D02*
X1273Y274D01*
X1287Y274D02*
X1292Y274D01*
X1305Y274D02*
X1314Y274D01*
X1327Y274D02*
X1332Y274D01*
X1350Y274D02*
X1355Y274D01*
X1215Y273D02*
X1220Y273D01*
X1245Y273D02*
X1250Y273D01*
X1268Y273D02*
X1272Y273D01*
X1287Y273D02*
X1293Y273D01*
X1304Y273D02*
X1314Y273D01*
X1327Y273D02*
X1332Y273D01*
X1350Y273D02*
X1355Y273D01*
X1215Y272D02*
X1220Y272D01*
X1245Y272D02*
X1251Y272D01*
X1267Y272D02*
X1272Y272D01*
X1287Y272D02*
X1295Y272D01*
X1302Y272D02*
X1314Y272D01*
X1327Y272D02*
X1333Y272D01*
X1349Y272D02*
X1354Y272D01*
X1215Y271D02*
X1220Y271D01*
X1246Y271D02*
X1252Y271D01*
X1266Y271D02*
X1272Y271D01*
X1288Y271D02*
X1314Y271D01*
X1328Y271D02*
X1334Y271D01*
X1348Y271D02*
X1354Y271D01*
X1215Y270D02*
X1220Y270D01*
X1246Y270D02*
X1253Y270D01*
X1265Y270D02*
X1272Y270D01*
X1289Y270D02*
X1314Y270D01*
X1328Y270D02*
X1335Y270D01*
X1347Y270D02*
X1354Y270D01*
X1209Y269D02*
X1227Y269D01*
X1247Y269D02*
X1271Y269D01*
X1290Y269D02*
X1307Y269D01*
X1309Y269D02*
X1314Y269D01*
X1329Y269D02*
X1353Y269D01*
X1207Y268D02*
X1228Y268D01*
X1247Y268D02*
X1270Y268D01*
X1291Y268D02*
X1306Y268D01*
X1309Y268D02*
X1314Y268D01*
X1330Y268D02*
X1352Y268D01*
X1207Y267D02*
X1228Y267D01*
X1248Y267D02*
X1269Y267D01*
X1293Y267D02*
X1304Y267D01*
X1309Y267D02*
X1314Y267D01*
X1331Y267D02*
X1351Y267D01*
X1207Y266D02*
X1229Y266D01*
X1250Y266D02*
X1268Y266D01*
X1296Y266D02*
X1301Y266D01*
X1309Y266D02*
X1314Y266D01*
X1332Y266D02*
X1350Y266D01*
X1207Y265D02*
X1228Y265D01*
X1251Y265D02*
X1267Y265D01*
X1309Y265D02*
X1314Y265D01*
X1333Y265D02*
X1349Y265D01*
X1208Y264D02*
X1227Y264D01*
X1253Y264D02*
X1265Y264D01*
X1309Y264D02*
X1314Y264D01*
X1335Y264D02*
X1347Y264D01*
X1309Y263D02*
X1314Y263D01*
X1309Y262D02*
X1314Y262D01*
X1309Y261D02*
X1314Y261D01*
X1308Y260D02*
X1313Y260D01*
X1307Y259D02*
X1313Y259D01*
X1306Y258D02*
X1313Y258D01*
X1291Y257D02*
X1312Y257D01*
X1290Y256D02*
X1311Y256D01*
X1289Y255D02*
X1310Y255D01*
X1289Y254D02*
X1309Y254D01*
X1289Y253D02*
X1308Y253D01*
X1290Y252D02*
X1306Y252D01*
D02*
G04 End of Silk1*
M02*